G04*
G04 #@! TF.GenerationSoftware,Altium Limited,Altium Designer,20.1.14 (287)*
G04*
G04 Layer_Color=16711935*
%FSLAX25Y25*%
%MOIN*%
G70*
G04*
G04 #@! TF.SameCoordinates,AD96D815-87A0-4BF7-847C-790837316B47*
G04*
G04*
G04 #@! TF.FilePolarity,Negative*
G04*
G01*
G75*
%ADD48C,0.06496*%
%ADD49R,0.06496X0.06496*%
%ADD50R,0.06496X0.06496*%
%ADD51R,0.10984X0.10984*%
%ADD52C,0.10984*%
%ADD53C,0.15551*%
%ADD54C,0.06102*%
%ADD55R,0.06102X0.06102*%
%ADD56R,0.06890X0.06890*%
%ADD57C,0.06890*%
%ADD58C,0.08071*%
%ADD59R,0.08071X0.08071*%
%ADD60O,0.04528X0.08465*%
%ADD61O,0.04528X0.08465*%
%ADD62C,0.10630*%
%ADD63R,0.06890X0.06890*%
%ADD64C,0.06890*%
%ADD65C,0.08268*%
%ADD66R,0.08268X0.08268*%
%ADD67C,0.07874*%
%ADD68C,0.16339*%
%ADD69C,0.02362*%
%ADD70C,0.04528*%
D48*
X305000Y49500D02*
D03*
X295000D02*
D03*
X285000D02*
D03*
X275000D02*
D03*
X269500Y11500D02*
D03*
X279500D02*
D03*
X289500D02*
D03*
X299500D02*
D03*
X309500D02*
D03*
X319500D02*
D03*
X329500D02*
D03*
X269500Y41500D02*
D03*
X279500D02*
D03*
X289500D02*
D03*
X299500D02*
D03*
X309500D02*
D03*
X319500D02*
D03*
X277000Y93000D02*
D03*
X287000D02*
D03*
X330500Y199500D02*
D03*
Y209500D02*
D03*
X261000Y327500D02*
D03*
Y317500D02*
D03*
Y307500D02*
D03*
Y297500D02*
D03*
X360000Y50322D02*
D03*
X370000Y60322D02*
D03*
X360000D02*
D03*
X370000Y70322D02*
D03*
X360000D02*
D03*
X370000Y80322D02*
D03*
X360000D02*
D03*
X370000Y90322D02*
D03*
X360000D02*
D03*
X370000Y100322D02*
D03*
X360000D02*
D03*
X370000Y110322D02*
D03*
X360000D02*
D03*
X370000Y120322D02*
D03*
X360000D02*
D03*
X333000Y127000D02*
D03*
X284000Y184000D02*
D03*
Y174000D02*
D03*
X265500Y184000D02*
D03*
Y174000D02*
D03*
X303500Y135000D02*
D03*
X316500Y118442D02*
D03*
Y128442D02*
D03*
X293500Y135000D02*
D03*
X283500D02*
D03*
X273500D02*
D03*
X303500Y105000D02*
D03*
X293500D02*
D03*
X283500D02*
D03*
D49*
X265000Y49500D02*
D03*
X267000Y93000D02*
D03*
D50*
X329500Y41500D02*
D03*
X330500Y189500D02*
D03*
X261000Y337500D02*
D03*
X370000Y50322D02*
D03*
X333000Y117000D02*
D03*
X284000Y164000D02*
D03*
X265500D02*
D03*
X273500Y105000D02*
D03*
X316500Y108442D02*
D03*
D51*
X64500Y207000D02*
D03*
D52*
X232610D02*
D03*
X64500Y152276D02*
D03*
Y124717D02*
D03*
X232610Y152276D02*
D03*
Y124717D02*
D03*
Y69992D02*
D03*
X64500D02*
D03*
X232610Y179835D02*
D03*
Y97157D02*
D03*
D53*
X61154Y29244D02*
D03*
X235957D02*
D03*
Y247748D02*
D03*
X61154D02*
D03*
D54*
X124500Y282500D02*
D03*
X167657Y281658D02*
D03*
X235000Y332842D02*
D03*
X208500Y302185D02*
D03*
X17500Y272343D02*
D03*
X18500Y294158D02*
D03*
X54000Y333343D02*
D03*
X325000Y68000D02*
D03*
Y98000D02*
D03*
X348000Y276849D02*
D03*
Y165050D02*
D03*
X323500Y290000D02*
D03*
X293500D02*
D03*
X293500Y300500D02*
D03*
X323500D02*
D03*
X282500Y206500D02*
D03*
X315167Y98000D02*
D03*
Y68000D02*
D03*
X306333D02*
D03*
Y98000D02*
D03*
X273000Y206500D02*
D03*
Y236500D02*
D03*
X282500D02*
D03*
X297500Y98000D02*
D03*
Y68000D02*
D03*
D55*
X124500Y302185D02*
D03*
X167657Y301343D02*
D03*
X235000Y313158D02*
D03*
X208500Y282500D02*
D03*
X17500Y252657D02*
D03*
X18500Y313843D02*
D03*
X54000Y313657D02*
D03*
X348000Y286848D02*
D03*
Y175050D02*
D03*
D56*
X87000Y329000D02*
D03*
D57*
X97000D02*
D03*
X107000D02*
D03*
D58*
X155480Y328374D02*
D03*
X145500D02*
D03*
D59*
X135520D02*
D03*
D60*
X348000Y53500D02*
D03*
X338000D02*
D03*
D61*
X343000D02*
D03*
D62*
X368000Y296849D02*
D03*
Y256849D02*
D03*
Y185050D02*
D03*
Y145050D02*
D03*
D63*
X330000Y331471D02*
D03*
D64*
Y321472D02*
D03*
X320000Y331471D02*
D03*
Y321472D02*
D03*
X310000Y331471D02*
D03*
Y321472D02*
D03*
X300000Y331471D02*
D03*
X290000D02*
D03*
X300000Y321472D02*
D03*
X290000D02*
D03*
D65*
X15728Y148157D02*
D03*
D66*
Y167842D02*
D03*
D67*
X17500Y125843D02*
D03*
Y106157D02*
D03*
Y54000D02*
D03*
Y34315D02*
D03*
D68*
X9843Y334646D02*
D03*
X251969Y281496D02*
D03*
X362205Y13780D02*
D03*
Y334646D02*
D03*
X9843Y13780D02*
D03*
D69*
X340500Y73500D02*
D03*
X315500Y218000D02*
D03*
X330500Y160500D02*
D03*
X292000Y79500D02*
D03*
X310500Y212500D02*
D03*
X320500Y198500D02*
D03*
X306000Y212564D02*
D03*
X316500Y199500D02*
D03*
X325500Y176000D02*
D03*
X328000Y226000D02*
D03*
X352500Y220500D02*
D03*
X301000Y176000D02*
D03*
X321000Y161000D02*
D03*
X316500Y142000D02*
D03*
X330000Y146500D02*
D03*
X284500Y292000D02*
D03*
X214000Y316000D02*
D03*
X262500Y198500D02*
D03*
X272500Y227500D02*
D03*
X260000Y214000D02*
D03*
X279500Y278000D02*
D03*
X319500Y233500D02*
D03*
X378000Y29000D02*
D03*
X275000Y127731D02*
D03*
X295500Y266000D02*
D03*
X307500Y252000D02*
D03*
X319000Y251500D02*
D03*
X329000Y258000D02*
D03*
X35000Y196500D02*
D03*
X23000Y236000D02*
D03*
X71500Y308000D02*
D03*
X83000Y291000D02*
D03*
X114500Y315000D02*
D03*
X115000Y306500D02*
D03*
X35000Y279000D02*
D03*
X5000Y194000D02*
D03*
X214580Y323920D02*
D03*
X277000Y65000D02*
D03*
X278000Y243000D02*
D03*
X355500Y320500D02*
D03*
X371500Y206000D02*
D03*
X370500Y247000D02*
D03*
X264000Y245000D02*
D03*
X317500Y178000D02*
D03*
X332370Y240000D02*
D03*
X302500Y268000D02*
D03*
X306000Y265000D02*
D03*
X314000D02*
D03*
D70*
X300000Y171397D02*
D03*
X359500Y206500D02*
D03*
X309500Y241000D02*
D03*
M02*
