G04*
G04 #@! TF.GenerationSoftware,Altium Limited,Altium Designer,20.1.14 (287)*
G04*
G04 Layer_Physical_Order=1*
G04 Layer_Color=255*
%FSLAX25Y25*%
%MOIN*%
G70*
G04*
G04 #@! TF.SameCoordinates,AD96D815-87A0-4BF7-847C-790837316B47*
G04*
G04*
G04 #@! TF.FilePolarity,Positive*
G04*
G01*
G75*
%ADD10C,0.00787*%
%ADD12C,0.02362*%
%ADD13C,0.01968*%
%ADD15C,0.01575*%
%ADD23R,0.03543X0.02953*%
%ADD39R,0.03937X0.03543*%
%ADD40R,0.04724X0.01181*%
%ADD41R,0.01181X0.04724*%
%ADD58C,0.08071*%
%ADD59R,0.08071X0.08071*%
%ADD67C,0.07874*%
%ADD71R,0.03543X0.03937*%
%ADD72R,0.05906X0.06102*%
%ADD73R,0.06102X0.05906*%
%ADD74R,0.03937X0.03543*%
%ADD75R,0.05118X0.05709*%
%ADD76O,0.07284X0.03543*%
%ADD77R,0.05709X0.05118*%
%ADD78R,0.05709X0.04134*%
%ADD79R,0.09843X0.03937*%
%ADD80R,0.09843X0.12992*%
%ADD81R,0.05906X0.05512*%
%ADD82R,0.05709X0.04724*%
%ADD83R,0.06102X0.04921*%
G04:AMPARAMS|DCode=84|XSize=25.59mil|YSize=64.96mil|CornerRadius=1.92mil|HoleSize=0mil|Usage=FLASHONLY|Rotation=0.000|XOffset=0mil|YOffset=0mil|HoleType=Round|Shape=RoundedRectangle|*
%AMROUNDEDRECTD84*
21,1,0.02559,0.06112,0,0,0.0*
21,1,0.02175,0.06496,0,0,0.0*
1,1,0.00384,0.01088,-0.03056*
1,1,0.00384,-0.01088,-0.03056*
1,1,0.00384,-0.01088,0.03056*
1,1,0.00384,0.01088,0.03056*
%
%ADD84ROUNDEDRECTD84*%
%ADD85R,0.04724X0.05709*%
%ADD86O,0.01378X0.06693*%
%ADD87O,0.03543X0.07284*%
%ADD88R,0.05512X0.05906*%
%ADD89R,0.03937X0.08661*%
%ADD90R,0.12992X0.08661*%
%ADD91R,0.05315X0.09252*%
%ADD92C,0.00400*%
%ADD93C,0.02953*%
%ADD94C,0.01181*%
%ADD95C,0.03937*%
%ADD96C,0.05906*%
%ADD97R,0.05906X0.05906*%
%ADD98R,0.05906X0.05906*%
%ADD99R,0.10394X0.10394*%
%ADD100C,0.10394*%
%ADD101C,0.14961*%
%ADD102C,0.05512*%
%ADD103R,0.05512X0.05512*%
%ADD104R,0.06299X0.06299*%
%ADD105C,0.06299*%
%ADD106O,0.03937X0.07874*%
%ADD107O,0.03937X0.07874*%
%ADD108C,0.10039*%
%ADD109R,0.06299X0.06299*%
%ADD110C,0.06299*%
%ADD111C,0.07677*%
%ADD112R,0.07677X0.07677*%
%ADD113C,0.15748*%
%ADD114C,0.01772*%
%ADD115C,0.03937*%
D10*
X336000Y58000D02*
X341043Y63043D01*
X261205Y55376D02*
X331734D01*
X334359Y58000D02*
X336000D01*
X250000Y58461D02*
Y244679D01*
X331734Y55376D02*
X334359Y58000D01*
X258643Y57938D02*
X261205Y55376D01*
X250523Y57938D02*
X258643D01*
X250000Y58461D02*
X250523Y57938D01*
X334179Y59500D02*
X335000D01*
X345822Y70322D01*
X252336Y59125D02*
X259135D01*
X261697Y56563D02*
X331242D01*
X251500Y59961D02*
Y244500D01*
X259135Y59125D02*
X261697Y56563D01*
X331242D02*
X334179Y59500D01*
X251500Y59961D02*
X252336Y59125D01*
X332179Y60500D02*
X333500D01*
X253000Y60961D02*
Y244000D01*
X262189Y57750D02*
X329430D01*
X332179Y60500D01*
X253000Y60961D02*
X253649Y60313D01*
X259626D02*
X262189Y57750D01*
X333500Y60500D02*
X353322Y80322D01*
X253649Y60313D02*
X259626D01*
X327617Y58938D02*
X330179Y61500D01*
X331500D01*
X262680Y58938D02*
X327617D01*
X254500Y61961D02*
Y243500D01*
X260118Y61500D02*
X262680Y58938D01*
X254500Y61961D02*
X254961Y61500D01*
X331500D02*
X360000Y90000D01*
X254961Y61500D02*
X260118D01*
X329000Y62000D02*
X340500Y73500D01*
X325887Y60125D02*
X327762Y62000D01*
X257092Y66205D02*
X263172Y60125D01*
X327762Y62000D02*
X329000D01*
X263172Y60125D02*
X325887D01*
X327083Y63000D02*
X358780Y94697D01*
X258280Y66697D02*
X261977Y63000D01*
X327000D02*
X327083D01*
X261977D02*
X263821D01*
X265508Y61313D02*
X325313D01*
X263821Y63000D02*
X265508Y61313D01*
X325313D02*
X327000Y63000D01*
X324821Y62500D02*
X358321Y96000D01*
X260000Y68500D02*
X266000Y62500D01*
X324821D01*
X343500Y117500D02*
X355500Y105500D01*
X345822Y70322D02*
X360000D01*
X353322Y80322D02*
X360000D01*
Y90000D02*
Y90322D01*
X370000D02*
Y90799D01*
X358780Y94697D02*
X366102D01*
X370000Y90799D01*
X372000Y96000D02*
X375000Y93000D01*
X358321Y96000D02*
X372000D01*
X260000Y187000D02*
X268500Y195500D01*
X294268Y236110D02*
X299390D01*
X370000Y80322D02*
X375000Y85322D01*
X268500Y208000D02*
X289500Y229000D01*
X299390Y236110D02*
X301584Y233916D01*
X260000Y68500D02*
Y187000D01*
X297151Y229000D02*
X299283Y231132D01*
X268500Y195500D02*
Y208000D01*
X299452Y231132D02*
X301584Y233263D01*
X375000Y85322D02*
Y93000D01*
X301584Y233263D02*
Y233916D01*
X299283Y231132D02*
X299452D01*
X289500Y229000D02*
X297151D01*
X81000Y282142D02*
X88358D01*
X90638Y280457D02*
X93000Y278095D01*
X90043Y280457D02*
X90638D01*
X88358Y282142D02*
X90043Y280457D01*
X274453Y76028D02*
X274650D01*
X278162Y72516D01*
X283736D01*
X286000Y70252D01*
Y68283D02*
Y70252D01*
X273075Y74650D02*
X274453Y76028D01*
X273075Y72035D02*
Y74650D01*
X271697Y70657D02*
X273075Y72035D01*
X271500Y70657D02*
X271697D01*
X325138Y170138D02*
X335453D01*
X332205Y174862D02*
X335453D01*
Y170138D02*
X340875Y175560D01*
Y193020D01*
X347213Y199358D01*
X339687Y221787D02*
X340503Y222603D01*
X339687Y179097D02*
Y221787D01*
X335453Y174862D02*
X339687Y179097D01*
X297484Y206220D02*
X297677Y206413D01*
Y209071D01*
X331122Y175945D02*
X332205Y174862D01*
X331122Y175945D02*
Y177928D01*
X318401Y190649D02*
X331122Y177928D01*
X310398Y190649D02*
X318401D01*
X297677Y203370D02*
X310398Y190649D01*
X297484Y206220D02*
X297677Y206413D01*
Y209071D01*
Y203370D02*
Y206028D01*
X297484Y206220D02*
X297677Y206028D01*
X320000Y165000D02*
X325138Y170138D01*
X309185Y165000D02*
X320000D01*
X307075Y167110D02*
X309185Y165000D01*
X307075Y167110D02*
Y167307D01*
X305697Y168685D02*
X307075Y167307D01*
X305500Y168685D02*
X305697D01*
X347213Y199358D02*
X348000D01*
X346571Y200000D02*
X346963Y199608D01*
X347213Y199358D01*
X257092Y66205D02*
Y240609D01*
X266009Y249526D01*
X284878D01*
X290419Y243984D01*
X294268D01*
X330312Y160312D02*
X330500Y160500D01*
X330312Y159508D02*
Y160312D01*
X326937Y156134D02*
X330312Y159508D01*
X319858Y226268D02*
Y232875D01*
Y219016D02*
Y226268D01*
X302142Y254858D02*
X305000Y252000D01*
X302142Y254858D02*
Y259732D01*
X305000Y252000D02*
X307500D01*
X269000Y263500D02*
Y299500D01*
X271500Y261000D02*
X294176D01*
X269000Y263500D02*
X271500Y261000D01*
X294176D02*
X307255Y247921D01*
X261000Y307500D02*
X269000Y299500D01*
X296950Y230697D02*
X298073Y231820D01*
X288101Y230697D02*
X296950D01*
X294268Y234142D02*
X294465Y233945D01*
X296977D02*
X297168Y233754D01*
X267280Y209876D02*
X288101Y230697D01*
X258280Y66697D02*
Y188305D01*
X297238Y233754D02*
X298073Y232920D01*
Y231820D02*
Y232920D01*
X294465Y233945D02*
X296977D01*
X258280Y188305D02*
X267280Y197305D01*
Y209876D01*
X297168Y233754D02*
X297238D01*
X294268Y240047D02*
X294315Y240000D01*
X308648Y241000D02*
X309500D01*
X307648Y240000D02*
X308648Y241000D01*
X294315Y240000D02*
X307648D01*
X286363Y191000D02*
Y216363D01*
X302000Y232000D02*
X309000D01*
X286363Y216363D02*
X298789Y228789D01*
X299424Y229424D02*
X302000Y232000D01*
X298789Y228959D02*
X299254Y229424D01*
X298789Y228789D02*
Y228959D01*
X299254Y229424D02*
X299424D01*
X315921Y218688D02*
Y226268D01*
X315500Y218266D02*
X315921Y218688D01*
X315500Y218000D02*
Y218266D01*
X331000Y214000D02*
X332413Y215413D01*
Y233630D01*
X331901Y234142D02*
X332413Y233630D01*
X330500Y209500D02*
X333813Y212813D01*
X327929Y237882D02*
X333351D01*
X333813Y212813D02*
Y237421D01*
X333351Y237882D02*
X333813Y237421D01*
X317961Y214000D02*
X331000D01*
X312839Y208878D02*
X317961Y214000D01*
X316639Y215238D02*
X330502D01*
X331225Y215961D02*
Y228680D01*
X310280Y208878D02*
X316639Y215238D01*
X330502D02*
X331225Y215961D01*
X315398Y206220D02*
X315591Y206413D01*
Y209071D01*
X328115Y210500D02*
X329115Y209500D01*
X315591Y209071D02*
X317020Y210500D01*
X328115D01*
X329115Y209500D02*
X330500D01*
X319543Y193500D02*
X324000Y189043D01*
X314500Y193500D02*
X319543D01*
X324000Y188972D02*
Y189043D01*
X327219Y185754D02*
X334539D01*
X324000Y188972D02*
X327219Y185754D01*
X322813Y188480D02*
X326727Y184566D01*
X327434D02*
X327500Y184500D01*
X326727Y184566D02*
X327434D01*
X322813Y188480D02*
Y188551D01*
X319363Y192000D02*
X322813Y188551D01*
X312069Y192000D02*
X319363D01*
X327500Y184500D02*
X336500D01*
X314500Y189000D02*
X318038D01*
X313032Y187531D02*
X314500Y189000D01*
X312839Y183780D02*
X312952Y183893D01*
Y186968D01*
X313032Y187048D01*
Y187531D01*
X318038Y189000D02*
X320516Y186523D01*
X300619Y203450D02*
X312069Y192000D01*
X336500Y184500D02*
X338500Y186500D01*
X300316Y203450D02*
X300619D01*
X300043Y203723D02*
X300316Y203450D01*
X300043Y203723D02*
Y206220D01*
X335000Y186215D02*
Y243500D01*
X334539Y185754D02*
X335000Y186215D01*
X307720Y200280D02*
X314500Y193500D01*
X326863Y193137D02*
X326863D01*
X315508Y194813D02*
X325187D01*
X326863Y193137D01*
X326863D02*
X330500Y189500D01*
X310393Y203032D02*
Y206107D01*
Y203032D02*
X310472Y202952D01*
Y199848D02*
X315508Y194813D01*
X310280Y206220D02*
X310393Y206107D01*
X310472Y199848D02*
Y202952D01*
X299849Y167500D02*
X304315D01*
X294500Y172849D02*
X299849Y167500D01*
X294500Y172849D02*
Y209925D01*
X296461Y211887D01*
X299594D01*
X292500Y171500D02*
X298500Y165500D01*
X292500Y171500D02*
Y209604D01*
X295969Y213074D01*
X304315Y167500D02*
X305500Y168685D01*
X298500Y110000D02*
Y165500D01*
X331255Y160312D02*
X334205Y157362D01*
X330688Y160312D02*
X331255D01*
X330500Y160500D02*
X330688Y160312D01*
X330441Y119559D02*
X333000Y117000D01*
X330441Y119559D02*
Y120059D01*
X305500Y145000D02*
X330441Y120059D01*
X305500Y145000D02*
Y168685D01*
X312000Y102008D02*
X315167Y98842D01*
X312000Y123942D02*
X316500Y128442D01*
X312000Y102008D02*
Y123942D01*
X261500Y75539D02*
Y170000D01*
X265500Y174000D01*
X261500Y75539D02*
X271697Y65342D01*
X277500Y103500D02*
Y167500D01*
Y103500D02*
X281000Y100000D01*
X265500Y179500D02*
X277500Y167500D01*
X265500Y179500D02*
Y184000D01*
X289754Y117067D02*
X292000Y114821D01*
X289754Y117067D02*
Y214499D01*
X294942Y219687D01*
X298500Y110000D02*
X303500Y105000D01*
X295969Y213074D02*
X296539D01*
X297000Y218500D02*
X306321D01*
X296539Y213074D02*
X297000Y213535D01*
Y218500D01*
X287550Y214050D02*
X294500Y221000D01*
X302000Y221461D02*
Y226126D01*
X294500Y221000D02*
X301539D01*
X302000Y221461D01*
Y226126D02*
X302142Y226268D01*
X284000Y184000D02*
X287550Y187550D01*
Y214050D01*
X294942Y219687D02*
X303452D01*
X292000Y106500D02*
X292231Y106269D01*
X292231D02*
X293500Y105000D01*
X292000Y106500D02*
Y114821D01*
X303913Y220149D02*
Y226071D01*
X303452Y219687D02*
X303913Y220149D01*
X308031Y220210D02*
Y226252D01*
X306321Y218500D02*
X308031Y220210D01*
Y226252D02*
X308047Y226268D01*
X310016D02*
Y230984D01*
X309000Y232000D02*
X310016Y230984D01*
X272500Y227500D02*
X277500Y232500D01*
X264098Y236043D02*
X272500Y227642D01*
X277500Y232500D02*
Y238039D01*
X250000Y244679D02*
X262883Y257562D01*
X251500Y244500D02*
X263375Y256375D01*
X253000Y244000D02*
X264000Y255000D01*
X286519Y257500D02*
X291112Y252907D01*
X286230Y257500D02*
X286519D01*
X262883Y257562D02*
X286168D01*
X286230Y257500D01*
X263375Y256375D02*
X285676D01*
X291577Y250474D01*
X285082Y255000D02*
X291577Y248505D01*
X264000Y255000D02*
X264321D01*
X285013D02*
X285082D01*
X264321D02*
X264508Y255187D01*
X284826D01*
X285013Y255000D01*
X254500Y243500D02*
X265000Y254000D01*
X284334D02*
X290137Y248196D01*
X265000Y254000D02*
X284334D01*
X291112Y252907D02*
Y252907D01*
Y252907D02*
X291964Y252055D01*
X292496Y247921D02*
X294268D01*
X291912Y248505D02*
X292496Y247921D01*
X291577Y248505D02*
X291912D01*
X291577Y250474D02*
X291912D01*
X292496Y249890D01*
X294268D01*
X294071Y252055D02*
X294268Y251858D01*
X291964Y252055D02*
X294071D01*
X341043Y63043D02*
X357279D01*
X343500Y187500D02*
X352500Y196500D01*
X343500Y117500D02*
Y187500D01*
X373061Y223939D02*
X375500Y221500D01*
X372937Y201492D02*
X375500Y204055D01*
Y221500D01*
X372937Y201000D02*
Y201492D01*
X343961Y200000D02*
X346571D01*
X343500Y200461D02*
Y209500D01*
Y200461D02*
X343961Y200000D01*
X345000Y211000D02*
Y214858D01*
X343500Y209500D02*
X345000Y211000D01*
X337497Y236003D02*
X345003D01*
X346500Y237500D01*
X336961Y234719D02*
X349096D01*
X336500Y227000D02*
X338500Y225000D01*
X348500Y234227D02*
X349044Y234771D01*
X336500Y227000D02*
Y234258D01*
X349505Y235233D02*
X349777Y235504D01*
X349044Y234771D02*
X349505Y235233D01*
X338500Y186500D02*
Y225000D01*
X336500Y234258D02*
X336961Y234719D01*
X348500Y212315D02*
X348648Y212462D01*
X348500Y207142D02*
Y212315D01*
Y224686D02*
X348648Y224537D01*
X348500Y224686D02*
Y234227D01*
X348000Y206642D02*
X348500Y207142D01*
X348648Y212462D02*
Y224537D01*
X351844Y237571D02*
X352434D01*
X349777Y235504D02*
X351844Y237571D01*
X342449Y250949D02*
Y285234D01*
X335000Y243500D02*
X342449Y250949D01*
X337000Y236500D02*
Y243321D01*
X340179Y246500D01*
X349000D01*
X340500Y251000D02*
Y336500D01*
X327732Y242016D02*
X331516D01*
X340500Y251000D01*
X332500Y251264D02*
Y318499D01*
X331126Y249890D02*
X332500Y251264D01*
X327732Y249890D02*
X331126D01*
X330000Y320999D02*
Y321472D01*
Y320999D02*
X332500Y318499D01*
X261000Y327500D02*
X272000Y338500D01*
X335000D02*
X339000Y334500D01*
X272000Y338500D02*
X335000D01*
X261000Y337500D02*
X263500Y340000D01*
X337000D02*
X340500Y336500D01*
X263500Y340000D02*
X337000D01*
X320000Y321472D02*
X328500Y312971D01*
X324405Y265405D02*
X328500Y269500D01*
Y312971D01*
X324405Y265405D02*
X324405D01*
X321827Y262827D02*
X324405Y265405D01*
X321827Y259732D02*
Y262827D01*
X295000Y318500D02*
X317890Y295610D01*
Y259732D02*
Y295610D01*
X300000Y317500D02*
X319858Y297642D01*
Y259732D02*
Y297642D01*
X300000Y317500D02*
Y321472D01*
X295000Y318500D02*
Y324000D01*
X297000Y326000D02*
X305471D01*
X295000Y324000D02*
X297000Y326000D01*
X305471D02*
X310000Y321472D01*
X290000Y320000D02*
Y321472D01*
X315000Y269507D02*
Y295000D01*
X290000Y320000D02*
X315000Y295000D01*
X261000Y317500D02*
X280716Y337216D01*
X333784D02*
X337000Y334000D01*
X280716Y337216D02*
X333784D01*
X337000Y251677D02*
Y334000D01*
X331276Y245953D02*
X337000Y251677D01*
X339000Y251709D02*
Y334500D01*
X331276Y243984D02*
X339000Y251709D01*
X337000Y236500D02*
X337497Y236003D01*
X315000Y269507D02*
X315921Y268586D01*
X54886Y207000D02*
X64500D01*
X309063Y41937D02*
X309500Y41500D01*
X319500Y41000D02*
Y41500D01*
X350646Y29000D02*
X358594D01*
X348287Y31358D02*
X350646Y29000D01*
X15728Y148157D02*
X16614Y147272D01*
Y126728D02*
X17500Y125843D01*
X286000Y70252D02*
X306333Y90585D01*
Y98000D01*
X303315Y104815D02*
X303500Y105000D01*
X298815Y104815D02*
X303315D01*
X287000Y93000D02*
X298815Y104815D01*
X277000Y93000D02*
X277000D01*
X284000Y100000D02*
X288500D01*
X277000Y93000D02*
X284000Y100000D01*
X281000D02*
X284000D01*
X288500D02*
X293500Y105000D01*
X286000Y68283D02*
Y70252D01*
X310500Y218563D02*
X313953Y222016D01*
X310500Y212500D02*
Y218563D01*
X320508Y206212D02*
X320516Y206220D01*
X320508Y198508D02*
Y206212D01*
X320500Y198500D02*
X320508Y198508D01*
X306000Y212564D02*
Y216500D01*
X317957Y203455D02*
Y206220D01*
X316500Y201998D02*
X317957Y203455D01*
X316500Y199500D02*
Y201998D01*
X312839Y199161D02*
Y206220D01*
X316000Y196000D02*
X327000D01*
X312839Y199161D02*
X316000Y196000D01*
X312839Y206220D02*
Y208878D01*
X327000Y196000D02*
X330500Y199500D01*
X307720Y200280D02*
Y206220D01*
X327732Y232173D02*
X331225Y228680D01*
X310280Y206220D02*
Y208878D01*
X302602Y206220D02*
Y208878D01*
X299594Y211887D02*
X302602Y208878D01*
X305161Y174339D02*
Y183780D01*
Y174339D02*
X305500Y174000D01*
X317957Y183780D02*
X320516D01*
X310280D02*
X310393Y183667D01*
Y180411D02*
Y183667D01*
Y180411D02*
X316803Y174000D01*
X317000D01*
X315591Y180929D02*
X317312Y179208D01*
X315591Y180929D02*
Y183587D01*
X315398Y183780D02*
X315591Y183587D01*
X317312Y178188D02*
X317500Y178000D01*
X317312Y178188D02*
Y179208D01*
X307720Y181122D02*
Y183780D01*
Y181122D02*
X309425Y179417D01*
Y175378D02*
Y179417D01*
Y175378D02*
X310803Y174000D01*
X311000D01*
X297484Y173913D02*
X300000Y171397D01*
X297484Y173913D02*
Y183780D01*
X320516D02*
Y186523D01*
X325535Y223535D02*
X328000Y226000D01*
X325535Y219378D02*
Y223535D01*
X324158Y218000D02*
X325535Y219378D01*
X318843Y218000D02*
X319858Y219016D01*
X321827Y226268D02*
X322024Y226071D01*
Y224299D02*
Y226071D01*
Y224299D02*
X322779Y223543D01*
Y219378D02*
Y223543D01*
Y219378D02*
X324158Y218000D01*
X327732Y234142D02*
X331901D01*
X340503Y222603D02*
X340965Y222142D01*
X340503Y222603D02*
Y230968D01*
X341000Y231465D01*
X340965Y222142D02*
X345000D01*
X352500Y196500D02*
Y220500D01*
X344063Y286848D02*
X348000D01*
X342449Y285234D02*
X344063Y286848D01*
X327732Y238079D02*
X327929Y237882D01*
X320835Y160835D02*
X321000Y161000D01*
X320835Y157512D02*
Y160835D01*
X334205Y157362D02*
X334500D01*
X326740Y156134D02*
X326937D01*
X319457D02*
X320835Y157512D01*
X319260Y156134D02*
X319457D01*
X315167Y98000D02*
Y98842D01*
X316500Y108442D02*
X316942Y108000D01*
X320634D01*
X325000Y98000D02*
Y103634D01*
X320634Y108000D02*
X325000Y103634D01*
X328106Y146500D02*
X330000D01*
X326740Y147866D02*
X328106Y146500D01*
X364822Y105500D02*
X370000Y100322D01*
X355500Y105500D02*
X364822D01*
X262500Y198500D02*
Y205343D01*
X264500Y217776D02*
X267776D01*
X272453Y222453D02*
Y227453D01*
X267776Y217776D02*
X272453Y222453D01*
Y227453D02*
X272500Y227500D01*
X264000Y236043D02*
X264098D01*
X272500Y227500D02*
Y227642D01*
X279961Y240500D02*
X285307D01*
X277500Y238039D02*
X279961Y240500D01*
X285307D02*
X287760Y238047D01*
X290137Y246876D02*
Y248196D01*
X291060Y245953D02*
X294268D01*
X290137Y246876D02*
X291060Y245953D01*
X262500Y205343D02*
X262697D01*
X264500Y222500D02*
Y228457D01*
X264000Y228957D02*
X264500Y228457D01*
X264205Y222500D02*
X264500D01*
X260000Y218295D02*
X264205Y222500D01*
X260000Y214000D02*
Y218295D01*
X262303Y210658D02*
X262500D01*
X260188Y212772D02*
X262303Y210658D01*
X260188Y212772D02*
Y213812D01*
X260000Y214000D02*
X260188Y213812D01*
X282500Y236500D02*
X286827Y232173D01*
X294268D01*
X295000Y282000D02*
X295535Y281465D01*
Y275508D02*
Y281465D01*
Y275508D02*
X295543Y275500D01*
X295500Y266000D02*
Y275457D01*
X295543Y275500D01*
X310016Y259732D02*
Y286984D01*
X307000Y290000D02*
X310016Y286984D01*
X293500Y290000D02*
X307000D01*
X293500Y300500D02*
X303500D01*
X311984Y292016D01*
Y259732D02*
Y292016D01*
X315921Y259732D02*
Y268586D01*
X373061Y232611D02*
Y234580D01*
Y223939D02*
Y232611D01*
X319500Y233234D02*
X319858Y232875D01*
X319500Y233234D02*
Y233500D01*
X44992Y287000D02*
X69008D01*
X370406Y29000D02*
X378000D01*
X294252Y238063D02*
X294268Y238079D01*
X287776Y238063D02*
X294252D01*
X287760Y238047D02*
X287776Y238063D01*
X300173Y259732D02*
Y261504D01*
X295677Y266000D02*
X300173Y261504D01*
X295500Y266000D02*
X295677D01*
X319624Y251858D02*
X327732D01*
X319266Y251500D02*
X319624Y251858D01*
X319000Y251500D02*
X319266D01*
X310962Y173962D02*
X311000Y174000D01*
X305500D02*
X305538Y173962D01*
X310962D01*
X329500Y41500D02*
X332059Y38941D01*
X382008Y41063D02*
X382500D01*
X380039Y39094D02*
X382008Y41063D01*
X380039Y35461D02*
Y39094D01*
X379578Y35000D02*
X380039Y35461D01*
X332520Y35000D02*
X379578D01*
X332059Y35461D02*
X332520Y35000D01*
X332059Y35461D02*
Y38941D01*
X307255Y247921D02*
X327732D01*
Y243984D02*
X331276D01*
X327732Y245953D02*
X331276D01*
X271500Y65342D02*
X271843Y65000D01*
X277000D01*
X273094Y245000D02*
X273185Y245091D01*
X357279Y63043D02*
X360000Y60322D01*
X381500Y49937D02*
X382500Y48937D01*
X381500Y49937D02*
Y238500D01*
X338603Y48414D02*
X345039Y41977D01*
X338603Y48414D02*
Y52897D01*
X345039Y40315D02*
Y41977D01*
Y40315D02*
X346713Y38642D01*
X338000Y53500D02*
X338603Y52897D01*
X271500Y65342D02*
X271697D01*
X306333Y68000D02*
X315167D01*
X346713Y38642D02*
X347500D01*
X376500Y243500D02*
X381500Y238500D01*
X360000Y243500D02*
X376500D01*
X313953Y222016D02*
Y226268D01*
X306000Y216500D02*
X311984Y222484D01*
Y226268D01*
X368061Y234580D02*
Y236090D01*
X367176Y236976D02*
X368061Y236090D01*
X366524Y236976D02*
X367176D01*
X360000Y243500D02*
X366524Y236976D01*
X369950Y229500D02*
X373061Y232611D01*
X352434Y229500D02*
X369950D01*
X345555Y243500D02*
X360000D01*
X341000Y239535D02*
X341590D01*
X345555Y243500D01*
X284059Y188697D02*
X286363Y191000D01*
X282469Y188697D02*
X284059D01*
X279000Y172108D02*
Y185228D01*
X282469Y188697D01*
X279137Y123972D02*
Y171971D01*
X283500Y105000D02*
Y119610D01*
X279137Y123972D02*
X283500Y119610D01*
X279000Y172108D02*
X279137Y171971D01*
X284000Y152000D02*
Y164000D01*
X327732Y240047D02*
X327756Y240024D01*
X332347D01*
X332370Y240000D01*
X304110Y259732D02*
Y266390D01*
X302500Y268000D02*
X304110Y266390D01*
X306039Y259772D02*
X306079Y259732D01*
X306039Y259772D02*
Y264961D01*
X306000Y265000D02*
X306039Y264961D01*
X313953Y259732D02*
X313976Y259756D01*
Y264976D01*
X314000Y265000D01*
X297500Y68000D02*
X306333D01*
X347500Y31358D02*
X348287D01*
X283500Y146185D02*
X284000Y146685D01*
X283500Y135000D02*
Y146185D01*
X303913Y226071D02*
X304110Y226268D01*
D12*
X235000Y313158D02*
X235191Y312966D01*
X261946D01*
X273185Y301727D01*
Y268909D02*
Y301727D01*
X33545Y296055D02*
X44992D01*
X216873Y295031D02*
X235000Y313158D01*
X86542Y295031D02*
X216873D01*
X85518Y296055D02*
X86542Y295031D01*
X47945Y296055D02*
X85518D01*
X44992D02*
X47945D01*
X274287Y81508D02*
Y86217D01*
Y81508D02*
X274453Y81343D01*
X273670Y86217D02*
Y89919D01*
X272466Y103966D02*
X273500Y105000D01*
X275000Y106500D01*
X272466Y91122D02*
Y103966D01*
Y91122D02*
X273670Y89919D01*
X274287Y86217D02*
X280469D01*
X274000D02*
X274287D01*
X287185Y79500D02*
X292000D01*
X286000Y80685D02*
X287185Y79500D01*
X304909Y174591D02*
X305161Y174339D01*
X280469Y86217D02*
X286000Y80685D01*
Y78717D02*
Y80685D01*
X301000Y176000D02*
X302409Y174591D01*
X304909D01*
X28620Y291130D02*
X33545Y296055D01*
X26039Y228658D02*
X27467D01*
X25055Y227673D02*
X26039Y228658D01*
X25055Y225311D02*
Y227673D01*
X28620Y229811D02*
Y291130D01*
X27467Y228658D02*
X28620Y229811D01*
X275000Y106500D02*
Y127731D01*
X7413Y236000D02*
Y242571D01*
X17500Y252657D01*
X6945Y225311D02*
X7179Y225545D01*
Y235766D01*
X7413Y236000D01*
X6945Y195945D02*
Y225311D01*
X5000Y194000D02*
X6945Y195945D01*
D13*
X98350Y309850D02*
X102075Y313575D01*
X94893Y309850D02*
X98350D01*
X102075Y313575D02*
X103532D01*
X93500Y308457D02*
X94893Y309850D01*
X103532Y313575D02*
X105500Y315543D01*
X106043Y315000D02*
X114500D01*
X105500Y315543D02*
X106043Y315000D01*
X107457Y306500D02*
X115000D01*
X105500Y308457D02*
X107457Y306500D01*
X329000Y254221D02*
Y258000D01*
X44992Y277945D02*
X61994D01*
X65081Y274858D01*
X81000D01*
X36055Y277945D02*
X44992D01*
X35000Y279000D02*
X36055Y277945D01*
D15*
X299500Y11500D02*
Y28197D01*
X295000Y32697D02*
X299500Y28197D01*
X295000Y32697D02*
Y49500D01*
X299500Y42750D02*
X305000Y48250D01*
X54000Y333343D02*
X102657D01*
X107000Y329000D01*
X135350Y311650D02*
Y328205D01*
X135520Y328374D01*
X135350Y311650D02*
X142000Y305000D01*
X164000D01*
X167657Y301343D01*
X155480Y318063D02*
Y328374D01*
X346500Y237500D02*
Y241039D01*
X346961Y241500D02*
X358109D01*
X346500Y241039D02*
X346961Y241500D01*
X340000Y342000D02*
X359500Y322500D01*
X155480Y328374D02*
X169106Y342000D01*
X340000D01*
X171006Y297500D02*
X183394D01*
X188079Y302185D01*
X86500Y298423D02*
Y311000D01*
X87523Y297399D02*
X170905D01*
X86500Y298423D02*
X87523Y297399D01*
X170905D02*
X171006Y297500D01*
X359500Y252000D02*
Y322500D01*
Y252000D02*
X364312Y247188D01*
X349000Y246500D02*
X355500Y253000D01*
X289685Y282000D02*
Y286815D01*
Y276728D02*
Y282000D01*
X213962Y316038D02*
X214000Y316000D01*
X213962Y316038D02*
Y318502D01*
X209780Y322685D02*
X213962Y318502D01*
X207909Y322685D02*
X209780D01*
X279500Y278000D02*
X279538Y277962D01*
Y275057D02*
Y277962D01*
Y275057D02*
X283815Y270779D01*
Y268909D02*
Y270779D01*
X364307Y191358D02*
Y200244D01*
X348000Y175050D02*
X364307Y191358D01*
Y200244D02*
X365063Y201000D01*
X359500Y206500D02*
X360055D01*
X363248Y203307D02*
X364307D01*
X360055Y206500D02*
X363248Y203307D01*
X368000Y207000D02*
Y212274D01*
X364307Y203307D02*
X368000Y207000D01*
Y212274D02*
X368061Y212336D01*
X364307Y201756D02*
Y202705D01*
X364312Y247188D02*
X370312D01*
X370500Y247000D01*
X124500Y302185D02*
Y330000D01*
X131500Y337000D02*
X152000D01*
X124500Y330000D02*
X131500Y337000D01*
X355500Y253000D02*
Y320500D01*
X81500Y314150D02*
X83272Y312378D01*
X85122D01*
X86500Y311000D01*
X288457Y275500D02*
X289685Y276728D01*
X284500Y292000D02*
X289685Y286815D01*
X214580Y323920D02*
Y331468D01*
X212732Y333315D02*
X214580Y331468D01*
X207909Y333315D02*
X212732D01*
X81500Y314150D02*
X81795D01*
X188079Y302185D02*
X208500D01*
X184091Y333315D02*
X184294D01*
X185567Y332042D01*
Y329680D02*
Y332042D01*
Y329680D02*
X208500Y306747D01*
Y302185D02*
Y306747D01*
X167657Y301343D02*
X184091Y317776D01*
Y322685D01*
X155410Y328445D02*
X155480Y328374D01*
X155410Y328445D02*
Y333591D01*
X152000Y337000D02*
X155410Y333591D01*
X155480Y318063D02*
X157043Y316500D01*
X81795Y314150D02*
X96646Y329000D01*
X97000D01*
X107000Y328945D02*
Y329000D01*
X93598Y315543D02*
X107000Y328945D01*
X93500Y315543D02*
X93598D01*
X278000Y243000D02*
X278188Y243188D01*
X282542D01*
X283815Y244461D01*
Y245091D01*
X358109Y241500D02*
X363061Y236548D01*
Y234580D02*
Y236548D01*
X373061Y207561D02*
Y212336D01*
X371500Y206000D02*
X373061Y207561D01*
X264000Y245000D02*
X273094D01*
D23*
X334500Y152638D02*
D03*
Y157362D02*
D03*
X264500Y222500D02*
D03*
Y217776D02*
D03*
X332500Y174862D02*
D03*
Y170138D02*
D03*
D39*
X326740Y147866D02*
D03*
Y156134D02*
D03*
X319260D02*
D03*
Y147866D02*
D03*
D40*
X327732Y251858D02*
D03*
Y253827D02*
D03*
X294268Y238079D02*
D03*
X327732Y236110D02*
D03*
Y249890D02*
D03*
Y247921D02*
D03*
Y245953D02*
D03*
Y243984D02*
D03*
Y242016D02*
D03*
Y240047D02*
D03*
Y238079D02*
D03*
Y234142D02*
D03*
Y232173D02*
D03*
X294268D02*
D03*
Y234142D02*
D03*
Y236110D02*
D03*
Y240047D02*
D03*
Y242016D02*
D03*
Y243984D02*
D03*
Y245953D02*
D03*
Y247921D02*
D03*
Y249890D02*
D03*
Y251858D02*
D03*
Y253827D02*
D03*
D41*
X319858Y226268D02*
D03*
X302142Y259732D02*
D03*
X321827Y226268D02*
D03*
X300173Y259732D02*
D03*
X308047D02*
D03*
X317890Y226268D02*
D03*
X300173D02*
D03*
X304110Y259732D02*
D03*
X306079D02*
D03*
X310016D02*
D03*
X311984D02*
D03*
X313953D02*
D03*
X315921D02*
D03*
X317890D02*
D03*
X319858D02*
D03*
X321827D02*
D03*
X315921Y226268D02*
D03*
X313953D02*
D03*
X311984D02*
D03*
X310016D02*
D03*
X308047D02*
D03*
X306079D02*
D03*
X304110D02*
D03*
X302142D02*
D03*
D58*
X155480Y328374D02*
D03*
X145500D02*
D03*
D59*
X135520D02*
D03*
D67*
X17500Y125843D02*
D03*
Y106157D02*
D03*
Y54000D02*
D03*
Y34315D02*
D03*
D71*
X289685Y282000D02*
D03*
X295000D02*
D03*
X324158Y218000D02*
D03*
X318843D02*
D03*
D72*
X288457Y275500D02*
D03*
X295543D02*
D03*
X157043Y316500D02*
D03*
X149957D02*
D03*
X14500Y236000D02*
D03*
X7413D02*
D03*
D73*
X264000Y236043D02*
D03*
Y228957D02*
D03*
X105500Y315543D02*
D03*
Y308457D02*
D03*
X93500Y315543D02*
D03*
Y308457D02*
D03*
D74*
X262500Y205343D02*
D03*
Y210658D02*
D03*
X317000Y168685D02*
D03*
X311000D02*
D03*
X305500Y174000D02*
D03*
X311000D02*
D03*
X274453Y81343D02*
D03*
X271500Y65342D02*
D03*
Y70657D02*
D03*
X317000Y174000D02*
D03*
X305500Y168685D02*
D03*
X284000Y152000D02*
D03*
Y146685D02*
D03*
X274453Y76028D02*
D03*
D75*
X135350Y316500D02*
D03*
X141650D02*
D03*
D76*
X207909Y322685D02*
D03*
Y333315D02*
D03*
X184091Y322685D02*
D03*
Y333315D02*
D03*
D77*
X81500Y314150D02*
D03*
Y307850D02*
D03*
D78*
X81000Y282142D02*
D03*
Y274858D02*
D03*
X345000Y214858D02*
D03*
Y222142D02*
D03*
X348000Y206642D02*
D03*
Y199358D02*
D03*
X347500Y38642D02*
D03*
Y31358D02*
D03*
D79*
X44992Y296055D02*
D03*
Y287000D02*
D03*
Y277945D02*
D03*
D80*
X69008Y287000D02*
D03*
D81*
X93000Y289906D02*
D03*
Y278095D02*
D03*
D82*
X382500Y41063D02*
D03*
Y48937D02*
D03*
D83*
X352434Y237571D02*
D03*
Y229500D02*
D03*
X341000Y231465D02*
D03*
Y239535D02*
D03*
D84*
X378061Y234580D02*
D03*
X373061D02*
D03*
X368061D02*
D03*
X363061D02*
D03*
X373061Y212336D02*
D03*
X368061D02*
D03*
X363061D02*
D03*
X378061D02*
D03*
D85*
X372937Y201000D02*
D03*
X365063D02*
D03*
D86*
X320516Y183780D02*
D03*
X317957D02*
D03*
X312839D02*
D03*
X307720D02*
D03*
X305161D02*
D03*
X320516Y206220D02*
D03*
X317957D02*
D03*
X315398D02*
D03*
X312839D02*
D03*
X310280D02*
D03*
X307720D02*
D03*
X305161D02*
D03*
X302602D02*
D03*
X300043D02*
D03*
X297484D02*
D03*
X315398Y183780D02*
D03*
X310280D02*
D03*
X302602D02*
D03*
X300043D02*
D03*
X297484D02*
D03*
D87*
X283815Y268909D02*
D03*
X273185Y245091D02*
D03*
X283815D02*
D03*
X273185Y268909D02*
D03*
D88*
X370406Y29000D02*
D03*
X358594D02*
D03*
D89*
X16000Y225311D02*
D03*
X6945D02*
D03*
X25055D02*
D03*
D90*
X16000Y201689D02*
D03*
D91*
X286000Y78717D02*
D03*
Y68283D02*
D03*
D92*
X299500Y41500D02*
Y42750D01*
X305000Y48250D02*
Y49500D01*
X330500Y142000D02*
X334500Y146000D01*
X316500Y142000D02*
X316500Y142000D01*
X330500D01*
X316500Y142000D02*
Y145106D01*
X319063Y147866D02*
X319260D01*
X317491Y146294D02*
X319063Y147866D01*
X317491Y146098D02*
Y146294D01*
X316500Y145106D02*
X317491Y146098D01*
X334500Y146000D02*
Y152638D01*
D93*
X141650Y316500D02*
X149957D01*
Y323917D01*
X145500Y328374D02*
X149957Y323917D01*
X16000Y201689D02*
X29811D01*
X35000Y196500D01*
X14500Y236000D02*
X23000D01*
X14500D02*
X15976Y234524D01*
Y232719D02*
Y234524D01*
Y232719D02*
X16000Y232696D01*
Y225311D02*
Y232696D01*
X71650Y307850D02*
X81500D01*
X71500Y308000D02*
X71650Y307850D01*
X84095Y289906D02*
X93000D01*
X83000Y291000D02*
X84095Y289906D01*
X69008Y287000D02*
X79000D01*
X83000Y291000D01*
D94*
X317000Y168685D02*
X317197D01*
X311000D02*
X317000D01*
X320516Y172004D02*
Y182011D01*
X325500Y176000D02*
Y178795D01*
X320516Y182102D02*
Y183780D01*
Y182102D02*
X320607Y182011D01*
X322285D01*
X325500Y178795D01*
X317197Y168685D02*
X320516Y172004D01*
D95*
X15728Y167842D02*
X54886Y207000D01*
X16614Y126728D02*
Y147272D01*
X33492Y69992D02*
X64500D01*
X17500Y34315D02*
Y54000D01*
X33492Y69992D01*
X17500Y106157D02*
Y125843D01*
Y147386D02*
X17772Y147658D01*
X64500Y124717D02*
Y152276D01*
D96*
X305000Y49500D02*
D03*
X295000D02*
D03*
X285000D02*
D03*
X275000D02*
D03*
X269500Y11500D02*
D03*
X279500D02*
D03*
X289500D02*
D03*
X299500D02*
D03*
X309500D02*
D03*
X319500D02*
D03*
X329500D02*
D03*
X269500Y41500D02*
D03*
X279500D02*
D03*
X289500D02*
D03*
X299500D02*
D03*
X309500D02*
D03*
X319500D02*
D03*
X277000Y93000D02*
D03*
X287000D02*
D03*
X330500Y199500D02*
D03*
Y209500D02*
D03*
X261000Y327500D02*
D03*
Y317500D02*
D03*
Y307500D02*
D03*
Y297500D02*
D03*
X360000Y50322D02*
D03*
X370000Y60322D02*
D03*
X360000D02*
D03*
X370000Y70322D02*
D03*
X360000D02*
D03*
X370000Y80322D02*
D03*
X360000D02*
D03*
X370000Y90322D02*
D03*
X360000D02*
D03*
X370000Y100322D02*
D03*
X360000D02*
D03*
X370000Y110322D02*
D03*
X360000D02*
D03*
X370000Y120322D02*
D03*
X360000D02*
D03*
X333000Y127000D02*
D03*
X284000Y184000D02*
D03*
Y174000D02*
D03*
X265500Y184000D02*
D03*
Y174000D02*
D03*
X303500Y135000D02*
D03*
X316500Y118442D02*
D03*
Y128442D02*
D03*
X293500Y135000D02*
D03*
X283500D02*
D03*
X273500D02*
D03*
X303500Y105000D02*
D03*
X293500D02*
D03*
X283500D02*
D03*
D97*
X265000Y49500D02*
D03*
X267000Y93000D02*
D03*
D98*
X329500Y41500D02*
D03*
X330500Y189500D02*
D03*
X261000Y337500D02*
D03*
X370000Y50322D02*
D03*
X333000Y117000D02*
D03*
X284000Y164000D02*
D03*
X265500D02*
D03*
X273500Y105000D02*
D03*
X316500Y108442D02*
D03*
D99*
X64500Y207000D02*
D03*
D100*
X232610D02*
D03*
X64500Y152276D02*
D03*
Y124717D02*
D03*
X232610Y152276D02*
D03*
Y124717D02*
D03*
Y69992D02*
D03*
X64500D02*
D03*
X232610Y179835D02*
D03*
Y97157D02*
D03*
D101*
X61154Y29244D02*
D03*
X235957D02*
D03*
Y247748D02*
D03*
X61154D02*
D03*
D102*
X124500Y282500D02*
D03*
X167657Y281658D02*
D03*
X235000Y332842D02*
D03*
X208500Y302185D02*
D03*
X17500Y272343D02*
D03*
X18500Y294158D02*
D03*
X54000Y333343D02*
D03*
X325000Y68000D02*
D03*
Y98000D02*
D03*
X348000Y276849D02*
D03*
Y165050D02*
D03*
X323500Y290000D02*
D03*
X293500D02*
D03*
X293500Y300500D02*
D03*
X323500D02*
D03*
X282500Y206500D02*
D03*
X315167Y98000D02*
D03*
Y68000D02*
D03*
X306333D02*
D03*
Y98000D02*
D03*
X273000Y206500D02*
D03*
Y236500D02*
D03*
X282500D02*
D03*
X297500Y98000D02*
D03*
Y68000D02*
D03*
D103*
X124500Y302185D02*
D03*
X167657Y301343D02*
D03*
X235000Y313158D02*
D03*
X208500Y282500D02*
D03*
X17500Y252657D02*
D03*
X18500Y313843D02*
D03*
X54000Y313657D02*
D03*
X348000Y286848D02*
D03*
Y175050D02*
D03*
D104*
X87000Y329000D02*
D03*
D105*
X97000D02*
D03*
X107000D02*
D03*
D106*
X348000Y53500D02*
D03*
X338000D02*
D03*
D107*
X343000D02*
D03*
D108*
X368000Y296849D02*
D03*
Y256849D02*
D03*
Y185050D02*
D03*
Y145050D02*
D03*
D109*
X330000Y331471D02*
D03*
D110*
Y321472D02*
D03*
X320000Y331471D02*
D03*
Y321472D02*
D03*
X310000Y331471D02*
D03*
Y321472D02*
D03*
X300000Y331471D02*
D03*
X290000D02*
D03*
X300000Y321472D02*
D03*
X290000D02*
D03*
D111*
X15728Y148157D02*
D03*
D112*
Y167842D02*
D03*
D113*
X9843Y334646D02*
D03*
X251969Y281496D02*
D03*
X362205Y13780D02*
D03*
Y334646D02*
D03*
X9843Y13780D02*
D03*
D114*
X340500Y73500D02*
D03*
X315500Y218000D02*
D03*
X330500Y160500D02*
D03*
X292000Y79500D02*
D03*
X310500Y212500D02*
D03*
X320500Y198500D02*
D03*
X306000Y212564D02*
D03*
X316500Y199500D02*
D03*
X325500Y176000D02*
D03*
X328000Y226000D02*
D03*
X352500Y220500D02*
D03*
X301000Y176000D02*
D03*
X321000Y161000D02*
D03*
X316500Y142000D02*
D03*
X330000Y146500D02*
D03*
X284500Y292000D02*
D03*
X214000Y316000D02*
D03*
X262500Y198500D02*
D03*
X272500Y227500D02*
D03*
X260000Y214000D02*
D03*
X279500Y278000D02*
D03*
X319500Y233500D02*
D03*
X378000Y29000D02*
D03*
X275000Y127731D02*
D03*
X295500Y266000D02*
D03*
X307500Y252000D02*
D03*
X319000Y251500D02*
D03*
X329000Y258000D02*
D03*
X35000Y196500D02*
D03*
X23000Y236000D02*
D03*
X71500Y308000D02*
D03*
X83000Y291000D02*
D03*
X114500Y315000D02*
D03*
X115000Y306500D02*
D03*
X35000Y279000D02*
D03*
X5000Y194000D02*
D03*
X214580Y323920D02*
D03*
X277000Y65000D02*
D03*
X278000Y243000D02*
D03*
X355500Y320500D02*
D03*
X371500Y206000D02*
D03*
X370500Y247000D02*
D03*
X264000Y245000D02*
D03*
X317500Y178000D02*
D03*
X332370Y240000D02*
D03*
X302500Y268000D02*
D03*
X306000Y265000D02*
D03*
X314000D02*
D03*
D115*
X300000Y171397D02*
D03*
X359500Y206500D02*
D03*
X309500Y241000D02*
D03*
M02*
