G04*
G04 #@! TF.GenerationSoftware,Altium Limited,Altium Designer,20.1.14 (287)*
G04*
G04 Layer_Color=16711935*
%FSLAX25Y25*%
%MOIN*%
G70*
G04*
G04 #@! TF.SameCoordinates,DD9DAAA6-87D7-4B0E-BF1D-CD2AD6DAE19A*
G04*
G04*
G04 #@! TF.FilePolarity,Positive*
G04*
G01*
G75*
%ADD10C,0.00787*%
G36*
X334470Y158051D02*
X334467D01*
X334457D01*
X334441D01*
X334421Y158053D01*
X334398Y158056D01*
X334373Y158061D01*
X334347Y158066D01*
X334319Y158076D01*
X334316D01*
X334314Y158079D01*
X334299Y158084D01*
X334276Y158094D01*
X334245Y158109D01*
X334209Y158130D01*
X334169Y158155D01*
X334128Y158183D01*
X334084Y158219D01*
X334082D01*
X334079Y158224D01*
X334064Y158237D01*
X334041Y158260D01*
X334008Y158293D01*
X333970Y158331D01*
X333924Y158379D01*
X333873Y158438D01*
X333819Y158502D01*
X333817Y158504D01*
X333809Y158515D01*
X333796Y158530D01*
X333781Y158548D01*
X333761Y158571D01*
X333738Y158599D01*
X333712Y158627D01*
X333684Y158660D01*
X333623Y158724D01*
X333562Y158788D01*
X333531Y158818D01*
X333501Y158846D01*
X333472Y158872D01*
X333444Y158892D01*
X333442D01*
X333439Y158897D01*
X333432Y158902D01*
X333421Y158907D01*
X333393Y158925D01*
X333360Y158946D01*
X333319Y158964D01*
X333276Y158981D01*
X333228Y158992D01*
X333182Y158997D01*
X333179D01*
X333177D01*
X333161Y158994D01*
X333136Y158992D01*
X333108Y158984D01*
X333072Y158974D01*
X333036Y158956D01*
X333001Y158933D01*
X332965Y158902D01*
X332960Y158897D01*
X332950Y158884D01*
X332937Y158867D01*
X332919Y158838D01*
X332904Y158803D01*
X332889Y158762D01*
X332878Y158714D01*
X332876Y158660D01*
Y158645D01*
X332878Y158634D01*
X332881Y158604D01*
X332889Y158568D01*
X332899Y158530D01*
X332916Y158487D01*
X332939Y158446D01*
X332970Y158408D01*
X332975Y158403D01*
X332988Y158392D01*
X333008Y158377D01*
X333039Y158362D01*
X333075Y158344D01*
X333120Y158328D01*
X333172Y158318D01*
X333230Y158313D01*
X333207Y158091D01*
X333205D01*
X333197Y158094D01*
X333184D01*
X333166Y158097D01*
X333146Y158102D01*
X333123Y158107D01*
X333095Y158114D01*
X333067Y158122D01*
X333006Y158142D01*
X332944Y158173D01*
X332914Y158191D01*
X332883Y158214D01*
X332855Y158237D01*
X332830Y158262D01*
X332827Y158265D01*
X332825Y158270D01*
X332817Y158277D01*
X332809Y158290D01*
X332799Y158306D01*
X332789Y158323D01*
X332776Y158344D01*
X332764Y158369D01*
X332751Y158397D01*
X332738Y158428D01*
X332728Y158461D01*
X332718Y158497D01*
X332710Y158535D01*
X332702Y158576D01*
X332700Y158619D01*
X332697Y158665D01*
Y158691D01*
X332700Y158709D01*
X332702Y158729D01*
X332705Y158754D01*
X332710Y158782D01*
X332715Y158810D01*
X332733Y158877D01*
X332758Y158943D01*
X332774Y158976D01*
X332792Y159009D01*
X332815Y159040D01*
X332840Y159068D01*
X332842Y159071D01*
X332845Y159076D01*
X332855Y159081D01*
X332866Y159091D01*
X332878Y159104D01*
X332896Y159116D01*
X332914Y159129D01*
X332937Y159144D01*
X332985Y159170D01*
X333047Y159195D01*
X333077Y159206D01*
X333113Y159211D01*
X333149Y159216D01*
X333187Y159219D01*
X333192D01*
X333205D01*
X333225Y159216D01*
X333253Y159213D01*
X333284Y159208D01*
X333319Y159198D01*
X333358Y159188D01*
X333396Y159173D01*
X333401Y159170D01*
X333414Y159165D01*
X333434Y159155D01*
X333462Y159139D01*
X333493Y159119D01*
X333531Y159093D01*
X333569Y159063D01*
X333613Y159027D01*
X333618Y159022D01*
X333633Y159009D01*
X333646Y158997D01*
X333659Y158984D01*
X333674Y158969D01*
X333694Y158948D01*
X333715Y158928D01*
X333738Y158902D01*
X333763Y158877D01*
X333791Y158846D01*
X333819Y158813D01*
X333852Y158777D01*
X333886Y158737D01*
X333921Y158696D01*
X333924Y158693D01*
X333929Y158688D01*
X333937Y158678D01*
X333947Y158665D01*
X333962Y158650D01*
X333977Y158632D01*
X334010Y158591D01*
X334049Y158548D01*
X334087Y158507D01*
X334120Y158471D01*
X334133Y158456D01*
X334146Y158443D01*
X334148Y158441D01*
X334156Y158433D01*
X334166Y158423D01*
X334181Y158410D01*
X334199Y158397D01*
X334217Y158382D01*
X334260Y158352D01*
Y159221D01*
X334470D01*
Y158051D01*
D02*
G37*
G36*
Y156679D02*
X334467D01*
X334457D01*
X334441D01*
X334421Y156681D01*
X334398Y156684D01*
X334373Y156689D01*
X334347Y156694D01*
X334319Y156704D01*
X334316D01*
X334314Y156707D01*
X334299Y156712D01*
X334276Y156722D01*
X334245Y156737D01*
X334209Y156758D01*
X334169Y156783D01*
X334128Y156811D01*
X334084Y156847D01*
X334082D01*
X334079Y156852D01*
X334064Y156865D01*
X334041Y156888D01*
X334008Y156921D01*
X333970Y156959D01*
X333924Y157008D01*
X333873Y157066D01*
X333819Y157130D01*
X333817Y157133D01*
X333809Y157143D01*
X333796Y157158D01*
X333781Y157176D01*
X333761Y157199D01*
X333738Y157227D01*
X333712Y157255D01*
X333684Y157288D01*
X333623Y157352D01*
X333562Y157416D01*
X333531Y157446D01*
X333501Y157474D01*
X333472Y157500D01*
X333444Y157520D01*
X333442D01*
X333439Y157525D01*
X333432Y157530D01*
X333421Y157536D01*
X333393Y157553D01*
X333360Y157574D01*
X333319Y157592D01*
X333276Y157609D01*
X333228Y157620D01*
X333182Y157625D01*
X333179D01*
X333177D01*
X333161Y157622D01*
X333136Y157620D01*
X333108Y157612D01*
X333072Y157602D01*
X333036Y157584D01*
X333001Y157561D01*
X332965Y157530D01*
X332960Y157525D01*
X332950Y157512D01*
X332937Y157495D01*
X332919Y157467D01*
X332904Y157431D01*
X332889Y157390D01*
X332878Y157342D01*
X332876Y157288D01*
Y157273D01*
X332878Y157263D01*
X332881Y157232D01*
X332889Y157196D01*
X332899Y157158D01*
X332916Y157115D01*
X332939Y157074D01*
X332970Y157036D01*
X332975Y157031D01*
X332988Y157020D01*
X333008Y157005D01*
X333039Y156990D01*
X333075Y156972D01*
X333120Y156957D01*
X333172Y156946D01*
X333230Y156941D01*
X333207Y156720D01*
X333205D01*
X333197Y156722D01*
X333184D01*
X333166Y156725D01*
X333146Y156730D01*
X333123Y156735D01*
X333095Y156742D01*
X333067Y156750D01*
X333006Y156771D01*
X332944Y156801D01*
X332914Y156819D01*
X332883Y156842D01*
X332855Y156865D01*
X332830Y156890D01*
X332827Y156893D01*
X332825Y156898D01*
X332817Y156906D01*
X332809Y156918D01*
X332799Y156934D01*
X332789Y156951D01*
X332776Y156972D01*
X332764Y156997D01*
X332751Y157026D01*
X332738Y157056D01*
X332728Y157089D01*
X332718Y157125D01*
X332710Y157163D01*
X332702Y157204D01*
X332700Y157247D01*
X332697Y157293D01*
Y157319D01*
X332700Y157337D01*
X332702Y157357D01*
X332705Y157383D01*
X332710Y157411D01*
X332715Y157439D01*
X332733Y157505D01*
X332758Y157571D01*
X332774Y157604D01*
X332792Y157638D01*
X332815Y157668D01*
X332840Y157696D01*
X332842Y157699D01*
X332845Y157704D01*
X332855Y157709D01*
X332866Y157719D01*
X332878Y157732D01*
X332896Y157745D01*
X332914Y157757D01*
X332937Y157773D01*
X332985Y157798D01*
X333047Y157824D01*
X333077Y157834D01*
X333113Y157839D01*
X333149Y157844D01*
X333187Y157847D01*
X333192D01*
X333205D01*
X333225Y157844D01*
X333253Y157842D01*
X333284Y157836D01*
X333319Y157826D01*
X333358Y157816D01*
X333396Y157801D01*
X333401Y157798D01*
X333414Y157793D01*
X333434Y157783D01*
X333462Y157767D01*
X333493Y157747D01*
X333531Y157722D01*
X333569Y157691D01*
X333613Y157655D01*
X333618Y157650D01*
X333633Y157638D01*
X333646Y157625D01*
X333659Y157612D01*
X333674Y157597D01*
X333694Y157576D01*
X333715Y157556D01*
X333738Y157530D01*
X333763Y157505D01*
X333791Y157474D01*
X333819Y157441D01*
X333852Y157405D01*
X333886Y157365D01*
X333921Y157324D01*
X333924Y157321D01*
X333929Y157316D01*
X333937Y157306D01*
X333947Y157293D01*
X333962Y157278D01*
X333977Y157260D01*
X334010Y157219D01*
X334049Y157176D01*
X334087Y157135D01*
X334120Y157099D01*
X334133Y157084D01*
X334146Y157071D01*
X334148Y157069D01*
X334156Y157061D01*
X334166Y157051D01*
X334181Y157038D01*
X334199Y157026D01*
X334217Y157010D01*
X334260Y156980D01*
Y157849D01*
X334470D01*
Y156679D01*
D02*
G37*
G36*
X333924Y156508D02*
X333939Y156503D01*
X333960Y156495D01*
X333982Y156487D01*
X334010Y156477D01*
X334041Y156465D01*
X334074Y156449D01*
X334146Y156413D01*
X334217Y156368D01*
X334253Y156340D01*
X334288Y156312D01*
X334319Y156281D01*
X334350Y156245D01*
X334352Y156243D01*
X334357Y156237D01*
X334362Y156225D01*
X334373Y156212D01*
X334385Y156192D01*
X334398Y156171D01*
X334411Y156143D01*
X334423Y156115D01*
X334439Y156082D01*
X334452Y156046D01*
X334464Y156008D01*
X334477Y155967D01*
X334487Y155924D01*
X334492Y155878D01*
X334497Y155830D01*
X334500Y155779D01*
Y155751D01*
X334497Y155730D01*
Y155707D01*
X334495Y155679D01*
X334490Y155649D01*
X334485Y155613D01*
X334472Y155539D01*
X334452Y155462D01*
X334423Y155386D01*
X334406Y155350D01*
X334385Y155314D01*
X334383Y155312D01*
X334380Y155307D01*
X334373Y155297D01*
X334362Y155286D01*
X334352Y155271D01*
X334337Y155253D01*
X334319Y155233D01*
X334299Y155212D01*
X334276Y155192D01*
X334253Y155169D01*
X334194Y155123D01*
X334125Y155080D01*
X334049Y155042D01*
X334046D01*
X334038Y155036D01*
X334026Y155034D01*
X334010Y155026D01*
X333990Y155021D01*
X333965Y155014D01*
X333937Y155003D01*
X333906Y154996D01*
X333873Y154988D01*
X333835Y154978D01*
X333755Y154965D01*
X333666Y154955D01*
X333574Y154950D01*
X333572D01*
X333562D01*
X333546D01*
X333528Y154952D01*
X333503D01*
X333477Y154955D01*
X333444Y154957D01*
X333411Y154963D01*
X333337Y154975D01*
X333256Y154993D01*
X333174Y155019D01*
X333095Y155054D01*
X333092Y155057D01*
X333085Y155059D01*
X333075Y155064D01*
X333062Y155075D01*
X333044Y155085D01*
X333024Y155098D01*
X332978Y155131D01*
X332927Y155174D01*
X332876Y155225D01*
X332825Y155284D01*
X332781Y155353D01*
X332779Y155355D01*
X332776Y155363D01*
X332771Y155373D01*
X332764Y155386D01*
X332756Y155406D01*
X332748Y155427D01*
X332738Y155452D01*
X332728Y155480D01*
X332718Y155511D01*
X332707Y155544D01*
X332692Y155615D01*
X332679Y155697D01*
X332674Y155781D01*
Y155807D01*
X332677Y155824D01*
X332679Y155847D01*
X332682Y155875D01*
X332684Y155903D01*
X332692Y155937D01*
X332707Y156006D01*
X332730Y156082D01*
X332746Y156120D01*
X332764Y156156D01*
X332786Y156192D01*
X332809Y156227D01*
X332812Y156230D01*
X332815Y156235D01*
X332822Y156245D01*
X332835Y156258D01*
X332848Y156271D01*
X332866Y156289D01*
X332886Y156306D01*
X332906Y156327D01*
X332932Y156347D01*
X332962Y156368D01*
X332993Y156391D01*
X333026Y156411D01*
X333064Y156429D01*
X333103Y156449D01*
X333143Y156465D01*
X333189Y156480D01*
X333243Y156250D01*
X333240D01*
X333235Y156248D01*
X333225Y156243D01*
X333212Y156237D01*
X333197Y156232D01*
X333177Y156225D01*
X333136Y156204D01*
X333090Y156179D01*
X333044Y156148D01*
X333001Y156110D01*
X332962Y156069D01*
X332957Y156064D01*
X332947Y156049D01*
X332934Y156023D01*
X332916Y155990D01*
X332901Y155947D01*
X332886Y155898D01*
X332876Y155840D01*
X332873Y155776D01*
Y155756D01*
X332876Y155743D01*
Y155725D01*
X332878Y155705D01*
X332886Y155656D01*
X332896Y155603D01*
X332914Y155546D01*
X332939Y155488D01*
X332973Y155434D01*
Y155432D01*
X332978Y155429D01*
X332991Y155411D01*
X333011Y155388D01*
X333041Y155360D01*
X333080Y155327D01*
X333123Y155297D01*
X333177Y155269D01*
X333235Y155243D01*
X333238D01*
X333243Y155240D01*
X333251Y155238D01*
X333263Y155235D01*
X333279Y155230D01*
X333296Y155225D01*
X333340Y155218D01*
X333391Y155207D01*
X333447Y155197D01*
X333508Y155192D01*
X333574Y155190D01*
X333577D01*
X333585D01*
X333597D01*
X333613D01*
X333630Y155192D01*
X333653D01*
X333679Y155195D01*
X333707Y155197D01*
X333768Y155205D01*
X333835Y155218D01*
X333901Y155233D01*
X333967Y155253D01*
X333970D01*
X333975Y155256D01*
X333982Y155261D01*
X333995Y155266D01*
X334026Y155281D01*
X334062Y155304D01*
X334102Y155332D01*
X334146Y155368D01*
X334184Y155409D01*
X334220Y155457D01*
Y155460D01*
X334222Y155465D01*
X334227Y155473D01*
X334232Y155483D01*
X334237Y155496D01*
X334245Y155511D01*
X334260Y155546D01*
X334276Y155592D01*
X334288Y155643D01*
X334299Y155700D01*
X334301Y155758D01*
Y155776D01*
X334299Y155791D01*
Y155809D01*
X334296Y155827D01*
X334286Y155873D01*
X334273Y155926D01*
X334253Y155980D01*
X334225Y156036D01*
X334209Y156064D01*
X334189Y156090D01*
X334186Y156092D01*
X334184Y156095D01*
X334176Y156102D01*
X334169Y156113D01*
X334156Y156123D01*
X334140Y156135D01*
X334125Y156151D01*
X334105Y156164D01*
X334082Y156179D01*
X334056Y156197D01*
X334031Y156212D01*
X334000Y156227D01*
X333967Y156240D01*
X333931Y156253D01*
X333893Y156266D01*
X333852Y156276D01*
X333911Y156510D01*
X333913D01*
X333924Y156508D01*
D02*
G37*
G36*
X263942Y224374D02*
X263957D01*
X263998Y224366D01*
X264046Y224359D01*
X264097Y224346D01*
X264153Y224328D01*
X264207Y224303D01*
X264209D01*
X264212Y224300D01*
X264219Y224295D01*
X264230Y224290D01*
X264255Y224275D01*
X264288Y224252D01*
X264324Y224224D01*
X264360Y224190D01*
X264395Y224150D01*
X264426Y224106D01*
Y224104D01*
X264429Y224101D01*
X264434Y224094D01*
X264436Y224083D01*
X264449Y224058D01*
X264462Y224025D01*
X264477Y223981D01*
X264487Y223933D01*
X264497Y223879D01*
X264500Y223821D01*
Y223808D01*
X264497Y223795D01*
Y223775D01*
X264495Y223752D01*
X264490Y223726D01*
X264482Y223696D01*
X264475Y223665D01*
X264464Y223629D01*
X264452Y223594D01*
X264436Y223558D01*
X264416Y223520D01*
X264393Y223484D01*
X264367Y223448D01*
X264337Y223413D01*
X264301Y223380D01*
X264299Y223377D01*
X264291Y223372D01*
X264281Y223364D01*
X264263Y223354D01*
X264240Y223339D01*
X264214Y223326D01*
X264181Y223311D01*
X264146Y223295D01*
X264102Y223278D01*
X264054Y223262D01*
X264000Y223250D01*
X263942Y223237D01*
X263875Y223224D01*
X263804Y223216D01*
X263727Y223211D01*
X263646Y223209D01*
X263643D01*
X263641D01*
X263633D01*
X263623D01*
X263597Y223211D01*
X263562D01*
X263521Y223214D01*
X263472Y223219D01*
X263419Y223224D01*
X263360Y223232D01*
X263301Y223242D01*
X263238Y223255D01*
X263177Y223270D01*
X263115Y223288D01*
X263057Y223311D01*
X263001Y223336D01*
X262947Y223364D01*
X262901Y223397D01*
X262899Y223400D01*
X262894Y223405D01*
X262883Y223415D01*
X262868Y223428D01*
X262853Y223443D01*
X262837Y223464D01*
X262817Y223489D01*
X262799Y223515D01*
X262781Y223545D01*
X262761Y223579D01*
X262746Y223617D01*
X262728Y223655D01*
X262715Y223698D01*
X262705Y223744D01*
X262700Y223793D01*
X262697Y223844D01*
Y223864D01*
X262700Y223879D01*
Y223897D01*
X262702Y223918D01*
X262713Y223966D01*
X262725Y224020D01*
X262746Y224076D01*
X262776Y224132D01*
X262794Y224160D01*
X262814Y224185D01*
X262817Y224188D01*
X262820Y224190D01*
X262827Y224198D01*
X262835Y224206D01*
X262848Y224219D01*
X262863Y224229D01*
X262899Y224257D01*
X262945Y224285D01*
X263001Y224310D01*
X263064Y224333D01*
X263136Y224349D01*
X263154Y224132D01*
X263151D01*
X263148Y224129D01*
X263133Y224127D01*
X263110Y224119D01*
X263082Y224109D01*
X263052Y224099D01*
X263021Y224083D01*
X262993Y224066D01*
X262970Y224048D01*
X262965Y224043D01*
X262955Y224032D01*
X262939Y224015D01*
X262922Y223989D01*
X262906Y223956D01*
X262891Y223920D01*
X262881Y223877D01*
X262876Y223831D01*
Y223813D01*
X262878Y223793D01*
X262883Y223770D01*
X262891Y223739D01*
X262901Y223709D01*
X262914Y223678D01*
X262934Y223647D01*
X262937Y223642D01*
X262947Y223629D01*
X262965Y223612D01*
X262990Y223589D01*
X263021Y223563D01*
X263057Y223535D01*
X263103Y223510D01*
X263154Y223484D01*
X263156D01*
X263161Y223482D01*
X263169Y223479D01*
X263179Y223474D01*
X263194Y223471D01*
X263212Y223466D01*
X263233Y223461D01*
X263258Y223456D01*
X263286Y223448D01*
X263317Y223443D01*
X263350Y223438D01*
X263386Y223436D01*
X263426Y223431D01*
X263467Y223428D01*
X263513Y223426D01*
X263559D01*
X263557Y223428D01*
X263541Y223438D01*
X263521Y223456D01*
X263495Y223479D01*
X263465Y223505D01*
X263437Y223538D01*
X263409Y223573D01*
X263383Y223614D01*
Y223617D01*
X263381Y223619D01*
X263373Y223635D01*
X263365Y223658D01*
X263352Y223688D01*
X263342Y223724D01*
X263335Y223765D01*
X263327Y223808D01*
X263324Y223854D01*
Y223874D01*
X263327Y223890D01*
X263330Y223910D01*
X263332Y223930D01*
X263337Y223956D01*
X263345Y223981D01*
X263363Y224040D01*
X263375Y224071D01*
X263393Y224101D01*
X263411Y224132D01*
X263432Y224165D01*
X263457Y224196D01*
X263485Y224224D01*
X263488Y224226D01*
X263493Y224231D01*
X263500Y224239D01*
X263513Y224247D01*
X263531Y224259D01*
X263549Y224272D01*
X263572Y224285D01*
X263597Y224300D01*
X263625Y224316D01*
X263656Y224328D01*
X263692Y224341D01*
X263727Y224354D01*
X263766Y224361D01*
X263809Y224369D01*
X263852Y224374D01*
X263898Y224377D01*
X263901D01*
X263906D01*
X263913D01*
X263926D01*
X263942Y224374D01*
D02*
G37*
G36*
X264469Y221816D02*
X264467D01*
X264457D01*
X264441D01*
X264421Y221819D01*
X264398Y221822D01*
X264372Y221827D01*
X264347Y221832D01*
X264319Y221842D01*
X264316D01*
X264314Y221845D01*
X264299Y221850D01*
X264276Y221860D01*
X264245Y221875D01*
X264209Y221896D01*
X264169Y221921D01*
X264128Y221949D01*
X264084Y221985D01*
X264082D01*
X264079Y221990D01*
X264064Y222003D01*
X264041Y222026D01*
X264008Y222059D01*
X263970Y222097D01*
X263924Y222145D01*
X263873Y222204D01*
X263819Y222268D01*
X263817Y222270D01*
X263809Y222281D01*
X263796Y222296D01*
X263781Y222314D01*
X263760Y222337D01*
X263738Y222365D01*
X263712Y222393D01*
X263684Y222426D01*
X263623Y222490D01*
X263562Y222553D01*
X263531Y222584D01*
X263500Y222612D01*
X263472Y222638D01*
X263444Y222658D01*
X263442D01*
X263439Y222663D01*
X263432Y222668D01*
X263421Y222673D01*
X263393Y222691D01*
X263360Y222711D01*
X263319Y222729D01*
X263276Y222747D01*
X263228Y222757D01*
X263182Y222762D01*
X263179D01*
X263177D01*
X263161Y222760D01*
X263136Y222757D01*
X263108Y222750D01*
X263072Y222740D01*
X263036Y222722D01*
X263001Y222699D01*
X262965Y222668D01*
X262960Y222663D01*
X262950Y222650D01*
X262937Y222633D01*
X262919Y222604D01*
X262904Y222569D01*
X262888Y222528D01*
X262878Y222480D01*
X262876Y222426D01*
Y222411D01*
X262878Y222400D01*
X262881Y222370D01*
X262888Y222334D01*
X262899Y222296D01*
X262916Y222252D01*
X262939Y222212D01*
X262970Y222174D01*
X262975Y222168D01*
X262988Y222158D01*
X263008Y222143D01*
X263039Y222128D01*
X263075Y222110D01*
X263121Y222094D01*
X263172Y222084D01*
X263230Y222079D01*
X263207Y221857D01*
X263205D01*
X263197Y221860D01*
X263184D01*
X263166Y221862D01*
X263146Y221867D01*
X263123Y221873D01*
X263095Y221880D01*
X263067Y221888D01*
X263006Y221908D01*
X262945Y221939D01*
X262914Y221957D01*
X262883Y221980D01*
X262855Y222003D01*
X262830Y222028D01*
X262827Y222031D01*
X262825Y222036D01*
X262817Y222043D01*
X262809Y222056D01*
X262799Y222072D01*
X262789Y222089D01*
X262776Y222110D01*
X262764Y222135D01*
X262751Y222163D01*
X262738Y222194D01*
X262728Y222227D01*
X262718Y222263D01*
X262710Y222301D01*
X262702Y222342D01*
X262700Y222385D01*
X262697Y222431D01*
Y222457D01*
X262700Y222474D01*
X262702Y222495D01*
X262705Y222520D01*
X262710Y222548D01*
X262715Y222576D01*
X262733Y222643D01*
X262758Y222709D01*
X262774Y222742D01*
X262791Y222775D01*
X262814Y222806D01*
X262840Y222834D01*
X262842Y222836D01*
X262845Y222842D01*
X262855Y222847D01*
X262865Y222857D01*
X262878Y222870D01*
X262896Y222882D01*
X262914Y222895D01*
X262937Y222910D01*
X262985Y222936D01*
X263047Y222961D01*
X263077Y222972D01*
X263113Y222977D01*
X263148Y222982D01*
X263187Y222984D01*
X263192D01*
X263205D01*
X263225Y222982D01*
X263253Y222979D01*
X263284Y222974D01*
X263319Y222964D01*
X263358Y222954D01*
X263396Y222938D01*
X263401Y222936D01*
X263414Y222931D01*
X263434Y222921D01*
X263462Y222905D01*
X263493Y222885D01*
X263531Y222859D01*
X263569Y222829D01*
X263613Y222793D01*
X263618Y222788D01*
X263633Y222775D01*
X263646Y222762D01*
X263658Y222750D01*
X263674Y222734D01*
X263694Y222714D01*
X263715Y222694D01*
X263738Y222668D01*
X263763Y222643D01*
X263791Y222612D01*
X263819Y222579D01*
X263852Y222543D01*
X263885Y222502D01*
X263921Y222462D01*
X263924Y222459D01*
X263929Y222454D01*
X263936Y222444D01*
X263947Y222431D01*
X263962Y222416D01*
X263977Y222398D01*
X264010Y222357D01*
X264049Y222314D01*
X264087Y222273D01*
X264120Y222237D01*
X264133Y222222D01*
X264146Y222209D01*
X264148Y222207D01*
X264156Y222199D01*
X264166Y222189D01*
X264181Y222176D01*
X264199Y222163D01*
X264217Y222148D01*
X264260Y222117D01*
Y222987D01*
X264469D01*
Y221816D01*
D02*
G37*
G36*
X263924Y221646D02*
X263939Y221640D01*
X263959Y221633D01*
X263982Y221625D01*
X264010Y221615D01*
X264041Y221602D01*
X264074Y221587D01*
X264146Y221551D01*
X264217Y221505D01*
X264253Y221477D01*
X264288Y221449D01*
X264319Y221419D01*
X264350Y221383D01*
X264352Y221380D01*
X264357Y221375D01*
X264362Y221363D01*
X264372Y221350D01*
X264385Y221329D01*
X264398Y221309D01*
X264411Y221281D01*
X264423Y221253D01*
X264439Y221220D01*
X264452Y221184D01*
X264464Y221146D01*
X264477Y221105D01*
X264487Y221062D01*
X264492Y221016D01*
X264497Y220967D01*
X264500Y220916D01*
Y220888D01*
X264497Y220868D01*
Y220845D01*
X264495Y220817D01*
X264490Y220786D01*
X264485Y220751D01*
X264472Y220677D01*
X264452Y220600D01*
X264423Y220524D01*
X264406Y220488D01*
X264385Y220452D01*
X264383Y220450D01*
X264380Y220445D01*
X264372Y220434D01*
X264362Y220424D01*
X264352Y220409D01*
X264337Y220391D01*
X264319Y220371D01*
X264299Y220350D01*
X264276Y220330D01*
X264253Y220307D01*
X264194Y220261D01*
X264125Y220218D01*
X264049Y220179D01*
X264046D01*
X264038Y220174D01*
X264026Y220172D01*
X264010Y220164D01*
X263990Y220159D01*
X263965Y220151D01*
X263936Y220141D01*
X263906Y220133D01*
X263873Y220126D01*
X263835Y220116D01*
X263755Y220103D01*
X263666Y220093D01*
X263574Y220088D01*
X263572D01*
X263562D01*
X263546D01*
X263528Y220090D01*
X263503D01*
X263477Y220093D01*
X263444Y220095D01*
X263411Y220100D01*
X263337Y220113D01*
X263256Y220131D01*
X263174Y220156D01*
X263095Y220192D01*
X263092Y220195D01*
X263085Y220197D01*
X263075Y220202D01*
X263062Y220213D01*
X263044Y220223D01*
X263024Y220235D01*
X262978Y220269D01*
X262927Y220312D01*
X262876Y220363D01*
X262825Y220422D01*
X262781Y220491D01*
X262779Y220493D01*
X262776Y220501D01*
X262771Y220511D01*
X262764Y220524D01*
X262756Y220544D01*
X262748Y220564D01*
X262738Y220590D01*
X262728Y220618D01*
X262718Y220649D01*
X262707Y220682D01*
X262692Y220753D01*
X262679Y220835D01*
X262674Y220919D01*
Y220944D01*
X262677Y220962D01*
X262679Y220985D01*
X262682Y221013D01*
X262684Y221041D01*
X262692Y221074D01*
X262707Y221143D01*
X262730Y221220D01*
X262746Y221258D01*
X262764Y221294D01*
X262786Y221329D01*
X262809Y221365D01*
X262812Y221368D01*
X262814Y221373D01*
X262822Y221383D01*
X262835Y221396D01*
X262848Y221409D01*
X262865Y221426D01*
X262886Y221444D01*
X262906Y221465D01*
X262932Y221485D01*
X262962Y221505D01*
X262993Y221528D01*
X263026Y221549D01*
X263064Y221567D01*
X263103Y221587D01*
X263143Y221602D01*
X263189Y221618D01*
X263243Y221388D01*
X263240D01*
X263235Y221386D01*
X263225Y221380D01*
X263212Y221375D01*
X263197Y221370D01*
X263177Y221363D01*
X263136Y221342D01*
X263090Y221317D01*
X263044Y221286D01*
X263001Y221248D01*
X262962Y221207D01*
X262957Y221202D01*
X262947Y221187D01*
X262934Y221161D01*
X262916Y221128D01*
X262901Y221085D01*
X262886Y221036D01*
X262876Y220977D01*
X262873Y220914D01*
Y220893D01*
X262876Y220881D01*
Y220863D01*
X262878Y220842D01*
X262886Y220794D01*
X262896Y220740D01*
X262914Y220684D01*
X262939Y220626D01*
X262973Y220572D01*
Y220569D01*
X262978Y220567D01*
X262990Y220549D01*
X263011Y220526D01*
X263041Y220498D01*
X263080Y220465D01*
X263123Y220434D01*
X263177Y220406D01*
X263235Y220381D01*
X263238D01*
X263243Y220378D01*
X263250Y220376D01*
X263263Y220373D01*
X263279Y220368D01*
X263296Y220363D01*
X263340Y220355D01*
X263391Y220345D01*
X263447Y220335D01*
X263508Y220330D01*
X263574Y220327D01*
X263577D01*
X263585D01*
X263597D01*
X263613D01*
X263631Y220330D01*
X263653D01*
X263679Y220332D01*
X263707Y220335D01*
X263768Y220343D01*
X263835Y220355D01*
X263901Y220371D01*
X263967Y220391D01*
X263970D01*
X263975Y220394D01*
X263982Y220399D01*
X263995Y220404D01*
X264026Y220419D01*
X264061Y220442D01*
X264102Y220470D01*
X264146Y220506D01*
X264184Y220547D01*
X264219Y220595D01*
Y220598D01*
X264222Y220603D01*
X264227Y220610D01*
X264232Y220620D01*
X264237Y220633D01*
X264245Y220649D01*
X264260Y220684D01*
X264276Y220730D01*
X264288Y220781D01*
X264299Y220837D01*
X264301Y220896D01*
Y220914D01*
X264299Y220929D01*
Y220947D01*
X264296Y220965D01*
X264286Y221011D01*
X264273Y221064D01*
X264253Y221118D01*
X264225Y221174D01*
X264209Y221202D01*
X264189Y221227D01*
X264186Y221230D01*
X264184Y221233D01*
X264176Y221240D01*
X264169Y221250D01*
X264156Y221261D01*
X264141Y221273D01*
X264125Y221289D01*
X264105Y221301D01*
X264082Y221317D01*
X264056Y221335D01*
X264031Y221350D01*
X264000Y221365D01*
X263967Y221378D01*
X263931Y221391D01*
X263893Y221403D01*
X263852Y221414D01*
X263911Y221648D01*
X263913D01*
X263924Y221646D01*
D02*
G37*
G36*
X144642Y333293D02*
X144647Y333288D01*
X144658Y333278D01*
X144673Y333268D01*
X144691Y333252D01*
X144711Y333232D01*
X144737Y333211D01*
X144767Y333189D01*
X144798Y333166D01*
X144834Y333137D01*
X144874Y333109D01*
X144915Y333081D01*
X144961Y333051D01*
X145010Y333020D01*
X145063Y332990D01*
X145117Y332959D01*
X145119Y332957D01*
X145129Y332951D01*
X145145Y332944D01*
X145168Y332931D01*
X145196Y332918D01*
X145226Y332903D01*
X145262Y332885D01*
X145303Y332867D01*
X145349Y332847D01*
X145395Y332824D01*
X145446Y332804D01*
X145499Y332783D01*
X145609Y332742D01*
X145726Y332704D01*
X145729D01*
X145736Y332701D01*
X145749Y332699D01*
X145764Y332694D01*
X145785Y332689D01*
X145810Y332684D01*
X145838Y332676D01*
X145869Y332671D01*
X145905Y332663D01*
X145943Y332656D01*
X146024Y332643D01*
X146114Y332630D01*
X146211Y332622D01*
Y332401D01*
X146208D01*
X146200D01*
X146190D01*
X146175Y332403D01*
X146154D01*
X146129Y332406D01*
X146101Y332408D01*
X146070Y332411D01*
X146035Y332416D01*
X145999Y332421D01*
X145956Y332429D01*
X145912Y332436D01*
X145866Y332444D01*
X145815Y332454D01*
X145711Y332480D01*
X145708D01*
X145698Y332482D01*
X145683Y332487D01*
X145660Y332495D01*
X145634Y332503D01*
X145604Y332513D01*
X145568Y332523D01*
X145530Y332538D01*
X145486Y332554D01*
X145443Y332569D01*
X145346Y332607D01*
X145244Y332653D01*
X145142Y332704D01*
X145140Y332707D01*
X145129Y332712D01*
X145117Y332719D01*
X145096Y332730D01*
X145073Y332742D01*
X145045Y332760D01*
X145015Y332778D01*
X144981Y332798D01*
X144907Y332847D01*
X144831Y332898D01*
X144752Y332957D01*
X144678Y333018D01*
Y332153D01*
X144469D01*
Y333296D01*
X144640D01*
X144642Y333293D01*
D02*
G37*
G36*
X145532Y331835D02*
X145558D01*
X145588Y331832D01*
X145619Y331829D01*
X145688Y331822D01*
X145759Y331811D01*
X145828Y331796D01*
X145861Y331786D01*
X145892Y331776D01*
X145894D01*
X145899Y331773D01*
X145907Y331768D01*
X145917Y331763D01*
X145945Y331748D01*
X145981Y331725D01*
X146022Y331694D01*
X146063Y331659D01*
X146106Y331613D01*
X146144Y331557D01*
Y331554D01*
X146149Y331549D01*
X146152Y331541D01*
X146160Y331528D01*
X146167Y331513D01*
X146175Y331493D01*
X146183Y331472D01*
X146193Y331447D01*
X146203Y331419D01*
X146211Y331388D01*
X146218Y331355D01*
X146226Y331317D01*
X146231Y331279D01*
X146236Y331238D01*
X146241Y331146D01*
Y331123D01*
X146239Y331105D01*
Y331085D01*
X146236Y331059D01*
X146233Y331031D01*
X146231Y331003D01*
X146221Y330939D01*
X146205Y330871D01*
X146185Y330804D01*
X146157Y330740D01*
Y330738D01*
X146152Y330733D01*
X146147Y330725D01*
X146142Y330715D01*
X146121Y330687D01*
X146093Y330654D01*
X146057Y330616D01*
X146017Y330580D01*
X145966Y330544D01*
X145910Y330516D01*
X145907D01*
X145902Y330514D01*
X145892Y330511D01*
X145879Y330506D01*
X145864Y330501D01*
X145843Y330496D01*
X145820Y330488D01*
X145792Y330483D01*
X145762Y330478D01*
X145729Y330470D01*
X145693Y330465D01*
X145655Y330460D01*
X145611Y330455D01*
X145565Y330452D01*
X145517Y330450D01*
X145466D01*
X144446D01*
Y330684D01*
X145466D01*
X145468D01*
X145476D01*
X145489D01*
X145504D01*
X145522Y330687D01*
X145545D01*
X145593Y330690D01*
X145650Y330695D01*
X145706Y330702D01*
X145759Y330713D01*
X145782Y330718D01*
X145805Y330725D01*
X145810Y330728D01*
X145823Y330733D01*
X145841Y330746D01*
X145866Y330761D01*
X145892Y330779D01*
X145920Y330804D01*
X145948Y330835D01*
X145971Y330871D01*
X145973Y330876D01*
X145981Y330888D01*
X145989Y330911D01*
X145999Y330942D01*
X146012Y330978D01*
X146019Y331024D01*
X146027Y331072D01*
X146029Y331126D01*
Y331151D01*
X146027Y331166D01*
Y331189D01*
X146024Y331212D01*
X146014Y331268D01*
X146001Y331330D01*
X145981Y331388D01*
X145953Y331444D01*
X145935Y331470D01*
X145915Y331493D01*
X145912Y331495D01*
X145910Y331498D01*
X145902Y331503D01*
X145892Y331511D01*
X145877Y331518D01*
X145861Y331528D01*
X145838Y331539D01*
X145815Y331549D01*
X145787Y331559D01*
X145754Y331567D01*
X145716Y331577D01*
X145675Y331585D01*
X145629Y331592D01*
X145581Y331597D01*
X145525Y331602D01*
X145466D01*
X144446D01*
Y331837D01*
X145466D01*
X145468D01*
X145479D01*
X145491D01*
X145509D01*
X145532Y331835D01*
D02*
G37*
G36*
X333471Y172447D02*
X333497D01*
X333523Y172445D01*
X333556Y172442D01*
X333589Y172437D01*
X333663Y172424D01*
X333744Y172406D01*
X333826Y172381D01*
X333905Y172345D01*
X333908Y172343D01*
X333915Y172340D01*
X333925Y172335D01*
X333938Y172325D01*
X333956Y172315D01*
X333976Y172302D01*
X334022Y172269D01*
X334073Y172225D01*
X334124Y172175D01*
X334175Y172116D01*
X334219Y172047D01*
X334221Y172044D01*
X334224Y172037D01*
X334229Y172027D01*
X334237Y172014D01*
X334244Y171993D01*
X334252Y171973D01*
X334262Y171948D01*
X334272Y171920D01*
X334282Y171889D01*
X334293Y171856D01*
X334308Y171784D01*
X334321Y171703D01*
X334326Y171619D01*
Y171593D01*
X334323Y171575D01*
X334321Y171552D01*
X334318Y171524D01*
X334315Y171496D01*
X334308Y171463D01*
X334293Y171394D01*
X334270Y171318D01*
X334254Y171279D01*
X334237Y171244D01*
X334213Y171208D01*
X334191Y171172D01*
X334188Y171170D01*
X334186Y171165D01*
X334178Y171154D01*
X334165Y171142D01*
X334152Y171129D01*
X334135Y171111D01*
X334114Y171093D01*
X334094Y171073D01*
X334068Y171053D01*
X334038Y171032D01*
X334007Y171009D01*
X333974Y170989D01*
X333936Y170971D01*
X333897Y170950D01*
X333857Y170935D01*
X333811Y170920D01*
X333757Y171149D01*
X333760D01*
X333765Y171152D01*
X333775Y171157D01*
X333788Y171162D01*
X333803Y171167D01*
X333823Y171175D01*
X333864Y171195D01*
X333910Y171221D01*
X333956Y171251D01*
X333999Y171290D01*
X334038Y171330D01*
X334043Y171335D01*
X334053Y171351D01*
X334066Y171376D01*
X334084Y171409D01*
X334099Y171453D01*
X334114Y171501D01*
X334124Y171560D01*
X334127Y171624D01*
Y171644D01*
X334124Y171657D01*
Y171675D01*
X334122Y171695D01*
X334114Y171744D01*
X334104Y171797D01*
X334086Y171853D01*
X334061Y171912D01*
X334027Y171965D01*
Y171968D01*
X334022Y171970D01*
X334010Y171988D01*
X333989Y172011D01*
X333959Y172039D01*
X333920Y172073D01*
X333877Y172103D01*
X333823Y172131D01*
X333765Y172157D01*
X333762D01*
X333757Y172159D01*
X333749Y172162D01*
X333737Y172164D01*
X333721Y172169D01*
X333703Y172175D01*
X333660Y172182D01*
X333609Y172192D01*
X333553Y172203D01*
X333492Y172208D01*
X333426Y172210D01*
X333423D01*
X333415D01*
X333403D01*
X333387D01*
X333369Y172208D01*
X333347D01*
X333321Y172205D01*
X333293Y172203D01*
X333232Y172195D01*
X333166Y172182D01*
X333099Y172167D01*
X333033Y172146D01*
X333030D01*
X333025Y172144D01*
X333018Y172139D01*
X333005Y172134D01*
X332974Y172118D01*
X332939Y172095D01*
X332898Y172067D01*
X332854Y172032D01*
X332816Y171991D01*
X332781Y171942D01*
Y171940D01*
X332778Y171935D01*
X332773Y171927D01*
X332768Y171917D01*
X332763Y171904D01*
X332755Y171889D01*
X332740Y171853D01*
X332724Y171807D01*
X332712Y171756D01*
X332701Y171700D01*
X332699Y171642D01*
Y171624D01*
X332701Y171608D01*
Y171590D01*
X332704Y171573D01*
X332714Y171527D01*
X332727Y171473D01*
X332747Y171420D01*
X332775Y171364D01*
X332791Y171335D01*
X332811Y171310D01*
X332814Y171308D01*
X332816Y171305D01*
X332824Y171297D01*
X332831Y171287D01*
X332844Y171277D01*
X332859Y171264D01*
X332875Y171249D01*
X332895Y171236D01*
X332918Y171221D01*
X332944Y171203D01*
X332969Y171188D01*
X333000Y171172D01*
X333033Y171160D01*
X333069Y171147D01*
X333107Y171134D01*
X333148Y171124D01*
X333089Y170889D01*
X333086D01*
X333076Y170892D01*
X333061Y170897D01*
X333040Y170905D01*
X333018Y170912D01*
X332990Y170922D01*
X332959Y170935D01*
X332926Y170950D01*
X332854Y170986D01*
X332783Y171032D01*
X332747Y171060D01*
X332712Y171088D01*
X332681Y171119D01*
X332650Y171154D01*
X332648Y171157D01*
X332643Y171162D01*
X332638Y171175D01*
X332627Y171188D01*
X332615Y171208D01*
X332602Y171228D01*
X332589Y171256D01*
X332576Y171284D01*
X332561Y171318D01*
X332548Y171353D01*
X332536Y171392D01*
X332523Y171432D01*
X332513Y171476D01*
X332508Y171522D01*
X332503Y171570D01*
X332500Y171621D01*
Y171649D01*
X332503Y171670D01*
Y171693D01*
X332505Y171721D01*
X332510Y171751D01*
X332515Y171787D01*
X332528Y171861D01*
X332548Y171937D01*
X332576Y172014D01*
X332594Y172049D01*
X332615Y172085D01*
X332617Y172088D01*
X332620Y172093D01*
X332627Y172103D01*
X332638Y172113D01*
X332648Y172129D01*
X332663Y172146D01*
X332681Y172167D01*
X332701Y172187D01*
X332724Y172208D01*
X332747Y172231D01*
X332806Y172276D01*
X332875Y172320D01*
X332951Y172358D01*
X332954D01*
X332962Y172363D01*
X332974Y172366D01*
X332990Y172373D01*
X333010Y172379D01*
X333035Y172386D01*
X333064Y172396D01*
X333094Y172404D01*
X333127Y172412D01*
X333166Y172422D01*
X333244Y172435D01*
X333334Y172445D01*
X333426Y172450D01*
X333428D01*
X333438D01*
X333454D01*
X333471Y172447D01*
D02*
G37*
G36*
X333859Y170522D02*
X333864Y170517D01*
X333867Y170507D01*
X333874Y170494D01*
X333882Y170479D01*
X333892Y170461D01*
X333918Y170417D01*
X333946Y170367D01*
X333981Y170316D01*
X334022Y170262D01*
X334066Y170208D01*
X334068Y170206D01*
X334071Y170203D01*
X334078Y170196D01*
X334086Y170185D01*
X334111Y170162D01*
X334142Y170132D01*
X334178Y170101D01*
X334219Y170068D01*
X334260Y170040D01*
X334303Y170015D01*
Y169874D01*
X332530D01*
Y170091D01*
X333910D01*
X333908Y170094D01*
X333897Y170106D01*
X333882Y170122D01*
X333864Y170147D01*
X333841Y170175D01*
X333816Y170211D01*
X333788Y170252D01*
X333760Y170298D01*
Y170300D01*
X333757Y170303D01*
X333747Y170318D01*
X333734Y170344D01*
X333719Y170374D01*
X333701Y170410D01*
X333683Y170448D01*
X333665Y170486D01*
X333650Y170525D01*
X333859D01*
Y170522D01*
D02*
G37*
G36*
X323000Y154291D02*
X321620D01*
X321623Y154288D01*
X321633Y154275D01*
X321649Y154260D01*
X321666Y154235D01*
X321689Y154207D01*
X321715Y154171D01*
X321743Y154130D01*
X321771Y154084D01*
Y154082D01*
X321774Y154079D01*
X321784Y154064D01*
X321796Y154038D01*
X321812Y154008D01*
X321830Y153972D01*
X321847Y153934D01*
X321865Y153895D01*
X321881Y153857D01*
X321672D01*
Y153860D01*
X321666Y153865D01*
X321664Y153875D01*
X321656Y153888D01*
X321649Y153903D01*
X321638Y153921D01*
X321613Y153964D01*
X321585Y154015D01*
X321549Y154066D01*
X321508Y154120D01*
X321465Y154173D01*
X321462Y154176D01*
X321460Y154179D01*
X321452Y154186D01*
X321445Y154196D01*
X321419Y154219D01*
X321389Y154250D01*
X321353Y154280D01*
X321312Y154314D01*
X321271Y154342D01*
X321228Y154367D01*
Y154507D01*
X323000D01*
Y154291D01*
D02*
G37*
G36*
X322253Y152865D02*
X323000D01*
Y152631D01*
X322253D01*
X321235Y151950D01*
Y152233D01*
X321771Y152580D01*
X321774D01*
X321779Y152585D01*
X321786Y152590D01*
X321796Y152595D01*
X321809Y152605D01*
X321825Y152615D01*
X321863Y152638D01*
X321909Y152666D01*
X321960Y152697D01*
X322013Y152730D01*
X322069Y152761D01*
X322067D01*
X322062Y152763D01*
X322054Y152768D01*
X322044Y152776D01*
X322031Y152784D01*
X322016Y152794D01*
X321977Y152817D01*
X321932Y152845D01*
X321878Y152878D01*
X321819Y152916D01*
X321756Y152957D01*
X321235Y153296D01*
Y153569D01*
X322253Y152865D01*
D02*
G37*
G36*
X17500Y117327D02*
X17497D01*
X17487D01*
X17472D01*
X17452Y117329D01*
X17429Y117332D01*
X17403Y117337D01*
X17378Y117342D01*
X17350Y117352D01*
X17347D01*
X17345Y117355D01*
X17329Y117360D01*
X17306Y117370D01*
X17276Y117385D01*
X17240Y117406D01*
X17199Y117431D01*
X17158Y117459D01*
X17115Y117495D01*
X17112D01*
X17110Y117500D01*
X17095Y117513D01*
X17072Y117536D01*
X17039Y117569D01*
X17000Y117607D01*
X16954Y117656D01*
X16903Y117714D01*
X16850Y117778D01*
X16847Y117781D01*
X16840Y117791D01*
X16827Y117806D01*
X16812Y117824D01*
X16791Y117847D01*
X16768Y117875D01*
X16743Y117903D01*
X16715Y117936D01*
X16654Y118000D01*
X16592Y118064D01*
X16562Y118094D01*
X16531Y118122D01*
X16503Y118148D01*
X16475Y118168D01*
X16472D01*
X16470Y118173D01*
X16462Y118178D01*
X16452Y118184D01*
X16424Y118201D01*
X16391Y118222D01*
X16350Y118240D01*
X16307Y118257D01*
X16258Y118268D01*
X16212Y118273D01*
X16210D01*
X16207D01*
X16192Y118270D01*
X16166Y118268D01*
X16138Y118260D01*
X16103Y118250D01*
X16067Y118232D01*
X16031Y118209D01*
X15996Y118178D01*
X15991Y118173D01*
X15980Y118161D01*
X15968Y118143D01*
X15950Y118115D01*
X15934Y118079D01*
X15919Y118038D01*
X15909Y117990D01*
X15906Y117936D01*
Y117921D01*
X15909Y117911D01*
X15911Y117880D01*
X15919Y117844D01*
X15929Y117806D01*
X15947Y117763D01*
X15970Y117722D01*
X16001Y117684D01*
X16006Y117679D01*
X16018Y117668D01*
X16039Y117653D01*
X16070Y117638D01*
X16105Y117620D01*
X16151Y117605D01*
X16202Y117595D01*
X16261Y117589D01*
X16238Y117368D01*
X16235D01*
X16228Y117370D01*
X16215D01*
X16197Y117373D01*
X16177Y117378D01*
X16154Y117383D01*
X16126Y117391D01*
X16098Y117398D01*
X16036Y117419D01*
X15975Y117449D01*
X15945Y117467D01*
X15914Y117490D01*
X15886Y117513D01*
X15860Y117538D01*
X15858Y117541D01*
X15855Y117546D01*
X15848Y117554D01*
X15840Y117567D01*
X15830Y117582D01*
X15820Y117600D01*
X15807Y117620D01*
X15794Y117646D01*
X15781Y117674D01*
X15769Y117704D01*
X15758Y117737D01*
X15748Y117773D01*
X15741Y117811D01*
X15733Y117852D01*
X15730Y117895D01*
X15728Y117941D01*
Y117967D01*
X15730Y117985D01*
X15733Y118005D01*
X15735Y118031D01*
X15741Y118059D01*
X15746Y118087D01*
X15764Y118153D01*
X15789Y118219D01*
X15804Y118252D01*
X15822Y118286D01*
X15845Y118316D01*
X15871Y118344D01*
X15873Y118347D01*
X15876Y118352D01*
X15886Y118357D01*
X15896Y118367D01*
X15909Y118380D01*
X15927Y118393D01*
X15945Y118405D01*
X15968Y118421D01*
X16016Y118446D01*
X16077Y118472D01*
X16108Y118482D01*
X16143Y118487D01*
X16179Y118492D01*
X16217Y118495D01*
X16222D01*
X16235D01*
X16256Y118492D01*
X16284Y118490D01*
X16314Y118484D01*
X16350Y118474D01*
X16388Y118464D01*
X16427Y118449D01*
X16432Y118446D01*
X16444Y118441D01*
X16465Y118431D01*
X16493Y118416D01*
X16523Y118395D01*
X16562Y118370D01*
X16600Y118339D01*
X16643Y118303D01*
X16648Y118298D01*
X16664Y118286D01*
X16676Y118273D01*
X16689Y118260D01*
X16704Y118245D01*
X16725Y118224D01*
X16745Y118204D01*
X16768Y118178D01*
X16794Y118153D01*
X16822Y118122D01*
X16850Y118089D01*
X16883Y118053D01*
X16916Y118013D01*
X16952Y117972D01*
X16954Y117969D01*
X16960Y117964D01*
X16967Y117954D01*
X16977Y117941D01*
X16993Y117926D01*
X17008Y117908D01*
X17041Y117867D01*
X17079Y117824D01*
X17118Y117783D01*
X17151Y117747D01*
X17164Y117732D01*
X17176Y117719D01*
X17179Y117717D01*
X17186Y117709D01*
X17197Y117699D01*
X17212Y117686D01*
X17230Y117674D01*
X17248Y117658D01*
X17291Y117628D01*
Y118497D01*
X17500D01*
Y117327D01*
D02*
G37*
G36*
X15945Y116184D02*
X16490D01*
Y117013D01*
X16699D01*
Y116184D01*
X17500D01*
Y115950D01*
X15735D01*
Y117143D01*
X15945D01*
Y116184D01*
D02*
G37*
G36*
X17500Y46114D02*
X16120D01*
X16123Y46112D01*
X16133Y46099D01*
X16149Y46084D01*
X16166Y46058D01*
X16189Y46030D01*
X16215Y45994D01*
X16243Y45954D01*
X16271Y45908D01*
Y45905D01*
X16274Y45902D01*
X16284Y45887D01*
X16296Y45862D01*
X16312Y45831D01*
X16330Y45795D01*
X16348Y45757D01*
X16365Y45719D01*
X16381Y45681D01*
X16172D01*
Y45683D01*
X16166Y45688D01*
X16164Y45698D01*
X16156Y45711D01*
X16149Y45726D01*
X16138Y45744D01*
X16113Y45788D01*
X16085Y45839D01*
X16049Y45890D01*
X16008Y45943D01*
X15965Y45997D01*
X15962Y45999D01*
X15960Y46002D01*
X15952Y46010D01*
X15945Y46020D01*
X15919Y46043D01*
X15889Y46073D01*
X15853Y46104D01*
X15812Y46137D01*
X15771Y46165D01*
X15728Y46191D01*
Y46331D01*
X17500D01*
Y46114D01*
D02*
G37*
G36*
X15945Y44342D02*
X16490D01*
Y45171D01*
X16699D01*
Y44342D01*
X17500D01*
Y44107D01*
X15735D01*
Y45301D01*
X15945D01*
Y44342D01*
D02*
G37*
G36*
X312387Y242984D02*
Y242981D01*
Y242971D01*
Y242958D01*
Y242941D01*
X312385Y242918D01*
Y242892D01*
X312382Y242862D01*
X312380Y242831D01*
X312372Y242762D01*
X312362Y242691D01*
X312346Y242622D01*
X312336Y242589D01*
X312326Y242558D01*
Y242555D01*
X312323Y242550D01*
X312318Y242543D01*
X312313Y242533D01*
X312298Y242505D01*
X312275Y242469D01*
X312244Y242428D01*
X312209Y242387D01*
X312163Y242344D01*
X312107Y242306D01*
X312104D01*
X312099Y242301D01*
X312091Y242298D01*
X312079Y242290D01*
X312063Y242283D01*
X312043Y242275D01*
X312023Y242267D01*
X311997Y242257D01*
X311969Y242247D01*
X311938Y242239D01*
X311905Y242232D01*
X311867Y242224D01*
X311829Y242219D01*
X311788Y242214D01*
X311696Y242209D01*
X311673D01*
X311655Y242211D01*
X311635D01*
X311610Y242214D01*
X311581Y242216D01*
X311553Y242219D01*
X311490Y242229D01*
X311421Y242244D01*
X311354Y242265D01*
X311291Y242293D01*
X311288D01*
X311283Y242298D01*
X311275Y242303D01*
X311265Y242308D01*
X311237Y242329D01*
X311204Y242357D01*
X311166Y242392D01*
X311130Y242433D01*
X311094Y242484D01*
X311066Y242540D01*
Y242543D01*
X311064Y242548D01*
X311061Y242558D01*
X311056Y242571D01*
X311051Y242586D01*
X311046Y242606D01*
X311038Y242630D01*
X311033Y242657D01*
X311028Y242688D01*
X311020Y242721D01*
X311015Y242757D01*
X311010Y242795D01*
X311005Y242839D01*
X311003Y242884D01*
X311000Y242933D01*
Y242984D01*
Y244004D01*
X311235D01*
Y242984D01*
Y242981D01*
Y242974D01*
Y242961D01*
Y242946D01*
X311237Y242928D01*
Y242905D01*
X311240Y242856D01*
X311245Y242800D01*
X311252Y242744D01*
X311263Y242691D01*
X311268Y242668D01*
X311275Y242645D01*
X311278Y242640D01*
X311283Y242627D01*
X311296Y242609D01*
X311311Y242584D01*
X311329Y242558D01*
X311354Y242530D01*
X311385Y242502D01*
X311421Y242479D01*
X311426Y242477D01*
X311439Y242469D01*
X311461Y242461D01*
X311492Y242451D01*
X311528Y242438D01*
X311574Y242431D01*
X311622Y242423D01*
X311676Y242420D01*
X311701D01*
X311717Y242423D01*
X311739D01*
X311762Y242425D01*
X311819Y242436D01*
X311880Y242448D01*
X311938Y242469D01*
X311995Y242497D01*
X312020Y242515D01*
X312043Y242535D01*
X312046Y242538D01*
X312048Y242540D01*
X312053Y242548D01*
X312061Y242558D01*
X312068Y242573D01*
X312079Y242589D01*
X312089Y242612D01*
X312099Y242635D01*
X312109Y242663D01*
X312117Y242696D01*
X312127Y242734D01*
X312135Y242775D01*
X312142Y242821D01*
X312147Y242869D01*
X312153Y242925D01*
Y242984D01*
Y244004D01*
X312387D01*
Y242984D01*
D02*
G37*
G36*
X313272Y244009D02*
X313285D01*
X313303Y244006D01*
X313346Y243999D01*
X313394Y243989D01*
X313448Y243971D01*
X313502Y243948D01*
X313555Y243917D01*
X313558D01*
X313560Y243912D01*
X313568Y243907D01*
X313578Y243899D01*
X313603Y243879D01*
X313637Y243851D01*
X313670Y243813D01*
X313708Y243767D01*
X313741Y243713D01*
X313772Y243652D01*
Y243650D01*
X313774Y243644D01*
X313779Y243634D01*
X313785Y243621D01*
X313790Y243604D01*
X313797Y243581D01*
X313802Y243555D01*
X313810Y243527D01*
X313818Y243494D01*
X313825Y243456D01*
X313830Y243415D01*
X313836Y243372D01*
X313841Y243323D01*
X313846Y243272D01*
X313848Y243216D01*
Y243157D01*
Y243155D01*
Y243142D01*
Y243124D01*
Y243101D01*
X313846Y243073D01*
Y243040D01*
X313843Y243002D01*
X313838Y242964D01*
X313830Y242877D01*
X313818Y242785D01*
X313800Y242698D01*
X313787Y242655D01*
X313774Y242617D01*
Y242614D01*
X313772Y242609D01*
X313767Y242599D01*
X313762Y242584D01*
X313754Y242568D01*
X313744Y242548D01*
X313718Y242505D01*
X313688Y242456D01*
X313652Y242405D01*
X313606Y242357D01*
X313555Y242313D01*
X313553D01*
X313547Y242308D01*
X313540Y242303D01*
X313530Y242298D01*
X313514Y242290D01*
X313499Y242280D01*
X313479Y242270D01*
X313458Y242262D01*
X313410Y242242D01*
X313351Y242224D01*
X313287Y242214D01*
X313216Y242209D01*
X313196D01*
X313183Y242211D01*
X313165D01*
X313144Y242214D01*
X313096Y242224D01*
X313042Y242237D01*
X312986Y242257D01*
X312930Y242285D01*
X312902Y242303D01*
X312877Y242323D01*
X312874Y242326D01*
X312872Y242329D01*
X312864Y242336D01*
X312856Y242344D01*
X312846Y242357D01*
X312833Y242372D01*
X312808Y242408D01*
X312783Y242454D01*
X312757Y242510D01*
X312737Y242573D01*
X312721Y242647D01*
X312930Y242665D01*
Y242663D01*
X312933Y242657D01*
Y242652D01*
X312935Y242642D01*
X312943Y242614D01*
X312953Y242584D01*
X312966Y242548D01*
X312984Y242512D01*
X313004Y242479D01*
X313030Y242451D01*
X313032Y242448D01*
X313042Y242441D01*
X313060Y242431D01*
X313081Y242420D01*
X313109Y242408D01*
X313142Y242397D01*
X313180Y242390D01*
X313221Y242387D01*
X313239D01*
X313257Y242390D01*
X313280Y242392D01*
X313308Y242397D01*
X313336Y242405D01*
X313366Y242415D01*
X313394Y242431D01*
X313397Y242433D01*
X313407Y242438D01*
X313422Y242448D01*
X313438Y242464D01*
X313458Y242482D01*
X313479Y242502D01*
X313499Y242525D01*
X313519Y242553D01*
X313522Y242555D01*
X313527Y242568D01*
X313537Y242586D01*
X313547Y242609D01*
X313560Y242640D01*
X313573Y242675D01*
X313586Y242716D01*
X313598Y242762D01*
Y242765D01*
X313601Y242767D01*
Y242775D01*
X313603Y242785D01*
X313609Y242811D01*
X313616Y242844D01*
X313621Y242884D01*
X313627Y242928D01*
X313629Y242976D01*
X313632Y243027D01*
Y243030D01*
Y243038D01*
Y243050D01*
Y243071D01*
X313629Y243066D01*
X313619Y243053D01*
X313603Y243035D01*
X313586Y243009D01*
X313560Y242984D01*
X313530Y242956D01*
X313494Y242928D01*
X313453Y242902D01*
X313448Y242900D01*
X313433Y242892D01*
X313410Y242882D01*
X313382Y242872D01*
X313343Y242859D01*
X313303Y242849D01*
X313257Y242841D01*
X313208Y242839D01*
X313188D01*
X313173Y242841D01*
X313152Y242844D01*
X313132Y242846D01*
X313106Y242851D01*
X313081Y242859D01*
X313022Y242877D01*
X312992Y242890D01*
X312961Y242905D01*
X312928Y242923D01*
X312897Y242946D01*
X312867Y242969D01*
X312839Y242997D01*
X312836Y242999D01*
X312831Y243004D01*
X312826Y243012D01*
X312816Y243025D01*
X312803Y243043D01*
X312790Y243060D01*
X312777Y243083D01*
X312765Y243109D01*
X312749Y243137D01*
X312737Y243167D01*
X312724Y243203D01*
X312711Y243239D01*
X312701Y243280D01*
X312696Y243323D01*
X312691Y243366D01*
X312688Y243415D01*
Y243417D01*
Y243428D01*
Y243440D01*
X312691Y243458D01*
X312693Y243481D01*
X312696Y243509D01*
X312701Y243537D01*
X312708Y243570D01*
X312726Y243637D01*
X312739Y243672D01*
X312754Y243711D01*
X312772Y243746D01*
X312795Y243779D01*
X312818Y243815D01*
X312846Y243846D01*
X312849Y243848D01*
X312854Y243853D01*
X312861Y243861D01*
X312874Y243871D01*
X312890Y243884D01*
X312910Y243899D01*
X312930Y243912D01*
X312956Y243930D01*
X312981Y243945D01*
X313012Y243958D01*
X313081Y243986D01*
X313117Y243996D01*
X313157Y244004D01*
X313198Y244009D01*
X313241Y244012D01*
X313259D01*
X313272Y244009D01*
D02*
G37*
%LPC*%
G36*
X263911Y224155D02*
X263908D01*
X263903D01*
X263893D01*
X263880Y224152D01*
X263865D01*
X263847Y224150D01*
X263806Y224142D01*
X263760Y224132D01*
X263712Y224114D01*
X263666Y224089D01*
X263623Y224055D01*
X263618Y224050D01*
X263605Y224038D01*
X263590Y224017D01*
X263569Y223989D01*
X263549Y223953D01*
X263534Y223913D01*
X263521Y223864D01*
X263516Y223811D01*
Y223795D01*
X263518Y223785D01*
X263521Y223760D01*
X263528Y223724D01*
X263541Y223686D01*
X263562Y223642D01*
X263587Y223602D01*
X263623Y223561D01*
X263628Y223556D01*
X263641Y223545D01*
X263664Y223528D01*
X263697Y223510D01*
X263735Y223492D01*
X263784Y223474D01*
X263837Y223464D01*
X263898Y223459D01*
X263903D01*
X263916D01*
X263939Y223461D01*
X263967Y223464D01*
X264000Y223469D01*
X264036Y223479D01*
X264074Y223489D01*
X264112Y223505D01*
X264118Y223507D01*
X264130Y223515D01*
X264148Y223525D01*
X264171Y223540D01*
X264194Y223558D01*
X264222Y223581D01*
X264245Y223607D01*
X264268Y223637D01*
X264270Y223642D01*
X264276Y223653D01*
X264286Y223670D01*
X264294Y223693D01*
X264304Y223719D01*
X264314Y223749D01*
X264319Y223782D01*
X264321Y223818D01*
Y223831D01*
X264319Y223841D01*
X264316Y223867D01*
X264309Y223900D01*
X264294Y223936D01*
X264276Y223976D01*
X264248Y224017D01*
X264232Y224038D01*
X264212Y224055D01*
X264209D01*
X264207Y224061D01*
X264192Y224071D01*
X264166Y224086D01*
X264133Y224106D01*
X264089Y224124D01*
X264038Y224139D01*
X263980Y224150D01*
X263911Y224155D01*
D02*
G37*
G36*
X313295Y243833D02*
X313254D01*
X313244Y243830D01*
X313216Y243828D01*
X313183Y243818D01*
X313142Y243805D01*
X313099Y243782D01*
X313055Y243754D01*
X313035Y243734D01*
X313015Y243713D01*
Y243711D01*
X313009Y243708D01*
X313004Y243701D01*
X312999Y243693D01*
X312981Y243667D01*
X312964Y243632D01*
X312943Y243588D01*
X312925Y243535D01*
X312915Y243474D01*
X312910Y243407D01*
Y243405D01*
Y243400D01*
Y243392D01*
X312913Y243379D01*
Y243364D01*
X312915Y243349D01*
X312923Y243310D01*
X312935Y243267D01*
X312951Y243221D01*
X312976Y243175D01*
X313009Y243134D01*
X313015Y243129D01*
X313027Y243119D01*
X313050Y243101D01*
X313078Y243083D01*
X313117Y243063D01*
X313160Y243045D01*
X313208Y243035D01*
X313262Y243030D01*
X313277D01*
X313287Y243032D01*
X313315Y243035D01*
X313349Y243043D01*
X313389Y243055D01*
X313430Y243073D01*
X313471Y243099D01*
X313509Y243134D01*
X313514Y243140D01*
X313525Y243155D01*
X313540Y243178D01*
X313560Y243211D01*
X313578Y243252D01*
X313593Y243300D01*
X313603Y243359D01*
X313609Y243425D01*
Y243428D01*
Y243433D01*
Y243443D01*
X313606Y243456D01*
Y243474D01*
X313603Y243491D01*
X313596Y243532D01*
X313586Y243581D01*
X313568Y243632D01*
X313542Y243680D01*
X313509Y243723D01*
Y243726D01*
X313504Y243728D01*
X313491Y243741D01*
X313471Y243759D01*
X313443Y243779D01*
X313407Y243797D01*
X313366Y243815D01*
X313320Y243828D01*
X313295Y243833D01*
D02*
G37*
%LPD*%
D10*
X332138Y150225D02*
Y159674D01*
X336862D01*
Y150225D02*
Y159674D01*
X332138Y150225D02*
X336862D01*
X262138Y215363D02*
X266862D01*
Y224812D01*
X262138D02*
X266862D01*
X262138Y215363D02*
Y224812D01*
X124102Y320804D02*
X166898D01*
Y340095D01*
X124102D02*
X166898D01*
X124102Y320804D02*
Y340095D01*
X334862Y167725D02*
Y177174D01*
X330138Y167725D02*
X334862D01*
X330138D02*
Y177174D01*
X334862D01*
X316898Y145158D02*
Y158741D01*
X329102D01*
Y145158D02*
Y158741D01*
X316898Y145158D02*
X329102D01*
X6083Y101777D02*
X28917D01*
Y130123D01*
X6083D02*
X28917D01*
X6083Y101777D02*
Y130123D01*
Y29934D02*
X28917D01*
Y58281D01*
X6083D02*
X28917D01*
X6083Y29934D02*
Y58281D01*
X291512Y223462D02*
Y262438D01*
Y223462D02*
X330488D01*
Y262438D01*
X291512D02*
X330488D01*
M02*
