G04*
G04 #@! TF.GenerationSoftware,Altium Limited,Altium Designer,20.1.14 (287)*
G04*
G04 Layer_Color=16711935*
%FSLAX25Y25*%
%MOIN*%
G70*
G04*
G04 #@! TF.SameCoordinates,AD96D815-87A0-4BF7-847C-790837316B47*
G04*
G04*
G04 #@! TF.FilePolarity,Positive*
G04*
G01*
G75*
%ADD16C,0.00394*%
%ADD17C,0.00591*%
%ADD19C,0.00600*%
D16*
X372316Y228958D02*
X370020D01*
X369561Y228499D01*
Y227580D01*
X370020Y227121D01*
X372316D01*
X369561Y224366D02*
Y226203D01*
X371398Y224366D01*
X371857D01*
X372316Y224825D01*
Y225743D01*
X371857Y226203D01*
D17*
X300255Y38500D02*
X297959D01*
X297500Y38041D01*
Y37122D01*
X297959Y36663D01*
X300255D01*
X299796Y35745D02*
X300255Y35286D01*
Y34367D01*
X299796Y33908D01*
X299337D01*
X298878Y34367D01*
Y34827D01*
Y34367D01*
X298418Y33908D01*
X297959D01*
X297500Y34367D01*
Y35286D01*
X297959Y35745D01*
D19*
X91000Y329755D02*
Y327459D01*
X91459Y327000D01*
X92378D01*
X92837Y327459D01*
Y329755D01*
X93755Y329296D02*
X94214Y329755D01*
X95132D01*
X95592Y329296D01*
Y328837D01*
X95132Y328378D01*
X95592Y327918D01*
Y327459D01*
X95132Y327000D01*
X94214D01*
X93755Y327459D01*
Y327918D01*
X94214Y328378D01*
X93755Y328837D01*
Y329296D01*
X94214Y328378D02*
X95132D01*
M02*
