G04*
G04 #@! TF.GenerationSoftware,Altium Limited,Altium Designer,20.1.14 (287)*
G04*
G04 Layer_Color=32896*
%FSLAX25Y25*%
%MOIN*%
G70*
G04*
G04 #@! TF.SameCoordinates,AD96D815-87A0-4BF7-847C-790837316B47*
G04*
G04*
G04 #@! TF.FilePolarity,Positive*
G04*
G01*
G75*
%ADD138C,0.01000*%
D138*
X183000Y190051D02*
Y186115D01*
X181032D01*
X180376Y186771D01*
Y187427D01*
X181032Y188083D01*
X183000D01*
X181032D01*
X180376Y188739D01*
Y189395D01*
X181032Y190051D01*
X183000D01*
X177096Y186115D02*
X178408D01*
X179064Y186771D01*
Y188083D01*
X178408Y188739D01*
X177096D01*
X176440Y188083D01*
Y187427D01*
X179064D01*
X175128Y186115D02*
Y188739D01*
X173161D01*
X172505Y188083D01*
Y186115D01*
X168569Y188739D02*
X170537D01*
X171193Y188083D01*
Y186771D01*
X170537Y186115D01*
X168569D01*
X167257Y190051D02*
Y186115D01*
Y188083D01*
X166601Y188739D01*
X165289D01*
X164633Y188083D01*
Y186115D01*
X156762Y189395D02*
X157418Y190051D01*
X158730D01*
X159386Y189395D01*
Y188739D01*
X158730Y188083D01*
X157418D01*
X156762Y187427D01*
Y186771D01*
X157418Y186115D01*
X158730D01*
X159386Y186771D01*
X155450Y186115D02*
X154138D01*
X154794D01*
Y188739D01*
X155450D01*
X150858Y184803D02*
X150202D01*
X149546Y185459D01*
Y188739D01*
X151514D01*
X152170Y188083D01*
Y186771D01*
X151514Y186115D01*
X149546D01*
X148234D02*
Y188739D01*
X146266D01*
X145610Y188083D01*
Y186115D01*
X143643Y188739D02*
X142331D01*
X141675Y188083D01*
Y186115D01*
X143643D01*
X144299Y186771D01*
X143643Y187427D01*
X141675D01*
X140363Y186115D02*
X139051D01*
X139707D01*
Y190051D01*
X140363D01*
X130524Y189395D02*
X131179Y190051D01*
X132491D01*
X133147Y189395D01*
Y186771D01*
X132491Y186115D01*
X131179D01*
X130524Y186771D01*
Y188083D01*
X131835D01*
X127244Y186115D02*
X128556D01*
X129212Y186771D01*
Y188083D01*
X128556Y188739D01*
X127244D01*
X126588Y188083D01*
Y187427D01*
X129212D01*
X125276Y186115D02*
Y188739D01*
X123308D01*
X122652Y188083D01*
Y186115D01*
X119372D02*
X120684D01*
X121340Y186771D01*
Y188083D01*
X120684Y188739D01*
X119372D01*
X118716Y188083D01*
Y187427D01*
X121340D01*
X117404Y188739D02*
Y186115D01*
Y187427D01*
X116748Y188083D01*
X116092Y188739D01*
X115436D01*
X112813D02*
X111501D01*
X110845Y188083D01*
Y186115D01*
X112813D01*
X113469Y186771D01*
X112813Y187427D01*
X110845D01*
X108877Y189395D02*
Y188739D01*
X109533D01*
X108221D01*
X108877D01*
Y186771D01*
X108221Y186115D01*
X105597D02*
X104285D01*
X103629Y186771D01*
Y188083D01*
X104285Y188739D01*
X105597D01*
X106253Y188083D01*
Y186771D01*
X105597Y186115D01*
X102317Y188739D02*
Y186115D01*
Y187427D01*
X101661Y188083D01*
X101005Y188739D01*
X100349D01*
X183000Y181616D02*
Y177681D01*
X181032D01*
X180376Y178337D01*
Y178992D01*
Y179648D01*
X181032Y180304D01*
X183000D01*
X179064D02*
Y178337D01*
X178408Y177681D01*
X176440D01*
Y177025D01*
X177096Y176369D01*
X177752D01*
X176440Y177681D02*
Y180304D01*
X168569Y180960D02*
X169225Y181616D01*
X170537D01*
X171193Y180960D01*
Y180304D01*
X170537Y179648D01*
X169225D01*
X168569Y178992D01*
Y178337D01*
X169225Y177681D01*
X170537D01*
X171193Y178337D01*
X164633Y180304D02*
X166601D01*
X167257Y179648D01*
Y178337D01*
X166601Y177681D01*
X164633D01*
X162665D02*
X161353D01*
X160697Y178337D01*
Y179648D01*
X161353Y180304D01*
X162665D01*
X163321Y179648D01*
Y178337D01*
X162665Y177681D01*
X158730Y180960D02*
Y180304D01*
X159386D01*
X158074D01*
X158730D01*
Y178337D01*
X158074Y177681D01*
X155450Y180960D02*
Y180304D01*
X156106D01*
X154794D01*
X155450D01*
Y178337D01*
X154794Y177681D01*
X148890Y181616D02*
Y177681D01*
Y179648D01*
X146266D01*
Y181616D01*
Y177681D01*
X144299Y180304D02*
X142987D01*
X142331Y179648D01*
Y177681D01*
X144299D01*
X144955Y178337D01*
X144299Y178992D01*
X142331D01*
X141019Y177681D02*
Y180304D01*
X139051D01*
X138395Y179648D01*
Y177681D01*
X137083D02*
X135115D01*
X134459Y178337D01*
X135115Y178992D01*
X136427D01*
X137083Y179648D01*
X136427Y180304D01*
X134459D01*
X132491Y177681D02*
X131179D01*
X130524Y178337D01*
Y179648D01*
X131179Y180304D01*
X132491D01*
X133147Y179648D01*
Y178337D01*
X132491Y177681D01*
X129212D02*
Y180304D01*
X127244D01*
X126588Y179648D01*
Y177681D01*
X180376Y165403D02*
X181032Y166059D01*
X182344D01*
X183000Y165403D01*
Y164747D01*
X182344Y164091D01*
X181032D01*
X180376Y163435D01*
Y162779D01*
X181032Y162123D01*
X182344D01*
X183000Y162779D01*
X179064Y166059D02*
X176440D01*
X177752D01*
Y162123D01*
X175128D02*
Y166059D01*
X173817Y164747D01*
X172505Y166059D01*
Y162123D01*
X171193Y165403D02*
X170537Y166059D01*
X169225D01*
X168569Y165403D01*
Y164747D01*
X169225Y164091D01*
X169881D01*
X169225D01*
X168569Y163435D01*
Y162779D01*
X169225Y162123D01*
X170537D01*
X171193Y162779D01*
X164633Y162123D02*
X167257D01*
X164633Y164747D01*
Y165403D01*
X165289Y166059D01*
X166601D01*
X167257Y165403D01*
X163321Y166059D02*
Y162123D01*
X160697D01*
X157418D02*
Y166059D01*
X159386Y164091D01*
X156762D01*
X155450Y165403D02*
X154794Y166059D01*
X153482D01*
X152826Y165403D01*
Y164747D01*
X153482Y164091D01*
X154138D01*
X153482D01*
X152826Y163435D01*
Y162779D01*
X153482Y162123D01*
X154794D01*
X155450Y162779D01*
X151514Y165403D02*
X150858Y166059D01*
X149546D01*
X148890Y165403D01*
Y164747D01*
X149546Y164091D01*
X150202D01*
X149546D01*
X148890Y163435D01*
Y162779D01*
X149546Y162123D01*
X150858D01*
X151514Y162779D01*
X144955Y165403D02*
X145610Y166059D01*
X146922D01*
X147578Y165403D01*
Y162779D01*
X146922Y162123D01*
X145610D01*
X144955Y162779D01*
X141019Y165403D02*
X141675Y166059D01*
X142987D01*
X143643Y165403D01*
Y162779D01*
X142987Y162123D01*
X141675D01*
X141019Y162779D01*
X183000Y155000D02*
Y157624D01*
X181688Y158936D01*
X180376Y157624D01*
Y155000D01*
Y156968D01*
X183000D01*
X179064Y158936D02*
Y155000D01*
X177096D01*
X176440Y155656D01*
Y158280D01*
X177096Y158936D01*
X179064D01*
X175128Y155656D02*
X174473Y155000D01*
X173161D01*
X172505Y155656D01*
Y158280D01*
X173161Y158936D01*
X174473D01*
X175128Y158280D01*
Y157624D01*
X174473Y156968D01*
X172505D01*
X171193Y158280D02*
X170537Y158936D01*
X169225D01*
X168569Y158280D01*
Y157624D01*
X169225Y156968D01*
X168569Y156312D01*
Y155656D01*
X169225Y155000D01*
X170537D01*
X171193Y155656D01*
Y156312D01*
X170537Y156968D01*
X171193Y157624D01*
Y158280D01*
X170537Y156968D02*
X169225D01*
X167257Y158280D02*
X166601Y158936D01*
X165289D01*
X164633Y158280D01*
Y157624D01*
X165289Y156968D01*
X165945D01*
X165289D01*
X164633Y156312D01*
Y155656D01*
X165289Y155000D01*
X166601D01*
X167257Y155656D01*
X161353Y155000D02*
Y158936D01*
X163321Y156968D01*
X160697D01*
M02*
