G04*
G04 #@! TF.GenerationSoftware,Altium Limited,Altium Designer,20.1.14 (287)*
G04*
G04 Layer_Color=32896*
%FSLAX25Y25*%
%MOIN*%
G70*
G04*
G04 #@! TF.SameCoordinates,DD9DAAA6-87D7-4B0E-BF1D-CD2AD6DAE19A*
G04*
G04*
G04 #@! TF.FilePolarity,Positive*
G04*
G01*
G75*
%ADD10C,0.00787*%
D10*
X183213Y207585D02*
Y203650D01*
X181245D01*
X180589Y204306D01*
Y204961D01*
X181245Y205617D01*
X183213D01*
X181245D01*
X180589Y206273D01*
Y206929D01*
X181245Y207585D01*
X183213D01*
X177309Y203650D02*
X178621D01*
X179277Y204306D01*
Y205617D01*
X178621Y206273D01*
X177309D01*
X176653Y205617D01*
Y204961D01*
X179277D01*
X175341Y203650D02*
Y206273D01*
X173373D01*
X172717Y205617D01*
Y203650D01*
X168782Y206273D02*
X170749D01*
X171405Y205617D01*
Y204306D01*
X170749Y203650D01*
X168782D01*
X167470Y207585D02*
Y203650D01*
Y205617D01*
X166814Y206273D01*
X165502D01*
X164846Y205617D01*
Y203650D01*
X156974Y206929D02*
X157630Y207585D01*
X158942D01*
X159598Y206929D01*
Y206273D01*
X158942Y205617D01*
X157630D01*
X156974Y204961D01*
Y204306D01*
X157630Y203650D01*
X158942D01*
X159598Y204306D01*
X155662Y203650D02*
X154350D01*
X155007D01*
Y206273D01*
X155662D01*
X151071Y202338D02*
X150415D01*
X149759Y202994D01*
Y206273D01*
X151727D01*
X152383Y205617D01*
Y204306D01*
X151727Y203650D01*
X149759D01*
X148447D02*
Y206273D01*
X146479D01*
X145823Y205617D01*
Y203650D01*
X143855Y206273D02*
X142543D01*
X141887Y205617D01*
Y203650D01*
X143855D01*
X144511Y204306D01*
X143855Y204961D01*
X141887D01*
X140575Y203650D02*
X139263D01*
X139919D01*
Y207585D01*
X140575D01*
X130736Y206929D02*
X131392Y207585D01*
X132704D01*
X133360Y206929D01*
Y204306D01*
X132704Y203650D01*
X131392D01*
X130736Y204306D01*
Y205617D01*
X132048D01*
X127456Y203650D02*
X128768D01*
X129424Y204306D01*
Y205617D01*
X128768Y206273D01*
X127456D01*
X126800Y205617D01*
Y204961D01*
X129424D01*
X125488Y203650D02*
Y206273D01*
X123521D01*
X122865Y205617D01*
Y203650D01*
X119585D02*
X120897D01*
X121553Y204306D01*
Y205617D01*
X120897Y206273D01*
X119585D01*
X118929Y205617D01*
Y204961D01*
X121553D01*
X117617Y206273D02*
Y203650D01*
Y204961D01*
X116961Y205617D01*
X116305Y206273D01*
X115649D01*
X113025D02*
X111713D01*
X111057Y205617D01*
Y203650D01*
X113025D01*
X113681Y204306D01*
X113025Y204961D01*
X111057D01*
X109090Y206929D02*
Y206273D01*
X109746D01*
X108433D01*
X109090D01*
Y204306D01*
X108433Y203650D01*
X105810D02*
X104498D01*
X103842Y204306D01*
Y205617D01*
X104498Y206273D01*
X105810D01*
X106466Y205617D01*
Y204306D01*
X105810Y203650D01*
X102530Y206273D02*
Y203650D01*
Y204961D01*
X101874Y205617D01*
X101218Y206273D01*
X100562D01*
X183213Y199661D02*
Y195725D01*
X181245D01*
X180589Y196381D01*
Y197037D01*
Y197693D01*
X181245Y198349D01*
X183213D01*
X179277D02*
Y196381D01*
X178621Y195725D01*
X176653D01*
Y195069D01*
X177309Y194413D01*
X177965D01*
X176653Y195725D02*
Y198349D01*
X168782Y199005D02*
X169438Y199661D01*
X170749D01*
X171405Y199005D01*
Y198349D01*
X170749Y197693D01*
X169438D01*
X168782Y197037D01*
Y196381D01*
X169438Y195725D01*
X170749D01*
X171405Y196381D01*
X164846Y198349D02*
X166814D01*
X167470Y197693D01*
Y196381D01*
X166814Y195725D01*
X164846D01*
X162878D02*
X161566D01*
X160910Y196381D01*
Y197693D01*
X161566Y198349D01*
X162878D01*
X163534Y197693D01*
Y196381D01*
X162878Y195725D01*
X158942Y199005D02*
Y198349D01*
X159598D01*
X158286D01*
X158942D01*
Y196381D01*
X158286Y195725D01*
X155662Y199005D02*
Y198349D01*
X156318D01*
X155007D01*
X155662D01*
Y196381D01*
X155007Y195725D01*
X149103Y199661D02*
Y195725D01*
Y197693D01*
X146479D01*
Y199661D01*
Y195725D01*
X144511Y198349D02*
X143199D01*
X142543Y197693D01*
Y195725D01*
X144511D01*
X145167Y196381D01*
X144511Y197037D01*
X142543D01*
X141231Y195725D02*
Y198349D01*
X139263D01*
X138608Y197693D01*
Y195725D01*
X137296D02*
X135328D01*
X134672Y196381D01*
X135328Y197037D01*
X136640D01*
X137296Y197693D01*
X136640Y198349D01*
X134672D01*
X132704Y195725D02*
X131392D01*
X130736Y196381D01*
Y197693D01*
X131392Y198349D01*
X132704D01*
X133360Y197693D01*
Y196381D01*
X132704Y195725D01*
X129424D02*
Y198349D01*
X127456D01*
X126800Y197693D01*
Y195725D01*
X183213Y181188D02*
Y185124D01*
X181901Y183812D01*
X180589Y185124D01*
Y181188D01*
X176653Y184468D02*
X177309Y185124D01*
X178621D01*
X179277Y184468D01*
Y181844D01*
X178621Y181188D01*
X177309D01*
X176653Y181844D01*
X175341Y185124D02*
Y181844D01*
X174685Y181188D01*
X173373D01*
X172717Y181844D01*
Y185124D01*
X171405Y183812D02*
X170749D01*
Y183156D01*
X171405D01*
Y183812D01*
Y181844D02*
X170749D01*
Y181188D01*
X171405D01*
Y181844D01*
X161566Y184468D02*
X162222Y185124D01*
X163534D01*
X164190Y184468D01*
Y183812D01*
X163534Y183156D01*
X162222D01*
X161566Y182500D01*
Y181844D01*
X162222Y181188D01*
X163534D01*
X164190Y181844D01*
X160254Y185124D02*
X157630D01*
X158942D01*
Y181188D01*
X156318D02*
Y185124D01*
X155007Y183812D01*
X153695Y185124D01*
Y181188D01*
X152383Y184468D02*
X151727Y185124D01*
X150415D01*
X149759Y184468D01*
Y183812D01*
X150415Y183156D01*
X151071D01*
X150415D01*
X149759Y182500D01*
Y181844D01*
X150415Y181188D01*
X151727D01*
X152383Y181844D01*
X145823Y181188D02*
X148447D01*
X145823Y183812D01*
Y184468D01*
X146479Y185124D01*
X147791D01*
X148447Y184468D01*
X144511Y185124D02*
Y181188D01*
X141887D01*
X138608D02*
Y185124D01*
X140575Y183156D01*
X137952D01*
X136640Y184468D02*
X135984Y185124D01*
X134672D01*
X134016Y184468D01*
Y183812D01*
X134672Y183156D01*
X135328D01*
X134672D01*
X134016Y182500D01*
Y181844D01*
X134672Y181188D01*
X135984D01*
X136640Y181844D01*
X132704Y184468D02*
X132048Y185124D01*
X130736D01*
X130080Y184468D01*
Y183812D01*
X130736Y183156D01*
X131392D01*
X130736D01*
X130080Y182500D01*
Y181844D01*
X130736Y181188D01*
X132048D01*
X132704Y181844D01*
X126144Y184468D02*
X126800Y185124D01*
X128112D01*
X128768Y184468D01*
Y181844D01*
X128112Y181188D01*
X126800D01*
X126144Y181844D01*
X122209Y184468D02*
X122865Y185124D01*
X124177D01*
X124832Y184468D01*
Y181844D01*
X124177Y181188D01*
X122865D01*
X122209Y181844D01*
X183213Y178511D02*
Y174575D01*
X181245D01*
X180589Y175231D01*
Y177855D01*
X181245Y178511D01*
X183213D01*
X179277D02*
Y174575D01*
X177309D01*
X176653Y175231D01*
Y177855D01*
X177309Y178511D01*
X179277D01*
X172717Y177855D02*
X173373Y178511D01*
X174685D01*
X175341Y177855D01*
Y177199D01*
X174685Y176543D01*
X173373D01*
X172717Y175887D01*
Y175231D01*
X173373Y174575D01*
X174685D01*
X175341Y175231D01*
X171405Y177199D02*
X170749D01*
Y176543D01*
X171405D01*
Y177199D01*
Y175231D02*
X170749D01*
Y174575D01*
X171405D01*
Y175231D01*
X164190Y174575D02*
Y177199D01*
X162878Y178511D01*
X161566Y177199D01*
Y174575D01*
Y176543D01*
X164190D01*
X160254Y178511D02*
Y174575D01*
X158286D01*
X157630Y175231D01*
Y177855D01*
X158286Y178511D01*
X160254D01*
X156318Y175231D02*
X155662Y174575D01*
X154350D01*
X153695Y175231D01*
Y177855D01*
X154350Y178511D01*
X155662D01*
X156318Y177855D01*
Y177199D01*
X155662Y176543D01*
X153695D01*
X152383Y177855D02*
X151727Y178511D01*
X150415D01*
X149759Y177855D01*
Y177199D01*
X150415Y176543D01*
X149759Y175887D01*
Y175231D01*
X150415Y174575D01*
X151727D01*
X152383Y175231D01*
Y175887D01*
X151727Y176543D01*
X152383Y177199D01*
Y177855D01*
X151727Y176543D02*
X150415D01*
X148447Y177855D02*
X147791Y178511D01*
X146479D01*
X145823Y177855D01*
Y177199D01*
X146479Y176543D01*
X147135D01*
X146479D01*
X145823Y175887D01*
Y175231D01*
X146479Y174575D01*
X147791D01*
X148447Y175231D01*
X142543Y174575D02*
Y178511D01*
X144511Y176543D01*
X141887D01*
X183213Y171898D02*
Y167963D01*
X181245D01*
X180589Y168619D01*
Y171242D01*
X181245Y171898D01*
X183213D01*
X179277Y167963D02*
Y170586D01*
X177965Y171898D01*
X176653Y170586D01*
Y167963D01*
Y169930D01*
X179277D01*
X172717Y171242D02*
X173373Y171898D01*
X174685D01*
X175341Y171242D01*
Y168619D01*
X174685Y167963D01*
X173373D01*
X172717Y168619D01*
X171405Y170586D02*
X170749D01*
Y169930D01*
X171405D01*
Y170586D01*
Y168619D02*
X170749D01*
Y167963D01*
X171405D01*
Y168619D01*
X164190Y167963D02*
Y171898D01*
X162878Y170586D01*
X161566Y171898D01*
Y167963D01*
X157630Y171242D02*
X158286Y171898D01*
X159598D01*
X160254Y171242D01*
Y168619D01*
X159598Y167963D01*
X158286D01*
X157630Y168619D01*
X156318Y167963D02*
Y171898D01*
X154350D01*
X153695Y171242D01*
Y169930D01*
X154350Y169274D01*
X156318D01*
X150415Y167963D02*
Y171898D01*
X152383Y169930D01*
X149759D01*
X148447Y171242D02*
X147791Y171898D01*
X146479D01*
X145823Y171242D01*
Y170586D01*
X146479Y169930D01*
X145823Y169274D01*
Y168619D01*
X146479Y167963D01*
X147791D01*
X148447Y168619D01*
Y169274D01*
X147791Y169930D01*
X148447Y170586D01*
Y171242D01*
X147791Y169930D02*
X146479D01*
X144511Y167963D02*
X143199D01*
X143855D01*
Y171898D01*
X144511Y171242D01*
X138608Y167963D02*
X141231D01*
X138608Y170586D01*
Y171242D01*
X139263Y171898D01*
X140575D01*
X141231Y171242D01*
X183213Y158673D02*
Y156049D01*
X181901Y154737D01*
X180589Y156049D01*
Y158673D01*
X179277Y154737D02*
X177965D01*
X178621D01*
Y158673D01*
X179277Y158017D01*
X175997Y154737D02*
Y155393D01*
X175341D01*
Y154737D01*
X175997D01*
X172717Y158017D02*
X172061Y158673D01*
X170749D01*
X170094Y158017D01*
Y155393D01*
X170749Y154737D01*
X172061D01*
X172717Y155393D01*
Y158017D01*
X168782D02*
X168126Y158673D01*
X166814D01*
X166158Y158017D01*
Y155393D01*
X166814Y154737D01*
X168126D01*
X168782Y155393D01*
Y158017D01*
X156974Y156705D02*
X154350D01*
X147135Y158673D02*
X148447D01*
X149103Y158017D01*
Y155393D01*
X148447Y154737D01*
X147135D01*
X146479Y155393D01*
Y158017D01*
X147135Y158673D01*
X142543Y157361D02*
X144511D01*
X145167Y156705D01*
Y155393D01*
X144511Y154737D01*
X142543D01*
X140575Y158017D02*
Y157361D01*
X141231D01*
X139919D01*
X140575D01*
Y155393D01*
X139919Y154737D01*
X137296D02*
X135984D01*
X135328Y155393D01*
Y156705D01*
X135984Y157361D01*
X137296D01*
X137952Y156705D01*
Y155393D01*
X137296Y154737D01*
X134016Y158673D02*
Y154737D01*
X132048D01*
X131392Y155393D01*
Y156049D01*
Y156705D01*
X132048Y157361D01*
X134016D01*
X128112Y154737D02*
X129424D01*
X130080Y155393D01*
Y156705D01*
X129424Y157361D01*
X128112D01*
X127456Y156705D01*
Y156049D01*
X130080D01*
X126144Y157361D02*
Y154737D01*
Y156049D01*
X125488Y156705D01*
X124832Y157361D01*
X124177D01*
X115649Y154737D02*
X118273D01*
X115649Y157361D01*
Y158017D01*
X116305Y158673D01*
X117617D01*
X118273Y158017D01*
X114337D02*
X113681Y158673D01*
X112369D01*
X111713Y158017D01*
Y155393D01*
X112369Y154737D01*
X113681D01*
X114337Y155393D01*
Y158017D01*
X107778Y154737D02*
X110401D01*
X107778Y157361D01*
Y158017D01*
X108433Y158673D01*
X109746D01*
X110401Y158017D01*
X106466D02*
X105810Y158673D01*
X104498D01*
X103842Y158017D01*
Y155393D01*
X104498Y154737D01*
X105810D01*
X106466Y155393D01*
Y158017D01*
M02*
