G04*
G04 #@! TF.GenerationSoftware,Altium Limited,Altium Designer,20.1.14 (287)*
G04*
G04 Layer_Color=16711935*
%FSLAX25Y25*%
%MOIN*%
G70*
G04*
G04 #@! TF.SameCoordinates,DD9DAAA6-87D7-4B0E-BF1D-CD2AD6DAE19A*
G04*
G04*
G04 #@! TF.FilePolarity,Positive*
G04*
G01*
G75*
%ADD10C,0.00787*%
%ADD14C,0.00500*%
%ADD17C,0.00394*%
%ADD135R,0.17716X0.02854*%
D10*
X36744Y208072D02*
X35957D01*
X36744D01*
X332630Y151505D02*
Y158395D01*
X336370D01*
Y151505D02*
Y158395D01*
X332630Y151505D02*
X336370D01*
X262630Y216643D02*
X266370D01*
Y223533D01*
X262630D02*
X266370D01*
X262630Y216643D02*
Y223533D01*
X124496Y321198D02*
X166504D01*
Y339702D01*
X124496D02*
X166504D01*
X124496Y321198D02*
Y339702D01*
X334370Y169005D02*
Y175895D01*
X330630Y169005D02*
X334370D01*
X330630D02*
Y175895D01*
X334370D01*
X317980Y145552D02*
Y158347D01*
X328020D01*
Y145552D02*
Y158347D01*
X317980Y145552D02*
X328020D01*
X6476Y103942D02*
X28524D01*
Y127958D01*
X6476D02*
X28524D01*
X6476Y103942D02*
Y127958D01*
Y32099D02*
X28524D01*
Y56115D01*
X6476D02*
X28524D01*
X6476Y32099D02*
Y56115D01*
X296827Y228777D02*
Y257123D01*
Y228777D02*
X325173D01*
Y257123D01*
X296827D02*
X325173D01*
D14*
X39303Y7147D02*
Y269745D01*
Y7147D02*
X257807D01*
Y269745D01*
X39303D02*
X257807D01*
D17*
X228185Y292292D02*
X228160Y293289D01*
X228084Y294284D01*
X227958Y295273D01*
X227782Y296255D01*
X227557Y297227D01*
X227282Y298185D01*
X226960Y299129D01*
X226590Y300055D01*
X226173Y300961D01*
X225711Y301846D01*
X225206Y302705D01*
X224657Y303538D01*
X224066Y304342D01*
X223436Y305115D01*
X222768Y305855D01*
X222062Y306560D01*
X221322Y307228D01*
X220549Y307859D01*
X219745Y308449D01*
X218913Y308998D01*
X218053Y309504D01*
X217169Y309966D01*
X216263Y310382D01*
X215337Y310752D01*
X214393Y311075D01*
X213434Y311349D01*
X212463Y311574D01*
X211481Y311750D01*
X210491Y311876D01*
X209497Y311952D01*
X208500Y311977D01*
X207503Y311952D01*
X206508Y311876D01*
X205519Y311750D01*
X204537Y311574D01*
X203566Y311349D01*
X202607Y311075D01*
X201663Y310752D01*
X200737Y310382D01*
X199831Y309966D01*
X198947Y309504D01*
X198087Y308998D01*
X197255Y308449D01*
X196451Y307859D01*
X195678Y307228D01*
X194938Y306560D01*
X194232Y305855D01*
X193564Y305115D01*
X192933Y304342D01*
X192343Y303538D01*
X191794Y302705D01*
X191288Y301846D01*
X190827Y300961D01*
X190410Y300055D01*
X190040Y299129D01*
X189718Y298185D01*
X189443Y297226D01*
X189218Y296255D01*
X189042Y295273D01*
X188916Y294284D01*
X188840Y293289D01*
X188815Y292292D01*
X188840Y291295D01*
X188916Y290301D01*
X189042Y289312D01*
X189218Y288330D01*
X189443Y287358D01*
X189718Y286399D01*
X190040Y285456D01*
X190410Y284529D01*
X190827Y283623D01*
X191288Y282739D01*
X191794Y281880D01*
X192343Y281047D01*
X192934Y280243D01*
X193564Y279470D01*
X194232Y278730D01*
X194938Y278025D01*
X195678Y277356D01*
X196451Y276726D01*
X197255Y276136D01*
X198087Y275587D01*
X198947Y275081D01*
X199831Y274619D01*
X200737Y274203D01*
X201663Y273833D01*
X202607Y273510D01*
X203566Y273236D01*
X204538Y273010D01*
X205519Y272834D01*
X206509Y272708D01*
X207503Y272633D01*
X208500Y272607D01*
X209497Y272633D01*
X210492Y272708D01*
X211481Y272834D01*
X212463Y273010D01*
X213434Y273236D01*
X214393Y273510D01*
X215337Y273833D01*
X216263Y274203D01*
X217169Y274619D01*
X218053Y275081D01*
X218913Y275587D01*
X219745Y276136D01*
X220549Y276726D01*
X221322Y277356D01*
X222062Y278025D01*
X222768Y278730D01*
X223436Y279470D01*
X224066Y280243D01*
X224657Y281047D01*
X225206Y281880D01*
X225712Y282739D01*
X226173Y283623D01*
X226590Y284529D01*
X226960Y285456D01*
X227282Y286400D01*
X227557Y287358D01*
X227782Y288330D01*
X227958Y289312D01*
X228084Y290301D01*
X228160Y291295D01*
X228185Y292292D01*
X336705Y35899D02*
X336441Y36883D01*
X335720Y37603D01*
X334736Y37867D01*
X333752Y37603D01*
X333031Y36883D01*
X332768Y35899D01*
X333031Y34914D01*
X333752Y34194D01*
X334736Y33930D01*
X335720Y34194D01*
X336441Y34914D01*
X336705Y35899D01*
X144185Y292292D02*
X144160Y293289D01*
X144084Y294284D01*
X143958Y295273D01*
X143782Y296255D01*
X143557Y297227D01*
X143282Y298185D01*
X142960Y299129D01*
X142590Y300055D01*
X142173Y300962D01*
X141712Y301846D01*
X141206Y302705D01*
X140657Y303538D01*
X140067Y304342D01*
X139436Y305115D01*
X138768Y305855D01*
X138062Y306560D01*
X137322Y307229D01*
X136549Y307859D01*
X135745Y308449D01*
X134913Y308998D01*
X134053Y309504D01*
X133169Y309966D01*
X132263Y310382D01*
X131337Y310752D01*
X130393Y311075D01*
X129434Y311349D01*
X128463Y311575D01*
X127481Y311751D01*
X126491Y311877D01*
X125497Y311952D01*
X124500Y311978D01*
X123503Y311952D01*
X122509Y311877D01*
X121519Y311751D01*
X120537Y311575D01*
X119566Y311349D01*
X118607Y311075D01*
X117663Y310752D01*
X116737Y310382D01*
X115831Y309966D01*
X114947Y309504D01*
X114087Y308998D01*
X113254Y308449D01*
X112451Y307859D01*
X111678Y307229D01*
X110938Y306560D01*
X110232Y305855D01*
X109564Y305115D01*
X108933Y304342D01*
X108343Y303538D01*
X107794Y302705D01*
X107288Y301846D01*
X106827Y300962D01*
X106410Y300055D01*
X106040Y299129D01*
X105718Y298185D01*
X105443Y297227D01*
X105218Y296255D01*
X105042Y295273D01*
X104916Y294284D01*
X104840Y293289D01*
X104815Y292292D01*
X104840Y291295D01*
X104916Y290301D01*
X105042Y289312D01*
X105218Y288330D01*
X105443Y287358D01*
X105718Y286399D01*
X106040Y285456D01*
X106410Y284529D01*
X106827Y283623D01*
X107289Y282739D01*
X107794Y281880D01*
X108343Y281047D01*
X108934Y280243D01*
X109564Y279470D01*
X110232Y278730D01*
X110938Y278025D01*
X111678Y277356D01*
X112451Y276726D01*
X113255Y276136D01*
X114087Y275587D01*
X114947Y275081D01*
X115831Y274619D01*
X116737Y274203D01*
X117663Y273833D01*
X118607Y273510D01*
X119566Y273236D01*
X120537Y273010D01*
X121519Y272834D01*
X122509Y272708D01*
X123503Y272633D01*
X124500Y272607D01*
X125497Y272633D01*
X126492Y272708D01*
X127481Y272834D01*
X128463Y273010D01*
X129434Y273236D01*
X130393Y273510D01*
X131337Y273833D01*
X132263Y274203D01*
X133169Y274619D01*
X134053Y275081D01*
X134913Y275587D01*
X135746Y276136D01*
X136549Y276726D01*
X137322Y277356D01*
X138062Y278025D01*
X138768Y278730D01*
X139436Y279470D01*
X140067Y280243D01*
X140657Y281047D01*
X141206Y281880D01*
X141712Y282739D01*
X142173Y283623D01*
X142590Y284530D01*
X142960Y285456D01*
X143282Y286400D01*
X143557Y287358D01*
X143782Y288330D01*
X143958Y289312D01*
X144084Y290301D01*
X144160Y291296D01*
X144185Y292292D01*
X187343Y291450D02*
X187317Y292447D01*
X187241Y293441D01*
X187116Y294431D01*
X186940Y295412D01*
X186714Y296384D01*
X186440Y297343D01*
X186117Y298287D01*
X185747Y299213D01*
X185331Y300119D01*
X184869Y301003D01*
X184363Y301863D01*
X183814Y302695D01*
X183224Y303499D01*
X182594Y304272D01*
X181925Y305012D01*
X181220Y305717D01*
X180480Y306386D01*
X179707Y307016D01*
X178903Y307607D01*
X178070Y308155D01*
X177211Y308661D01*
X176327Y309123D01*
X175420Y309540D01*
X174494Y309910D01*
X173550Y310232D01*
X172592Y310507D01*
X171620Y310732D01*
X170638Y310908D01*
X169649Y311034D01*
X168655Y311110D01*
X167657Y311135D01*
X166660Y311110D01*
X165666Y311034D01*
X164677Y310908D01*
X163695Y310732D01*
X162723Y310507D01*
X161765Y310232D01*
X160821Y309910D01*
X159895Y309540D01*
X158988Y309123D01*
X158104Y308661D01*
X157245Y308155D01*
X156412Y307607D01*
X155608Y307016D01*
X154835Y306386D01*
X154095Y305717D01*
X153390Y305012D01*
X152721Y304272D01*
X152091Y303499D01*
X151501Y302695D01*
X150952Y301863D01*
X150446Y301003D01*
X149984Y300119D01*
X149568Y299213D01*
X149198Y298287D01*
X148875Y297343D01*
X148601Y296384D01*
X148375Y295412D01*
X148199Y294431D01*
X148073Y293441D01*
X147998Y292447D01*
X147972Y291450D01*
X147998Y290453D01*
X148073Y289458D01*
X148199Y288469D01*
X148375Y287487D01*
X148601Y286516D01*
X148875Y285557D01*
X149198Y284613D01*
X149568Y283687D01*
X149984Y282781D01*
X150446Y281897D01*
X150952Y281037D01*
X151501Y280204D01*
X152091Y279400D01*
X152721Y278627D01*
X153390Y277888D01*
X154095Y277182D01*
X154835Y276514D01*
X155608Y275883D01*
X156412Y275293D01*
X157245Y274744D01*
X158104Y274238D01*
X158988Y273777D01*
X159895Y273360D01*
X160821Y272990D01*
X161765Y272668D01*
X162723Y272393D01*
X163695Y272168D01*
X164677Y271992D01*
X165666Y271866D01*
X166660Y271790D01*
X167657Y271765D01*
X168655Y271790D01*
X169649Y271866D01*
X170638Y271992D01*
X171620Y272168D01*
X172592Y272393D01*
X173550Y272668D01*
X174494Y272990D01*
X175420Y273360D01*
X176327Y273777D01*
X177211Y274238D01*
X178070Y274744D01*
X178903Y275293D01*
X179707Y275883D01*
X180480Y276514D01*
X181220Y277182D01*
X181925Y277888D01*
X182594Y278628D01*
X183224Y279401D01*
X183814Y280205D01*
X184363Y281037D01*
X184869Y281897D01*
X185331Y282781D01*
X185747Y283687D01*
X186117Y284613D01*
X186440Y285557D01*
X186714Y286516D01*
X186940Y287487D01*
X187116Y288469D01*
X187241Y289458D01*
X187317Y290453D01*
X187343Y291450D01*
X202693Y321848D02*
X202429Y322832D01*
X201709Y323552D01*
X200724Y323816D01*
X199740Y323552D01*
X199020Y322832D01*
X198756Y321848D01*
X199020Y320863D01*
X199740Y320143D01*
X200724Y319879D01*
X201709Y320143D01*
X202429Y320863D01*
X202693Y321848D01*
X254685Y322950D02*
X254660Y323947D01*
X254584Y324941D01*
X254458Y325931D01*
X254282Y326912D01*
X254057Y327884D01*
X253782Y328843D01*
X253460Y329787D01*
X253090Y330713D01*
X252673Y331619D01*
X252211Y332503D01*
X251706Y333363D01*
X251157Y334195D01*
X250566Y334999D01*
X249936Y335772D01*
X249268Y336512D01*
X248562Y337217D01*
X247822Y337886D01*
X247049Y338516D01*
X246245Y339107D01*
X245413Y339655D01*
X244553Y340161D01*
X243669Y340623D01*
X242763Y341040D01*
X241837Y341409D01*
X240893Y341732D01*
X239934Y342006D01*
X238963Y342232D01*
X237981Y342408D01*
X236992Y342534D01*
X235997Y342610D01*
X235000Y342635D01*
X234003Y342610D01*
X233009Y342534D01*
X232019Y342408D01*
X231037Y342232D01*
X230066Y342006D01*
X229107Y341732D01*
X228163Y341409D01*
X227237Y341040D01*
X226331Y340623D01*
X225447Y340161D01*
X224587Y339655D01*
X223755Y339107D01*
X222951Y338516D01*
X222178Y337886D01*
X221438Y337217D01*
X220732Y336512D01*
X220064Y335772D01*
X219433Y334999D01*
X218843Y334195D01*
X218294Y333363D01*
X217788Y332503D01*
X217327Y331619D01*
X216910Y330713D01*
X216540Y329786D01*
X216218Y328843D01*
X215943Y327884D01*
X215718Y326912D01*
X215542Y325931D01*
X215416Y324941D01*
X215340Y323947D01*
X215315Y322950D01*
X215340Y321953D01*
X215416Y320958D01*
X215542Y319969D01*
X215718Y318987D01*
X215943Y318016D01*
X216218Y317057D01*
X216540Y316113D01*
X216910Y315187D01*
X217327Y314281D01*
X217789Y313397D01*
X218294Y312537D01*
X218843Y311704D01*
X219434Y310900D01*
X220064Y310127D01*
X220732Y309387D01*
X221438Y308682D01*
X222178Y308014D01*
X222951Y307383D01*
X223755Y306793D01*
X224587Y306244D01*
X225447Y305738D01*
X226331Y305276D01*
X227237Y304860D01*
X228163Y304490D01*
X229107Y304168D01*
X230066Y303893D01*
X231037Y303668D01*
X232019Y303492D01*
X233009Y303366D01*
X234003Y303290D01*
X235000Y303265D01*
X235997Y303290D01*
X236992Y303366D01*
X237981Y303492D01*
X238963Y303668D01*
X239934Y303893D01*
X240893Y304168D01*
X241837Y304490D01*
X242763Y304860D01*
X243669Y305276D01*
X244553Y305738D01*
X245413Y306244D01*
X246246Y306793D01*
X247049Y307383D01*
X247822Y308014D01*
X248562Y308682D01*
X249268Y309388D01*
X249936Y310128D01*
X250567Y310901D01*
X251157Y311704D01*
X251706Y312537D01*
X252212Y313397D01*
X252673Y314281D01*
X253090Y315187D01*
X253460Y316113D01*
X253782Y317057D01*
X254057Y318016D01*
X254282Y318987D01*
X254458Y319969D01*
X254584Y320958D01*
X254660Y321953D01*
X254685Y322950D01*
X350795Y47544D02*
X351362Y48379D01*
X351840Y49268D01*
X352224Y50200D01*
X352510Y51168D01*
X352694Y52160D01*
X352776Y53166D01*
X352753Y54175D01*
X352626Y55176D01*
X352397Y56158D01*
X352068Y57112D01*
X351642Y58027D01*
X351125Y58893D01*
X350521Y59701D01*
X349837Y60443D01*
X349080Y61110D01*
X348258Y61695D01*
X347381Y62193D01*
X346457Y62598D01*
X345496Y62906D01*
X344508Y63112D01*
X343505Y63216D01*
X342495D01*
X341492Y63112D01*
X340504Y62906D01*
X339543Y62598D01*
X338619Y62193D01*
X337742Y61695D01*
X336920Y61110D01*
X336163Y60443D01*
X335479Y59701D01*
X334875Y58893D01*
X334358Y58027D01*
X333932Y57112D01*
X333603Y56158D01*
X333374Y55176D01*
X333247Y54175D01*
X333225Y53166D01*
X333306Y52160D01*
X333490Y51168D01*
X333776Y50200D01*
X334160Y49267D01*
X334638Y48379D01*
X335205Y47544D01*
X37185Y262450D02*
X37160Y263447D01*
X37084Y264441D01*
X36958Y265431D01*
X36782Y266412D01*
X36557Y267384D01*
X36282Y268343D01*
X35960Y269287D01*
X35590Y270213D01*
X35173Y271119D01*
X34712Y272003D01*
X34206Y272863D01*
X33657Y273695D01*
X33066Y274499D01*
X32436Y275272D01*
X31768Y276012D01*
X31062Y276717D01*
X30322Y277386D01*
X29549Y278016D01*
X28745Y278607D01*
X27913Y279155D01*
X27053Y279661D01*
X26169Y280123D01*
X25263Y280540D01*
X24337Y280909D01*
X23393Y281232D01*
X22434Y281506D01*
X21463Y281732D01*
X20481Y281908D01*
X19491Y282034D01*
X18497Y282110D01*
X17500Y282135D01*
X16503Y282110D01*
X15508Y282034D01*
X14519Y281908D01*
X13537Y281732D01*
X12566Y281506D01*
X11607Y281232D01*
X10663Y280909D01*
X9737Y280540D01*
X8831Y280123D01*
X7947Y279661D01*
X7087Y279155D01*
X6255Y278607D01*
X5451Y278016D01*
X4678Y277386D01*
X3938Y276717D01*
X3232Y276012D01*
X2564Y275272D01*
X1933Y274499D01*
X1343Y273695D01*
X794Y272863D01*
X288Y272003D01*
X-173Y271119D01*
X-590Y270213D01*
X-960Y269286D01*
X-1282Y268343D01*
X-1557Y267384D01*
X-1782Y266412D01*
X-1958Y265431D01*
X-2084Y264441D01*
X-2160Y263447D01*
X-2185Y262450D01*
X-2160Y261453D01*
X-2084Y260458D01*
X-1958Y259469D01*
X-1782Y258487D01*
X-1557Y257516D01*
X-1282Y256557D01*
X-960Y255613D01*
X-590Y254687D01*
X-173Y253781D01*
X289Y252897D01*
X794Y252037D01*
X1343Y251204D01*
X1934Y250400D01*
X2564Y249627D01*
X3232Y248887D01*
X3938Y248182D01*
X4678Y247514D01*
X5451Y246883D01*
X6255Y246293D01*
X7087Y245744D01*
X7947Y245238D01*
X8831Y244777D01*
X9737Y244360D01*
X10663Y243990D01*
X11607Y243668D01*
X12566Y243393D01*
X13537Y243168D01*
X14519Y242992D01*
X15509Y242866D01*
X16503Y242790D01*
X17500Y242765D01*
X18497Y242790D01*
X19492Y242866D01*
X20481Y242992D01*
X21463Y243168D01*
X22434Y243393D01*
X23393Y243668D01*
X24337Y243990D01*
X25263Y244360D01*
X26169Y244777D01*
X27053Y245238D01*
X27913Y245744D01*
X28745Y246293D01*
X29549Y246883D01*
X30322Y247514D01*
X31062Y248182D01*
X31768Y248888D01*
X32436Y249628D01*
X33066Y250401D01*
X33657Y251204D01*
X34206Y252037D01*
X34712Y252897D01*
X35173Y253781D01*
X35590Y254687D01*
X35960Y255613D01*
X36282Y256557D01*
X36557Y257516D01*
X36782Y258487D01*
X36958Y259469D01*
X37084Y260458D01*
X37160Y261453D01*
X37185Y262450D01*
X38185Y303950D02*
X38160Y304947D01*
X38084Y305941D01*
X37958Y306931D01*
X37782Y307912D01*
X37557Y308884D01*
X37282Y309843D01*
X36960Y310787D01*
X36590Y311713D01*
X36173Y312619D01*
X35712Y313503D01*
X35206Y314363D01*
X34657Y315195D01*
X34066Y315999D01*
X33436Y316772D01*
X32768Y317512D01*
X32062Y318217D01*
X31322Y318886D01*
X30549Y319516D01*
X29745Y320107D01*
X28913Y320655D01*
X28053Y321161D01*
X27169Y321623D01*
X26263Y322040D01*
X25337Y322410D01*
X24393Y322732D01*
X23434Y323007D01*
X22463Y323232D01*
X21481Y323408D01*
X20492Y323534D01*
X19497Y323610D01*
X18500Y323635D01*
X17503Y323610D01*
X16509Y323534D01*
X15519Y323408D01*
X14537Y323232D01*
X13566Y323007D01*
X12607Y322732D01*
X11663Y322410D01*
X10737Y322040D01*
X9831Y321623D01*
X8947Y321161D01*
X8087Y320655D01*
X7255Y320107D01*
X6451Y319516D01*
X5678Y318886D01*
X4938Y318217D01*
X4232Y317512D01*
X3564Y316772D01*
X2933Y315999D01*
X2343Y315195D01*
X1794Y314363D01*
X1288Y313503D01*
X827Y312619D01*
X410Y311713D01*
X40Y310787D01*
X-282Y309843D01*
X-557Y308884D01*
X-782Y307912D01*
X-958Y306931D01*
X-1084Y305941D01*
X-1160Y304947D01*
X-1185Y303950D01*
X-1160Y302953D01*
X-1084Y301958D01*
X-958Y300969D01*
X-782Y299987D01*
X-557Y299016D01*
X-282Y298057D01*
X40Y297113D01*
X410Y296187D01*
X827Y295281D01*
X1288Y294397D01*
X1794Y293537D01*
X2343Y292704D01*
X2934Y291900D01*
X3564Y291127D01*
X4233Y290388D01*
X4938Y289682D01*
X5678Y289014D01*
X6451Y288383D01*
X7255Y287793D01*
X8087Y287244D01*
X8947Y286738D01*
X9831Y286277D01*
X10737Y285860D01*
X11663Y285490D01*
X12607Y285168D01*
X13566Y284893D01*
X14537Y284668D01*
X15519Y284492D01*
X16509Y284366D01*
X17503Y284290D01*
X18500Y284265D01*
X19497Y284290D01*
X20492Y284366D01*
X21481Y284492D01*
X22463Y284668D01*
X23434Y284893D01*
X24393Y285168D01*
X25337Y285490D01*
X26263Y285860D01*
X27169Y286277D01*
X28053Y286738D01*
X28913Y287244D01*
X29746Y287793D01*
X30549Y288383D01*
X31322Y289014D01*
X32062Y289682D01*
X32768Y290388D01*
X33436Y291128D01*
X34067Y291901D01*
X34657Y292705D01*
X35206Y293537D01*
X35712Y294397D01*
X36173Y295281D01*
X36590Y296187D01*
X36960Y297113D01*
X37282Y298057D01*
X37557Y299016D01*
X37782Y299987D01*
X37958Y300969D01*
X38084Y301958D01*
X38160Y302953D01*
X38185Y303950D01*
X73685Y323450D02*
X73660Y324447D01*
X73584Y325441D01*
X73458Y326431D01*
X73282Y327412D01*
X73057Y328384D01*
X72782Y329343D01*
X72460Y330287D01*
X72090Y331213D01*
X71673Y332119D01*
X71211Y333003D01*
X70706Y333862D01*
X70157Y334695D01*
X69566Y335499D01*
X68936Y336272D01*
X68268Y337012D01*
X67562Y337717D01*
X66822Y338386D01*
X66049Y339016D01*
X65245Y339607D01*
X64413Y340155D01*
X63553Y340661D01*
X62669Y341123D01*
X61763Y341540D01*
X60837Y341910D01*
X59893Y342232D01*
X58934Y342507D01*
X57963Y342732D01*
X56981Y342908D01*
X55992Y343034D01*
X54997Y343110D01*
X54000Y343135D01*
X53003Y343110D01*
X52008Y343034D01*
X51019Y342908D01*
X50037Y342732D01*
X49066Y342507D01*
X48107Y342232D01*
X47163Y341910D01*
X46237Y341540D01*
X45331Y341123D01*
X44447Y340661D01*
X43587Y340155D01*
X42755Y339607D01*
X41951Y339016D01*
X41178Y338386D01*
X40438Y337717D01*
X39732Y337012D01*
X39064Y336272D01*
X38434Y335499D01*
X37843Y334695D01*
X37294Y333862D01*
X36788Y333003D01*
X36327Y332119D01*
X35910Y331213D01*
X35540Y330287D01*
X35218Y329343D01*
X34943Y328384D01*
X34718Y327412D01*
X34542Y326431D01*
X34416Y325441D01*
X34340Y324447D01*
X34315Y323450D01*
X34340Y322453D01*
X34416Y321458D01*
X34542Y320469D01*
X34718Y319487D01*
X34943Y318516D01*
X35218Y317557D01*
X35540Y316613D01*
X35910Y315687D01*
X36327Y314781D01*
X36788Y313897D01*
X37294Y313037D01*
X37843Y312204D01*
X38434Y311401D01*
X39064Y310628D01*
X39733Y309888D01*
X40438Y309182D01*
X41178Y308514D01*
X41951Y307883D01*
X42755Y307293D01*
X43587Y306744D01*
X44447Y306238D01*
X45331Y305777D01*
X46237Y305360D01*
X47163Y304990D01*
X48107Y304667D01*
X49066Y304393D01*
X50037Y304168D01*
X51019Y303992D01*
X52009Y303866D01*
X53003Y303790D01*
X54000Y303765D01*
X54997Y303790D01*
X55992Y303866D01*
X56981Y303992D01*
X57963Y304168D01*
X58934Y304393D01*
X59893Y304668D01*
X60837Y304990D01*
X61763Y305360D01*
X62669Y305777D01*
X63553Y306238D01*
X64413Y306744D01*
X65245Y307293D01*
X66049Y307883D01*
X66822Y308514D01*
X67562Y309182D01*
X68268Y309888D01*
X68936Y310628D01*
X69567Y311401D01*
X70157Y312205D01*
X70706Y313037D01*
X71212Y313897D01*
X71673Y314781D01*
X72090Y315687D01*
X72460Y316613D01*
X72782Y317557D01*
X73057Y318516D01*
X73282Y319487D01*
X73458Y320469D01*
X73584Y321458D01*
X73660Y322453D01*
X73685Y323450D01*
X378829Y227738D02*
X378565Y228722D01*
X377845Y229443D01*
X376860Y229707D01*
X375876Y229443D01*
X375156Y228722D01*
X374892Y227738D01*
X375156Y226754D01*
X375876Y226033D01*
X376860Y225770D01*
X377845Y226033D01*
X378565Y226754D01*
X378829Y227738D01*
X274366Y252225D02*
X274102Y253210D01*
X273382Y253930D01*
X272398Y254194D01*
X271413Y253930D01*
X270693Y253210D01*
X270429Y252225D01*
X270693Y251241D01*
X271413Y250521D01*
X272398Y250257D01*
X273382Y250521D01*
X274102Y251241D01*
X274366Y252225D01*
X16909Y166021D02*
X17795Y166258D01*
X18443Y166906D01*
X18681Y167792D01*
X18443Y168678D01*
X17795Y169327D01*
X16909Y169564D01*
X16909Y146336D02*
X17795Y146573D01*
X18443Y147222D01*
X18681Y148107D01*
X18443Y148993D01*
X17795Y149642D01*
X16909Y149879D01*
X301520Y189635D02*
X301256Y190619D01*
X300535Y191340D01*
X299551Y191603D01*
X298567Y191340D01*
X297846Y190619D01*
X297583Y189635D01*
X297846Y188651D01*
X298567Y187930D01*
X299551Y187666D01*
X300535Y187930D01*
X301256Y188651D01*
X301520Y189635D01*
X274721Y109517D02*
X274457Y110501D01*
X273736Y111222D01*
X272752Y111485D01*
X271768Y111222D01*
X271047Y110501D01*
X270783Y109517D01*
X271047Y108533D01*
X271768Y107812D01*
X272752Y107548D01*
X273736Y107812D01*
X274457Y108533D01*
X274721Y109517D01*
X260720Y13458D02*
Y39442D01*
X338280Y13458D02*
Y39442D01*
X260720Y13458D02*
X338280D01*
X260720Y39442D02*
X338280D01*
X288898Y283820D02*
X295787D01*
X288898Y280080D02*
X295787D01*
X288898D02*
Y283820D01*
X295787Y280080D02*
Y283820D01*
X287669Y278304D02*
X296331D01*
X287669Y272596D02*
X296331D01*
X287669D02*
Y278304D01*
X296331Y272596D02*
Y278304D01*
X318055Y216080D02*
X324945D01*
X318055Y219820D02*
X324945D01*
Y216080D02*
Y219820D01*
X318055Y216080D02*
Y219820D01*
X266854Y228119D02*
Y236781D01*
X261146Y228119D02*
Y236781D01*
X266854D01*
X261146Y228119D02*
X266854D01*
X260630Y204505D02*
Y211395D01*
X264370Y204505D02*
Y211395D01*
X260630Y204505D02*
X264370D01*
X260630Y211395D02*
X264370D01*
X102646Y316281D02*
X108354D01*
X102646Y307619D02*
X108354D01*
Y316281D01*
X102646Y307619D02*
Y316281D01*
X96354Y307619D02*
Y316281D01*
X90646Y307619D02*
Y316281D01*
X96354D01*
X90646Y307619D02*
X96354D01*
X134169Y319304D02*
X142831D01*
X134169Y313595D02*
X142831D01*
X134169D02*
Y319304D01*
X142831Y313595D02*
Y319304D01*
X149169Y313595D02*
X157831D01*
X149169Y319304D02*
X157831D01*
Y313595D02*
Y319304D01*
X149169Y313595D02*
Y319304D01*
X75937Y340170D02*
X118063D01*
X75937Y321666D02*
X118063D01*
X75937D02*
Y340170D01*
X118063Y321666D02*
Y340170D01*
X75937Y335052D02*
X118063D01*
X204268Y318304D02*
Y337595D01*
X187732Y318304D02*
Y337595D01*
Y318304D02*
X204268D01*
X187732Y337595D02*
X204268D01*
X84354Y306619D02*
Y315281D01*
X78646Y306619D02*
Y315281D01*
X84354D01*
X78646Y306619D02*
X84354D01*
X83854Y274119D02*
Y282781D01*
X78146Y274119D02*
Y282781D01*
X83854D01*
X78146Y274119D02*
X83854D01*
X49717Y273761D02*
Y300139D01*
X64283Y273761D02*
Y300139D01*
X49717D02*
X64283D01*
X49717Y273761D02*
X64283D01*
X89654Y290249D02*
X96346D01*
X89654Y277651D02*
X96346D01*
Y290249D01*
X89654Y277651D02*
Y290249D01*
X379843Y40816D02*
X385157D01*
X379843Y49084D02*
X385157D01*
X379843Y40816D02*
Y49084D01*
X385157Y40816D02*
Y49084D01*
X335205Y47544D02*
X350795D01*
X349580Y237816D02*
X355289D01*
X349580Y229154D02*
X355289D01*
Y237816D01*
X349580Y229154D02*
Y237816D01*
X338146Y231119D02*
X343854D01*
X338146Y239780D02*
X343854D01*
X338146Y231119D02*
Y239780D01*
X343854Y231119D02*
Y239780D01*
X360719Y231281D02*
X380404D01*
X360719Y215533D02*
X380404D01*
Y231281D01*
X360719Y215533D02*
Y231281D01*
X373134Y198292D02*
Y203607D01*
X364866Y198292D02*
Y203607D01*
Y198292D02*
X373134D01*
X364866Y203607D02*
X373134D01*
X476661Y247861D02*
Y305735D01*
X339260Y247861D02*
Y305735D01*
Y247861D02*
X476661D01*
X339260Y305735D02*
X476661D01*
Y136063D02*
Y193937D01*
X339260Y136063D02*
Y193937D01*
Y136063D02*
X476661D01*
X339260Y193937D02*
X476661D01*
X350079Y309000D02*
Y343843D01*
X269921D02*
X350079D01*
X269921Y309000D02*
Y343843D01*
Y309000D02*
X350079D01*
X342146Y214119D02*
X347854D01*
X342146Y222780D02*
X347854D01*
X342146Y214119D02*
Y222780D01*
X347854Y214119D02*
Y222780D01*
X370799Y25603D02*
Y32296D01*
X358201Y25603D02*
Y32296D01*
Y25603D02*
X370799D01*
X358201Y32296D02*
X370799D01*
X345146Y207280D02*
X350854D01*
X345146Y198619D02*
X350854D01*
Y207280D01*
X345146Y198619D02*
Y207280D01*
X344646Y39281D02*
X350354D01*
X344646Y30619D02*
X350354D01*
Y39281D01*
X344646Y30619D02*
Y39281D01*
X269630Y64505D02*
Y71395D01*
X273370Y64505D02*
Y71395D01*
X269630Y64505D02*
X273370D01*
X269630Y71395D02*
X273370D01*
X268854Y248682D02*
X288146D01*
X268854Y265218D02*
X288146D01*
X268854Y248682D02*
Y265218D01*
X288146Y248682D02*
Y265218D01*
X2811Y220733D02*
X29189D01*
X2811Y206166D02*
X29189D01*
Y220733D01*
X2811Y206166D02*
Y220733D01*
X2736Y170351D02*
X16910Y169584D01*
X2736Y165233D02*
X16910Y166001D01*
X2736Y145548D02*
X16910Y146316D01*
X2736Y150666D02*
X16910Y149899D01*
X2736Y138264D02*
X2736Y177634D01*
X9134Y179997D02*
X12480D01*
X12185Y177634D02*
X12480Y179997D01*
X9134D02*
X9429Y177634D01*
X2736D02*
X9429D01*
X32263Y138264D02*
Y177634D01*
X12185D02*
X32263D01*
X24980Y135902D02*
X28720D01*
X28523Y138264D02*
X28720Y135902D01*
X24980D02*
X25177Y138264D01*
X28523D02*
X32263D01*
X2736D02*
X25177D01*
X6626Y238804D02*
X15287D01*
X6626Y233095D02*
X15287D01*
X6626D02*
Y238804D01*
X15287Y233095D02*
Y238804D01*
X321992Y186092D02*
Y203808D01*
X296008Y186092D02*
Y203808D01*
X321992D01*
X296008Y186092D02*
X321992D01*
X318870Y167848D02*
Y174737D01*
X315130Y167848D02*
Y174737D01*
X318870D01*
X315130Y167848D02*
X318870D01*
X312870D02*
Y174737D01*
X309130Y167848D02*
Y174737D01*
X312870D01*
X309130Y167848D02*
X312870D01*
X307370Y167847D02*
Y174737D01*
X303630Y167847D02*
Y174737D01*
X307370D01*
X303630Y167847D02*
X307370D01*
X307791Y105973D02*
Y133926D01*
X269209Y105973D02*
Y133926D01*
X307791D01*
X269209Y105973D02*
X307791D01*
X285870Y145847D02*
Y152737D01*
X282130Y145847D02*
Y152737D01*
X285870D01*
X282130Y145847D02*
X285870D01*
X282457Y66757D02*
Y80143D01*
X289543Y66757D02*
Y80143D01*
X282457Y66757D02*
X289543D01*
X282457Y80143D02*
X289543D01*
X276323Y75190D02*
Y82080D01*
X272583Y75190D02*
Y82080D01*
X276323D01*
X272583Y75190D02*
X276323D01*
D135*
X310000Y342415D02*
D03*
M02*
