M48
;Layer_Color=9474304
;FILE_FORMAT=2:5
INCH,TZ
;TYPE=PLATED
T1F00S00C0.00787
T2F00S00C0.01968
T3F00S00C0.03346
T4F00S00C0.03504
T5F00S00C0.03543
T6F00S00C0.03937
T7F00S00C0.04331
T8F00S00C0.05118
T9F00S00C0.05315
T10F00S00C0.06929
T11F00S00C0.07913
T12F00S00C0.12598
;TYPE=NON_PLATED
T13F00S00C0.14961
%
T01
X378000Y29000
X340500Y73500
X292000Y79500
X277000Y65000
X275000Y127731
X316500Y142000
X330000Y146500
X330500Y160500
X321000Y161000
X325500Y176000
X317500Y178000
X301000Y176000
X5000Y194000
X35000Y196500
X23000Y236000
X35000Y279000
X83000Y291000
X71500Y308000
X115000Y306500
X114500Y315000
X214000Y316000
X214580Y323920
X284500Y292000
X279500Y278000
X295500Y266000
X302500Y268000
X306000Y265000
X314000
X319000Y251500
X307500Y252000
X329000Y258000
X332370Y240000
X328000Y226000
X319500Y233500
X315500Y218000
X310500Y212500
X306000Y212564
X316500Y199500
X320500Y198500
X352500Y220500
X272500Y227500
X278000Y243000
X264000Y245000
X260000Y214000
X262500Y198500
X355500Y320500
X370500Y247000
X371500Y206000
T02
X300000Y171397
X309500Y241000
X359500Y206500
T03
X297500Y68000
X306333
X315167
X325000
Y98000
X315167
X306333
X297500
X282500Y206500
X273000
Y236500
X282500
X293500Y290000
X293500Y300500
X323500
X323500Y290000
T04
X348000Y165050
Y175050
Y276849
Y286848
T05
X269500Y11500
X279500
X289500
X299500
X309500
X319500
X329500
X370000Y50322
Y60322
Y70322
Y80322
Y90322
Y100322
Y110322
Y120322
X360000
Y110322
Y100322
Y90322
Y80322
Y70322
Y60322
Y50322
X348000Y53500
X343000
X338000
X329500Y41500
X319500
X309500
X299500
X289500
X279500
X269500
X265000Y49500
X275000
X285000
X295000
X305000
X303500Y105000
X293500
X283500
X273500
X277000Y93000
X267000
X287000
X316500Y108442
Y118442
Y128442
X333000Y127000
Y117000
X303500Y135000
X293500
X283500
X273500
X265500Y164000
Y174000
Y184000
X284000
Y174000
Y164000
X330500Y189500
X17500Y252657
Y272343
X18500Y294158
Y313843
X54000Y313657
Y333343
X124500Y302185
Y282500
X167657Y281658
Y301343
X208500Y302185
Y282500
X235000Y313158
Y332842
X261000Y337500
Y327500
Y317500
Y307500
Y297500
X330500Y209500
Y199500
T06
X87000Y329000
X97000
X107000
T07
X290000Y321472
Y331471
X300000
X310000
X320000
X330000
Y321472
X320000
X310000
X300000
T08
X17500Y34315
Y54000
Y106157
Y125843
X15728Y148157
Y167842
T09
X135520Y328374
X145500
X155480
T10
X232610Y69992
Y97157
Y124717
Y152276
Y179835
X64500Y152276
Y124717
Y69992
Y207000
X232610
T11
X368000Y145050
Y185050
Y256849
Y296849
T12
X9843Y13780
X362205
X9843Y334646
X251969Y281496
X362205Y334646
T13
X61154Y29244
X235957
X61154Y247748
X235957
M30
