G04*
G04 #@! TF.GenerationSoftware,Altium Limited,Altium Designer,20.1.14 (287)*
G04*
G04 Layer_Color=8388736*
%FSLAX25Y25*%
%MOIN*%
G70*
G04*
G04 #@! TF.SameCoordinates,DD9DAAA6-87D7-4B0E-BF1D-CD2AD6DAE19A*
G04*
G04*
G04 #@! TF.FilePolarity,Negative*
G04*
G01*
G75*
%ADD23R,0.03543X0.02953*%
%ADD24R,0.04134X0.04528*%
%ADD25R,0.06496X0.06693*%
%ADD26R,0.06693X0.06496*%
%ADD27R,0.04528X0.04134*%
%ADD28R,0.05709X0.06299*%
%ADD29O,0.07874X0.04134*%
%ADD30R,0.06299X0.05709*%
%ADD31R,0.06299X0.04724*%
%ADD32R,0.10433X0.04528*%
%ADD33R,0.10433X0.13583*%
%ADD34R,0.06496X0.06102*%
%ADD35R,0.06299X0.05315*%
%ADD36R,0.06693X0.05512*%
G04:AMPARAMS|DCode=37|XSize=31.5mil|YSize=70.87mil|CornerRadius=4.87mil|HoleSize=0mil|Usage=FLASHONLY|Rotation=0.000|XOffset=0mil|YOffset=0mil|HoleType=Round|Shape=RoundedRectangle|*
%AMROUNDEDRECTD37*
21,1,0.03150,0.06112,0,0,0.0*
21,1,0.02175,0.07087,0,0,0.0*
1,1,0.00974,0.01088,-0.03056*
1,1,0.00974,-0.01088,-0.03056*
1,1,0.00974,-0.01088,0.03056*
1,1,0.00974,0.01088,0.03056*
%
%ADD37ROUNDEDRECTD37*%
%ADD38R,0.05315X0.06299*%
%ADD39R,0.03937X0.03543*%
%ADD40R,0.04724X0.01181*%
%ADD41R,0.01181X0.04724*%
%ADD42O,0.01968X0.07284*%
%ADD43O,0.04134X0.07874*%
%ADD44R,0.06102X0.06496*%
%ADD45R,0.04528X0.09252*%
%ADD46R,0.13583X0.09252*%
%ADD47R,0.05906X0.09843*%
%ADD48R,0.06102X0.06102*%
%ADD49C,0.06102*%
%ADD50C,0.06496*%
%ADD51R,0.06496X0.06496*%
%ADD52R,0.06496X0.06496*%
%ADD53R,0.10984X0.10984*%
%ADD54C,0.10984*%
%ADD55C,0.15551*%
%ADD56R,0.06890X0.06890*%
%ADD57C,0.06890*%
%ADD58C,0.08071*%
%ADD59R,0.08071X0.08071*%
%ADD60O,0.04528X0.08465*%
%ADD61O,0.04528X0.08465*%
%ADD62C,0.10630*%
%ADD63R,0.06890X0.06890*%
%ADD64C,0.06890*%
%ADD65C,0.08268*%
%ADD66R,0.08268X0.08268*%
%ADD67C,0.07874*%
%ADD68C,0.16339*%
%ADD69C,0.02992*%
D23*
X334500Y152588D02*
D03*
Y157312D02*
D03*
X264500Y222450D02*
D03*
Y217725D02*
D03*
X332500Y174812D02*
D03*
Y170088D02*
D03*
D24*
X289685Y281950D02*
D03*
X295000D02*
D03*
X324158Y217950D02*
D03*
X318843D02*
D03*
D25*
X288457Y275450D02*
D03*
X295543D02*
D03*
X157043Y316450D02*
D03*
X149957D02*
D03*
X14500Y235950D02*
D03*
X7413D02*
D03*
D26*
X264000Y235993D02*
D03*
Y228906D02*
D03*
X105500Y315493D02*
D03*
Y308407D02*
D03*
X93500Y315493D02*
D03*
Y308406D02*
D03*
D27*
X262500Y205292D02*
D03*
Y210607D02*
D03*
X317000Y168635D02*
D03*
X311000D02*
D03*
X305500Y173950D02*
D03*
X311000D02*
D03*
X274453Y81292D02*
D03*
X271500Y65292D02*
D03*
Y70607D02*
D03*
X317000Y173950D02*
D03*
X305500Y168635D02*
D03*
X284000Y151950D02*
D03*
Y146635D02*
D03*
X274453Y75978D02*
D03*
D28*
X135350Y316450D02*
D03*
X141650D02*
D03*
D29*
X207909Y322635D02*
D03*
Y333265D02*
D03*
X184091Y322635D02*
D03*
Y333265D02*
D03*
D30*
X81500Y314099D02*
D03*
Y307800D02*
D03*
D31*
X81000Y282092D02*
D03*
Y274808D02*
D03*
X345000Y214808D02*
D03*
Y222092D02*
D03*
X348000Y206592D02*
D03*
Y199308D02*
D03*
X347500Y38592D02*
D03*
Y31308D02*
D03*
D32*
X44992Y296005D02*
D03*
Y286950D02*
D03*
Y277895D02*
D03*
D33*
X69008Y286950D02*
D03*
D34*
X93000Y289855D02*
D03*
Y278044D02*
D03*
D35*
X382500Y41013D02*
D03*
Y48887D02*
D03*
D36*
X352434Y237521D02*
D03*
Y229450D02*
D03*
X341000Y231415D02*
D03*
Y239485D02*
D03*
D37*
X378061Y234529D02*
D03*
X373061D02*
D03*
X368061D02*
D03*
X363061D02*
D03*
X373061Y212285D02*
D03*
X368061D02*
D03*
X363061D02*
D03*
X378061D02*
D03*
D38*
X372937Y200950D02*
D03*
X365063D02*
D03*
D39*
X326740Y147816D02*
D03*
Y156084D02*
D03*
X319260D02*
D03*
Y147816D02*
D03*
D40*
X327732Y251808D02*
D03*
Y253777D02*
D03*
X294268Y238029D02*
D03*
X327732Y236060D02*
D03*
Y249840D02*
D03*
Y247871D02*
D03*
Y245903D02*
D03*
Y243934D02*
D03*
Y241966D02*
D03*
Y239997D02*
D03*
Y238029D02*
D03*
Y234092D02*
D03*
Y232123D02*
D03*
X294268D02*
D03*
Y234092D02*
D03*
Y236060D02*
D03*
Y239997D02*
D03*
Y241966D02*
D03*
Y243934D02*
D03*
Y245903D02*
D03*
Y247871D02*
D03*
Y249840D02*
D03*
Y251808D02*
D03*
Y253777D02*
D03*
D41*
X319858Y226218D02*
D03*
X302142Y259682D02*
D03*
X321827Y226218D02*
D03*
X300173Y259682D02*
D03*
X308047D02*
D03*
X317890Y226218D02*
D03*
X300173D02*
D03*
X304110Y259682D02*
D03*
X306079D02*
D03*
X310016D02*
D03*
X311984D02*
D03*
X313953D02*
D03*
X315921D02*
D03*
X317890D02*
D03*
X319858D02*
D03*
X321827D02*
D03*
X315921Y226218D02*
D03*
X313953D02*
D03*
X311984D02*
D03*
X310016D02*
D03*
X308047D02*
D03*
X306079D02*
D03*
X304110D02*
D03*
X302142D02*
D03*
D42*
X320516Y183729D02*
D03*
X317957D02*
D03*
X312839D02*
D03*
X307720D02*
D03*
X305161D02*
D03*
X320516Y206170D02*
D03*
X317957D02*
D03*
X315398D02*
D03*
X312839D02*
D03*
X310280D02*
D03*
X307720D02*
D03*
X305161D02*
D03*
X302602D02*
D03*
X300043D02*
D03*
X297484D02*
D03*
X315398Y183729D02*
D03*
X310280D02*
D03*
X302602D02*
D03*
X300043D02*
D03*
X297484D02*
D03*
D43*
X283815Y268859D02*
D03*
X273185Y245040D02*
D03*
X283815D02*
D03*
X273185Y268859D02*
D03*
D44*
X370406Y28950D02*
D03*
X358594D02*
D03*
D45*
X16000Y225261D02*
D03*
X6945D02*
D03*
X25055D02*
D03*
D46*
X16000Y201639D02*
D03*
D47*
X286000Y78666D02*
D03*
Y68233D02*
D03*
D48*
X208500Y282450D02*
D03*
X124500Y302135D02*
D03*
X167657Y301292D02*
D03*
X235000Y313107D02*
D03*
X17500Y252607D02*
D03*
X18500Y313792D02*
D03*
X54000Y313607D02*
D03*
X348000Y286798D02*
D03*
Y175000D02*
D03*
D49*
X208500Y302135D02*
D03*
X124500Y282450D02*
D03*
X167657Y281607D02*
D03*
X235000Y332792D02*
D03*
X17500Y272292D02*
D03*
X18500Y294107D02*
D03*
X54000Y333292D02*
D03*
X325000Y67950D02*
D03*
Y97950D02*
D03*
X348000Y276798D02*
D03*
Y165000D02*
D03*
X323500Y289950D02*
D03*
X293500D02*
D03*
X293500Y300450D02*
D03*
X323500D02*
D03*
X282500Y206450D02*
D03*
X315167Y97950D02*
D03*
Y67950D02*
D03*
X306333D02*
D03*
Y97950D02*
D03*
X273000Y206450D02*
D03*
Y236450D02*
D03*
X282500D02*
D03*
X297500Y97950D02*
D03*
Y67950D02*
D03*
D50*
X305000Y49450D02*
D03*
X295000D02*
D03*
X285000D02*
D03*
X275000D02*
D03*
X269500Y11450D02*
D03*
X279500D02*
D03*
X289500D02*
D03*
X299500D02*
D03*
X309500D02*
D03*
X319500D02*
D03*
X329500D02*
D03*
X269500Y41450D02*
D03*
X279500D02*
D03*
X289500D02*
D03*
X299500D02*
D03*
X309500D02*
D03*
X319500D02*
D03*
X277000Y92950D02*
D03*
X287000D02*
D03*
X330500Y199450D02*
D03*
Y209450D02*
D03*
X261000Y327450D02*
D03*
Y317450D02*
D03*
Y307450D02*
D03*
Y297450D02*
D03*
X360000Y50272D02*
D03*
X370000Y60272D02*
D03*
X360000D02*
D03*
X370000Y70272D02*
D03*
X360000D02*
D03*
X370000Y80272D02*
D03*
X360000D02*
D03*
X370000Y90272D02*
D03*
X360000D02*
D03*
X370000Y100272D02*
D03*
X360000D02*
D03*
X370000Y110272D02*
D03*
X360000D02*
D03*
X370000Y120272D02*
D03*
X360000D02*
D03*
X333000Y126950D02*
D03*
X284000Y183950D02*
D03*
Y173950D02*
D03*
X265500Y183950D02*
D03*
Y173950D02*
D03*
X303500Y134950D02*
D03*
X316500Y118392D02*
D03*
Y128392D02*
D03*
X293500Y134950D02*
D03*
X283500D02*
D03*
X273500D02*
D03*
X303500Y104950D02*
D03*
X293500D02*
D03*
X283500D02*
D03*
D51*
X265000Y49450D02*
D03*
X267000Y92950D02*
D03*
D52*
X329500Y41450D02*
D03*
X330500Y189450D02*
D03*
X261000Y337450D02*
D03*
X370000Y50272D02*
D03*
X333000Y116950D02*
D03*
X284000Y163950D02*
D03*
X265500D02*
D03*
X273500Y104950D02*
D03*
X316500Y108392D02*
D03*
D53*
X64500Y206950D02*
D03*
D54*
X232610D02*
D03*
X64500Y152225D02*
D03*
Y124666D02*
D03*
X232610Y152225D02*
D03*
Y124666D02*
D03*
Y69942D02*
D03*
X64500D02*
D03*
X232610Y179784D02*
D03*
Y97107D02*
D03*
D55*
X61154Y29194D02*
D03*
X235957D02*
D03*
Y247698D02*
D03*
X61154D02*
D03*
D56*
X87000Y328950D02*
D03*
D57*
X97000D02*
D03*
X107000D02*
D03*
D58*
X155480Y328324D02*
D03*
X145500D02*
D03*
D59*
X135520D02*
D03*
D60*
X348000Y53450D02*
D03*
X338000D02*
D03*
D61*
X343000D02*
D03*
D62*
X368000Y296798D02*
D03*
Y256798D02*
D03*
Y185000D02*
D03*
Y145000D02*
D03*
D63*
X330000Y331421D02*
D03*
D64*
Y321421D02*
D03*
X320000Y331421D02*
D03*
Y321421D02*
D03*
X310000Y331421D02*
D03*
Y321421D02*
D03*
X300000Y331421D02*
D03*
X290000D02*
D03*
X300000Y321421D02*
D03*
X290000D02*
D03*
D65*
X15728Y148107D02*
D03*
D66*
Y167792D02*
D03*
D67*
X17500Y125792D02*
D03*
Y106107D02*
D03*
Y53950D02*
D03*
Y34265D02*
D03*
D68*
X9843Y334595D02*
D03*
X251969Y281446D02*
D03*
X362205Y13729D02*
D03*
Y334595D02*
D03*
X9843Y13729D02*
D03*
D69*
X370500Y247000D02*
D03*
X341500Y74500D02*
D03*
X332500Y240000D02*
D03*
X314000Y265000D02*
D03*
X309500Y212500D02*
D03*
X306500Y264950D02*
D03*
X306000Y211950D02*
D03*
X315000Y217950D02*
D03*
X352500Y220450D02*
D03*
X330500Y160450D02*
D03*
X292000Y79450D02*
D03*
X320500Y198450D02*
D03*
X316500Y199450D02*
D03*
X325500Y175950D02*
D03*
X328000Y225950D02*
D03*
X301000Y175950D02*
D03*
X300000Y171347D02*
D03*
X321000Y160950D02*
D03*
X316500Y141950D02*
D03*
X330000Y146450D02*
D03*
X359500Y206450D02*
D03*
X284500Y291950D02*
D03*
X214000Y315950D02*
D03*
X262500Y198450D02*
D03*
X272500Y227450D02*
D03*
X260000Y213950D02*
D03*
X279500Y277950D02*
D03*
X319500Y233450D02*
D03*
X309500Y240950D02*
D03*
X378000Y28950D02*
D03*
X275000Y127681D02*
D03*
X295500Y265950D02*
D03*
X307500Y251950D02*
D03*
X319000Y251450D02*
D03*
X329000Y257950D02*
D03*
X35000Y196450D02*
D03*
X23000Y235950D02*
D03*
X71500Y307950D02*
D03*
X83000Y290950D02*
D03*
X114500Y314950D02*
D03*
X115000Y306450D02*
D03*
X35000Y278950D02*
D03*
X5000Y193950D02*
D03*
X214580Y323870D02*
D03*
X277000Y64950D02*
D03*
X278000Y242950D02*
D03*
X355500Y320450D02*
D03*
X371500Y205950D02*
D03*
X264000Y244950D02*
D03*
X317500Y177950D02*
D03*
X302500Y267950D02*
D03*
M02*
