G04*
G04 #@! TF.GenerationSoftware,Altium Limited,Altium Designer,20.1.14 (287)*
G04*
G04 Layer_Physical_Order=4*
G04 Layer_Color=16711680*
%FSLAX25Y25*%
%MOIN*%
G70*
G04*
G04 #@! TF.SameCoordinates,AD96D815-87A0-4BF7-847C-790837316B47*
G04*
G04*
G04 #@! TF.FilePolarity,Positive*
G04*
G01*
G75*
%ADD10C,0.00787*%
%ADD12C,0.02362*%
%ADD13C,0.01968*%
%ADD15C,0.01575*%
%ADD58C,0.08071*%
%ADD59R,0.08071X0.08071*%
%ADD67C,0.07874*%
%ADD92C,0.00400*%
%ADD96C,0.05906*%
%ADD97R,0.05906X0.05906*%
%ADD98R,0.05906X0.05906*%
%ADD99R,0.10394X0.10394*%
%ADD100C,0.10394*%
%ADD101C,0.14961*%
%ADD102C,0.05512*%
%ADD103R,0.05512X0.05512*%
%ADD104R,0.06299X0.06299*%
%ADD105C,0.06299*%
%ADD106O,0.03937X0.07874*%
%ADD107O,0.03937X0.07874*%
%ADD108C,0.10039*%
%ADD109R,0.06299X0.06299*%
%ADD110C,0.06299*%
%ADD111C,0.07677*%
%ADD112R,0.07677X0.07677*%
%ADD113C,0.15748*%
%ADD114C,0.01772*%
%ADD115C,0.03937*%
%ADD137C,0.01500*%
D10*
X302500Y45500D02*
X305864Y42136D01*
X280724Y46776D02*
X282000Y45500D01*
X302500D01*
X308864Y42136D02*
X309500Y41500D01*
X305864Y42136D02*
X308864D01*
X280724Y46776D02*
Y61276D01*
X277000Y65000D02*
X280724Y61276D01*
X343000Y87500D02*
X350000Y94500D01*
X340500Y87245D02*
X357724Y104469D01*
X343000Y53500D02*
Y87500D01*
X340500Y73500D02*
Y87245D01*
X350000Y94500D02*
X364178D01*
X330000Y146500D02*
Y152070D01*
X346530Y168600D01*
X348184D01*
X355473Y175889D01*
Y180745D01*
X362362Y187634D01*
Y207686D01*
X352048Y218000D02*
X362362Y207686D01*
X315500Y218000D02*
X352048D01*
X319500Y41500D02*
X329500D01*
X278290Y99790D02*
X283500Y105000D01*
X273790Y99790D02*
X278290D01*
X267000Y93000D02*
X273790Y99790D01*
X310500Y208500D02*
X320500Y198500D01*
X310500Y208500D02*
Y212500D01*
X306000Y210000D02*
X316500Y199500D01*
X306000Y210000D02*
Y212564D01*
X352312Y220688D02*
X352500Y220500D01*
X351682Y220688D02*
X352312D01*
X332370Y240000D02*
X351682Y220688D01*
X321000Y161000D02*
Y174500D01*
X317500Y178000D02*
X321000Y174500D01*
X273000Y236500D02*
X282500D01*
X293500Y290000D02*
X300050Y296550D01*
X325136D01*
X370000Y70322D02*
X379262Y79585D01*
Y306483D01*
X377658Y308087D02*
X379262Y306483D01*
X336673Y308087D02*
X377658D01*
X325136Y296550D02*
X336673Y308087D01*
X293500Y300500D02*
X302675Y309675D01*
X378315D01*
X380850Y307140D01*
Y71172D02*
Y307140D01*
X370000Y60322D02*
X380850Y71172D01*
X307675Y234825D02*
X317909D01*
X303500Y239000D02*
Y247291D01*
Y239000D02*
X307675Y234825D01*
X307312Y251812D02*
X307500Y252000D01*
X307312Y251102D02*
Y251812D01*
X303500Y247291D02*
X307312Y251102D01*
X319234Y233500D02*
X319500D01*
X317909Y234825D02*
X319234Y233500D01*
X364146Y104469D02*
X370000Y110322D01*
X357724Y104469D02*
X364146D01*
X374500Y134822D02*
Y302601D01*
X376087Y120546D02*
Y303258D01*
X377675Y108675D02*
Y305825D01*
X373901Y104901D02*
X377675Y108675D01*
X377000Y306500D02*
X377675Y305825D01*
X351500Y306500D02*
X377000D01*
X313000Y268000D02*
X351500Y306500D01*
X370495Y114953D02*
X376087Y120546D01*
X374696Y304649D02*
X376087Y303258D01*
X360000Y120322D02*
X374500Y134822D01*
X374039Y303062D02*
X374500Y302601D01*
X357013Y303062D02*
X374039D01*
X353649Y304649D02*
X374696D01*
X364178Y94500D02*
X370000Y100322D01*
X314000Y265000D02*
X353649Y304649D01*
X302500Y268000D02*
X313000D01*
X315951Y262000D02*
X357013Y303062D01*
X309000Y262000D02*
X315951D01*
X306000Y265000D02*
X309000Y262000D01*
X368714Y104901D02*
X373901D01*
X364136Y100322D02*
X368714Y104901D01*
X360000Y100322D02*
X364136D01*
X364631Y114953D02*
X370495D01*
X360000Y110322D02*
X364631Y114953D01*
D12*
X292000Y79500D02*
X309800D01*
X320663Y68637D01*
Y63849D02*
Y68637D01*
Y63849D02*
X339123Y45388D01*
X365066D01*
X299442Y176000D02*
X301000D01*
X288534Y165092D02*
X299442Y176000D01*
X288534Y160392D02*
Y165092D01*
X278966Y150825D02*
X288534Y160392D01*
X278966Y131697D02*
Y150825D01*
X275000Y127731D02*
X278966Y131697D01*
X367500Y2000D02*
X373000Y7500D01*
X370000Y24000D02*
X373000Y21000D01*
Y7500D02*
Y21000D01*
X370000Y24000D02*
Y50322D01*
X200000Y2000D02*
X367500D01*
X5000Y194000D02*
X8000D01*
X200000Y2000D01*
X365066Y45388D02*
X370000Y50322D01*
D13*
X35000Y279000D02*
Y297342D01*
X18500Y313843D02*
X35000Y297342D01*
X214000Y170886D02*
X232610Y152276D01*
X232691Y97157D02*
X246580Y111046D01*
Y223664D01*
X265147Y242231D01*
X232610Y97157D02*
X232691D01*
X265147Y242231D02*
X277232D01*
X278000Y243000D01*
X234392Y113892D02*
X242500Y122000D01*
Y230500D02*
X257000Y245000D01*
X242500Y122000D02*
Y230500D01*
X214000Y170886D02*
Y316000D01*
X214580Y323920D02*
X217000Y321500D01*
Y225456D02*
Y321500D01*
X232610Y207000D02*
Y209280D01*
X230239Y211651D02*
X232610Y209280D01*
X230239Y211651D02*
Y212217D01*
X217000Y225456D02*
X230239Y212217D01*
X225392Y113892D02*
X234392D01*
X218000Y84602D02*
X232610Y69992D01*
X218000Y84602D02*
Y106500D01*
X225392Y113892D01*
X257000Y245000D02*
X264000D01*
D15*
X290855Y37000D02*
X293855Y40000D01*
X265145D02*
X268145Y37000D01*
X290855D01*
X293855Y40000D02*
X296828D01*
X208500D02*
X265145D01*
X153139Y95361D02*
X208500Y40000D01*
X298328Y41500D02*
X299500D01*
X296828Y40000D02*
X298328Y41500D01*
X292000Y56000D02*
Y79500D01*
X285500Y49500D02*
X292000Y56000D01*
X217927Y6960D02*
X293073D01*
X298671Y10671D02*
X299500Y11500D01*
X296785Y10671D02*
X298671D01*
X293073Y6960D02*
X296785Y10671D01*
X138250Y86637D02*
X217927Y6960D01*
X107637Y329637D02*
X125137D01*
X107000Y328387D02*
Y329000D01*
X138250Y86637D02*
Y297137D01*
X125137Y329637D02*
X137637Y342137D01*
X107000Y328387D02*
X138250Y297137D01*
X333250Y342137D02*
X354849Y320538D01*
X355462D01*
X137637Y342137D02*
X333250D01*
X107000Y329000D02*
X107637Y329637D01*
X355462Y320538D02*
X355500Y320500D01*
X153139Y95361D02*
Y324275D01*
X155480Y326616D02*
Y328374D01*
X153139Y324275D02*
X155480Y326616D01*
X370500Y207000D02*
X371500Y206000D01*
X370500Y207000D02*
Y247000D01*
D58*
X155480Y328374D02*
D03*
X145500D02*
D03*
D59*
X135520D02*
D03*
D67*
X17500Y125843D02*
D03*
Y106157D02*
D03*
Y54000D02*
D03*
Y34315D02*
D03*
D92*
X285000Y49500D02*
X285500D01*
D96*
X305000D02*
D03*
X295000D02*
D03*
X285000D02*
D03*
X275000D02*
D03*
X269500Y11500D02*
D03*
X279500D02*
D03*
X289500D02*
D03*
X299500D02*
D03*
X309500D02*
D03*
X319500D02*
D03*
X329500D02*
D03*
X269500Y41500D02*
D03*
X279500D02*
D03*
X289500D02*
D03*
X299500D02*
D03*
X309500D02*
D03*
X319500D02*
D03*
X277000Y93000D02*
D03*
X287000D02*
D03*
X330500Y199500D02*
D03*
Y209500D02*
D03*
X261000Y327500D02*
D03*
Y317500D02*
D03*
Y307500D02*
D03*
Y297500D02*
D03*
X360000Y50322D02*
D03*
X370000Y60322D02*
D03*
X360000D02*
D03*
X370000Y70322D02*
D03*
X360000D02*
D03*
X370000Y80322D02*
D03*
X360000D02*
D03*
X370000Y90322D02*
D03*
X360000D02*
D03*
X370000Y100322D02*
D03*
X360000D02*
D03*
X370000Y110322D02*
D03*
X360000D02*
D03*
X370000Y120322D02*
D03*
X360000D02*
D03*
X333000Y127000D02*
D03*
X284000Y184000D02*
D03*
Y174000D02*
D03*
X265500Y184000D02*
D03*
Y174000D02*
D03*
X303500Y135000D02*
D03*
X316500Y118442D02*
D03*
Y128442D02*
D03*
X293500Y135000D02*
D03*
X283500D02*
D03*
X273500D02*
D03*
X303500Y105000D02*
D03*
X293500D02*
D03*
X283500D02*
D03*
D97*
X265000Y49500D02*
D03*
X267000Y93000D02*
D03*
D98*
X329500Y41500D02*
D03*
X330500Y189500D02*
D03*
X261000Y337500D02*
D03*
X370000Y50322D02*
D03*
X333000Y117000D02*
D03*
X284000Y164000D02*
D03*
X265500D02*
D03*
X273500Y105000D02*
D03*
X316500Y108442D02*
D03*
D99*
X64500Y207000D02*
D03*
D100*
X232610D02*
D03*
X64500Y152276D02*
D03*
Y124717D02*
D03*
X232610Y152276D02*
D03*
Y124717D02*
D03*
Y69992D02*
D03*
X64500D02*
D03*
X232610Y179835D02*
D03*
Y97157D02*
D03*
D101*
X61154Y29244D02*
D03*
X235957D02*
D03*
Y247748D02*
D03*
X61154D02*
D03*
D102*
X124500Y282500D02*
D03*
X167657Y281658D02*
D03*
X235000Y332842D02*
D03*
X208500Y302185D02*
D03*
X17500Y272343D02*
D03*
X18500Y294158D02*
D03*
X54000Y333343D02*
D03*
X325000Y68000D02*
D03*
Y98000D02*
D03*
X348000Y276849D02*
D03*
Y165050D02*
D03*
X323500Y290000D02*
D03*
X293500D02*
D03*
X293500Y300500D02*
D03*
X323500D02*
D03*
X282500Y206500D02*
D03*
X315167Y98000D02*
D03*
Y68000D02*
D03*
X306333D02*
D03*
Y98000D02*
D03*
X273000Y206500D02*
D03*
Y236500D02*
D03*
X282500D02*
D03*
X297500Y98000D02*
D03*
Y68000D02*
D03*
D103*
X124500Y302185D02*
D03*
X167657Y301343D02*
D03*
X235000Y313158D02*
D03*
X208500Y282500D02*
D03*
X17500Y252657D02*
D03*
X18500Y313843D02*
D03*
X54000Y313657D02*
D03*
X348000Y286848D02*
D03*
Y175050D02*
D03*
D104*
X87000Y329000D02*
D03*
D105*
X97000D02*
D03*
X107000D02*
D03*
D106*
X348000Y53500D02*
D03*
X338000D02*
D03*
D107*
X343000D02*
D03*
D108*
X368000Y296849D02*
D03*
Y256849D02*
D03*
Y185050D02*
D03*
Y145050D02*
D03*
D109*
X330000Y331471D02*
D03*
D110*
Y321472D02*
D03*
X320000Y331471D02*
D03*
Y321472D02*
D03*
X310000Y331471D02*
D03*
Y321472D02*
D03*
X300000Y331471D02*
D03*
X290000D02*
D03*
X300000Y321472D02*
D03*
X290000D02*
D03*
D111*
X15728Y148157D02*
D03*
D112*
Y167842D02*
D03*
D113*
X9843Y334646D02*
D03*
X251969Y281496D02*
D03*
X362205Y13780D02*
D03*
Y334646D02*
D03*
X9843Y13780D02*
D03*
D114*
X340500Y73500D02*
D03*
X315500Y218000D02*
D03*
X330500Y160500D02*
D03*
X292000Y79500D02*
D03*
X310500Y212500D02*
D03*
X320500Y198500D02*
D03*
X306000Y212564D02*
D03*
X316500Y199500D02*
D03*
X325500Y176000D02*
D03*
X328000Y226000D02*
D03*
X352500Y220500D02*
D03*
X301000Y176000D02*
D03*
X321000Y161000D02*
D03*
X316500Y142000D02*
D03*
X330000Y146500D02*
D03*
X284500Y292000D02*
D03*
X214000Y316000D02*
D03*
X262500Y198500D02*
D03*
X272500Y227500D02*
D03*
X260000Y214000D02*
D03*
X279500Y278000D02*
D03*
X319500Y233500D02*
D03*
X378000Y29000D02*
D03*
X275000Y127731D02*
D03*
X295500Y266000D02*
D03*
X307500Y252000D02*
D03*
X319000Y251500D02*
D03*
X329000Y258000D02*
D03*
X35000Y196500D02*
D03*
X23000Y236000D02*
D03*
X71500Y308000D02*
D03*
X83000Y291000D02*
D03*
X114500Y315000D02*
D03*
X115000Y306500D02*
D03*
X35000Y279000D02*
D03*
X5000Y194000D02*
D03*
X214580Y323920D02*
D03*
X277000Y65000D02*
D03*
X278000Y243000D02*
D03*
X355500Y320500D02*
D03*
X371500Y206000D02*
D03*
X370500Y247000D02*
D03*
X264000Y245000D02*
D03*
X317500Y178000D02*
D03*
X332370Y240000D02*
D03*
X302500Y268000D02*
D03*
X306000Y265000D02*
D03*
X314000D02*
D03*
D115*
X300000Y171397D02*
D03*
X359500Y206500D02*
D03*
X309500Y241000D02*
D03*
D137*
X261500Y88500D02*
X263402D01*
X263405Y88497D01*
X288865D01*
X259648Y90352D02*
X261500Y88500D01*
X288865Y88497D02*
X291503Y91135D01*
Y92003D01*
X297500Y98000D01*
X259648Y90352D02*
Y168619D01*
X349500Y215000D02*
X358000Y206500D01*
X273000D02*
X281500Y215000D01*
X349500D01*
X300000Y171397D02*
X308062Y163336D01*
Y126881D02*
Y163336D01*
Y126881D02*
X316500Y118442D01*
X298997Y122638D02*
Y135871D01*
Y122638D02*
X308003Y113632D01*
Y103135D02*
Y113632D01*
X323350Y112553D02*
X327797Y117000D01*
X323350Y106753D02*
Y112553D01*
X318903Y102306D02*
X323350Y106753D01*
X310639Y102306D02*
X318903D01*
X307101Y98768D02*
X310639Y102306D01*
X333000Y117000D02*
X335203Y119203D01*
X342153D01*
X368000Y145050D01*
X327797Y117000D02*
X333000D01*
X358000Y206500D02*
X359500D01*
X309500Y241000D02*
X316840Y248340D01*
X359492D01*
X366576Y255424D01*
Y258273D01*
X368000Y185050D02*
Y256849D01*
X366576Y255424D02*
X368000Y256849D01*
X348000Y165050D02*
X368000Y185050D01*
Y145050D02*
Y185050D01*
X306333Y98000D02*
X307101Y98768D01*
Y102233D01*
X308003Y103135D01*
X348000Y276849D02*
Y276849D01*
Y276849D02*
X366576Y258273D01*
X368000Y256849D02*
Y296849D01*
X279497Y169497D02*
X284000Y174000D01*
X260527Y169497D02*
X279497D01*
X259648Y168619D02*
X260527Y169497D01*
X273500Y153500D02*
X284000Y164000D01*
X273500Y135000D02*
Y153500D01*
X295365Y139503D02*
X298997Y135871D01*
X288003Y139503D02*
X295365D01*
X283500Y135000D02*
X288003Y139503D01*
X293500Y129500D02*
Y135000D01*
X289000Y125000D02*
X293500Y129500D01*
X265500Y126500D02*
X267000Y125000D01*
X289000D01*
X265500Y126500D02*
Y164000D01*
M02*
