G04*
G04 #@! TF.GenerationSoftware,Altium Limited,Altium Designer,20.1.14 (287)*
G04*
G04 Layer_Color=65535*
%FSLAX25Y25*%
%MOIN*%
G70*
G04*
G04 #@! TF.SameCoordinates,DD9DAAA6-87D7-4B0E-BF1D-CD2AD6DAE19A*
G04*
G04*
G04 #@! TF.FilePolarity,Positive*
G04*
G01*
G75*
%ADD10C,0.00787*%
%ADD11C,0.00984*%
%ADD12C,0.02362*%
%ADD13C,0.01968*%
%ADD14C,0.00500*%
%ADD15C,0.01575*%
%ADD16C,0.00591*%
%ADD17C,0.00394*%
%ADD18C,0.00800*%
%ADD19C,0.00600*%
%ADD20R,0.05118X0.00803*%
%ADD21R,0.17716X0.03150*%
%ADD22R,0.00803X0.05118*%
D10*
X228185Y292292D02*
X228160Y293289D01*
X228084Y294284D01*
X227958Y295273D01*
X227782Y296255D01*
X227557Y297227D01*
X227282Y298185D01*
X226960Y299129D01*
X226590Y300055D01*
X226173Y300961D01*
X225711Y301846D01*
X225206Y302705D01*
X224657Y303538D01*
X224066Y304342D01*
X223436Y305115D01*
X222768Y305855D01*
X222062Y306560D01*
X221322Y307228D01*
X220549Y307859D01*
X219745Y308449D01*
X218913Y308998D01*
X218053Y309504D01*
X217169Y309966D01*
X216263Y310382D01*
X215337Y310752D01*
X214393Y311075D01*
X213434Y311349D01*
X212463Y311574D01*
X211481Y311750D01*
X210491Y311876D01*
X209497Y311952D01*
X208500Y311977D01*
X207503Y311952D01*
X206508Y311876D01*
X205519Y311750D01*
X204537Y311574D01*
X203566Y311349D01*
X202607Y311075D01*
X201663Y310752D01*
X200737Y310382D01*
X199831Y309966D01*
X198947Y309504D01*
X198087Y308998D01*
X197255Y308449D01*
X196451Y307859D01*
X195678Y307228D01*
X194938Y306560D01*
X194232Y305855D01*
X193564Y305115D01*
X192933Y304342D01*
X192343Y303538D01*
X191794Y302705D01*
X191288Y301846D01*
X190827Y300961D01*
X190410Y300055D01*
X190040Y299129D01*
X189718Y298185D01*
X189443Y297226D01*
X189218Y296255D01*
X189042Y295273D01*
X188916Y294284D01*
X188840Y293289D01*
X188815Y292292D01*
X188840Y291295D01*
X188916Y290301D01*
X189042Y289312D01*
X189218Y288330D01*
X189443Y287358D01*
X189718Y286399D01*
X190040Y285456D01*
X190410Y284529D01*
X190827Y283623D01*
X191288Y282739D01*
X191794Y281880D01*
X192343Y281047D01*
X192934Y280243D01*
X193564Y279470D01*
X194232Y278730D01*
X194938Y278025D01*
X195678Y277356D01*
X196451Y276726D01*
X197255Y276136D01*
X198087Y275587D01*
X198947Y275081D01*
X199831Y274619D01*
X200737Y274203D01*
X201663Y273833D01*
X202607Y273510D01*
X203566Y273236D01*
X204538Y273010D01*
X205519Y272834D01*
X206509Y272708D01*
X207503Y272633D01*
X208500Y272607D01*
X209497Y272633D01*
X210492Y272708D01*
X211481Y272834D01*
X212463Y273010D01*
X213434Y273236D01*
X214393Y273510D01*
X215337Y273833D01*
X216263Y274203D01*
X217169Y274619D01*
X218053Y275081D01*
X218913Y275587D01*
X219745Y276136D01*
X220549Y276726D01*
X221322Y277356D01*
X222062Y278025D01*
X222768Y278730D01*
X223436Y279470D01*
X224066Y280243D01*
X224657Y281047D01*
X225206Y281880D01*
X225712Y282739D01*
X226173Y283623D01*
X226590Y284529D01*
X226960Y285456D01*
X227282Y286400D01*
X227557Y287358D01*
X227782Y288330D01*
X227958Y289312D01*
X228084Y290301D01*
X228160Y291295D01*
X228185Y292292D01*
X36744Y208072D02*
X35957D01*
X36744D01*
X338280Y28950D02*
X337323Y28760D01*
X336512Y28218D01*
X335970Y27406D01*
X335780Y26450D01*
X335970Y25493D01*
X336512Y24682D01*
X337323Y24140D01*
X338280Y23950D01*
X144185Y292292D02*
X144160Y293289D01*
X144084Y294284D01*
X143958Y295273D01*
X143782Y296255D01*
X143557Y297227D01*
X143282Y298185D01*
X142960Y299129D01*
X142590Y300055D01*
X142173Y300962D01*
X141712Y301846D01*
X141206Y302705D01*
X140657Y303538D01*
X140067Y304342D01*
X139436Y305115D01*
X138768Y305855D01*
X138062Y306560D01*
X137322Y307229D01*
X136549Y307859D01*
X135745Y308449D01*
X134913Y308998D01*
X134053Y309504D01*
X133169Y309966D01*
X132263Y310382D01*
X131337Y310752D01*
X130393Y311075D01*
X129434Y311349D01*
X128463Y311575D01*
X127481Y311751D01*
X126491Y311877D01*
X125497Y311952D01*
X124500Y311978D01*
X123503Y311952D01*
X122509Y311877D01*
X121519Y311751D01*
X120537Y311575D01*
X119566Y311349D01*
X118607Y311075D01*
X117663Y310752D01*
X116737Y310382D01*
X115831Y309966D01*
X114947Y309504D01*
X114087Y308998D01*
X113254Y308449D01*
X112451Y307859D01*
X111678Y307229D01*
X110938Y306560D01*
X110232Y305855D01*
X109564Y305115D01*
X108933Y304342D01*
X108343Y303538D01*
X107794Y302705D01*
X107288Y301846D01*
X106827Y300962D01*
X106410Y300055D01*
X106040Y299129D01*
X105718Y298185D01*
X105443Y297227D01*
X105218Y296255D01*
X105042Y295273D01*
X104916Y294284D01*
X104840Y293289D01*
X104815Y292292D01*
X104840Y291295D01*
X104916Y290301D01*
X105042Y289312D01*
X105218Y288330D01*
X105443Y287358D01*
X105718Y286399D01*
X106040Y285456D01*
X106410Y284529D01*
X106827Y283623D01*
X107289Y282739D01*
X107794Y281880D01*
X108343Y281047D01*
X108934Y280243D01*
X109564Y279470D01*
X110232Y278730D01*
X110938Y278025D01*
X111678Y277356D01*
X112451Y276726D01*
X113255Y276136D01*
X114087Y275587D01*
X114947Y275081D01*
X115831Y274619D01*
X116737Y274203D01*
X117663Y273833D01*
X118607Y273510D01*
X119566Y273236D01*
X120537Y273010D01*
X121519Y272834D01*
X122509Y272708D01*
X123503Y272633D01*
X124500Y272607D01*
X125497Y272633D01*
X126492Y272708D01*
X127481Y272834D01*
X128463Y273010D01*
X129434Y273236D01*
X130393Y273510D01*
X131337Y273833D01*
X132263Y274203D01*
X133169Y274619D01*
X134053Y275081D01*
X134913Y275587D01*
X135746Y276136D01*
X136549Y276726D01*
X137322Y277356D01*
X138062Y278025D01*
X138768Y278730D01*
X139436Y279470D01*
X140067Y280243D01*
X140657Y281047D01*
X141206Y281880D01*
X141712Y282739D01*
X142173Y283623D01*
X142590Y284530D01*
X142960Y285456D01*
X143282Y286400D01*
X143557Y287358D01*
X143782Y288330D01*
X143958Y289312D01*
X144084Y290301D01*
X144160Y291296D01*
X144185Y292292D01*
X187343Y291450D02*
X187317Y292447D01*
X187241Y293441D01*
X187116Y294431D01*
X186940Y295412D01*
X186714Y296384D01*
X186440Y297343D01*
X186117Y298287D01*
X185747Y299213D01*
X185331Y300119D01*
X184869Y301003D01*
X184363Y301863D01*
X183814Y302695D01*
X183224Y303499D01*
X182594Y304272D01*
X181925Y305012D01*
X181220Y305717D01*
X180480Y306386D01*
X179707Y307016D01*
X178903Y307607D01*
X178070Y308155D01*
X177211Y308661D01*
X176327Y309123D01*
X175420Y309540D01*
X174494Y309910D01*
X173550Y310232D01*
X172592Y310507D01*
X171620Y310732D01*
X170638Y310908D01*
X169649Y311034D01*
X168655Y311110D01*
X167657Y311135D01*
X166660Y311110D01*
X165666Y311034D01*
X164677Y310908D01*
X163695Y310732D01*
X162723Y310507D01*
X161765Y310232D01*
X160821Y309910D01*
X159895Y309540D01*
X158988Y309123D01*
X158104Y308661D01*
X157245Y308155D01*
X156412Y307607D01*
X155608Y307016D01*
X154835Y306386D01*
X154095Y305717D01*
X153390Y305012D01*
X152721Y304272D01*
X152091Y303499D01*
X151501Y302695D01*
X150952Y301863D01*
X150446Y301003D01*
X149984Y300119D01*
X149568Y299213D01*
X149198Y298287D01*
X148875Y297343D01*
X148601Y296384D01*
X148375Y295412D01*
X148199Y294431D01*
X148073Y293441D01*
X147998Y292447D01*
X147972Y291450D01*
X147998Y290453D01*
X148073Y289458D01*
X148199Y288469D01*
X148375Y287487D01*
X148601Y286516D01*
X148875Y285557D01*
X149198Y284613D01*
X149568Y283687D01*
X149984Y282781D01*
X150446Y281897D01*
X150952Y281037D01*
X151501Y280204D01*
X152091Y279400D01*
X152721Y278627D01*
X153390Y277888D01*
X154095Y277182D01*
X154835Y276514D01*
X155608Y275883D01*
X156412Y275293D01*
X157245Y274744D01*
X158104Y274238D01*
X158988Y273777D01*
X159895Y273360D01*
X160821Y272990D01*
X161765Y272668D01*
X162723Y272393D01*
X163695Y272168D01*
X164677Y271992D01*
X165666Y271866D01*
X166660Y271790D01*
X167657Y271765D01*
X168655Y271790D01*
X169649Y271866D01*
X170638Y271992D01*
X171620Y272168D01*
X172592Y272393D01*
X173550Y272668D01*
X174494Y272990D01*
X175420Y273360D01*
X176327Y273777D01*
X177211Y274238D01*
X178070Y274744D01*
X178903Y275293D01*
X179707Y275883D01*
X180480Y276514D01*
X181220Y277182D01*
X181925Y277888D01*
X182594Y278628D01*
X183224Y279401D01*
X183814Y280205D01*
X184363Y281037D01*
X184869Y281897D01*
X185331Y282781D01*
X185747Y283687D01*
X186117Y284613D01*
X186440Y285557D01*
X186714Y286516D01*
X186940Y287487D01*
X187116Y288469D01*
X187241Y289458D01*
X187317Y290453D01*
X187343Y291450D01*
X254685Y322950D02*
X254660Y323947D01*
X254584Y324941D01*
X254458Y325931D01*
X254282Y326912D01*
X254057Y327884D01*
X253782Y328843D01*
X253460Y329787D01*
X253090Y330713D01*
X252673Y331619D01*
X252211Y332503D01*
X251706Y333363D01*
X251157Y334195D01*
X250566Y334999D01*
X249936Y335772D01*
X249268Y336512D01*
X248562Y337217D01*
X247822Y337886D01*
X247049Y338516D01*
X246245Y339107D01*
X245413Y339655D01*
X244553Y340161D01*
X243669Y340623D01*
X242763Y341040D01*
X241837Y341409D01*
X240893Y341732D01*
X239934Y342006D01*
X238963Y342232D01*
X237981Y342408D01*
X236992Y342534D01*
X235997Y342610D01*
X235000Y342635D01*
X234003Y342610D01*
X233009Y342534D01*
X232019Y342408D01*
X231037Y342232D01*
X230066Y342006D01*
X229107Y341732D01*
X228163Y341409D01*
X227237Y341040D01*
X226331Y340623D01*
X225447Y340161D01*
X224587Y339655D01*
X223755Y339107D01*
X222951Y338516D01*
X222178Y337886D01*
X221438Y337217D01*
X220732Y336512D01*
X220064Y335772D01*
X219433Y334999D01*
X218843Y334195D01*
X218294Y333363D01*
X217788Y332503D01*
X217327Y331619D01*
X216910Y330713D01*
X216540Y329786D01*
X216218Y328843D01*
X215943Y327884D01*
X215718Y326912D01*
X215542Y325931D01*
X215416Y324941D01*
X215340Y323947D01*
X215315Y322950D01*
X215340Y321953D01*
X215416Y320958D01*
X215542Y319969D01*
X215718Y318987D01*
X215943Y318016D01*
X216218Y317057D01*
X216540Y316113D01*
X216910Y315187D01*
X217327Y314281D01*
X217789Y313397D01*
X218294Y312537D01*
X218843Y311704D01*
X219434Y310900D01*
X220064Y310127D01*
X220732Y309387D01*
X221438Y308682D01*
X222178Y308014D01*
X222951Y307383D01*
X223755Y306793D01*
X224587Y306244D01*
X225447Y305738D01*
X226331Y305276D01*
X227237Y304860D01*
X228163Y304490D01*
X229107Y304168D01*
X230066Y303893D01*
X231037Y303668D01*
X232019Y303492D01*
X233009Y303366D01*
X234003Y303290D01*
X235000Y303265D01*
X235997Y303290D01*
X236992Y303366D01*
X237981Y303492D01*
X238963Y303668D01*
X239934Y303893D01*
X240893Y304168D01*
X241837Y304490D01*
X242763Y304860D01*
X243669Y305276D01*
X244553Y305738D01*
X245413Y306244D01*
X246246Y306793D01*
X247049Y307383D01*
X247822Y308014D01*
X248562Y308682D01*
X249268Y309388D01*
X249936Y310128D01*
X250567Y310901D01*
X251157Y311704D01*
X251706Y312537D01*
X252212Y313397D01*
X252673Y314281D01*
X253090Y315187D01*
X253460Y316113D01*
X253782Y317057D01*
X254057Y318016D01*
X254282Y318987D01*
X254458Y319969D01*
X254584Y320958D01*
X254660Y321953D01*
X254685Y322950D01*
X350795Y47544D02*
X351362Y48379D01*
X351840Y49268D01*
X352224Y50200D01*
X352510Y51168D01*
X352694Y52160D01*
X352776Y53166D01*
X352753Y54175D01*
X352626Y55176D01*
X352397Y56158D01*
X352068Y57112D01*
X351642Y58027D01*
X351125Y58893D01*
X350521Y59701D01*
X349837Y60443D01*
X349080Y61110D01*
X348258Y61695D01*
X347381Y62193D01*
X346457Y62598D01*
X345496Y62906D01*
X344508Y63112D01*
X343505Y63216D01*
X342495D01*
X341492Y63112D01*
X340504Y62906D01*
X339543Y62598D01*
X338619Y62193D01*
X337742Y61695D01*
X336920Y61110D01*
X336163Y60443D01*
X335479Y59701D01*
X334875Y58893D01*
X334358Y58027D01*
X333932Y57112D01*
X333603Y56158D01*
X333374Y55176D01*
X333247Y54175D01*
X333225Y53166D01*
X333306Y52160D01*
X333490Y51168D01*
X333776Y50200D01*
X334160Y49267D01*
X334638Y48379D01*
X335205Y47544D01*
X37185Y262450D02*
X37160Y263447D01*
X37084Y264441D01*
X36958Y265431D01*
X36782Y266412D01*
X36557Y267384D01*
X36282Y268343D01*
X35960Y269287D01*
X35590Y270213D01*
X35173Y271119D01*
X34712Y272003D01*
X34206Y272863D01*
X33657Y273695D01*
X33066Y274499D01*
X32436Y275272D01*
X31768Y276012D01*
X31062Y276717D01*
X30322Y277386D01*
X29549Y278016D01*
X28745Y278607D01*
X27913Y279155D01*
X27053Y279661D01*
X26169Y280123D01*
X25263Y280540D01*
X24337Y280909D01*
X23393Y281232D01*
X22434Y281506D01*
X21463Y281732D01*
X20481Y281908D01*
X19491Y282034D01*
X18497Y282110D01*
X17500Y282135D01*
X16503Y282110D01*
X15508Y282034D01*
X14519Y281908D01*
X13537Y281732D01*
X12566Y281506D01*
X11607Y281232D01*
X10663Y280909D01*
X9737Y280540D01*
X8831Y280123D01*
X7947Y279661D01*
X7087Y279155D01*
X6255Y278607D01*
X5451Y278016D01*
X4678Y277386D01*
X3938Y276717D01*
X3232Y276012D01*
X2564Y275272D01*
X1933Y274499D01*
X1343Y273695D01*
X794Y272863D01*
X288Y272003D01*
X-173Y271119D01*
X-590Y270213D01*
X-960Y269286D01*
X-1282Y268343D01*
X-1557Y267384D01*
X-1782Y266412D01*
X-1958Y265431D01*
X-2084Y264441D01*
X-2160Y263447D01*
X-2185Y262450D01*
X-2160Y261453D01*
X-2084Y260458D01*
X-1958Y259469D01*
X-1782Y258487D01*
X-1557Y257516D01*
X-1282Y256557D01*
X-960Y255613D01*
X-590Y254687D01*
X-173Y253781D01*
X289Y252897D01*
X794Y252037D01*
X1343Y251204D01*
X1934Y250400D01*
X2564Y249627D01*
X3232Y248887D01*
X3938Y248182D01*
X4678Y247514D01*
X5451Y246883D01*
X6255Y246293D01*
X7087Y245744D01*
X7947Y245238D01*
X8831Y244777D01*
X9737Y244360D01*
X10663Y243990D01*
X11607Y243668D01*
X12566Y243393D01*
X13537Y243168D01*
X14519Y242992D01*
X15509Y242866D01*
X16503Y242790D01*
X17500Y242765D01*
X18497Y242790D01*
X19492Y242866D01*
X20481Y242992D01*
X21463Y243168D01*
X22434Y243393D01*
X23393Y243668D01*
X24337Y243990D01*
X25263Y244360D01*
X26169Y244777D01*
X27053Y245238D01*
X27913Y245744D01*
X28745Y246293D01*
X29549Y246883D01*
X30322Y247514D01*
X31062Y248182D01*
X31768Y248888D01*
X32436Y249628D01*
X33066Y250401D01*
X33657Y251204D01*
X34206Y252037D01*
X34712Y252897D01*
X35173Y253781D01*
X35590Y254687D01*
X35960Y255613D01*
X36282Y256557D01*
X36557Y257516D01*
X36782Y258487D01*
X36958Y259469D01*
X37084Y260458D01*
X37160Y261453D01*
X37185Y262450D01*
X38185Y303950D02*
X38160Y304947D01*
X38084Y305941D01*
X37958Y306931D01*
X37782Y307912D01*
X37557Y308884D01*
X37282Y309843D01*
X36960Y310787D01*
X36590Y311713D01*
X36173Y312619D01*
X35712Y313503D01*
X35206Y314363D01*
X34657Y315195D01*
X34066Y315999D01*
X33436Y316772D01*
X32768Y317512D01*
X32062Y318217D01*
X31322Y318886D01*
X30549Y319516D01*
X29745Y320107D01*
X28913Y320655D01*
X28053Y321161D01*
X27169Y321623D01*
X26263Y322040D01*
X25337Y322410D01*
X24393Y322732D01*
X23434Y323007D01*
X22463Y323232D01*
X21481Y323408D01*
X20492Y323534D01*
X19497Y323610D01*
X18500Y323635D01*
X17503Y323610D01*
X16509Y323534D01*
X15519Y323408D01*
X14537Y323232D01*
X13566Y323007D01*
X12607Y322732D01*
X11663Y322410D01*
X10737Y322040D01*
X9831Y321623D01*
X8947Y321161D01*
X8087Y320655D01*
X7255Y320107D01*
X6451Y319516D01*
X5678Y318886D01*
X4938Y318217D01*
X4232Y317512D01*
X3564Y316772D01*
X2933Y315999D01*
X2343Y315195D01*
X1794Y314363D01*
X1288Y313503D01*
X827Y312619D01*
X410Y311713D01*
X40Y310787D01*
X-282Y309843D01*
X-557Y308884D01*
X-782Y307912D01*
X-958Y306931D01*
X-1084Y305941D01*
X-1160Y304947D01*
X-1185Y303950D01*
X-1160Y302953D01*
X-1084Y301958D01*
X-958Y300969D01*
X-782Y299987D01*
X-557Y299016D01*
X-282Y298057D01*
X40Y297113D01*
X410Y296187D01*
X827Y295281D01*
X1288Y294397D01*
X1794Y293537D01*
X2343Y292704D01*
X2934Y291900D01*
X3564Y291127D01*
X4233Y290388D01*
X4938Y289682D01*
X5678Y289014D01*
X6451Y288383D01*
X7255Y287793D01*
X8087Y287244D01*
X8947Y286738D01*
X9831Y286277D01*
X10737Y285860D01*
X11663Y285490D01*
X12607Y285168D01*
X13566Y284893D01*
X14537Y284668D01*
X15519Y284492D01*
X16509Y284366D01*
X17503Y284290D01*
X18500Y284265D01*
X19497Y284290D01*
X20492Y284366D01*
X21481Y284492D01*
X22463Y284668D01*
X23434Y284893D01*
X24393Y285168D01*
X25337Y285490D01*
X26263Y285860D01*
X27169Y286277D01*
X28053Y286738D01*
X28913Y287244D01*
X29746Y287793D01*
X30549Y288383D01*
X31322Y289014D01*
X32062Y289682D01*
X32768Y290388D01*
X33436Y291128D01*
X34067Y291901D01*
X34657Y292705D01*
X35206Y293537D01*
X35712Y294397D01*
X36173Y295281D01*
X36590Y296187D01*
X36960Y297113D01*
X37282Y298057D01*
X37557Y299016D01*
X37782Y299987D01*
X37958Y300969D01*
X38084Y301958D01*
X38160Y302953D01*
X38185Y303950D01*
X73685Y323450D02*
X73660Y324447D01*
X73584Y325441D01*
X73458Y326431D01*
X73282Y327412D01*
X73057Y328384D01*
X72782Y329343D01*
X72460Y330287D01*
X72090Y331213D01*
X71673Y332119D01*
X71211Y333003D01*
X70706Y333862D01*
X70157Y334695D01*
X69566Y335499D01*
X68936Y336272D01*
X68268Y337012D01*
X67562Y337717D01*
X66822Y338386D01*
X66049Y339016D01*
X65245Y339607D01*
X64413Y340155D01*
X63553Y340661D01*
X62669Y341123D01*
X61763Y341540D01*
X60837Y341910D01*
X59893Y342232D01*
X58934Y342507D01*
X57963Y342732D01*
X56981Y342908D01*
X55992Y343034D01*
X54997Y343110D01*
X54000Y343135D01*
X53003Y343110D01*
X52008Y343034D01*
X51019Y342908D01*
X50037Y342732D01*
X49066Y342507D01*
X48107Y342232D01*
X47163Y341910D01*
X46237Y341540D01*
X45331Y341123D01*
X44447Y340661D01*
X43587Y340155D01*
X42755Y339607D01*
X41951Y339016D01*
X41178Y338386D01*
X40438Y337717D01*
X39732Y337012D01*
X39064Y336272D01*
X38434Y335499D01*
X37843Y334695D01*
X37294Y333862D01*
X36788Y333003D01*
X36327Y332119D01*
X35910Y331213D01*
X35540Y330287D01*
X35218Y329343D01*
X34943Y328384D01*
X34718Y327412D01*
X34542Y326431D01*
X34416Y325441D01*
X34340Y324447D01*
X34315Y323450D01*
X34340Y322453D01*
X34416Y321458D01*
X34542Y320469D01*
X34718Y319487D01*
X34943Y318516D01*
X35218Y317557D01*
X35540Y316613D01*
X35910Y315687D01*
X36327Y314781D01*
X36788Y313897D01*
X37294Y313037D01*
X37843Y312204D01*
X38434Y311401D01*
X39064Y310628D01*
X39733Y309888D01*
X40438Y309182D01*
X41178Y308514D01*
X41951Y307883D01*
X42755Y307293D01*
X43587Y306744D01*
X44447Y306238D01*
X45331Y305777D01*
X46237Y305360D01*
X47163Y304990D01*
X48107Y304667D01*
X49066Y304393D01*
X50037Y304168D01*
X51019Y303992D01*
X52009Y303866D01*
X53003Y303790D01*
X54000Y303765D01*
X54997Y303790D01*
X55992Y303866D01*
X56981Y303992D01*
X57963Y304168D01*
X58934Y304393D01*
X59893Y304668D01*
X60837Y304990D01*
X61763Y305360D01*
X62669Y305777D01*
X63553Y306238D01*
X64413Y306744D01*
X65245Y307293D01*
X66049Y307883D01*
X66822Y308514D01*
X67562Y309182D01*
X68268Y309888D01*
X68936Y310628D01*
X69567Y311401D01*
X70157Y312205D01*
X70706Y313037D01*
X71212Y313897D01*
X71673Y314781D01*
X72090Y315687D01*
X72460Y316613D01*
X72782Y317557D01*
X73057Y318516D01*
X73282Y319487D01*
X73458Y320469D01*
X73584Y321458D01*
X73660Y322453D01*
X73685Y323450D01*
X269209Y117450D02*
X270165Y117640D01*
X270976Y118182D01*
X271518Y118993D01*
X271709Y119950D01*
X271518Y120906D01*
X270976Y121718D01*
X270165Y122259D01*
X269209Y122450D01*
X260000Y44450D02*
Y54450D01*
X310000D01*
X260000Y44450D02*
X310000D01*
Y54450D01*
X260720Y16017D02*
Y36883D01*
X338280Y16017D02*
Y23950D01*
Y28950D02*
Y36883D01*
X260720Y16017D02*
X338280D01*
X260720Y36883D02*
X338280D01*
X262000Y87950D02*
X292000D01*
Y97950D01*
X262000D02*
X292000D01*
X262000Y87950D02*
Y97950D01*
X335500Y184450D02*
Y214450D01*
X325500D02*
X335500D01*
X325500Y184450D02*
Y214450D01*
Y184450D02*
X335500D01*
X331154Y151505D02*
Y158395D01*
X337858Y151526D02*
Y158416D01*
X267858Y216664D02*
Y223553D01*
X261154Y216643D02*
Y223533D01*
X75937Y338202D02*
X118063D01*
X75937Y340170D02*
X118063D01*
X75937Y321666D02*
X118063D01*
X75937D02*
Y340170D01*
X118063Y321666D02*
Y340170D01*
X124496Y339702D02*
X128697Y321198D01*
X124693Y339702D02*
X166307D01*
X162303Y321198D02*
X166504Y339702D01*
X128697Y321198D02*
X162303D01*
X202693Y318304D02*
Y337595D01*
X189307Y318304D02*
Y337595D01*
Y318304D02*
X202693D01*
X189307Y337595D02*
X202693D01*
X256000Y292450D02*
X266000D01*
X256000D02*
Y342450D01*
X266000Y292450D02*
Y342450D01*
X256000D02*
X266000D01*
X83461Y278056D02*
Y278844D01*
X78539Y278056D02*
Y278844D01*
X51094Y273761D02*
Y300139D01*
X62906Y273761D02*
Y300139D01*
X51094D02*
X62906D01*
X51094Y273761D02*
X62906D01*
X95559Y281588D02*
Y285918D01*
X90441Y281588D02*
Y285918D01*
X95559D01*
X380039Y44556D02*
Y45344D01*
X384961Y44556D02*
Y45344D01*
X325000Y72950D02*
X328000D01*
Y92950D01*
X322000D02*
X328000D01*
X322000Y72950D02*
Y92950D01*
Y72950D02*
X325000D01*
Y92950D02*
Y93850D01*
Y72050D02*
Y72950D01*
X335205Y47544D02*
X350795D01*
X355000Y125272D02*
X375000D01*
X355000Y45272D02*
X375000D01*
Y125272D01*
X355000Y45272D02*
Y125272D01*
X355092Y233091D02*
Y233879D01*
X349777Y233091D02*
Y233879D01*
X338343Y235056D02*
Y235843D01*
X343657Y235056D02*
Y235843D01*
X360719Y229707D02*
X380404D01*
X360719Y217108D02*
X380404D01*
Y229707D01*
X360719Y217108D02*
Y229707D01*
X368606Y198489D02*
X369394D01*
X368606Y203410D02*
X369394D01*
X339260Y305735D02*
X476661D01*
X339260Y247861D02*
X476661D01*
X339260D02*
Y305735D01*
X476661Y247861D02*
Y305735D01*
X339260Y193937D02*
X476661D01*
X339260Y136063D02*
X476661D01*
X339260D02*
Y193937D01*
X476661Y136063D02*
Y193937D01*
X269528Y308705D02*
Y344138D01*
Y308705D02*
X350472D01*
X269528Y344138D02*
X350472D01*
Y308705D02*
Y344138D01*
X335846Y169005D02*
Y175895D01*
X329142Y168984D02*
Y175874D01*
X317980Y151064D02*
Y152836D01*
X322705Y158347D02*
X323295D01*
X328020Y151064D02*
Y152836D01*
X322705Y145552D02*
X323295D01*
X328000Y111950D02*
Y131950D01*
Y111950D02*
X338000D01*
Y131950D01*
X328000D02*
X338000D01*
X279000Y158950D02*
X289000D01*
X279000D02*
Y188950D01*
X289000D01*
Y158950D02*
Y188950D01*
X318500Y289950D02*
Y292950D01*
X298500D02*
X318500D01*
X298500Y286950D02*
Y292950D01*
Y286950D02*
X318500D01*
Y289950D01*
X297600D02*
X298500D01*
X318500D02*
X319400D01*
X318500Y300450D02*
X319400D01*
X297600D02*
X298500D01*
X318500Y297450D02*
Y300450D01*
X298500Y297450D02*
X318500D01*
X298500D02*
Y303450D01*
X318500D01*
Y300450D02*
Y303450D01*
X342539Y218056D02*
Y218844D01*
X347461Y218056D02*
Y218844D01*
X260500Y158950D02*
X270500D01*
X260500D02*
Y188950D01*
X270500D01*
Y158950D02*
Y188950D01*
X362138Y26391D02*
X366469D01*
X362138Y31509D02*
X366469D01*
Y26391D02*
Y31509D01*
X350461Y202556D02*
Y203344D01*
X345539Y202556D02*
Y203344D01*
X349961Y34556D02*
Y35344D01*
X345039Y34556D02*
Y35344D01*
X315167Y72050D02*
Y72950D01*
Y92950D02*
Y93850D01*
X312167Y72950D02*
X315167D01*
X312167D02*
Y92950D01*
X318167D01*
Y72950D02*
Y92950D01*
X315167Y72950D02*
X318167D01*
X306333D02*
X309333D01*
Y92950D01*
X303333D02*
X309333D01*
X303333Y72950D02*
Y92950D01*
Y72950D02*
X306333D01*
Y92950D02*
Y93850D01*
Y72050D02*
Y72950D01*
X268854Y250257D02*
X288146D01*
X268854Y263643D02*
X288146D01*
X268854Y250257D02*
Y263643D01*
X288146Y250257D02*
Y263643D01*
X2811Y219749D02*
X29189D01*
X2811Y207151D02*
X29189D01*
Y219749D01*
X2811Y207151D02*
Y219749D01*
X2736Y138264D02*
X25177D01*
X28523D02*
X32263D01*
X24980Y135902D02*
X25177Y138264D01*
X28523D02*
X28720Y135902D01*
X24980D02*
X28720D01*
X12185Y177634D02*
X32263D01*
Y138264D02*
Y177634D01*
X2736D02*
X9429D01*
X9134Y179997D02*
X9429Y177634D01*
X12185D02*
X12480Y179997D01*
X9134D02*
X12480D01*
X2736Y138264D02*
X2736Y177634D01*
X6476Y103942D02*
X12087D01*
X22913D02*
X28524D01*
Y127958D01*
X6476D02*
X12087D01*
X22913D02*
X28524D01*
X6476Y103942D02*
Y127958D01*
Y32099D02*
X12087D01*
X22913D02*
X28524D01*
Y56115D01*
X6476D02*
X12087D01*
X22913D02*
X28524D01*
X6476Y32099D02*
Y56115D01*
X298205Y230155D02*
Y255745D01*
Y230155D02*
X323795D01*
Y255745D01*
X298205D02*
X323795D01*
X321992Y188651D02*
Y201249D01*
X296008Y188651D02*
Y201249D01*
X321992D01*
X296008Y188651D02*
X321992D01*
X321500Y103392D02*
Y133392D01*
X311500D02*
X321500D01*
X311500Y103392D02*
Y133392D01*
Y103392D02*
X321500D01*
X273000Y211450D02*
X276000D01*
Y231450D01*
X270000D02*
X276000D01*
X270000Y211450D02*
Y231450D01*
Y211450D02*
X273000D01*
Y231450D02*
Y232350D01*
Y210550D02*
Y211450D01*
X279500Y231450D02*
X282500D01*
X279500Y211450D02*
Y231450D01*
Y211450D02*
X285500D01*
Y231450D01*
X282500D02*
X285500D01*
X282500Y210550D02*
Y211450D01*
Y231450D02*
Y232350D01*
X294500Y92950D02*
X297500D01*
X294500Y72950D02*
Y92950D01*
Y72950D02*
X300500D01*
Y92950D01*
X297500D02*
X300500D01*
X297500Y72050D02*
Y72950D01*
Y92950D02*
Y93850D01*
X307791Y109517D02*
Y130383D01*
X269209Y122450D02*
Y130383D01*
Y109517D02*
Y117450D01*
Y130383D02*
X307791D01*
X269209Y109517D02*
X307791D01*
D11*
X335110Y41450D02*
X334372Y41876D01*
Y41024D01*
X335110Y41450D01*
X87492Y319107D02*
X86754Y319533D01*
Y318681D01*
X87492Y319107D01*
X123020Y328324D02*
X122282Y328750D01*
Y327898D01*
X123020Y328324D01*
X208402Y318698D02*
X207663Y319124D01*
Y318272D01*
X208402Y318698D01*
X332350Y48135D02*
X331612Y48561D01*
Y47709D01*
X332350Y48135D01*
X45484Y300139D02*
X44746Y300565D01*
Y299713D01*
X45484Y300139D01*
X381998Y234529D02*
X381260Y234956D01*
Y234103D01*
X381998Y234529D01*
X337193Y286798D02*
X336455Y287225D01*
Y286372D01*
X337193Y286798D01*
Y175000D02*
X336455Y175426D01*
Y174574D01*
X337193Y175000D01*
X331465Y147816D02*
X330726Y148242D01*
Y147390D01*
X331465Y147816D01*
X269740Y245040D02*
X269002Y245467D01*
Y244614D01*
X269740Y245040D01*
X29681Y225261D02*
X28943Y225687D01*
Y224835D01*
X29681Y225261D01*
X294760Y256631D02*
X294022Y257057D01*
Y256205D01*
X294760Y256631D01*
X295122Y183729D02*
X294384Y184156D01*
Y183303D01*
X295122Y183729D01*
X268874Y104950D02*
X268136Y105376D01*
Y104524D01*
X268874Y104950D01*
D12*
X335524Y32946D02*
X335079Y33869D01*
X334080Y34097D01*
X333278Y33458D01*
Y32433D01*
X334080Y31794D01*
X335079Y32023D01*
X335524Y32946D01*
X199937Y322241D02*
X199492Y323165D01*
X198493Y323393D01*
X197692Y322754D01*
Y321729D01*
X198493Y321090D01*
X199492Y321318D01*
X199937Y322241D01*
X377648Y225770D02*
X377203Y226693D01*
X376204Y226921D01*
X375403Y226282D01*
Y225257D01*
X376204Y224618D01*
X377203Y224846D01*
X377648Y225770D01*
X273972Y254194D02*
X273528Y255117D01*
X272529Y255345D01*
X271727Y254706D01*
Y253681D01*
X272529Y253042D01*
X273528Y253271D01*
X273972Y254194D01*
X301126Y192588D02*
X300681Y193511D01*
X299682Y193739D01*
X298881Y193100D01*
Y192075D01*
X299682Y191436D01*
X300681Y191664D01*
X301126Y192588D01*
X274327Y113454D02*
X273882Y114377D01*
X272883Y114605D01*
X272081Y113966D01*
Y112941D01*
X272883Y112302D01*
X273882Y112530D01*
X274327Y113454D01*
D13*
X302437Y252497D02*
X301945Y253349D01*
X300961D01*
X300468Y252497D01*
X300961Y251645D01*
X301945D01*
X302437Y252497D01*
D14*
X39303Y269745D02*
X257807D01*
X39303Y7147D02*
Y269745D01*
X257807Y7147D02*
Y269745D01*
X39303Y7147D02*
X257807D01*
D15*
X282457Y85261D02*
X289543D01*
D16*
X203623Y302950D02*
Y304786D01*
X202704Y303868D02*
X204541D01*
X118877Y305292D02*
Y303456D01*
X119796Y304374D02*
X117959D01*
X161535Y303450D02*
Y301613D01*
X162453Y302532D02*
X160617D01*
X243622Y310950D02*
Y312787D01*
X242704Y311868D02*
X244541D01*
X25622Y246450D02*
Y248287D01*
X24704Y247368D02*
X26541D01*
X8878Y314450D02*
Y312613D01*
X9796Y313531D02*
X7959D01*
X55576Y297664D02*
Y299500D01*
X54657Y298582D02*
X56494D01*
D17*
X301894Y57811D02*
X304518D01*
X303206Y59123D02*
Y56499D01*
X305829Y55844D02*
X307141D01*
X306485D01*
Y59779D01*
X305829Y59123D01*
X311733Y55844D02*
X309109D01*
X311733Y58467D01*
Y59123D01*
X311077Y59779D01*
X309765D01*
X309109Y59123D01*
X288894Y57811D02*
X291517D01*
X292829Y55844D02*
X294141D01*
X293485D01*
Y59779D01*
X292829Y59123D01*
X298733Y55844D02*
X296109D01*
X298733Y58467D01*
Y59123D01*
X298077Y59779D01*
X296765D01*
X296109Y59123D01*
X286017Y59779D02*
X283394D01*
Y57811D01*
X284706Y58467D01*
X285362D01*
X286017Y57811D01*
Y56499D01*
X285362Y55844D01*
X284050D01*
X283394Y56499D01*
X269894Y59123D02*
X270550Y59779D01*
X271862D01*
X272517Y59123D01*
Y58467D01*
X271862Y57811D01*
X271206D01*
X271862D01*
X272517Y57155D01*
Y56499D01*
X271862Y55844D01*
X270550D01*
X269894Y56499D01*
X273829Y55844D02*
Y56499D01*
X274485D01*
Y55844D01*
X273829D01*
X277109Y59123D02*
X277765Y59779D01*
X279077D01*
X279733Y59123D01*
Y58467D01*
X279077Y57811D01*
X278421D01*
X279077D01*
X279733Y57155D01*
Y56499D01*
X279077Y55844D01*
X277765D01*
X277109Y56499D01*
X265517Y59123D02*
X264862Y59779D01*
X263550D01*
X262894Y59123D01*
Y56499D01*
X263550Y55844D01*
X264862D01*
X265517Y56499D01*
Y57811D01*
X264206D01*
X279894Y97343D02*
Y101279D01*
X281206Y99967D01*
X282518Y101279D01*
Y97343D01*
X284485D02*
X285797D01*
X286453Y98000D01*
Y99311D01*
X285797Y99967D01*
X284485D01*
X283829Y99311D01*
Y98000D01*
X284485Y97343D01*
X287765D02*
X289733D01*
X290389Y98000D01*
X289733Y98655D01*
X288421D01*
X287765Y99311D01*
X288421Y99967D01*
X290389D01*
X291701Y97343D02*
X293013D01*
X292357D01*
Y99967D01*
X291701D01*
X274018Y89123D02*
X273362Y89779D01*
X272050D01*
X271394Y89123D01*
Y86500D01*
X272050Y85843D01*
X273362D01*
X274018Y86500D01*
X275329Y89779D02*
Y85843D01*
X277953D01*
X279265Y89779D02*
Y85843D01*
Y87155D01*
X281889Y89779D01*
X279921Y87811D01*
X281889Y85843D01*
X265018Y101123D02*
X264362Y101779D01*
X263050D01*
X262394Y101123D01*
Y98500D01*
X263050Y97843D01*
X264362D01*
X265018Y98500D01*
X268953Y101123D02*
X268297Y101779D01*
X266985D01*
X266329Y101123D01*
Y100467D01*
X266985Y99811D01*
X268297D01*
X268953Y99155D01*
Y98500D01*
X268297Y97843D01*
X266985D01*
X266329Y98500D01*
X329017Y184623D02*
X328362Y185279D01*
X327050D01*
X326394Y184623D01*
Y182000D01*
X327050Y181343D01*
X328362D01*
X329017Y182000D01*
X332953Y184623D02*
X332297Y185279D01*
X330985D01*
X330329Y184623D01*
Y183967D01*
X330985Y183311D01*
X332297D01*
X332953Y182655D01*
Y182000D01*
X332297Y181343D01*
X330985D01*
X330329Y182000D01*
X336518Y201623D02*
X335862Y202279D01*
X334550D01*
X333894Y201623D01*
Y199000D01*
X334550Y198344D01*
X335862D01*
X336518Y199000D01*
X337829Y202279D02*
Y198344D01*
X340453D01*
X341765Y202279D02*
Y198344D01*
Y199655D01*
X344389Y202279D01*
X342421Y200311D01*
X344389Y198344D01*
X327394Y215343D02*
Y219279D01*
X328706Y217967D01*
X330017Y219279D01*
Y215343D01*
X331985D02*
X333297D01*
X333953Y216000D01*
Y217311D01*
X333297Y217967D01*
X331985D01*
X331329Y217311D01*
Y216000D01*
X331985Y215343D01*
X335265D02*
X337233D01*
X337889Y216000D01*
X337233Y216655D01*
X335921D01*
X335265Y217311D01*
X335921Y217967D01*
X337889D01*
X339201Y215343D02*
X340513D01*
X339857D01*
Y217967D01*
X339201D01*
X341163Y142868D02*
X340704Y143327D01*
X339786D01*
X339327Y142868D01*
Y141032D01*
X339786Y140572D01*
X340704D01*
X341163Y141032D01*
X343918Y140572D02*
X342082D01*
X343918Y142409D01*
Y142868D01*
X343459Y143327D01*
X342541D01*
X342082Y142868D01*
X346673Y140572D02*
X344837D01*
X346673Y142409D01*
Y142868D01*
X346214Y143327D01*
X345296D01*
X344837Y142868D01*
X254163Y233368D02*
X253704Y233827D01*
X252786D01*
X252327Y233368D01*
Y231532D01*
X252786Y231072D01*
X253704D01*
X254163Y231532D01*
X256918Y231072D02*
X255082D01*
X256918Y232909D01*
Y233368D01*
X256459Y233827D01*
X255541D01*
X255082Y233368D01*
X257837D02*
X258296Y233827D01*
X259214D01*
X259673Y233368D01*
Y232909D01*
X259214Y232450D01*
X259673Y231991D01*
Y231532D01*
X259214Y231072D01*
X258296D01*
X257837Y231532D01*
Y231991D01*
X258296Y232450D01*
X257837Y232909D01*
Y233368D01*
X258296Y232450D02*
X259214D01*
X253663Y207868D02*
X253204Y208327D01*
X252286D01*
X251827Y207868D01*
Y206031D01*
X252286Y205572D01*
X253204D01*
X253663Y206031D01*
X256418Y205572D02*
X254582D01*
X256418Y207409D01*
Y207868D01*
X255959Y208327D01*
X255041D01*
X254582Y207868D01*
X257337Y208327D02*
X259173D01*
Y207868D01*
X257337Y206031D01*
Y205572D01*
X254163Y221368D02*
X253704Y221827D01*
X252786D01*
X252327Y221368D01*
Y219531D01*
X252786Y219072D01*
X253704D01*
X254163Y219531D01*
X256918Y219072D02*
X255082D01*
X256918Y220909D01*
Y221368D01*
X256459Y221827D01*
X255541D01*
X255082Y221368D01*
X259673Y221827D02*
X258755Y221368D01*
X257837Y220450D01*
Y219531D01*
X258296Y219072D01*
X259214D01*
X259673Y219531D01*
Y219991D01*
X259214Y220450D01*
X257837D01*
X309163Y217868D02*
X308704Y218327D01*
X307786D01*
X307327Y217868D01*
Y216032D01*
X307786Y215572D01*
X308704D01*
X309163Y216032D01*
X311918Y215572D02*
X310082D01*
X311918Y217409D01*
Y217868D01*
X311459Y218327D01*
X310541D01*
X310082Y217868D01*
X314673Y218327D02*
X312837D01*
Y216950D01*
X313755Y217409D01*
X314214D01*
X314673Y216950D01*
Y216032D01*
X314214Y215572D01*
X313296D01*
X312837Y216032D01*
X302663Y275868D02*
X302204Y276327D01*
X301286D01*
X300827Y275868D01*
Y274031D01*
X301286Y273572D01*
X302204D01*
X302663Y274031D01*
X305418Y273572D02*
X303582D01*
X305418Y275409D01*
Y275868D01*
X304959Y276327D01*
X304041D01*
X303582Y275868D01*
X307714Y273572D02*
Y276327D01*
X306337Y274950D01*
X308173D01*
X281163Y283368D02*
X280704Y283827D01*
X279786D01*
X279327Y283368D01*
Y281532D01*
X279786Y281072D01*
X280704D01*
X281163Y281532D01*
X283918Y281072D02*
X282082D01*
X283918Y282909D01*
Y283368D01*
X283459Y283827D01*
X282541D01*
X282082Y283368D01*
X284837D02*
X285296Y283827D01*
X286214D01*
X286673Y283368D01*
Y282909D01*
X286214Y282450D01*
X285755D01*
X286214D01*
X286673Y281991D01*
Y281532D01*
X286214Y281072D01*
X285296D01*
X284837Y281532D01*
X137663Y254327D02*
X139500D01*
X138582D01*
Y251572D01*
X140418D02*
X141337D01*
X140877D01*
Y254327D01*
X140418Y253868D01*
X100393Y303868D02*
X99934Y304327D01*
X99015D01*
X98556Y303868D01*
Y302031D01*
X99015Y301572D01*
X99934D01*
X100393Y302031D01*
X101311Y301572D02*
X102230D01*
X101770D01*
Y304327D01*
X101311Y303868D01*
X103607D02*
X104066Y304327D01*
X104985D01*
X105444Y303868D01*
Y302031D01*
X104985Y301572D01*
X104066D01*
X103607Y302031D01*
Y303868D01*
X380204Y54572D02*
Y57327D01*
X381582D01*
X382041Y56868D01*
Y55950D01*
X381582Y55491D01*
X380204D01*
X381122D02*
X382041Y54572D01*
X382959Y56868D02*
X383418Y57327D01*
X384337D01*
X384796Y56868D01*
Y56409D01*
X384337Y55950D01*
X384796Y55491D01*
Y55032D01*
X384337Y54572D01*
X383418D01*
X382959Y55032D01*
Y55491D01*
X383418Y55950D01*
X382959Y56409D01*
Y56868D01*
X383418Y55950D02*
X384337D01*
X350482Y242072D02*
Y244827D01*
X351859D01*
X352318Y244368D01*
Y243450D01*
X351859Y242991D01*
X350482D01*
X351400D02*
X352318Y242072D01*
X354614D02*
Y244827D01*
X353237Y243450D01*
X355073D01*
X374541Y171878D02*
X373622D01*
X374082D01*
Y169582D01*
X373622Y169123D01*
X373163D01*
X372704Y169582D01*
X377296Y169123D02*
X375459D01*
X377296Y170959D01*
Y171418D01*
X376837Y171878D01*
X375918D01*
X375459Y171418D01*
X352704Y201072D02*
Y203827D01*
X354082D01*
X354541Y203368D01*
Y202450D01*
X354082Y201991D01*
X352704D01*
X353623D02*
X354541Y201072D01*
X355459Y203368D02*
X355918Y203827D01*
X356837D01*
X357296Y203368D01*
Y202909D01*
X356837Y202450D01*
X356378D01*
X356837D01*
X357296Y201991D01*
Y201532D01*
X356837Y201072D01*
X355918D01*
X355459Y201532D01*
X330000Y53531D02*
Y55368D01*
X329541Y55827D01*
X328623D01*
X328163Y55368D01*
Y53531D01*
X328623Y53072D01*
X329541D01*
X329082Y53991D02*
X330000Y53072D01*
X329541D02*
X330000Y53531D01*
X330918Y53072D02*
X331837D01*
X331378D01*
Y55827D01*
X330918Y55368D01*
X366449Y23827D02*
Y21072D01*
X368286D01*
X371041Y23827D02*
X369204D01*
Y21072D01*
X371041D01*
X369204Y22450D02*
X370123D01*
X371959Y23827D02*
Y21072D01*
X373337D01*
X373796Y21531D01*
Y23368D01*
X373337Y23827D01*
X371959D01*
X376551Y21072D02*
X374714D01*
X376551Y22909D01*
Y23368D01*
X376092Y23827D01*
X375173D01*
X374714Y23368D01*
X98623Y276858D02*
X101377D01*
Y278695D01*
X98623Y281450D02*
Y279613D01*
X101377D01*
Y281450D01*
X100000Y279613D02*
Y280532D01*
X98623Y282368D02*
X101377D01*
Y283746D01*
X100918Y284205D01*
X99082D01*
X98623Y283746D01*
Y282368D01*
X101377Y285123D02*
Y286041D01*
Y285582D01*
X98623D01*
X99082Y285123D01*
X363704Y131572D02*
Y134327D01*
X365082D01*
X365541Y133868D01*
Y132950D01*
X365082Y132491D01*
X363704D01*
X366459Y134327D02*
X368296D01*
Y133868D01*
X366459Y132032D01*
Y131572D01*
X313163Y152827D02*
Y152368D01*
X314082Y151450D01*
X315000Y152368D01*
Y152827D01*
X314082Y151450D02*
Y150072D01*
X315918D02*
X316837D01*
X316377D01*
Y152827D01*
X315918Y152368D01*
X187015Y314827D02*
Y312531D01*
X187475Y312072D01*
X188393D01*
X188852Y312531D01*
Y314827D01*
X189770Y312072D02*
X190689D01*
X190230D01*
Y314827D01*
X189770Y314368D01*
X192066Y312072D02*
X192985D01*
X192525D01*
Y314827D01*
X192066Y314368D01*
X260056Y262827D02*
Y260531D01*
X260515Y260072D01*
X261434D01*
X261893Y260531D01*
Y262827D01*
X262811Y260072D02*
X263730D01*
X263270D01*
Y262827D01*
X262811Y262368D01*
X265107D02*
X265566Y262827D01*
X266485D01*
X266944Y262368D01*
Y260531D01*
X266485Y260072D01*
X265566D01*
X265107Y260531D01*
Y262368D01*
X291704Y261827D02*
Y259531D01*
X292163Y259072D01*
X293082D01*
X293541Y259531D01*
Y261827D01*
X294459Y259531D02*
X294918Y259072D01*
X295837D01*
X296296Y259531D01*
Y261368D01*
X295837Y261827D01*
X294918D01*
X294459Y261368D01*
Y260909D01*
X294918Y260450D01*
X296296D01*
X66204Y342327D02*
Y340032D01*
X66663Y339572D01*
X67582D01*
X68041Y340032D01*
Y342327D01*
X68959Y341868D02*
X69418Y342327D01*
X70337D01*
X70796Y341868D01*
Y341409D01*
X70337Y340950D01*
X70796Y340491D01*
Y340032D01*
X70337Y339572D01*
X69418D01*
X68959Y340032D01*
Y340491D01*
X69418Y340950D01*
X68959Y341409D01*
Y341868D01*
X69418Y340950D02*
X70337D01*
X173704Y341827D02*
Y339531D01*
X174163Y339072D01*
X175082D01*
X175541Y339531D01*
Y341827D01*
X176459D02*
X178296D01*
Y341368D01*
X176459Y339531D01*
Y339072D01*
X32204Y215827D02*
Y213531D01*
X32663Y213072D01*
X33582D01*
X34041Y213531D01*
Y215827D01*
X36796D02*
X35877Y215368D01*
X34959Y214450D01*
Y213531D01*
X35418Y213072D01*
X36337D01*
X36796Y213531D01*
Y213991D01*
X36337Y214450D01*
X34959D01*
X34704Y292327D02*
Y290032D01*
X35163Y289572D01*
X36082D01*
X36541Y290032D01*
Y292327D01*
X39296D02*
X37459D01*
Y290950D01*
X38377Y291409D01*
X38837D01*
X39296Y290950D01*
Y290032D01*
X38837Y289572D01*
X37918D01*
X37459Y290032D01*
X263123Y116654D02*
X265418D01*
X265878Y117113D01*
Y118032D01*
X265418Y118491D01*
X263123D01*
X265878Y120786D02*
X263123D01*
X264500Y119409D01*
Y121246D01*
X340704Y19327D02*
Y17031D01*
X341163Y16572D01*
X342082D01*
X342541Y17031D01*
Y19327D01*
X343459Y18868D02*
X343918Y19327D01*
X344837D01*
X345296Y18868D01*
Y18409D01*
X344837Y17950D01*
X344377D01*
X344837D01*
X345296Y17491D01*
Y17031D01*
X344837Y16572D01*
X343918D01*
X343459Y17031D01*
X363704Y225327D02*
Y223031D01*
X364163Y222572D01*
X365082D01*
X365541Y223031D01*
Y225327D01*
X368296Y222572D02*
X366459D01*
X368296Y224409D01*
Y224868D01*
X367837Y225327D01*
X366918D01*
X366459Y224868D01*
X289663Y197827D02*
Y195531D01*
X290123Y195072D01*
X291041D01*
X291500Y195531D01*
Y197827D01*
X292418Y195072D02*
X293337D01*
X292878D01*
Y197827D01*
X292418Y197368D01*
X302056Y288072D02*
Y290827D01*
X303434D01*
X303893Y290368D01*
Y289450D01*
X303434Y288991D01*
X302056D01*
X302975D02*
X303893Y288072D01*
X304811D02*
X305730D01*
X305270D01*
Y290827D01*
X304811Y290368D01*
X308944Y290827D02*
X308025Y290368D01*
X307107Y289450D01*
Y288531D01*
X307566Y288072D01*
X308485D01*
X308944Y288531D01*
Y288991D01*
X308485Y289450D01*
X307107D01*
X303556Y299072D02*
Y301827D01*
X304934D01*
X305393Y301368D01*
Y300450D01*
X304934Y299991D01*
X303556D01*
X304475D02*
X305393Y299072D01*
X306311D02*
X307230D01*
X306770D01*
Y301827D01*
X306311Y301368D01*
X310444Y301827D02*
X308607D01*
Y300450D01*
X309525Y300909D01*
X309985D01*
X310444Y300450D01*
Y299532D01*
X309985Y299072D01*
X309066D01*
X308607Y299532D01*
X284378Y218006D02*
X281623D01*
Y219384D01*
X282082Y219843D01*
X283000D01*
X283459Y219384D01*
Y218006D01*
Y218924D02*
X284378Y219843D01*
Y220761D02*
Y221679D01*
Y221220D01*
X281623D01*
X282082Y220761D01*
X284378Y224434D02*
X281623D01*
X283000Y223057D01*
Y224894D01*
X274377Y217506D02*
X271622D01*
Y218884D01*
X272082Y219343D01*
X273000D01*
X273459Y218884D01*
Y217506D01*
Y218424D02*
X274377Y219343D01*
Y220261D02*
Y221179D01*
Y220720D01*
X271622D01*
X272082Y220261D01*
Y222557D02*
X271622Y223016D01*
Y223934D01*
X272082Y224394D01*
X272541D01*
X273000Y223934D01*
Y223475D01*
Y223934D01*
X273459Y224394D01*
X273918D01*
X274377Y223934D01*
Y223016D01*
X273918Y222557D01*
X302556Y80072D02*
Y82827D01*
X303934D01*
X304393Y82368D01*
Y81450D01*
X303934Y80991D01*
X302556D01*
X303475D02*
X304393Y80072D01*
X305311D02*
X306230D01*
X305770D01*
Y82827D01*
X305311Y82368D01*
X309444Y80072D02*
X307607D01*
X309444Y81909D01*
Y82368D01*
X308985Y82827D01*
X308066D01*
X307607Y82368D01*
X294015Y80072D02*
Y82827D01*
X295393D01*
X295852Y82368D01*
Y81450D01*
X295393Y80991D01*
X294015D01*
X294934D02*
X295852Y80072D01*
X296770D02*
X297689D01*
X297230D01*
Y82827D01*
X296770Y82368D01*
X299066Y80072D02*
X299985D01*
X299525D01*
Y82827D01*
X299066Y82368D01*
X352556Y36072D02*
Y38827D01*
X353934D01*
X354393Y38368D01*
Y37450D01*
X353934Y36991D01*
X352556D01*
X353475D02*
X354393Y36072D01*
X355311D02*
X356230D01*
X355770D01*
Y38827D01*
X355311Y38368D01*
X357607D02*
X358066Y38827D01*
X358985D01*
X359444Y38368D01*
Y36531D01*
X358985Y36072D01*
X358066D01*
X357607Y36531D01*
Y38368D01*
X312704Y80072D02*
Y82827D01*
X314082D01*
X314541Y82368D01*
Y81450D01*
X314082Y80991D01*
X312704D01*
X313622D02*
X314541Y80072D01*
X315459Y80532D02*
X315918Y80072D01*
X316837D01*
X317296Y80532D01*
Y82368D01*
X316837Y82827D01*
X315918D01*
X315459Y82368D01*
Y81909D01*
X315918Y81450D01*
X317296D01*
X350204Y214572D02*
Y217327D01*
X351582D01*
X352041Y216868D01*
Y215950D01*
X351582Y215491D01*
X350204D01*
X351122D02*
X352041Y214572D01*
X352959Y217327D02*
X354796D01*
Y216868D01*
X352959Y215032D01*
Y214572D01*
X339204Y243072D02*
Y245827D01*
X340582D01*
X341041Y245368D01*
Y244450D01*
X340582Y243991D01*
X339204D01*
X340123D02*
X341041Y243072D01*
X343796Y245827D02*
X342878Y245368D01*
X341959Y244450D01*
Y243531D01*
X342418Y243072D01*
X343337D01*
X343796Y243531D01*
Y243991D01*
X343337Y244450D01*
X341959D01*
X322704Y80572D02*
Y83327D01*
X324082D01*
X324541Y82868D01*
Y81950D01*
X324082Y81491D01*
X322704D01*
X323622D02*
X324541Y80572D01*
X327296Y83327D02*
X325459D01*
Y81950D01*
X326378Y82409D01*
X326837D01*
X327296Y81950D01*
Y81032D01*
X326837Y80572D01*
X325918D01*
X325459Y81032D01*
X71204Y276072D02*
Y278827D01*
X72582D01*
X73041Y278368D01*
Y277450D01*
X72582Y276991D01*
X71204D01*
X72123D02*
X73041Y276072D01*
X75796D02*
X73959D01*
X75796Y277909D01*
Y278368D01*
X75337Y278827D01*
X74418D01*
X73959Y278368D01*
X377663Y199572D02*
Y202327D01*
X379041D01*
X379500Y201868D01*
Y200950D01*
X379041Y200491D01*
X377663D01*
X378582D02*
X379500Y199572D01*
X380418D02*
X381337D01*
X380877D01*
Y202327D01*
X380418Y201868D01*
X251122Y295399D02*
X253418D01*
X253877Y295858D01*
Y296777D01*
X253418Y297236D01*
X251122D01*
X253877Y298154D02*
X252041D01*
X251122Y299072D01*
X252041Y299991D01*
X253877D01*
X252500D01*
Y298154D01*
X253877Y300909D02*
X251122D01*
Y302287D01*
X251582Y302746D01*
X252500D01*
X252959Y302287D01*
Y300909D01*
Y301827D02*
X253877Y302746D01*
X251122Y303664D02*
Y305501D01*
Y304582D01*
X253877D01*
X353072Y316787D02*
Y314032D01*
X354449D01*
X354908Y314491D01*
Y316327D01*
X354449Y316787D01*
X353072D01*
X357204Y314032D02*
X356286D01*
X355827Y314491D01*
Y315409D01*
X356286Y315868D01*
X357204D01*
X357663Y315409D01*
Y314950D01*
X355827D01*
X358582Y316787D02*
Y314032D01*
X359959D01*
X360418Y314491D01*
Y314950D01*
Y315409D01*
X359959Y315868D01*
X358582D01*
X361337D02*
Y314491D01*
X361796Y314032D01*
X363173D01*
Y315868D01*
X365010Y313113D02*
X365469D01*
X365928Y313572D01*
Y315868D01*
X364551D01*
X364092Y315409D01*
Y314491D01*
X364551Y314032D01*
X365928D01*
X263204Y190572D02*
Y193327D01*
X264582D01*
X265041Y192868D01*
Y191950D01*
X264582Y191491D01*
X263204D01*
X267337Y190572D02*
Y193327D01*
X265959Y191950D01*
X267796D01*
X281204Y191072D02*
Y193827D01*
X282582D01*
X283041Y193368D01*
Y192450D01*
X282582Y191991D01*
X281204D01*
X283959Y193368D02*
X284418Y193827D01*
X285337D01*
X285796Y193368D01*
Y192909D01*
X285337Y192450D01*
X284877D01*
X285337D01*
X285796Y191991D01*
Y191532D01*
X285337Y191072D01*
X284418D01*
X283959Y191532D01*
X331704Y105572D02*
Y108327D01*
X333082D01*
X333541Y107868D01*
Y106950D01*
X333082Y106491D01*
X331704D01*
X336296Y105572D02*
X334459D01*
X336296Y107409D01*
Y107868D01*
X335837Y108327D01*
X334918D01*
X334459Y107868D01*
X314663Y135072D02*
Y137827D01*
X316041D01*
X316500Y137368D01*
Y136450D01*
X316041Y135991D01*
X314663D01*
X317418Y135072D02*
X318337D01*
X317878D01*
Y137827D01*
X317418Y137368D01*
X27611Y127623D02*
X28529D01*
X28070D01*
Y129919D01*
X28529Y130378D01*
X28988D01*
X29447Y129919D01*
X26692Y128083D02*
X26233Y127623D01*
X25315D01*
X24856Y128083D01*
Y128542D01*
X25315Y129001D01*
X25774D01*
X25315D01*
X24856Y129460D01*
Y129919D01*
X25315Y130378D01*
X26233D01*
X26692Y129919D01*
X377500Y278176D02*
X376582D01*
X377041D01*
Y275880D01*
X376582Y275421D01*
X376122D01*
X375663Y275880D01*
X378418Y275421D02*
X379337D01*
X378877D01*
Y278176D01*
X378418Y277717D01*
X16541Y96327D02*
X14704D01*
Y94950D01*
X15622D01*
X14704D01*
Y93572D01*
X19296D02*
X17459D01*
X19296Y95409D01*
Y95868D01*
X18837Y96327D01*
X17918D01*
X17459Y95868D01*
X18500Y71327D02*
X16663D01*
Y69950D01*
X17582D01*
X16663D01*
Y68572D01*
X19418D02*
X20337D01*
X19877D01*
Y71327D01*
X19418Y70868D01*
X91623Y302868D02*
X91163Y303327D01*
X90245D01*
X89786Y302868D01*
Y301031D01*
X90245Y300572D01*
X91163D01*
X91623Y301031D01*
X94377Y300572D02*
X92541D01*
X94377Y302409D01*
Y302868D01*
X93918Y303327D01*
X93000D01*
X92541Y302868D01*
X95296Y300572D02*
X96214D01*
X95755D01*
Y303327D01*
X95296Y302868D01*
X51163Y325026D02*
X50704Y325485D01*
X49786D01*
X49327Y325026D01*
Y323189D01*
X49786Y322730D01*
X50704D01*
X51163Y323189D01*
X53918Y322730D02*
X52082D01*
X53918Y324567D01*
Y325026D01*
X53459Y325485D01*
X52541D01*
X52082Y325026D01*
X54837D02*
X55296Y325485D01*
X56214D01*
X56673Y325026D01*
Y323189D01*
X56214Y322730D01*
X55296D01*
X54837Y323189D01*
Y325026D01*
X206393Y293368D02*
X205934Y293827D01*
X205015D01*
X204556Y293368D01*
Y291531D01*
X205015Y291072D01*
X205934D01*
X206393Y291531D01*
X207311Y291072D02*
X208230D01*
X207770D01*
Y293827D01*
X207311Y293368D01*
X209607Y291531D02*
X210066Y291072D01*
X210985D01*
X211444Y291531D01*
Y293368D01*
X210985Y293827D01*
X210066D01*
X209607Y293368D01*
Y292909D01*
X210066Y292450D01*
X211444D01*
X77393Y303368D02*
X76934Y303827D01*
X76015D01*
X75556Y303368D01*
Y301532D01*
X76015Y301072D01*
X76934D01*
X77393Y301532D01*
X78311Y301072D02*
X79230D01*
X78770D01*
Y303827D01*
X78311Y303368D01*
X80607D02*
X81066Y303827D01*
X81985D01*
X82444Y303368D01*
Y302909D01*
X81985Y302450D01*
X82444Y301991D01*
Y301532D01*
X81985Y301072D01*
X81066D01*
X80607Y301532D01*
Y301991D01*
X81066Y302450D01*
X80607Y302909D01*
Y303368D01*
X81066Y302450D02*
X81985D01*
X135393Y308868D02*
X134934Y309327D01*
X134015D01*
X133556Y308868D01*
Y307031D01*
X134015Y306572D01*
X134934D01*
X135393Y307031D01*
X136311Y306572D02*
X137230D01*
X136770D01*
Y309327D01*
X136311Y308868D01*
X138607Y309327D02*
X140444D01*
Y308868D01*
X138607Y307031D01*
Y306572D01*
X166893Y292868D02*
X166434Y293327D01*
X165515D01*
X165056Y292868D01*
Y291032D01*
X165515Y290572D01*
X166434D01*
X166893Y291032D01*
X167811Y290572D02*
X168730D01*
X168270D01*
Y293327D01*
X167811Y292868D01*
X171944Y293327D02*
X171025Y292868D01*
X170107Y291950D01*
Y291032D01*
X170566Y290572D01*
X171485D01*
X171944Y291032D01*
Y291491D01*
X171485Y291950D01*
X170107D01*
X153393Y308868D02*
X152934Y309327D01*
X152015D01*
X151556Y308868D01*
Y307031D01*
X152015Y306572D01*
X152934D01*
X153393Y307031D01*
X154311Y306572D02*
X155230D01*
X154770D01*
Y309327D01*
X154311Y308868D01*
X158444Y309327D02*
X156607D01*
Y307950D01*
X157525Y308409D01*
X157985D01*
X158444Y307950D01*
Y307031D01*
X157985Y306572D01*
X157066D01*
X156607Y307031D01*
X115893Y289868D02*
X115434Y290327D01*
X114515D01*
X114056Y289868D01*
Y288032D01*
X114515Y287572D01*
X115434D01*
X115893Y288032D01*
X116811Y287572D02*
X117730D01*
X117270D01*
Y290327D01*
X116811Y289868D01*
X120485Y287572D02*
Y290327D01*
X119107Y288950D01*
X120944D01*
X232893Y321868D02*
X232434Y322327D01*
X231515D01*
X231056Y321868D01*
Y320031D01*
X231515Y319572D01*
X232434D01*
X232893Y320031D01*
X233811Y319572D02*
X234730D01*
X234270D01*
Y322327D01*
X233811Y321868D01*
X236107D02*
X236566Y322327D01*
X237485D01*
X237944Y321868D01*
Y321409D01*
X237485Y320950D01*
X237025D01*
X237485D01*
X237944Y320491D01*
Y320031D01*
X237485Y319572D01*
X236566D01*
X236107Y320031D01*
X20893Y234868D02*
X20434Y235327D01*
X19515D01*
X19056Y234868D01*
Y233032D01*
X19515Y232572D01*
X20434D01*
X20893Y233032D01*
X21811Y232572D02*
X22730D01*
X22270D01*
Y235327D01*
X21811Y234868D01*
X25944Y232572D02*
X24107D01*
X25944Y234409D01*
Y234868D01*
X25485Y235327D01*
X24566D01*
X24107Y234868D01*
X6852Y260868D02*
X6393Y261327D01*
X5475D01*
X5015Y260868D01*
Y259032D01*
X5475Y258572D01*
X6393D01*
X6852Y259032D01*
X7770Y258572D02*
X8689D01*
X8230D01*
Y261327D01*
X7770Y260868D01*
X10066Y258572D02*
X10985D01*
X10525D01*
Y261327D01*
X10066Y260868D01*
X17041Y304026D02*
X16582Y304485D01*
X15663D01*
X15204Y304026D01*
Y302189D01*
X15663Y301730D01*
X16582D01*
X17041Y302189D01*
X17959D02*
X18418Y301730D01*
X19337D01*
X19796Y302189D01*
Y304026D01*
X19337Y304485D01*
X18418D01*
X17959Y304026D01*
Y303567D01*
X18418Y303107D01*
X19796D01*
X267994Y79553D02*
X267534Y80013D01*
X266616D01*
X266157Y79553D01*
Y77717D01*
X266616Y77258D01*
X267534D01*
X267994Y77717D01*
X268912Y79553D02*
X269371Y80013D01*
X270289D01*
X270749Y79553D01*
Y79094D01*
X270289Y78635D01*
X270749Y78176D01*
Y77717D01*
X270289Y77258D01*
X269371D01*
X268912Y77717D01*
Y78176D01*
X269371Y78635D01*
X268912Y79094D01*
Y79553D01*
X269371Y78635D02*
X270289D01*
X279541Y65368D02*
X279082Y65827D01*
X278163D01*
X277704Y65368D01*
Y63532D01*
X278163Y63072D01*
X279082D01*
X279541Y63532D01*
X280459Y65827D02*
X282296D01*
Y65368D01*
X280459Y63532D01*
Y63072D01*
X265041Y68868D02*
X264582Y69327D01*
X263663D01*
X263204Y68868D01*
Y67032D01*
X263663Y66572D01*
X264582D01*
X265041Y67032D01*
X267796Y69327D02*
X266878Y68868D01*
X265959Y67950D01*
Y67032D01*
X266418Y66572D01*
X267337D01*
X267796Y67032D01*
Y67491D01*
X267337Y67950D01*
X265959D01*
X278041Y150368D02*
X277582Y150827D01*
X276663D01*
X276204Y150368D01*
Y148531D01*
X276663Y148072D01*
X277582D01*
X278041Y148531D01*
X280796Y150827D02*
X278959D01*
Y149450D01*
X279877Y149909D01*
X280337D01*
X280796Y149450D01*
Y148531D01*
X280337Y148072D01*
X279418D01*
X278959Y148531D01*
X320041Y164868D02*
X319582Y165327D01*
X318663D01*
X318204Y164868D01*
Y163031D01*
X318663Y162572D01*
X319582D01*
X320041Y163031D01*
X322337Y162572D02*
Y165327D01*
X320959Y163950D01*
X322796D01*
X311041Y164368D02*
X310582Y164827D01*
X309663D01*
X309204Y164368D01*
Y162531D01*
X309663Y162072D01*
X310582D01*
X311041Y162531D01*
X311959Y164368D02*
X312418Y164827D01*
X313337D01*
X313796Y164368D01*
Y163909D01*
X313337Y163450D01*
X312877D01*
X313337D01*
X313796Y162991D01*
Y162531D01*
X313337Y162072D01*
X312418D01*
X311959Y162531D01*
X303041Y164868D02*
X302582Y165327D01*
X301663D01*
X301204Y164868D01*
Y163031D01*
X301663Y162572D01*
X302582D01*
X303041Y163031D01*
X305796Y162572D02*
X303959D01*
X305796Y164409D01*
Y164868D01*
X305337Y165327D01*
X304418D01*
X303959Y164868D01*
X334000Y180368D02*
X333541Y180827D01*
X332623D01*
X332163Y180368D01*
Y178532D01*
X332623Y178072D01*
X333541D01*
X334000Y178532D01*
X334918Y178072D02*
X335837D01*
X335378D01*
Y180827D01*
X334918Y180368D01*
D18*
X362000Y42109D02*
Y40272D01*
X360163Y42109D01*
X359704D01*
X359245Y41650D01*
Y40731D01*
X359704Y40272D01*
X372000D02*
Y41190D01*
Y40731D01*
X369245D01*
X369704Y40272D01*
X372000Y126272D02*
Y127190D01*
Y126731D01*
X369245D01*
X369704Y126272D01*
X369245Y130405D02*
Y128568D01*
X370622D01*
X370163Y129486D01*
Y129946D01*
X370622Y130405D01*
X371541D01*
X372000Y129946D01*
Y129027D01*
X371541Y128568D01*
X362000Y126272D02*
Y127190D01*
Y126731D01*
X359245D01*
X359704Y126272D01*
X359245Y130405D02*
X359704Y129486D01*
X360623Y128568D01*
X361541D01*
X362000Y129027D01*
Y129946D01*
X361541Y130405D01*
X361082D01*
X360623Y129946D01*
Y128568D01*
D19*
X336142Y333508D02*
X335223D01*
X335683D01*
Y330753D01*
X336142Y331212D01*
X335486Y323508D02*
X337323D01*
X335486Y321671D01*
Y321212D01*
X335945Y320753D01*
X336864D01*
X337323Y321212D01*
X285039Y323272D02*
X284121D01*
X284580D01*
Y320517D01*
X285039Y320976D01*
X282744D02*
X282284Y320517D01*
X281366D01*
X280907Y320976D01*
Y322813D01*
X281366Y323272D01*
X282284D01*
X282744Y322813D01*
Y320976D01*
X285039Y332813D02*
X284580Y333272D01*
X283662D01*
X283203Y332813D01*
Y330976D01*
X283662Y330517D01*
X284580D01*
X285039Y330976D01*
Y331435D01*
X284580Y331894D01*
X283203D01*
D20*
X92941Y285352D02*
D03*
D21*
X310000Y342563D02*
D03*
D22*
X365902Y29009D02*
D03*
M02*
