G04*
G04 #@! TF.GenerationSoftware,Altium Limited,Altium Designer,20.1.14 (287)*
G04*
G04 Layer_Color=65535*
%FSLAX25Y25*%
%MOIN*%
G70*
G04*
G04 #@! TF.SameCoordinates,AD96D815-87A0-4BF7-847C-790837316B47*
G04*
G04*
G04 #@! TF.FilePolarity,Positive*
G04*
G01*
G75*
%ADD10C,0.00787*%
%ADD11C,0.00984*%
%ADD12C,0.02362*%
%ADD13C,0.01968*%
%ADD14C,0.00500*%
%ADD15C,0.01575*%
%ADD16C,0.00394*%
%ADD17C,0.00591*%
%ADD18C,0.00800*%
%ADD19C,0.00600*%
%ADD20R,0.05118X0.00803*%
%ADD21R,0.17716X0.03150*%
%ADD22R,0.00803X0.05118*%
D10*
X36744Y208122D02*
X35957D01*
X36744D01*
X338280Y29000D02*
X337323Y28810D01*
X336512Y28268D01*
X335970Y27457D01*
X335780Y26500D01*
X335970Y25543D01*
X336512Y24732D01*
X337323Y24190D01*
X338280Y24000D01*
X144185Y292343D02*
X144160Y293340D01*
X144084Y294334D01*
X143958Y295323D01*
X143782Y296305D01*
X143557Y297277D01*
X143282Y298236D01*
X142960Y299179D01*
X142590Y300106D01*
X142173Y301012D01*
X141712Y301896D01*
X141206Y302755D01*
X140657Y303588D01*
X140067Y304392D01*
X139436Y305165D01*
X138768Y305905D01*
X138062Y306610D01*
X137322Y307279D01*
X136549Y307909D01*
X135745Y308499D01*
X134913Y309048D01*
X134053Y309554D01*
X133169Y310016D01*
X132263Y310432D01*
X131337Y310802D01*
X130393Y311125D01*
X129434Y311399D01*
X128463Y311625D01*
X127481Y311801D01*
X126491Y311927D01*
X125497Y312002D01*
X124500Y312028D01*
X123503Y312002D01*
X122509Y311927D01*
X121519Y311801D01*
X120537Y311625D01*
X119566Y311399D01*
X118607Y311125D01*
X117663Y310802D01*
X116737Y310432D01*
X115831Y310016D01*
X114947Y309554D01*
X114087Y309048D01*
X113254Y308499D01*
X112451Y307909D01*
X111678Y307279D01*
X110938Y306610D01*
X110232Y305905D01*
X109564Y305165D01*
X108933Y304392D01*
X108343Y303588D01*
X107794Y302755D01*
X107288Y301896D01*
X106827Y301012D01*
X106410Y300106D01*
X106040Y299179D01*
X105718Y298236D01*
X105443Y297277D01*
X105218Y296305D01*
X105042Y295323D01*
X104916Y294334D01*
X104840Y293340D01*
X104815Y292343D01*
X104840Y291346D01*
X104916Y290351D01*
X105042Y289362D01*
X105218Y288380D01*
X105443Y287408D01*
X105718Y286450D01*
X106040Y285506D01*
X106410Y284580D01*
X106827Y283673D01*
X107289Y282789D01*
X107794Y281930D01*
X108343Y281097D01*
X108934Y280293D01*
X109564Y279520D01*
X110232Y278780D01*
X110938Y278075D01*
X111678Y277406D01*
X112451Y276776D01*
X113255Y276186D01*
X114087Y275637D01*
X114947Y275131D01*
X115831Y274669D01*
X116737Y274253D01*
X117663Y273883D01*
X118607Y273560D01*
X119566Y273286D01*
X120537Y273060D01*
X121519Y272884D01*
X122509Y272759D01*
X123503Y272683D01*
X124500Y272658D01*
X125497Y272683D01*
X126492Y272759D01*
X127481Y272885D01*
X128463Y273060D01*
X129434Y273286D01*
X130393Y273560D01*
X131337Y273883D01*
X132263Y274253D01*
X133169Y274669D01*
X134053Y275131D01*
X134913Y275637D01*
X135746Y276186D01*
X136549Y276776D01*
X137322Y277407D01*
X138062Y278075D01*
X138768Y278780D01*
X139436Y279520D01*
X140067Y280293D01*
X140657Y281097D01*
X141206Y281930D01*
X141712Y282789D01*
X142173Y283674D01*
X142590Y284580D01*
X142960Y285506D01*
X143282Y286450D01*
X143557Y287409D01*
X143782Y288380D01*
X143958Y289362D01*
X144084Y290351D01*
X144160Y291346D01*
X144185Y292343D01*
X187343Y291500D02*
X187317Y292497D01*
X187241Y293492D01*
X187116Y294481D01*
X186940Y295463D01*
X186714Y296434D01*
X186440Y297393D01*
X186117Y298337D01*
X185747Y299263D01*
X185331Y300169D01*
X184869Y301053D01*
X184363Y301913D01*
X183814Y302745D01*
X183224Y303549D01*
X182594Y304322D01*
X181925Y305062D01*
X181220Y305768D01*
X180480Y306436D01*
X179707Y307066D01*
X178903Y307657D01*
X178070Y308206D01*
X177211Y308712D01*
X176327Y309173D01*
X175420Y309590D01*
X174494Y309960D01*
X173550Y310282D01*
X172592Y310557D01*
X171620Y310782D01*
X170638Y310958D01*
X169649Y311084D01*
X168655Y311160D01*
X167657Y311185D01*
X166660Y311160D01*
X165666Y311084D01*
X164677Y310958D01*
X163695Y310782D01*
X162723Y310557D01*
X161765Y310282D01*
X160821Y309960D01*
X159895Y309590D01*
X158988Y309173D01*
X158104Y308712D01*
X157245Y308206D01*
X156412Y307657D01*
X155608Y307066D01*
X154835Y306436D01*
X154095Y305768D01*
X153390Y305062D01*
X152721Y304322D01*
X152091Y303549D01*
X151501Y302745D01*
X150952Y301913D01*
X150446Y301053D01*
X149984Y300169D01*
X149568Y299263D01*
X149198Y298337D01*
X148875Y297393D01*
X148601Y296434D01*
X148375Y295462D01*
X148199Y294481D01*
X148073Y293492D01*
X147998Y292497D01*
X147972Y291500D01*
X147998Y290503D01*
X148073Y289509D01*
X148199Y288519D01*
X148375Y287537D01*
X148601Y286566D01*
X148875Y285607D01*
X149198Y284663D01*
X149568Y283737D01*
X149984Y282831D01*
X150446Y281947D01*
X150952Y281087D01*
X151501Y280255D01*
X152091Y279451D01*
X152721Y278678D01*
X153390Y277938D01*
X154095Y277232D01*
X154835Y276564D01*
X155608Y275934D01*
X156412Y275343D01*
X157245Y274794D01*
X158104Y274288D01*
X158988Y273827D01*
X159895Y273410D01*
X160821Y273040D01*
X161765Y272718D01*
X162723Y272443D01*
X163695Y272218D01*
X164677Y272042D01*
X165666Y271916D01*
X166660Y271840D01*
X167657Y271815D01*
X168655Y271840D01*
X169649Y271916D01*
X170638Y272042D01*
X171620Y272218D01*
X172592Y272443D01*
X173550Y272718D01*
X174494Y273040D01*
X175420Y273410D01*
X176327Y273827D01*
X177211Y274289D01*
X178070Y274794D01*
X178903Y275343D01*
X179707Y275934D01*
X180480Y276564D01*
X181220Y277233D01*
X181925Y277938D01*
X182594Y278678D01*
X183224Y279451D01*
X183814Y280255D01*
X184363Y281087D01*
X184869Y281947D01*
X185331Y282831D01*
X185747Y283737D01*
X186117Y284663D01*
X186440Y285607D01*
X186714Y286566D01*
X186940Y287538D01*
X187116Y288519D01*
X187241Y289509D01*
X187317Y290503D01*
X187343Y291500D01*
X254685Y323000D02*
X254660Y323997D01*
X254584Y324991D01*
X254458Y325981D01*
X254282Y326963D01*
X254057Y327934D01*
X253782Y328893D01*
X253460Y329837D01*
X253090Y330763D01*
X252673Y331669D01*
X252211Y332553D01*
X251706Y333413D01*
X251157Y334245D01*
X250566Y335049D01*
X249936Y335822D01*
X249268Y336562D01*
X248562Y337268D01*
X247822Y337936D01*
X247049Y338566D01*
X246245Y339157D01*
X245413Y339706D01*
X244553Y340212D01*
X243669Y340673D01*
X242763Y341090D01*
X241837Y341460D01*
X240893Y341782D01*
X239934Y342057D01*
X238963Y342282D01*
X237981Y342458D01*
X236992Y342584D01*
X235997Y342660D01*
X235000Y342685D01*
X234003Y342660D01*
X233009Y342584D01*
X232019Y342458D01*
X231037Y342282D01*
X230066Y342057D01*
X229107Y341782D01*
X228163Y341460D01*
X227237Y341090D01*
X226331Y340673D01*
X225447Y340212D01*
X224587Y339706D01*
X223755Y339157D01*
X222951Y338566D01*
X222178Y337936D01*
X221438Y337268D01*
X220732Y336562D01*
X220064Y335822D01*
X219433Y335049D01*
X218843Y334245D01*
X218294Y333413D01*
X217788Y332553D01*
X217327Y331669D01*
X216910Y330763D01*
X216540Y329837D01*
X216218Y328893D01*
X215943Y327934D01*
X215718Y326962D01*
X215542Y325981D01*
X215416Y324991D01*
X215340Y323997D01*
X215315Y323000D01*
X215340Y322003D01*
X215416Y321008D01*
X215542Y320019D01*
X215718Y319037D01*
X215943Y318066D01*
X216218Y317107D01*
X216540Y316163D01*
X216910Y315237D01*
X217327Y314331D01*
X217789Y313447D01*
X218294Y312587D01*
X218843Y311754D01*
X219434Y310951D01*
X220064Y310178D01*
X220732Y309438D01*
X221438Y308732D01*
X222178Y308064D01*
X222951Y307434D01*
X223755Y306843D01*
X224587Y306294D01*
X225447Y305788D01*
X226331Y305327D01*
X227237Y304910D01*
X228163Y304540D01*
X229107Y304218D01*
X230066Y303943D01*
X231037Y303718D01*
X232019Y303542D01*
X233009Y303416D01*
X234003Y303340D01*
X235000Y303315D01*
X235997Y303340D01*
X236992Y303416D01*
X237981Y303542D01*
X238963Y303718D01*
X239934Y303943D01*
X240893Y304218D01*
X241837Y304540D01*
X242763Y304910D01*
X243669Y305327D01*
X244553Y305788D01*
X245413Y306294D01*
X246246Y306843D01*
X247049Y307434D01*
X247822Y308064D01*
X248562Y308733D01*
X249268Y309438D01*
X249936Y310178D01*
X250567Y310951D01*
X251157Y311755D01*
X251706Y312587D01*
X252212Y313447D01*
X252673Y314331D01*
X253090Y315237D01*
X253460Y316163D01*
X253782Y317107D01*
X254057Y318066D01*
X254282Y319038D01*
X254458Y320019D01*
X254584Y321009D01*
X254660Y322003D01*
X254685Y323000D01*
X228185Y292342D02*
X228160Y293340D01*
X228084Y294334D01*
X227958Y295323D01*
X227782Y296305D01*
X227557Y297277D01*
X227282Y298236D01*
X226960Y299179D01*
X226590Y300105D01*
X226173Y301012D01*
X225711Y301896D01*
X225206Y302755D01*
X224657Y303588D01*
X224066Y304392D01*
X223436Y305165D01*
X222768Y305905D01*
X222062Y306610D01*
X221322Y307279D01*
X220549Y307909D01*
X219745Y308499D01*
X218913Y309048D01*
X218053Y309554D01*
X217169Y310016D01*
X216263Y310432D01*
X215337Y310802D01*
X214393Y311125D01*
X213434Y311399D01*
X212463Y311625D01*
X211481Y311801D01*
X210491Y311927D01*
X209497Y312002D01*
X208500Y312028D01*
X207503Y312002D01*
X206508Y311927D01*
X205519Y311801D01*
X204537Y311625D01*
X203566Y311399D01*
X202607Y311125D01*
X201663Y310802D01*
X200737Y310432D01*
X199831Y310016D01*
X198947Y309554D01*
X198087Y309048D01*
X197255Y308499D01*
X196451Y307909D01*
X195678Y307279D01*
X194938Y306610D01*
X194232Y305905D01*
X193564Y305165D01*
X192933Y304392D01*
X192343Y303588D01*
X191794Y302755D01*
X191288Y301896D01*
X190827Y301012D01*
X190410Y300105D01*
X190040Y299179D01*
X189718Y298236D01*
X189443Y297277D01*
X189218Y296305D01*
X189042Y295323D01*
X188916Y294334D01*
X188840Y293339D01*
X188815Y292342D01*
X188840Y291345D01*
X188916Y290351D01*
X189042Y289362D01*
X189218Y288380D01*
X189443Y287408D01*
X189718Y286450D01*
X190040Y285506D01*
X190410Y284580D01*
X190827Y283673D01*
X191288Y282789D01*
X191794Y281930D01*
X192343Y281097D01*
X192934Y280293D01*
X193564Y279520D01*
X194232Y278780D01*
X194938Y278075D01*
X195678Y277406D01*
X196451Y276776D01*
X197255Y276186D01*
X198087Y275637D01*
X198947Y275131D01*
X199831Y274669D01*
X200737Y274253D01*
X201663Y273883D01*
X202607Y273560D01*
X203566Y273286D01*
X204538Y273060D01*
X205519Y272884D01*
X206509Y272759D01*
X207503Y272683D01*
X208500Y272657D01*
X209497Y272683D01*
X210492Y272759D01*
X211481Y272884D01*
X212463Y273060D01*
X213434Y273286D01*
X214393Y273560D01*
X215337Y273883D01*
X216263Y274253D01*
X217169Y274669D01*
X218053Y275131D01*
X218913Y275637D01*
X219745Y276186D01*
X220549Y276776D01*
X221322Y277406D01*
X222062Y278075D01*
X222768Y278780D01*
X223436Y279520D01*
X224066Y280293D01*
X224657Y281097D01*
X225206Y281930D01*
X225712Y282789D01*
X226173Y283673D01*
X226590Y284580D01*
X226960Y285506D01*
X227282Y286450D01*
X227557Y287408D01*
X227782Y288380D01*
X227958Y289362D01*
X228084Y290351D01*
X228160Y291346D01*
X228185Y292342D01*
X350795Y47594D02*
X351362Y48429D01*
X351840Y49318D01*
X352224Y50251D01*
X352510Y51218D01*
X352694Y52210D01*
X352776Y53216D01*
X352753Y54225D01*
X352626Y55226D01*
X352397Y56208D01*
X352068Y57162D01*
X351642Y58077D01*
X351125Y58943D01*
X350521Y59751D01*
X349837Y60493D01*
X349080Y61160D01*
X348258Y61746D01*
X347381Y62244D01*
X346457Y62648D01*
X345496Y62956D01*
X344508Y63163D01*
X343505Y63267D01*
X342495D01*
X341492Y63163D01*
X340504Y62956D01*
X339543Y62648D01*
X338619Y62243D01*
X337742Y61746D01*
X336920Y61160D01*
X336163Y60493D01*
X335479Y59751D01*
X334875Y58943D01*
X334358Y58077D01*
X333932Y57162D01*
X333603Y56208D01*
X333374Y55226D01*
X333247Y54225D01*
X333225Y53216D01*
X333306Y52210D01*
X333490Y51218D01*
X333776Y50251D01*
X334160Y49318D01*
X334638Y48429D01*
X335205Y47594D01*
X37185Y262500D02*
X37160Y263497D01*
X37084Y264492D01*
X36958Y265481D01*
X36782Y266463D01*
X36557Y267434D01*
X36282Y268393D01*
X35960Y269337D01*
X35590Y270263D01*
X35173Y271169D01*
X34712Y272053D01*
X34206Y272913D01*
X33657Y273745D01*
X33066Y274549D01*
X32436Y275322D01*
X31768Y276062D01*
X31062Y276768D01*
X30322Y277436D01*
X29549Y278066D01*
X28745Y278657D01*
X27913Y279206D01*
X27053Y279712D01*
X26169Y280173D01*
X25263Y280590D01*
X24337Y280960D01*
X23393Y281282D01*
X22434Y281557D01*
X21463Y281782D01*
X20481Y281958D01*
X19491Y282084D01*
X18497Y282160D01*
X17500Y282185D01*
X16503Y282160D01*
X15508Y282084D01*
X14519Y281958D01*
X13537Y281782D01*
X12566Y281557D01*
X11607Y281282D01*
X10663Y280960D01*
X9737Y280590D01*
X8831Y280173D01*
X7947Y279712D01*
X7087Y279206D01*
X6255Y278657D01*
X5451Y278066D01*
X4678Y277436D01*
X3938Y276768D01*
X3232Y276062D01*
X2564Y275322D01*
X1933Y274549D01*
X1343Y273745D01*
X794Y272913D01*
X288Y272053D01*
X-173Y271169D01*
X-590Y270263D01*
X-960Y269337D01*
X-1282Y268393D01*
X-1557Y267434D01*
X-1782Y266462D01*
X-1958Y265481D01*
X-2084Y264492D01*
X-2160Y263497D01*
X-2185Y262500D01*
X-2160Y261503D01*
X-2084Y260508D01*
X-1958Y259519D01*
X-1782Y258537D01*
X-1557Y257566D01*
X-1282Y256607D01*
X-960Y255663D01*
X-590Y254737D01*
X-173Y253831D01*
X289Y252947D01*
X794Y252087D01*
X1343Y251255D01*
X1934Y250451D01*
X2564Y249678D01*
X3232Y248938D01*
X3938Y248232D01*
X4678Y247564D01*
X5451Y246934D01*
X6255Y246343D01*
X7087Y245794D01*
X7947Y245288D01*
X8831Y244827D01*
X9737Y244410D01*
X10663Y244040D01*
X11607Y243718D01*
X12566Y243443D01*
X13537Y243218D01*
X14519Y243042D01*
X15509Y242916D01*
X16503Y242840D01*
X17500Y242815D01*
X18497Y242840D01*
X19492Y242916D01*
X20481Y243042D01*
X21463Y243218D01*
X22434Y243443D01*
X23393Y243718D01*
X24337Y244040D01*
X25263Y244410D01*
X26169Y244827D01*
X27053Y245288D01*
X27913Y245794D01*
X28745Y246343D01*
X29549Y246934D01*
X30322Y247564D01*
X31062Y248233D01*
X31768Y248938D01*
X32436Y249678D01*
X33066Y250451D01*
X33657Y251255D01*
X34206Y252087D01*
X34712Y252947D01*
X35173Y253831D01*
X35590Y254737D01*
X35960Y255663D01*
X36282Y256607D01*
X36557Y257566D01*
X36782Y258538D01*
X36958Y259519D01*
X37084Y260509D01*
X37160Y261503D01*
X37185Y262500D01*
X38185Y304000D02*
X38160Y304997D01*
X38084Y305992D01*
X37958Y306981D01*
X37782Y307963D01*
X37557Y308934D01*
X37282Y309893D01*
X36960Y310837D01*
X36590Y311763D01*
X36173Y312669D01*
X35712Y313553D01*
X35206Y314413D01*
X34657Y315245D01*
X34066Y316049D01*
X33436Y316822D01*
X32768Y317562D01*
X32062Y318268D01*
X31322Y318936D01*
X30549Y319566D01*
X29745Y320157D01*
X28913Y320706D01*
X28053Y321212D01*
X27169Y321673D01*
X26263Y322090D01*
X25337Y322460D01*
X24393Y322782D01*
X23434Y323057D01*
X22463Y323282D01*
X21481Y323458D01*
X20492Y323584D01*
X19497Y323660D01*
X18500Y323685D01*
X17503Y323660D01*
X16509Y323584D01*
X15519Y323458D01*
X14537Y323282D01*
X13566Y323057D01*
X12607Y322782D01*
X11663Y322460D01*
X10737Y322090D01*
X9831Y321673D01*
X8947Y321212D01*
X8087Y320706D01*
X7255Y320157D01*
X6451Y319566D01*
X5678Y318936D01*
X4938Y318268D01*
X4232Y317562D01*
X3564Y316822D01*
X2933Y316049D01*
X2343Y315245D01*
X1794Y314413D01*
X1288Y313553D01*
X827Y312669D01*
X410Y311763D01*
X40Y310837D01*
X-282Y309893D01*
X-557Y308934D01*
X-782Y307962D01*
X-958Y306981D01*
X-1084Y305992D01*
X-1160Y304997D01*
X-1185Y304000D01*
X-1160Y303003D01*
X-1084Y302009D01*
X-958Y301019D01*
X-782Y300037D01*
X-557Y299066D01*
X-282Y298107D01*
X40Y297163D01*
X410Y296237D01*
X827Y295331D01*
X1288Y294447D01*
X1794Y293587D01*
X2343Y292755D01*
X2934Y291951D01*
X3564Y291178D01*
X4233Y290438D01*
X4938Y289732D01*
X5678Y289064D01*
X6451Y288434D01*
X7255Y287843D01*
X8087Y287294D01*
X8947Y286788D01*
X9831Y286327D01*
X10737Y285910D01*
X11663Y285540D01*
X12607Y285218D01*
X13566Y284943D01*
X14537Y284718D01*
X15519Y284542D01*
X16509Y284416D01*
X17503Y284340D01*
X18500Y284315D01*
X19497Y284340D01*
X20492Y284416D01*
X21481Y284542D01*
X22463Y284718D01*
X23434Y284943D01*
X24393Y285218D01*
X25337Y285540D01*
X26263Y285910D01*
X27169Y286327D01*
X28053Y286789D01*
X28913Y287294D01*
X29746Y287843D01*
X30549Y288434D01*
X31322Y289064D01*
X32062Y289733D01*
X32768Y290438D01*
X33436Y291178D01*
X34067Y291951D01*
X34657Y292755D01*
X35206Y293587D01*
X35712Y294447D01*
X36173Y295331D01*
X36590Y296237D01*
X36960Y297163D01*
X37282Y298107D01*
X37557Y299066D01*
X37782Y300038D01*
X37958Y301019D01*
X38084Y302009D01*
X38160Y303003D01*
X38185Y304000D01*
X73685Y323500D02*
X73660Y324497D01*
X73584Y325491D01*
X73458Y326481D01*
X73282Y327463D01*
X73057Y328434D01*
X72782Y329393D01*
X72460Y330337D01*
X72090Y331263D01*
X71673Y332169D01*
X71211Y333053D01*
X70706Y333913D01*
X70157Y334745D01*
X69566Y335549D01*
X68936Y336322D01*
X68268Y337062D01*
X67562Y337768D01*
X66822Y338436D01*
X66049Y339066D01*
X65245Y339657D01*
X64413Y340206D01*
X63553Y340711D01*
X62669Y341173D01*
X61763Y341590D01*
X60837Y341960D01*
X59893Y342282D01*
X58934Y342557D01*
X57963Y342782D01*
X56981Y342958D01*
X55992Y343084D01*
X54997Y343160D01*
X54000Y343185D01*
X53003Y343160D01*
X52008Y343084D01*
X51019Y342958D01*
X50037Y342782D01*
X49066Y342557D01*
X48107Y342282D01*
X47163Y341960D01*
X46237Y341590D01*
X45331Y341173D01*
X44447Y340711D01*
X43587Y340206D01*
X42755Y339657D01*
X41951Y339066D01*
X41178Y338436D01*
X40438Y337768D01*
X39732Y337062D01*
X39064Y336322D01*
X38434Y335549D01*
X37843Y334745D01*
X37294Y333913D01*
X36788Y333053D01*
X36327Y332169D01*
X35910Y331263D01*
X35540Y330337D01*
X35218Y329393D01*
X34943Y328434D01*
X34718Y327463D01*
X34542Y326481D01*
X34416Y325491D01*
X34340Y324497D01*
X34315Y323500D01*
X34340Y322503D01*
X34416Y321509D01*
X34542Y320519D01*
X34718Y319537D01*
X34943Y318566D01*
X35218Y317607D01*
X35540Y316663D01*
X35910Y315737D01*
X36327Y314831D01*
X36788Y313947D01*
X37294Y313087D01*
X37843Y312255D01*
X38434Y311451D01*
X39064Y310678D01*
X39733Y309938D01*
X40438Y309232D01*
X41178Y308564D01*
X41951Y307933D01*
X42755Y307343D01*
X43587Y306794D01*
X44447Y306288D01*
X45331Y305827D01*
X46237Y305410D01*
X47163Y305040D01*
X48107Y304718D01*
X49066Y304443D01*
X50037Y304218D01*
X51019Y304042D01*
X52009Y303916D01*
X53003Y303840D01*
X54000Y303815D01*
X54997Y303840D01*
X55992Y303916D01*
X56981Y304042D01*
X57963Y304218D01*
X58934Y304443D01*
X59893Y304718D01*
X60837Y305040D01*
X61763Y305410D01*
X62669Y305827D01*
X63553Y306289D01*
X64413Y306794D01*
X65245Y307343D01*
X66049Y307934D01*
X66822Y308564D01*
X67562Y309232D01*
X68268Y309938D01*
X68936Y310678D01*
X69567Y311451D01*
X70157Y312255D01*
X70706Y313087D01*
X71212Y313947D01*
X71673Y314831D01*
X72090Y315737D01*
X72460Y316663D01*
X72782Y317607D01*
X73057Y318566D01*
X73282Y319537D01*
X73458Y320519D01*
X73584Y321509D01*
X73660Y322503D01*
X73685Y323500D01*
X269209Y117500D02*
X270165Y117690D01*
X270976Y118232D01*
X271518Y119043D01*
X271709Y120000D01*
X271518Y120957D01*
X270976Y121768D01*
X270165Y122310D01*
X269209Y122500D01*
X260000Y44500D02*
Y54500D01*
X310000D01*
X260000Y44500D02*
X310000D01*
Y54500D01*
X260720Y16067D02*
Y36933D01*
X338280Y16067D02*
Y24000D01*
Y29000D02*
Y36933D01*
X260720Y16067D02*
X338280D01*
X260720Y36933D02*
X338280D01*
X262000Y88000D02*
X292000D01*
Y98000D01*
X262000D02*
X292000D01*
X262000Y88000D02*
Y98000D01*
X335500Y184500D02*
Y214500D01*
X325500D02*
X335500D01*
X325500Y184500D02*
Y214500D01*
Y184500D02*
X335500D01*
X331154Y151555D02*
Y158445D01*
X337858Y151576D02*
Y158466D01*
X267858Y216714D02*
Y223604D01*
X261154Y216693D02*
Y223583D01*
X75937Y338252D02*
X118063D01*
X75937Y340220D02*
X118063D01*
X75937Y321717D02*
X118063D01*
X75937D02*
Y340220D01*
X118063Y321717D02*
Y340220D01*
X124496Y339752D02*
X128697Y321248D01*
X124693Y339752D02*
X166307D01*
X162303Y321248D02*
X166504Y339752D01*
X128697Y321248D02*
X162303D01*
X202693Y318354D02*
Y337646D01*
X189307Y318354D02*
Y337646D01*
Y318354D02*
X202693D01*
X189307Y337646D02*
X202693D01*
X256000Y292500D02*
X266000D01*
X256000D02*
Y342500D01*
X266000Y292500D02*
Y342500D01*
X256000D02*
X266000D01*
X83461Y278106D02*
Y278894D01*
X78539Y278106D02*
Y278894D01*
X51094Y273811D02*
Y300189D01*
X62906Y273811D02*
Y300189D01*
X51094D02*
X62906D01*
X51094Y273811D02*
X62906D01*
X95559Y281638D02*
Y285968D01*
X90441Y281638D02*
Y285968D01*
X95559D01*
X380039Y44606D02*
Y45394D01*
X384961Y44606D02*
Y45394D01*
X325000Y73000D02*
X328000D01*
Y93000D01*
X322000D02*
X328000D01*
X322000Y73000D02*
Y93000D01*
Y73000D02*
X325000D01*
Y93000D02*
Y93900D01*
Y72100D02*
Y73000D01*
X335205Y47595D02*
X350795D01*
X355000Y125322D02*
X375000D01*
X355000Y45322D02*
X375000D01*
Y125322D01*
X355000Y45322D02*
Y125322D01*
X355092Y233142D02*
Y233929D01*
X349777Y233142D02*
Y233929D01*
X338343Y235106D02*
Y235894D01*
X343657Y235106D02*
Y235894D01*
X360719Y229757D02*
X380404D01*
X360719Y217158D02*
X380404D01*
Y229757D01*
X360719Y217158D02*
Y229757D01*
X368606Y198539D02*
X369394D01*
X368606Y203461D02*
X369394D01*
X339260Y305785D02*
X476661D01*
X339260Y247912D02*
X476661D01*
X339260D02*
Y305785D01*
X476661Y247912D02*
Y305785D01*
X339260Y193987D02*
X476661D01*
X339260Y136113D02*
X476661D01*
X339260D02*
Y193987D01*
X476661Y136113D02*
Y193987D01*
X269528Y308755D02*
Y344188D01*
Y308755D02*
X350472D01*
X269528Y344188D02*
X350472D01*
Y308755D02*
Y344188D01*
X335846Y169055D02*
Y175945D01*
X329142Y169034D02*
Y175924D01*
X317980Y151114D02*
Y152886D01*
X322705Y158398D02*
X323295D01*
X328020Y151114D02*
Y152886D01*
X322705Y145602D02*
X323295D01*
X328000Y112000D02*
Y132000D01*
Y112000D02*
X338000D01*
Y132000D01*
X328000D02*
X338000D01*
X279000Y159000D02*
X289000D01*
X279000D02*
Y189000D01*
X289000D01*
Y159000D02*
Y189000D01*
X318500Y290000D02*
Y293000D01*
X298500D02*
X318500D01*
X298500Y287000D02*
Y293000D01*
Y287000D02*
X318500D01*
Y290000D01*
X297600D02*
X298500D01*
X318500D02*
X319400D01*
X318500Y300500D02*
X319400D01*
X297600D02*
X298500D01*
X318500Y297500D02*
Y300500D01*
X298500Y297500D02*
X318500D01*
X298500D02*
Y303500D01*
X318500D01*
Y300500D02*
Y303500D01*
X342539Y218106D02*
Y218894D01*
X347461Y218106D02*
Y218894D01*
X260500Y159000D02*
X270500D01*
X260500D02*
Y189000D01*
X270500D01*
Y159000D02*
Y189000D01*
X362138Y26441D02*
X366469D01*
X362138Y31559D02*
X366469D01*
Y26441D02*
Y31559D01*
X350461Y202606D02*
Y203394D01*
X345539Y202606D02*
Y203394D01*
X349961Y34606D02*
Y35394D01*
X345039Y34606D02*
Y35394D01*
X315167Y72100D02*
Y73000D01*
Y93000D02*
Y93900D01*
X312167Y73000D02*
X315167D01*
X312167D02*
Y93000D01*
X318167D01*
Y73000D02*
Y93000D01*
X315167Y73000D02*
X318167D01*
X306333D02*
X309333D01*
Y93000D01*
X303333D02*
X309333D01*
X303333Y73000D02*
Y93000D01*
Y73000D02*
X306333D01*
Y93000D02*
Y93900D01*
Y72100D02*
Y73000D01*
X268854Y250307D02*
X288146D01*
X268854Y263693D02*
X288146D01*
X268854Y250307D02*
Y263693D01*
X288146Y250307D02*
Y263693D01*
X2811Y219799D02*
X29189D01*
X2811Y207201D02*
X29189D01*
Y219799D01*
X2811Y207201D02*
Y219799D01*
X2736Y138314D02*
X25177D01*
X28523D02*
X32263D01*
X24980Y135952D02*
X25177Y138314D01*
X28523D02*
X28720Y135952D01*
X24980D02*
X28720D01*
X12185Y177685D02*
X32263D01*
Y138314D02*
Y177685D01*
X2736D02*
X9429D01*
X9134Y180047D02*
X9429Y177685D01*
X12185D02*
X12480Y180047D01*
X9134D02*
X12480D01*
X2736Y138314D02*
X2736Y177685D01*
X6476Y103992D02*
X12087D01*
X22913D02*
X28524D01*
Y128008D01*
X6476D02*
X12087D01*
X22913D02*
X28524D01*
X6476Y103992D02*
Y128008D01*
Y32150D02*
X12087D01*
X22913D02*
X28524D01*
Y56165D01*
X6476D02*
X12087D01*
X22913D02*
X28524D01*
X6476Y32150D02*
Y56165D01*
X298205Y230205D02*
Y255795D01*
Y230205D02*
X323795D01*
Y255795D01*
X298205D02*
X323795D01*
X321992Y188701D02*
Y201299D01*
X296008Y188701D02*
Y201299D01*
X321992D01*
X296008Y188701D02*
X321992D01*
X321500Y103442D02*
Y133442D01*
X311500D02*
X321500D01*
X311500Y103442D02*
Y133442D01*
Y103442D02*
X321500D01*
X273000Y211500D02*
X276000D01*
Y231500D01*
X270000D02*
X276000D01*
X270000Y211500D02*
Y231500D01*
Y211500D02*
X273000D01*
Y231500D02*
Y232400D01*
Y210600D02*
Y211500D01*
X279500Y231500D02*
X282500D01*
X279500Y211500D02*
Y231500D01*
Y211500D02*
X285500D01*
Y231500D01*
X282500D02*
X285500D01*
X282500Y210600D02*
Y211500D01*
Y231500D02*
Y232400D01*
X294500Y93000D02*
X297500D01*
X294500Y73000D02*
Y93000D01*
Y73000D02*
X300500D01*
Y93000D01*
X297500D02*
X300500D01*
X297500Y72100D02*
Y73000D01*
Y93000D02*
Y93900D01*
X307791Y109567D02*
Y130433D01*
X269209Y122500D02*
Y130433D01*
Y109567D02*
Y117500D01*
Y130433D02*
X307791D01*
X269209Y109567D02*
X307791D01*
D11*
X335110Y41500D02*
X334372Y41926D01*
Y41074D01*
X335110Y41500D01*
X87492Y319158D02*
X86754Y319584D01*
Y318731D01*
X87492Y319158D01*
X123020Y328374D02*
X122282Y328800D01*
Y327948D01*
X123020Y328374D01*
X208402Y318748D02*
X207663Y319174D01*
Y318322D01*
X208402Y318748D01*
X332350Y48185D02*
X331612Y48611D01*
Y47759D01*
X332350Y48185D01*
X45484Y300189D02*
X44746Y300615D01*
Y299763D01*
X45484Y300189D01*
X381998Y234580D02*
X381260Y235006D01*
Y234154D01*
X381998Y234580D01*
X337193Y286848D02*
X336455Y287275D01*
Y286422D01*
X337193Y286848D01*
Y175050D02*
X336455Y175476D01*
Y174624D01*
X337193Y175050D01*
X331465Y147866D02*
X330726Y148292D01*
Y147440D01*
X331465Y147866D01*
X269740Y245091D02*
X269002Y245517D01*
Y244664D01*
X269740Y245091D01*
X29681Y225311D02*
X28943Y225737D01*
Y224885D01*
X29681Y225311D01*
X294760Y256681D02*
X294022Y257107D01*
Y256255D01*
X294760Y256681D01*
X295122Y183780D02*
X294384Y184206D01*
Y183353D01*
X295122Y183780D01*
X268874Y105000D02*
X268136Y105426D01*
Y104574D01*
X268874Y105000D01*
D12*
X335524Y32996D02*
X335079Y33920D01*
X334080Y34148D01*
X333278Y33509D01*
Y32484D01*
X334080Y31845D01*
X335079Y32073D01*
X335524Y32996D01*
X199937Y322291D02*
X199492Y323215D01*
X198493Y323443D01*
X197692Y322804D01*
Y321779D01*
X198493Y321140D01*
X199492Y321368D01*
X199937Y322291D01*
X377648Y225820D02*
X377203Y226743D01*
X376204Y226971D01*
X375403Y226332D01*
Y225307D01*
X376204Y224668D01*
X377203Y224896D01*
X377648Y225820D01*
X273972Y254244D02*
X273528Y255168D01*
X272529Y255396D01*
X271727Y254757D01*
Y253732D01*
X272529Y253093D01*
X273528Y253321D01*
X273972Y254244D01*
X301126Y192638D02*
X300681Y193561D01*
X299682Y193789D01*
X298881Y193150D01*
Y192125D01*
X299682Y191486D01*
X300681Y191714D01*
X301126Y192638D01*
X274327Y113504D02*
X273882Y114427D01*
X272883Y114655D01*
X272081Y114016D01*
Y112991D01*
X272883Y112352D01*
X273882Y112581D01*
X274327Y113504D01*
D13*
X302437Y252547D02*
X301945Y253400D01*
X300961D01*
X300468Y252547D01*
X300961Y251695D01*
X301945D01*
X302437Y252547D01*
D14*
X39303Y269795D02*
X257807D01*
X39303Y7197D02*
Y269795D01*
X257807Y7197D02*
Y269795D01*
X39303Y7197D02*
X257807D01*
D15*
X282457Y85311D02*
X289543D01*
D16*
X301894Y57862D02*
X304518D01*
X303206Y59174D02*
Y56550D01*
X305829Y55894D02*
X307141D01*
X306485D01*
Y59829D01*
X305829Y59174D01*
X311733Y55894D02*
X309109D01*
X311733Y58517D01*
Y59174D01*
X311077Y59829D01*
X309765D01*
X309109Y59174D01*
X288894Y57862D02*
X291517D01*
X292829Y55894D02*
X294141D01*
X293485D01*
Y59829D01*
X292829Y59174D01*
X298733Y55894D02*
X296109D01*
X298733Y58517D01*
Y59174D01*
X298077Y59829D01*
X296765D01*
X296109Y59174D01*
X286017Y59829D02*
X283394D01*
Y57862D01*
X284706Y58517D01*
X285362D01*
X286017Y57862D01*
Y56550D01*
X285362Y55894D01*
X284050D01*
X283394Y56550D01*
X269894Y59174D02*
X270550Y59829D01*
X271862D01*
X272517Y59174D01*
Y58517D01*
X271862Y57862D01*
X271206D01*
X271862D01*
X272517Y57206D01*
Y56550D01*
X271862Y55894D01*
X270550D01*
X269894Y56550D01*
X273829Y55894D02*
Y56550D01*
X274485D01*
Y55894D01*
X273829D01*
X277109Y59174D02*
X277765Y59829D01*
X279077D01*
X279733Y59174D01*
Y58517D01*
X279077Y57862D01*
X278421D01*
X279077D01*
X279733Y57206D01*
Y56550D01*
X279077Y55894D01*
X277765D01*
X277109Y56550D01*
X265517Y59174D02*
X264862Y59829D01*
X263550D01*
X262894Y59174D01*
Y56550D01*
X263550Y55894D01*
X264862D01*
X265517Y56550D01*
Y57862D01*
X264206D01*
X279894Y97394D02*
Y101329D01*
X281206Y100017D01*
X282518Y101329D01*
Y97394D01*
X284485D02*
X285797D01*
X286453Y98050D01*
Y99362D01*
X285797Y100017D01*
X284485D01*
X283829Y99362D01*
Y98050D01*
X284485Y97394D01*
X287765D02*
X289733D01*
X290389Y98050D01*
X289733Y98706D01*
X288421D01*
X287765Y99362D01*
X288421Y100017D01*
X290389D01*
X291701Y97394D02*
X293013D01*
X292357D01*
Y100017D01*
X291701D01*
X274018Y89174D02*
X273362Y89829D01*
X272050D01*
X271394Y89174D01*
Y86550D01*
X272050Y85894D01*
X273362D01*
X274018Y86550D01*
X275329Y89829D02*
Y85894D01*
X277953D01*
X279265Y89829D02*
Y85894D01*
Y87206D01*
X281889Y89829D01*
X279921Y87862D01*
X281889Y85894D01*
X265018Y101173D02*
X264362Y101829D01*
X263050D01*
X262394Y101173D01*
Y98550D01*
X263050Y97894D01*
X264362D01*
X265018Y98550D01*
X268953Y101173D02*
X268297Y101829D01*
X266985D01*
X266329Y101173D01*
Y100517D01*
X266985Y99862D01*
X268297D01*
X268953Y99206D01*
Y98550D01*
X268297Y97894D01*
X266985D01*
X266329Y98550D01*
X329017Y184674D02*
X328362Y185329D01*
X327050D01*
X326394Y184674D01*
Y182050D01*
X327050Y181394D01*
X328362D01*
X329017Y182050D01*
X332953Y184674D02*
X332297Y185329D01*
X330985D01*
X330329Y184674D01*
Y184018D01*
X330985Y183362D01*
X332297D01*
X332953Y182706D01*
Y182050D01*
X332297Y181394D01*
X330985D01*
X330329Y182050D01*
X336518Y201674D02*
X335862Y202329D01*
X334550D01*
X333894Y201674D01*
Y199050D01*
X334550Y198394D01*
X335862D01*
X336518Y199050D01*
X337829Y202329D02*
Y198394D01*
X340453D01*
X341765Y202329D02*
Y198394D01*
Y199706D01*
X344389Y202329D01*
X342421Y200362D01*
X344389Y198394D01*
X327394Y215394D02*
Y219329D01*
X328706Y218018D01*
X330017Y219329D01*
Y215394D01*
X331985D02*
X333297D01*
X333953Y216050D01*
Y217362D01*
X333297Y218018D01*
X331985D01*
X331329Y217362D01*
Y216050D01*
X331985Y215394D01*
X335265D02*
X337233D01*
X337889Y216050D01*
X337233Y216706D01*
X335921D01*
X335265Y217362D01*
X335921Y218018D01*
X337889D01*
X339201Y215394D02*
X340513D01*
X339857D01*
Y218018D01*
X339201D01*
X352704Y201122D02*
Y203877D01*
X354082D01*
X354541Y203418D01*
Y202500D01*
X354082Y202041D01*
X352704D01*
X353623D02*
X354541Y201122D01*
X355459Y203418D02*
X355918Y203877D01*
X356837D01*
X357296Y203418D01*
Y202959D01*
X356837Y202500D01*
X356378D01*
X356837D01*
X357296Y202041D01*
Y201582D01*
X356837Y201122D01*
X355918D01*
X355459Y201582D01*
X341163Y142918D02*
X340704Y143377D01*
X339786D01*
X339327Y142918D01*
Y141082D01*
X339786Y140622D01*
X340704D01*
X341163Y141082D01*
X343918Y140622D02*
X342082D01*
X343918Y142459D01*
Y142918D01*
X343459Y143377D01*
X342541D01*
X342082Y142918D01*
X346673Y140622D02*
X344837D01*
X346673Y142459D01*
Y142918D01*
X346214Y143377D01*
X345296D01*
X344837Y142918D01*
X274377Y217556D02*
X271622D01*
Y218934D01*
X272082Y219393D01*
X273000D01*
X273459Y218934D01*
Y217556D01*
Y218475D02*
X274377Y219393D01*
Y220311D02*
Y221230D01*
Y220770D01*
X271622D01*
X272082Y220311D01*
Y222607D02*
X271622Y223066D01*
Y223985D01*
X272082Y224444D01*
X272541D01*
X273000Y223985D01*
Y223525D01*
Y223985D01*
X273459Y224444D01*
X273918D01*
X274377Y223985D01*
Y223066D01*
X273918Y222607D01*
X281163Y283418D02*
X280704Y283877D01*
X279786D01*
X279327Y283418D01*
Y281582D01*
X279786Y281122D01*
X280704D01*
X281163Y281582D01*
X283918Y281122D02*
X282082D01*
X283918Y282959D01*
Y283418D01*
X283459Y283877D01*
X282541D01*
X282082Y283418D01*
X284837D02*
X285296Y283877D01*
X286214D01*
X286673Y283418D01*
Y282959D01*
X286214Y282500D01*
X285755D01*
X286214D01*
X286673Y282041D01*
Y281582D01*
X286214Y281122D01*
X285296D01*
X284837Y281582D01*
X302663Y275918D02*
X302204Y276378D01*
X301286D01*
X300827Y275918D01*
Y274082D01*
X301286Y273622D01*
X302204D01*
X302663Y274082D01*
X305418Y273622D02*
X303582D01*
X305418Y275459D01*
Y275918D01*
X304959Y276378D01*
X304041D01*
X303582Y275918D01*
X307714Y273622D02*
Y276378D01*
X306337Y275000D01*
X308173D01*
X309163Y217918D02*
X308704Y218377D01*
X307786D01*
X307327Y217918D01*
Y216082D01*
X307786Y215622D01*
X308704D01*
X309163Y216082D01*
X311918Y215622D02*
X310082D01*
X311918Y217459D01*
Y217918D01*
X311459Y218377D01*
X310541D01*
X310082Y217918D01*
X314673Y218377D02*
X312837D01*
Y217000D01*
X313755Y217459D01*
X314214D01*
X314673Y217000D01*
Y216082D01*
X314214Y215622D01*
X313296D01*
X312837Y216082D01*
X254163Y221418D02*
X253704Y221878D01*
X252786D01*
X252327Y221418D01*
Y219582D01*
X252786Y219123D01*
X253704D01*
X254163Y219582D01*
X256918Y219123D02*
X255082D01*
X256918Y220959D01*
Y221418D01*
X256459Y221878D01*
X255541D01*
X255082Y221418D01*
X259673Y221878D02*
X258755Y221418D01*
X257837Y220500D01*
Y219582D01*
X258296Y219123D01*
X259214D01*
X259673Y219582D01*
Y220041D01*
X259214Y220500D01*
X257837D01*
X254163Y233418D02*
X253704Y233877D01*
X252786D01*
X252327Y233418D01*
Y231582D01*
X252786Y231122D01*
X253704D01*
X254163Y231582D01*
X256918Y231122D02*
X255082D01*
X256918Y232959D01*
Y233418D01*
X256459Y233877D01*
X255541D01*
X255082Y233418D01*
X257837D02*
X258296Y233877D01*
X259214D01*
X259673Y233418D01*
Y232959D01*
X259214Y232500D01*
X259673Y232041D01*
Y231582D01*
X259214Y231122D01*
X258296D01*
X257837Y231582D01*
Y232041D01*
X258296Y232500D01*
X257837Y232959D01*
Y233418D01*
X258296Y232500D02*
X259214D01*
X253663Y207918D02*
X253204Y208378D01*
X252286D01*
X251827Y207918D01*
Y206082D01*
X252286Y205623D01*
X253204D01*
X253663Y206082D01*
X256418Y205623D02*
X254582D01*
X256418Y207459D01*
Y207918D01*
X255959Y208378D01*
X255041D01*
X254582Y207918D01*
X257337Y208378D02*
X259173D01*
Y207918D01*
X257337Y206082D01*
Y205623D01*
X137663Y254378D02*
X139500D01*
X138582D01*
Y251623D01*
X140418D02*
X141337D01*
X140877D01*
Y254378D01*
X140418Y253918D01*
X100393Y303918D02*
X99934Y304378D01*
X99015D01*
X98556Y303918D01*
Y302082D01*
X99015Y301623D01*
X99934D01*
X100393Y302082D01*
X101311Y301623D02*
X102230D01*
X101770D01*
Y304378D01*
X101311Y303918D01*
X103607D02*
X104066Y304378D01*
X104985D01*
X105444Y303918D01*
Y302082D01*
X104985Y301623D01*
X104066D01*
X103607Y302082D01*
Y303918D01*
X340704Y19377D02*
Y17082D01*
X341163Y16623D01*
X342082D01*
X342541Y17082D01*
Y19377D01*
X343459Y18918D02*
X343918Y19377D01*
X344837D01*
X345296Y18918D01*
Y18459D01*
X344837Y18000D01*
X344377D01*
X344837D01*
X345296Y17541D01*
Y17082D01*
X344837Y16623D01*
X343918D01*
X343459Y17082D01*
X98623Y276908D02*
X101377D01*
Y278745D01*
X98623Y281500D02*
Y279663D01*
X101377D01*
Y281500D01*
X100000Y279663D02*
Y280582D01*
X98623Y282418D02*
X101377D01*
Y283796D01*
X100918Y284255D01*
X99082D01*
X98623Y283796D01*
Y282418D01*
X101377Y285173D02*
Y286092D01*
Y285632D01*
X98623D01*
X99082Y285173D01*
X91623Y302918D02*
X91163Y303378D01*
X90245D01*
X89786Y302918D01*
Y301082D01*
X90245Y300623D01*
X91163D01*
X91623Y301082D01*
X94377Y300623D02*
X92541D01*
X94377Y302459D01*
Y302918D01*
X93918Y303378D01*
X93000D01*
X92541Y302918D01*
X95296Y300623D02*
X96214D01*
X95755D01*
Y303378D01*
X95296Y302918D01*
X115893Y289918D02*
X115434Y290377D01*
X114515D01*
X114056Y289918D01*
Y288082D01*
X114515Y287622D01*
X115434D01*
X115893Y288082D01*
X116811Y287622D02*
X117730D01*
X117270D01*
Y290377D01*
X116811Y289918D01*
X120485Y287622D02*
Y290377D01*
X119107Y289000D01*
X120944D01*
X135393Y308918D02*
X134934Y309378D01*
X134015D01*
X133556Y308918D01*
Y307082D01*
X134015Y306623D01*
X134934D01*
X135393Y307082D01*
X136311Y306623D02*
X137230D01*
X136770D01*
Y309378D01*
X136311Y308918D01*
X138607Y309378D02*
X140444D01*
Y308918D01*
X138607Y307082D01*
Y306623D01*
X153393Y308918D02*
X152934Y309378D01*
X152015D01*
X151556Y308918D01*
Y307082D01*
X152015Y306623D01*
X152934D01*
X153393Y307082D01*
X154311Y306623D02*
X155230D01*
X154770D01*
Y309378D01*
X154311Y308918D01*
X158444Y309378D02*
X156607D01*
Y308000D01*
X157525Y308459D01*
X157985D01*
X158444Y308000D01*
Y307082D01*
X157985Y306623D01*
X157066D01*
X156607Y307082D01*
X166893Y292918D02*
X166434Y293377D01*
X165515D01*
X165056Y292918D01*
Y291082D01*
X165515Y290622D01*
X166434D01*
X166893Y291082D01*
X167811Y290622D02*
X168730D01*
X168270D01*
Y293377D01*
X167811Y292918D01*
X171944Y293377D02*
X171025Y292918D01*
X170107Y292000D01*
Y291082D01*
X170566Y290622D01*
X171485D01*
X171944Y291082D01*
Y291541D01*
X171485Y292000D01*
X170107D01*
X66204Y342377D02*
Y340082D01*
X66663Y339622D01*
X67582D01*
X68041Y340082D01*
Y342377D01*
X68959Y341918D02*
X69418Y342377D01*
X70337D01*
X70796Y341918D01*
Y341459D01*
X70337Y341000D01*
X70796Y340541D01*
Y340082D01*
X70337Y339622D01*
X69418D01*
X68959Y340082D01*
Y340541D01*
X69418Y341000D01*
X68959Y341459D01*
Y341918D01*
X69418Y341000D02*
X70337D01*
X173704Y341878D02*
Y339582D01*
X174163Y339123D01*
X175082D01*
X175541Y339582D01*
Y341878D01*
X176459D02*
X178296D01*
Y341418D01*
X176459Y339582D01*
Y339123D01*
X187015Y314878D02*
Y312582D01*
X187475Y312123D01*
X188393D01*
X188852Y312582D01*
Y314878D01*
X189770Y312123D02*
X190689D01*
X190230D01*
Y314878D01*
X189770Y314418D01*
X192066Y312123D02*
X192985D01*
X192525D01*
Y314878D01*
X192066Y314418D01*
X232893Y321918D02*
X232434Y322377D01*
X231515D01*
X231056Y321918D01*
Y320082D01*
X231515Y319622D01*
X232434D01*
X232893Y320082D01*
X233811Y319622D02*
X234730D01*
X234270D01*
Y322377D01*
X233811Y321918D01*
X236107D02*
X236566Y322377D01*
X237485D01*
X237944Y321918D01*
Y321459D01*
X237485Y321000D01*
X237025D01*
X237485D01*
X237944Y320541D01*
Y320082D01*
X237485Y319622D01*
X236566D01*
X236107Y320082D01*
X206393Y293418D02*
X205934Y293878D01*
X205015D01*
X204556Y293418D01*
Y291582D01*
X205015Y291123D01*
X205934D01*
X206393Y291582D01*
X207311Y291123D02*
X208230D01*
X207770D01*
Y293878D01*
X207311Y293418D01*
X209607Y291582D02*
X210066Y291123D01*
X210985D01*
X211444Y291582D01*
Y293418D01*
X210985Y293878D01*
X210066D01*
X209607Y293418D01*
Y292959D01*
X210066Y292500D01*
X211444D01*
X251122Y295449D02*
X253418D01*
X253877Y295908D01*
Y296827D01*
X253418Y297286D01*
X251122D01*
X253877Y298204D02*
X252041D01*
X251122Y299123D01*
X252041Y300041D01*
X253877D01*
X252500D01*
Y298204D01*
X253877Y300959D02*
X251122D01*
Y302337D01*
X251582Y302796D01*
X252500D01*
X252959Y302337D01*
Y300959D01*
Y301877D02*
X253877Y302796D01*
X251122Y303714D02*
Y305551D01*
Y304632D01*
X253877D01*
X380204Y54623D02*
Y57377D01*
X381582D01*
X382041Y56918D01*
Y56000D01*
X381582Y55541D01*
X380204D01*
X381122D02*
X382041Y54623D01*
X382959Y56918D02*
X383418Y57377D01*
X384337D01*
X384796Y56918D01*
Y56459D01*
X384337Y56000D01*
X384796Y55541D01*
Y55082D01*
X384337Y54623D01*
X383418D01*
X382959Y55082D01*
Y55541D01*
X383418Y56000D01*
X382959Y56459D01*
Y56918D01*
X383418Y56000D02*
X384337D01*
X330000Y53582D02*
Y55418D01*
X329541Y55878D01*
X328623D01*
X328163Y55418D01*
Y53582D01*
X328623Y53123D01*
X329541D01*
X329082Y54041D02*
X330000Y53123D01*
X329541D02*
X330000Y53582D01*
X330918Y53123D02*
X331837D01*
X331378D01*
Y55878D01*
X330918Y55418D01*
X363704Y131623D02*
Y134378D01*
X365082D01*
X365541Y133918D01*
Y133000D01*
X365082Y132541D01*
X363704D01*
X366459Y134378D02*
X368296D01*
Y133918D01*
X366459Y132082D01*
Y131623D01*
X6852Y260918D02*
X6393Y261378D01*
X5475D01*
X5015Y260918D01*
Y259082D01*
X5475Y258623D01*
X6393D01*
X6852Y259082D01*
X7770Y258623D02*
X8689D01*
X8230D01*
Y261378D01*
X7770Y260918D01*
X10066Y258623D02*
X10985D01*
X10525D01*
Y261378D01*
X10066Y260918D01*
X71204Y276122D02*
Y278877D01*
X72582D01*
X73041Y278418D01*
Y277500D01*
X72582Y277041D01*
X71204D01*
X72123D02*
X73041Y276122D01*
X75796D02*
X73959D01*
X75796Y277959D01*
Y278418D01*
X75337Y278877D01*
X74418D01*
X73959Y278418D01*
X34704Y292377D02*
Y290082D01*
X35163Y289622D01*
X36082D01*
X36541Y290082D01*
Y292377D01*
X39296D02*
X37459D01*
Y291000D01*
X38377Y291459D01*
X38837D01*
X39296Y291000D01*
Y290082D01*
X38837Y289622D01*
X37918D01*
X37459Y290082D01*
X17041Y304076D02*
X16582Y304535D01*
X15663D01*
X15204Y304076D01*
Y302239D01*
X15663Y301780D01*
X16582D01*
X17041Y302239D01*
X17959D02*
X18418Y301780D01*
X19337D01*
X19796Y302239D01*
Y304076D01*
X19337Y304535D01*
X18418D01*
X17959Y304076D01*
Y303617D01*
X18418Y303157D01*
X19796D01*
X77393Y303418D02*
X76934Y303877D01*
X76015D01*
X75556Y303418D01*
Y301582D01*
X76015Y301122D01*
X76934D01*
X77393Y301582D01*
X78311Y301122D02*
X79230D01*
X78770D01*
Y303877D01*
X78311Y303418D01*
X80607D02*
X81066Y303877D01*
X81985D01*
X82444Y303418D01*
Y302959D01*
X81985Y302500D01*
X82444Y302041D01*
Y301582D01*
X81985Y301122D01*
X81066D01*
X80607Y301582D01*
Y302041D01*
X81066Y302500D01*
X80607Y302959D01*
Y303418D01*
X81066Y302500D02*
X81985D01*
X51163Y325076D02*
X50704Y325535D01*
X49786D01*
X49327Y325076D01*
Y323239D01*
X49786Y322780D01*
X50704D01*
X51163Y323239D01*
X53918Y322780D02*
X52082D01*
X53918Y324617D01*
Y325076D01*
X53459Y325535D01*
X52541D01*
X52082Y325076D01*
X54837D02*
X55296Y325535D01*
X56214D01*
X56673Y325076D01*
Y323239D01*
X56214Y322780D01*
X55296D01*
X54837Y323239D01*
Y325076D01*
X350482Y242123D02*
Y244878D01*
X351859D01*
X352318Y244418D01*
Y243500D01*
X351859Y243041D01*
X350482D01*
X351400D02*
X352318Y242123D01*
X354614D02*
Y244878D01*
X353237Y243500D01*
X355073D01*
X339204Y243123D02*
Y245878D01*
X340582D01*
X341041Y245418D01*
Y244500D01*
X340582Y244041D01*
X339204D01*
X340123D02*
X341041Y243123D01*
X343796Y245878D02*
X342878Y245418D01*
X341959Y244500D01*
Y243582D01*
X342418Y243123D01*
X343337D01*
X343796Y243582D01*
Y244041D01*
X343337Y244500D01*
X341959D01*
X363704Y225377D02*
Y223082D01*
X364163Y222622D01*
X365082D01*
X365541Y223082D01*
Y225377D01*
X368296Y222622D02*
X366459D01*
X368296Y224459D01*
Y224918D01*
X367837Y225377D01*
X366918D01*
X366459Y224918D01*
X377663Y199622D02*
Y202378D01*
X379041D01*
X379500Y201918D01*
Y201000D01*
X379041Y200541D01*
X377663D01*
X378582D02*
X379500Y199622D01*
X380418D02*
X381337D01*
X380877D01*
Y202378D01*
X380418Y201918D01*
X377500Y278226D02*
X376582D01*
X377041D01*
Y275930D01*
X376582Y275471D01*
X376122D01*
X375663Y275930D01*
X378418Y275471D02*
X379337D01*
X378877D01*
Y278226D01*
X378418Y277767D01*
X374541Y171928D02*
X373622D01*
X374082D01*
Y169632D01*
X373622Y169173D01*
X373163D01*
X372704Y169632D01*
X377296Y169173D02*
X375459D01*
X377296Y171009D01*
Y171468D01*
X376837Y171928D01*
X375918D01*
X375459Y171468D01*
X353072Y316837D02*
Y314082D01*
X354449D01*
X354908Y314541D01*
Y316377D01*
X354449Y316837D01*
X353072D01*
X357204Y314082D02*
X356286D01*
X355827Y314541D01*
Y315459D01*
X356286Y315918D01*
X357204D01*
X357663Y315459D01*
Y315000D01*
X355827D01*
X358582Y316837D02*
Y314082D01*
X359959D01*
X360418Y314541D01*
Y315000D01*
Y315459D01*
X359959Y315918D01*
X358582D01*
X361337D02*
Y314541D01*
X361796Y314082D01*
X363173D01*
Y315918D01*
X365010Y313163D02*
X365469D01*
X365928Y313622D01*
Y315918D01*
X364551D01*
X364092Y315459D01*
Y314541D01*
X364551Y314082D01*
X365928D01*
X334000Y180418D02*
X333541Y180877D01*
X332623D01*
X332163Y180418D01*
Y178582D01*
X332623Y178122D01*
X333541D01*
X334000Y178582D01*
X334918Y178122D02*
X335837D01*
X335378D01*
Y180877D01*
X334918Y180418D01*
X313163Y152877D02*
Y152418D01*
X314082Y151500D01*
X315000Y152418D01*
Y152877D01*
X314082Y151500D02*
Y150122D01*
X315918D02*
X316837D01*
X316377D01*
Y152877D01*
X315918Y152418D01*
X331704Y105622D02*
Y108378D01*
X333082D01*
X333541Y107918D01*
Y107000D01*
X333082Y106541D01*
X331704D01*
X336296Y105622D02*
X334459D01*
X336296Y107459D01*
Y107918D01*
X335837Y108378D01*
X334918D01*
X334459Y107918D01*
X281204Y191122D02*
Y193877D01*
X282582D01*
X283041Y193418D01*
Y192500D01*
X282582Y192041D01*
X281204D01*
X283959Y193418D02*
X284418Y193877D01*
X285337D01*
X285796Y193418D01*
Y192959D01*
X285337Y192500D01*
X284877D01*
X285337D01*
X285796Y192041D01*
Y191582D01*
X285337Y191122D01*
X284418D01*
X283959Y191582D01*
X303556Y299123D02*
Y301877D01*
X304934D01*
X305393Y301418D01*
Y300500D01*
X304934Y300041D01*
X303556D01*
X304475D02*
X305393Y299123D01*
X306311D02*
X307230D01*
X306770D01*
Y301877D01*
X306311Y301418D01*
X310444Y301877D02*
X308607D01*
Y300500D01*
X309525Y300959D01*
X309985D01*
X310444Y300500D01*
Y299582D01*
X309985Y299123D01*
X309066D01*
X308607Y299582D01*
X350204Y214622D02*
Y217377D01*
X351582D01*
X352041Y216918D01*
Y216000D01*
X351582Y215541D01*
X350204D01*
X351122D02*
X352041Y214622D01*
X352959Y217377D02*
X354796D01*
Y216918D01*
X352959Y215082D01*
Y214622D01*
X263204Y190622D02*
Y193377D01*
X264582D01*
X265041Y192918D01*
Y192000D01*
X264582Y191541D01*
X263204D01*
X267337Y190622D02*
Y193377D01*
X265959Y192000D01*
X267796D01*
X366449Y23877D02*
Y21123D01*
X368286D01*
X371041Y23877D02*
X369204D01*
Y21123D01*
X371041D01*
X369204Y22500D02*
X370123D01*
X371959Y23877D02*
Y21123D01*
X373337D01*
X373796Y21582D01*
Y23418D01*
X373337Y23877D01*
X371959D01*
X376551Y21123D02*
X374714D01*
X376551Y22959D01*
Y23418D01*
X376092Y23877D01*
X375173D01*
X374714Y23418D01*
X16541Y96377D02*
X14704D01*
Y95000D01*
X15622D01*
X14704D01*
Y93622D01*
X19296D02*
X17459D01*
X19296Y95459D01*
Y95918D01*
X18837Y96377D01*
X17918D01*
X17459Y95918D01*
X18500Y71377D02*
X16663D01*
Y70000D01*
X17582D01*
X16663D01*
Y68622D01*
X19418D02*
X20337D01*
X19877D01*
Y71377D01*
X19418Y70918D01*
X312704Y80123D02*
Y82877D01*
X314082D01*
X314541Y82418D01*
Y81500D01*
X314082Y81041D01*
X312704D01*
X313622D02*
X314541Y80123D01*
X315459Y80582D02*
X315918Y80123D01*
X316837D01*
X317296Y80582D01*
Y82418D01*
X316837Y82877D01*
X315918D01*
X315459Y82418D01*
Y81959D01*
X315918Y81500D01*
X317296D01*
X260056Y262877D02*
Y260582D01*
X260515Y260122D01*
X261434D01*
X261893Y260582D01*
Y262877D01*
X262811Y260122D02*
X263730D01*
X263270D01*
Y262877D01*
X262811Y262418D01*
X265107D02*
X265566Y262877D01*
X266485D01*
X266944Y262418D01*
Y260582D01*
X266485Y260122D01*
X265566D01*
X265107Y260582D01*
Y262418D01*
X291704Y261877D02*
Y259582D01*
X292163Y259122D01*
X293082D01*
X293541Y259582D01*
Y261877D01*
X294459Y259582D02*
X294918Y259122D01*
X295837D01*
X296296Y259582D01*
Y261418D01*
X295837Y261877D01*
X294918D01*
X294459Y261418D01*
Y260959D01*
X294918Y260500D01*
X296296D01*
X32204Y215878D02*
Y213582D01*
X32663Y213123D01*
X33582D01*
X34041Y213582D01*
Y215878D01*
X36796D02*
X35877Y215418D01*
X34959Y214500D01*
Y213582D01*
X35418Y213123D01*
X36337D01*
X36796Y213582D01*
Y214041D01*
X36337Y214500D01*
X34959D01*
X263123Y116704D02*
X265418D01*
X265878Y117163D01*
Y118082D01*
X265418Y118541D01*
X263123D01*
X265878Y120837D02*
X263123D01*
X264500Y119459D01*
Y121296D01*
X289663Y197878D02*
Y195582D01*
X290123Y195123D01*
X291041D01*
X291500Y195582D01*
Y197878D01*
X292418Y195123D02*
X293337D01*
X292878D01*
Y197878D01*
X292418Y197418D01*
X302056Y288123D02*
Y290878D01*
X303434D01*
X303893Y290418D01*
Y289500D01*
X303434Y289041D01*
X302056D01*
X302975D02*
X303893Y288123D01*
X304811D02*
X305730D01*
X305270D01*
Y290878D01*
X304811Y290418D01*
X308944Y290878D02*
X308025Y290418D01*
X307107Y289500D01*
Y288582D01*
X307566Y288123D01*
X308485D01*
X308944Y288582D01*
Y289041D01*
X308485Y289500D01*
X307107D01*
X284378Y218056D02*
X281623D01*
Y219434D01*
X282082Y219893D01*
X283000D01*
X283459Y219434D01*
Y218056D01*
Y218975D02*
X284378Y219893D01*
Y220811D02*
Y221730D01*
Y221270D01*
X281623D01*
X282082Y220811D01*
X284378Y224485D02*
X281623D01*
X283000Y223107D01*
Y224944D01*
X302556Y80123D02*
Y82877D01*
X303934D01*
X304393Y82418D01*
Y81500D01*
X303934Y81041D01*
X302556D01*
X303475D02*
X304393Y80123D01*
X305311D02*
X306230D01*
X305770D01*
Y82877D01*
X305311Y82418D01*
X309444Y80123D02*
X307607D01*
X309444Y81959D01*
Y82418D01*
X308985Y82877D01*
X308066D01*
X307607Y82418D01*
X294015Y80123D02*
Y82877D01*
X295393D01*
X295852Y82418D01*
Y81500D01*
X295393Y81041D01*
X294015D01*
X294934D02*
X295852Y80123D01*
X296770D02*
X297689D01*
X297230D01*
Y82877D01*
X296770Y82418D01*
X299066Y80123D02*
X299985D01*
X299525D01*
Y82877D01*
X299066Y82418D01*
X352556Y36123D02*
Y38877D01*
X353934D01*
X354393Y38418D01*
Y37500D01*
X353934Y37041D01*
X352556D01*
X353475D02*
X354393Y36123D01*
X355311D02*
X356230D01*
X355770D01*
Y38877D01*
X355311Y38418D01*
X357607D02*
X358066Y38877D01*
X358985D01*
X359444Y38418D01*
Y36582D01*
X358985Y36123D01*
X358066D01*
X357607Y36582D01*
Y38418D01*
X322704Y80623D02*
Y83377D01*
X324082D01*
X324541Y82918D01*
Y82000D01*
X324082Y81541D01*
X322704D01*
X323622D02*
X324541Y80623D01*
X327296Y83377D02*
X325459D01*
Y82000D01*
X326378Y82459D01*
X326837D01*
X327296Y82000D01*
Y81082D01*
X326837Y80623D01*
X325918D01*
X325459Y81082D01*
X314663Y135123D02*
Y137878D01*
X316041D01*
X316500Y137418D01*
Y136500D01*
X316041Y136041D01*
X314663D01*
X317418Y135123D02*
X318337D01*
X317878D01*
Y137878D01*
X317418Y137418D01*
X27611Y127673D02*
X28529D01*
X28070D01*
Y129969D01*
X28529Y130429D01*
X28988D01*
X29447Y129969D01*
X26692Y128133D02*
X26233Y127673D01*
X25315D01*
X24856Y128133D01*
Y128592D01*
X25315Y129051D01*
X25774D01*
X25315D01*
X24856Y129510D01*
Y129969D01*
X25315Y130429D01*
X26233D01*
X26692Y129969D01*
X20893Y234918D02*
X20434Y235378D01*
X19515D01*
X19056Y234918D01*
Y233082D01*
X19515Y232623D01*
X20434D01*
X20893Y233082D01*
X21811Y232623D02*
X22730D01*
X22270D01*
Y235378D01*
X21811Y234918D01*
X25944Y232623D02*
X24107D01*
X25944Y234459D01*
Y234918D01*
X25485Y235378D01*
X24566D01*
X24107Y234918D01*
X267994Y79603D02*
X267534Y80063D01*
X266616D01*
X266157Y79603D01*
Y77767D01*
X266616Y77308D01*
X267534D01*
X267994Y77767D01*
X268912Y79603D02*
X269371Y80063D01*
X270289D01*
X270749Y79603D01*
Y79144D01*
X270289Y78685D01*
X270749Y78226D01*
Y77767D01*
X270289Y77308D01*
X269371D01*
X268912Y77767D01*
Y78226D01*
X269371Y78685D01*
X268912Y79144D01*
Y79603D01*
X269371Y78685D02*
X270289D01*
X279541Y65418D02*
X279082Y65877D01*
X278163D01*
X277704Y65418D01*
Y63582D01*
X278163Y63122D01*
X279082D01*
X279541Y63582D01*
X280459Y65877D02*
X282296D01*
Y65418D01*
X280459Y63582D01*
Y63122D01*
X265041Y68918D02*
X264582Y69377D01*
X263663D01*
X263204Y68918D01*
Y67082D01*
X263663Y66623D01*
X264582D01*
X265041Y67082D01*
X267796Y69377D02*
X266878Y68918D01*
X265959Y68000D01*
Y67082D01*
X266418Y66623D01*
X267337D01*
X267796Y67082D01*
Y67541D01*
X267337Y68000D01*
X265959D01*
X278041Y150418D02*
X277582Y150877D01*
X276663D01*
X276204Y150418D01*
Y148582D01*
X276663Y148123D01*
X277582D01*
X278041Y148582D01*
X280796Y150877D02*
X278959D01*
Y149500D01*
X279877Y149959D01*
X280337D01*
X280796Y149500D01*
Y148582D01*
X280337Y148123D01*
X279418D01*
X278959Y148582D01*
X320041Y164918D02*
X319582Y165377D01*
X318663D01*
X318204Y164918D01*
Y163082D01*
X318663Y162622D01*
X319582D01*
X320041Y163082D01*
X322337Y162622D02*
Y165377D01*
X320959Y164000D01*
X322796D01*
X311041Y164418D02*
X310582Y164877D01*
X309663D01*
X309204Y164418D01*
Y162582D01*
X309663Y162122D01*
X310582D01*
X311041Y162582D01*
X311959Y164418D02*
X312418Y164877D01*
X313337D01*
X313796Y164418D01*
Y163959D01*
X313337Y163500D01*
X312877D01*
X313337D01*
X313796Y163041D01*
Y162582D01*
X313337Y162122D01*
X312418D01*
X311959Y162582D01*
X303041Y164918D02*
X302582Y165377D01*
X301663D01*
X301204Y164918D01*
Y163082D01*
X301663Y162622D01*
X302582D01*
X303041Y163082D01*
X305796Y162622D02*
X303959D01*
X305796Y164459D01*
Y164918D01*
X305337Y165377D01*
X304418D01*
X303959Y164918D01*
D17*
X118877Y305343D02*
Y303506D01*
X119796Y304424D02*
X117959D01*
X161535Y303500D02*
Y301663D01*
X162453Y302582D02*
X160617D01*
X243622Y311000D02*
Y312837D01*
X242704Y311918D02*
X244541D01*
X203623Y303000D02*
Y304837D01*
X202704Y303918D02*
X204541D01*
X25622Y246500D02*
Y248337D01*
X24704Y247418D02*
X26541D01*
X8878Y314500D02*
Y312663D01*
X9796Y313582D02*
X7959D01*
X55576Y297714D02*
Y299551D01*
X54657Y298632D02*
X56494D01*
D18*
X362000Y42159D02*
Y40322D01*
X360163Y42159D01*
X359704D01*
X359245Y41700D01*
Y40782D01*
X359704Y40322D01*
X372000D02*
Y41241D01*
Y40782D01*
X369245D01*
X369704Y40322D01*
X372000Y126322D02*
Y127241D01*
Y126781D01*
X369245D01*
X369704Y126322D01*
X369245Y130455D02*
Y128618D01*
X370622D01*
X370163Y129537D01*
Y129996D01*
X370622Y130455D01*
X371541D01*
X372000Y129996D01*
Y129077D01*
X371541Y128618D01*
X362000Y126322D02*
Y127241D01*
Y126781D01*
X359245D01*
X359704Y126322D01*
X359245Y130455D02*
X359704Y129537D01*
X360623Y128618D01*
X361541D01*
X362000Y129077D01*
Y129996D01*
X361541Y130455D01*
X361082D01*
X360623Y129996D01*
Y128618D01*
D19*
X336142Y333558D02*
X335223D01*
X335683D01*
Y330803D01*
X336142Y331262D01*
X335486Y323558D02*
X337323D01*
X335486Y321722D01*
Y321262D01*
X335945Y320803D01*
X336864D01*
X337323Y321262D01*
X285039Y323322D02*
X284121D01*
X284580D01*
Y320567D01*
X285039Y321026D01*
X282744D02*
X282284Y320567D01*
X281366D01*
X280907Y321026D01*
Y322863D01*
X281366Y323322D01*
X282284D01*
X282744Y322863D01*
Y321026D01*
X285039Y332863D02*
X284580Y333322D01*
X283662D01*
X283203Y332863D01*
Y331026D01*
X283662Y330567D01*
X284580D01*
X285039Y331026D01*
Y331485D01*
X284580Y331944D01*
X283203D01*
D20*
X92941Y285402D02*
D03*
D21*
X310000Y342613D02*
D03*
D22*
X365902Y29059D02*
D03*
M02*
