M48
;Layer_Color=9474304
;FILE_FORMAT=2:5
INCH,TZ
;TYPE=PLATED
T1F00S00C0.01772
T2F00S00C0.03346
T3F00S00C0.03504
T4F00S00C0.03543
T5F00S00C0.03937
T6F00S00C0.04331
T7F00S00C0.05118
T8F00S00C0.05315
T9F00S00C0.06929
T10F00S00C0.07913
T11F00S00C0.12598
;TYPE=NON_PLATED
T12F00S00C0.14961
%
T01
X378000Y28950
X341500Y74500
X292000Y79450
X277000Y64950
X275000Y127681
X316500Y141950
X330000Y146450
X330500Y160450
X321000Y160950
X325500Y175950
X317500Y177950
X301000Y175950
X300000Y171347
X5000Y193950
X35000Y196450
X23000Y235950
X35000Y278950
X83000Y290950
X71500Y307950
X115000Y306450
X114500Y314950
X214000Y315950
X214580Y323870
X284500Y291950
X279500Y277950
X295500Y265950
X302500Y267950
X306500Y264950
X314000Y265000
X319000Y251450
X307500Y251950
X309500Y240950
X319500Y233450
X328000Y225950
X332500Y240000
X329000Y257950
X315000Y217950
X309500Y212500
X306000Y211950
X316500Y199450
X320500Y198450
X359500Y206450
X352500Y220450
X272500Y227450
X278000Y242950
X264000Y244950
X260000Y213950
X262500Y198450
X355500Y320450
X370500Y247000
X371500Y205950
T02
X297500Y67950
X306333
X315167
X325000
Y97950
X315167
X306333
X297500
X282500Y206450
X273000
Y236450
X282500
X293500Y289950
X293500Y300450
X323500
X323500Y289950
T03
X348000Y165000
Y175000
Y276798
Y286798
T04
X269500Y11450
X279500
X289500
X299500
X309500
X319500
X329500
X370000Y50272
Y60272
Y70272
Y80272
Y90272
Y100272
Y110272
Y120272
X360000
Y110272
Y100272
Y90272
Y80272
Y70272
Y60272
Y50272
X348000Y53450
X343000
X338000
X329500Y41450
X319500
X309500
X299500
X289500
X279500
X269500
X265000Y49450
X275000
X285000
X295000
X305000
X303500Y104950
X293500
X283500
X273500
X277000Y92950
X267000
X287000
X316500Y108392
Y118392
Y128392
X333000Y126950
Y116950
X303500Y134950
X293500
X283500
X273500
X265500Y163950
Y173950
Y183950
X284000
Y173950
Y163950
X330500Y189450
X17500Y252607
Y272292
X18500Y294107
Y313792
X54000Y313607
Y333292
X124500Y302135
Y282450
X167657Y281607
Y301292
X208500Y302135
Y282450
X235000Y313107
Y332792
X261000Y337450
Y327450
Y317450
Y307450
Y297450
X330500Y209450
Y199450
T05
X87000Y328950
X97000
X107000
T06
X290000Y321421
Y331421
X300000
X310000
X320000
X330000
Y321421
X320000
X310000
X300000
T07
X17500Y34265
Y53950
Y106107
Y125792
X15728Y148107
Y167792
T08
X135520Y328324
X145500
X155480
T09
X232610Y69942
Y97107
Y124666
Y152225
Y179784
X64500Y152225
Y124666
Y69942
Y206950
X232610
T10
X368000Y145000
Y185000
Y256798
Y296798
T11
X9843Y13729
X362205
X9843Y334595
X251969Y281446
X362205Y334595
T12
X61154Y29194
X235957
X61154Y247698
X235957
M30
