G04*
G04 #@! TF.GenerationSoftware,Altium Limited,Altium Designer,20.1.14 (287)*
G04*
G04 Layer_Color=32768*
%FSLAX25Y25*%
%MOIN*%
G70*
G04*
G04 #@! TF.SameCoordinates,DD9DAAA6-87D7-4B0E-BF1D-CD2AD6DAE19A*
G04*
G04*
G04 #@! TF.FilePolarity,Positive*
G04*
G01*
G75*
%ADD10C,0.00787*%
%ADD17C,0.00394*%
%ADD136C,0.00197*%
D10*
X332138Y150225D02*
Y159674D01*
X336862D01*
Y150225D02*
Y159674D01*
X332138Y150225D02*
X336862D01*
X262138Y215363D02*
X266862D01*
Y224812D01*
X262138D02*
X266862D01*
X262138Y215363D02*
Y224812D01*
X124102Y320804D02*
X166898D01*
Y340095D01*
X124102D02*
X166898D01*
X124102Y320804D02*
Y340095D01*
X334862Y167725D02*
Y177174D01*
X330138Y167725D02*
X334862D01*
X330138D02*
Y177174D01*
X334862D01*
X316898Y145158D02*
Y158741D01*
X329102D01*
Y145158D02*
Y158741D01*
X316898Y145158D02*
X329102D01*
X6083Y101777D02*
X28917D01*
Y130123D01*
X6083D02*
X28917D01*
X6083Y101777D02*
Y130123D01*
Y29934D02*
X28917D01*
Y58281D01*
X6083D02*
X28917D01*
X6083Y29934D02*
Y58281D01*
X291512Y223462D02*
Y262438D01*
Y223462D02*
X330488D01*
Y262438D01*
X291512D02*
X330488D01*
D17*
X206531Y292292D02*
X210468D01*
X208500Y290324D02*
Y294261D01*
X297532Y26450D02*
X301469D01*
X299500Y24481D02*
Y28418D01*
X292342Y280080D02*
Y283820D01*
X290472Y281950D02*
X294213D01*
X292000Y273481D02*
Y277418D01*
X290032Y275450D02*
X293969D01*
X321500Y216080D02*
Y219820D01*
X319630Y217950D02*
X323370D01*
X262032Y232450D02*
X265968D01*
X264000Y230481D02*
Y234418D01*
X260630Y207950D02*
X264370D01*
X262500Y206080D02*
Y209820D01*
X105500Y309981D02*
Y313918D01*
X103531Y311950D02*
X107469D01*
X91532D02*
X95469D01*
X93500Y309981D02*
Y313918D01*
X124500Y290324D02*
Y294261D01*
X122532Y292292D02*
X126469D01*
X138500Y314481D02*
Y318418D01*
X136532Y316450D02*
X140469D01*
X153500Y314481D02*
Y318418D01*
X151532Y316450D02*
X155468D01*
X167657Y289481D02*
Y293418D01*
X165689Y291450D02*
X169626D01*
X95031Y328950D02*
X98969D01*
X97000Y326981D02*
Y330918D01*
X194032Y327950D02*
X197969D01*
X196000Y325981D02*
Y329918D01*
X235000Y320981D02*
Y324918D01*
X233032Y322950D02*
X236969D01*
X79532Y310950D02*
X83469D01*
X81500Y308981D02*
Y312918D01*
X79032Y278450D02*
X82969D01*
X81000Y276481D02*
Y280418D01*
X55032Y286950D02*
X58969D01*
X57000Y284981D02*
Y288918D01*
X17500Y260481D02*
Y264418D01*
X15532Y262450D02*
X19469D01*
X18500Y301981D02*
Y305918D01*
X16532Y303950D02*
X20469D01*
X54000Y321481D02*
Y325418D01*
X52032Y323450D02*
X55969D01*
X89063Y293005D02*
X96937D01*
X89063Y274895D02*
X96937D01*
Y293005D01*
X89063Y274895D02*
Y293005D01*
X93000Y281981D02*
Y285918D01*
X91032Y283950D02*
X94969D01*
X382500Y42981D02*
Y46918D01*
X380531Y44950D02*
X384468D01*
X343000Y51481D02*
Y55418D01*
X341032Y53450D02*
X344969D01*
X352434Y231517D02*
Y235454D01*
X350466Y233485D02*
X354403D01*
X341000Y233481D02*
Y237418D01*
X339031Y235450D02*
X342969D01*
X370561Y221439D02*
Y225376D01*
X368593Y223408D02*
X372530D01*
X367032Y200950D02*
X370969D01*
X369000Y198981D02*
Y202918D01*
X368000Y274830D02*
Y278767D01*
X366032Y276798D02*
X369969D01*
X368000Y163032D02*
Y166969D01*
X366032Y165000D02*
X369969D01*
X345000Y216481D02*
Y220418D01*
X343032Y218450D02*
X346969D01*
X373555Y25013D02*
Y32887D01*
X355445Y25013D02*
Y32887D01*
Y25013D02*
X373555D01*
X355445Y32887D02*
X373555D01*
X362531Y28950D02*
X366469D01*
X364500Y26981D02*
Y30918D01*
X348000Y200981D02*
Y204918D01*
X346032Y202950D02*
X349969D01*
X347500Y32981D02*
Y36918D01*
X345532Y34950D02*
X349469D01*
X269630Y67950D02*
X273370D01*
X271500Y66080D02*
Y69820D01*
X278500Y254981D02*
Y258918D01*
X276532Y256950D02*
X280469D01*
X16000Y211481D02*
Y215418D01*
X14032Y213450D02*
X17969D01*
X10957Y233981D02*
Y237918D01*
X8988Y235950D02*
X12925D01*
X307031Y194950D02*
X310969D01*
X309000Y192981D02*
Y196918D01*
X315130Y171292D02*
X318870D01*
X317000Y169422D02*
Y173162D01*
X309130Y171292D02*
X312870D01*
X311000Y169422D02*
Y173162D01*
X303630Y171292D02*
X307370D01*
X305500Y169422D02*
Y173162D01*
X286532Y119950D02*
X290469D01*
X288500Y117981D02*
Y121918D01*
X282130Y149292D02*
X285870D01*
X284000Y147422D02*
Y151162D01*
X284032Y73450D02*
X287969D01*
X286000Y71481D02*
Y75418D01*
X272583Y78635D02*
X276323D01*
X274453Y76765D02*
Y80505D01*
D136*
X228579Y292292D02*
X228554Y293293D01*
X228479Y294292D01*
X228355Y295285D01*
X228181Y296271D01*
X227958Y297247D01*
X227687Y298211D01*
X227368Y299160D01*
X227002Y300092D01*
X226590Y301004D01*
X226134Y301895D01*
X225633Y302762D01*
X225090Y303603D01*
X224505Y304416D01*
X223881Y305199D01*
X223219Y305949D01*
X222520Y306666D01*
X221786Y307347D01*
X221019Y307991D01*
X220221Y308595D01*
X219394Y309159D01*
X218539Y309681D01*
X217660Y310160D01*
X216758Y310594D01*
X215836Y310983D01*
X214895Y311326D01*
X213938Y311621D01*
X212968Y311868D01*
X211987Y312066D01*
X210997Y312215D01*
X210000Y312315D01*
X209001Y312365D01*
X207999D01*
X206999Y312315D01*
X206003Y312215D01*
X205013Y312066D01*
X204032Y311868D01*
X203062Y311621D01*
X202105Y311326D01*
X201164Y310983D01*
X200242Y310594D01*
X199340Y310160D01*
X198461Y309681D01*
X197606Y309159D01*
X196779Y308595D01*
X195981Y307991D01*
X195214Y307347D01*
X194480Y306666D01*
X193781Y305949D01*
X193119Y305199D01*
X192495Y304416D01*
X191910Y303603D01*
X191367Y302762D01*
X190866Y301895D01*
X190410Y301004D01*
X189998Y300092D01*
X189632Y299160D01*
X189313Y298211D01*
X189042Y297247D01*
X188819Y296271D01*
X188646Y295285D01*
X188521Y294292D01*
X188446Y293293D01*
X188421Y292292D01*
X188446Y291291D01*
X188521Y290293D01*
X188646Y289300D01*
X188819Y288314D01*
X189042Y287338D01*
X189313Y286374D01*
X189632Y285425D01*
X189998Y284493D01*
X190410Y283580D01*
X190866Y282690D01*
X191367Y281823D01*
X191910Y280982D01*
X192495Y280169D01*
X193119Y279386D01*
X193781Y278635D01*
X194480Y277919D01*
X195214Y277238D01*
X195981Y276594D01*
X196779Y275990D01*
X197606Y275426D01*
X198461Y274904D01*
X199340Y274425D01*
X200242Y273991D01*
X201165Y273602D01*
X202105Y273259D01*
X203062Y272964D01*
X204032Y272717D01*
X205013Y272519D01*
X206003Y272369D01*
X207000Y272270D01*
X207999Y272220D01*
X209001D01*
X210000Y272270D01*
X210997Y272370D01*
X211987Y272519D01*
X212968Y272717D01*
X213938Y272964D01*
X214895Y273259D01*
X215836Y273602D01*
X216758Y273991D01*
X217660Y274425D01*
X218539Y274904D01*
X219394Y275426D01*
X220221Y275990D01*
X221019Y276594D01*
X221786Y277238D01*
X222520Y277919D01*
X223219Y278635D01*
X223881Y279386D01*
X224505Y280169D01*
X225090Y280982D01*
X225633Y281823D01*
X226134Y282690D01*
X226590Y283581D01*
X227002Y284493D01*
X227368Y285425D01*
X227687Y286374D01*
X227958Y287338D01*
X228181Y288314D01*
X228355Y289300D01*
X228479Y290293D01*
X228554Y291292D01*
X228579Y292292D01*
X144579Y292292D02*
X144554Y293293D01*
X144479Y294292D01*
X144354Y295285D01*
X144181Y296271D01*
X143958Y297247D01*
X143687Y298211D01*
X143368Y299160D01*
X143002Y300092D01*
X142590Y301004D01*
X142134Y301895D01*
X141633Y302762D01*
X141090Y303603D01*
X140505Y304416D01*
X139881Y305199D01*
X139219Y305949D01*
X138520Y306666D01*
X137786Y307347D01*
X137019Y307991D01*
X136221Y308595D01*
X135394Y309159D01*
X134539Y309681D01*
X133660Y310160D01*
X132758Y310594D01*
X131836Y310983D01*
X130895Y311326D01*
X129938Y311621D01*
X128968Y311868D01*
X127987Y312066D01*
X126997Y312215D01*
X126000Y312315D01*
X125001Y312365D01*
X123999D01*
X123000Y312315D01*
X122003Y312215D01*
X121013Y312066D01*
X120032Y311868D01*
X119062Y311621D01*
X118105Y311326D01*
X117164Y310983D01*
X116242Y310594D01*
X115340Y310160D01*
X114461Y309681D01*
X113606Y309159D01*
X112779Y308595D01*
X111981Y307991D01*
X111214Y307347D01*
X110480Y306666D01*
X109781Y305949D01*
X109119Y305199D01*
X108495Y304416D01*
X107910Y303603D01*
X107367Y302762D01*
X106866Y301895D01*
X106410Y301004D01*
X105998Y300092D01*
X105632Y299160D01*
X105313Y298211D01*
X105042Y297247D01*
X104819Y296271D01*
X104646Y295285D01*
X104521Y294292D01*
X104446Y293293D01*
X104421Y292292D01*
X104446Y291292D01*
X104521Y290293D01*
X104646Y289300D01*
X104819Y288314D01*
X105042Y287338D01*
X105313Y286374D01*
X105632Y285425D01*
X105998Y284493D01*
X106410Y283581D01*
X106866Y282690D01*
X107367Y281823D01*
X107910Y280982D01*
X108495Y280169D01*
X109119Y279386D01*
X109781Y278635D01*
X110480Y277919D01*
X111214Y277238D01*
X111981Y276594D01*
X112779Y275990D01*
X113606Y275426D01*
X114461Y274904D01*
X115340Y274425D01*
X116242Y273991D01*
X117165Y273602D01*
X118105Y273259D01*
X119062Y272964D01*
X120032Y272717D01*
X121013Y272519D01*
X122003Y272370D01*
X123000Y272270D01*
X124000Y272220D01*
X125001D01*
X126000Y272270D01*
X126997Y272370D01*
X127987Y272519D01*
X128968Y272717D01*
X129938Y272964D01*
X130895Y273259D01*
X131836Y273602D01*
X132758Y273991D01*
X133660Y274425D01*
X134539Y274904D01*
X135394Y275426D01*
X136221Y275990D01*
X137019Y276594D01*
X137786Y277238D01*
X138520Y277919D01*
X139219Y278636D01*
X139881Y279386D01*
X140506Y280169D01*
X141090Y280982D01*
X141633Y281823D01*
X142134Y282690D01*
X142590Y283581D01*
X143002Y284493D01*
X143368Y285425D01*
X143687Y286374D01*
X143958Y287338D01*
X144181Y288314D01*
X144354Y289300D01*
X144479Y290293D01*
X144554Y291292D01*
X144579Y292292D01*
X187736Y291450D02*
X187711Y292451D01*
X187636Y293449D01*
X187512Y294442D01*
X187338Y295428D01*
X187115Y296404D01*
X186844Y297368D01*
X186525Y298317D01*
X186160Y299249D01*
X185748Y300162D01*
X185291Y301053D01*
X184791Y301920D01*
X184247Y302761D01*
X183663Y303573D01*
X183039Y304356D01*
X182376Y305107D01*
X181677Y305823D01*
X180943Y306505D01*
X180176Y307148D01*
X179378Y307752D01*
X178551Y308316D01*
X177697Y308839D01*
X176818Y309317D01*
X175916Y309752D01*
X174993Y310141D01*
X174052Y310483D01*
X173096Y310778D01*
X172125Y311025D01*
X171144Y311224D01*
X170154Y311373D01*
X169158Y311472D01*
X168158Y311522D01*
X167157D01*
X166157Y311472D01*
X165161Y311373D01*
X164171Y311224D01*
X163190Y311025D01*
X162219Y310778D01*
X161263Y310483D01*
X160322Y310141D01*
X159399Y309752D01*
X158497Y309317D01*
X157618Y308839D01*
X156764Y308316D01*
X155937Y307752D01*
X155139Y307148D01*
X154372Y306505D01*
X153638Y305824D01*
X152939Y305107D01*
X152276Y304356D01*
X151652Y303573D01*
X151068Y302761D01*
X150524Y301920D01*
X150024Y301053D01*
X149567Y300162D01*
X149155Y299249D01*
X148790Y298317D01*
X148471Y297368D01*
X148200Y296404D01*
X147977Y295428D01*
X147803Y294442D01*
X147678Y293449D01*
X147604Y292451D01*
X147579Y291450D01*
X147604Y290449D01*
X147678Y289451D01*
X147803Y288457D01*
X147977Y287471D01*
X148200Y286495D01*
X148471Y285531D01*
X148790Y284582D01*
X149155Y283650D01*
X149567Y282738D01*
X150024Y281847D01*
X150524Y280980D01*
X151068Y280139D01*
X151652Y279326D01*
X152276Y278543D01*
X152939Y277793D01*
X153638Y277076D01*
X154372Y276395D01*
X155139Y275752D01*
X155937Y275147D01*
X156764Y274583D01*
X157618Y274061D01*
X158497Y273582D01*
X159399Y273148D01*
X160322Y272759D01*
X161263Y272417D01*
X162219Y272122D01*
X163190Y271874D01*
X164171Y271676D01*
X165161Y271527D01*
X166157Y271427D01*
X167157Y271377D01*
X168158D01*
X169158Y271427D01*
X170154Y271527D01*
X171144Y271676D01*
X172125Y271874D01*
X173096Y272122D01*
X174052Y272417D01*
X174993Y272759D01*
X175916Y273148D01*
X176818Y273582D01*
X177697Y274061D01*
X178551Y274583D01*
X179378Y275147D01*
X180176Y275752D01*
X180943Y276395D01*
X181677Y277076D01*
X182376Y277793D01*
X183039Y278543D01*
X183663Y279326D01*
X184247Y280139D01*
X184791Y280980D01*
X185291Y281847D01*
X185748Y282738D01*
X186160Y283651D01*
X186525Y284583D01*
X186844Y285532D01*
X187115Y286495D01*
X187338Y287471D01*
X187512Y288457D01*
X187636Y289451D01*
X187711Y290449D01*
X187736Y291450D01*
X255079Y322950D02*
X255054Y323951D01*
X254979Y324949D01*
X254854Y325942D01*
X254681Y326928D01*
X254458Y327904D01*
X254187Y328868D01*
X253868Y329817D01*
X253502Y330749D01*
X253090Y331662D01*
X252634Y332553D01*
X252133Y333420D01*
X251590Y334261D01*
X251005Y335073D01*
X250381Y335856D01*
X249719Y336607D01*
X249020Y337323D01*
X248286Y338004D01*
X247519Y338648D01*
X246721Y339252D01*
X245894Y339816D01*
X245039Y340338D01*
X244160Y340817D01*
X243258Y341252D01*
X242336Y341641D01*
X241395Y341983D01*
X240438Y342278D01*
X239468Y342525D01*
X238487Y342723D01*
X237497Y342873D01*
X236501Y342972D01*
X235501Y343022D01*
X234499D01*
X233500Y342972D01*
X232503Y342873D01*
X231513Y342723D01*
X230532Y342525D01*
X229562Y342278D01*
X228605Y341983D01*
X227664Y341641D01*
X226742Y341252D01*
X225840Y340817D01*
X224961Y340338D01*
X224106Y339816D01*
X223279Y339252D01*
X222481Y338648D01*
X221714Y338004D01*
X220980Y337324D01*
X220281Y336607D01*
X219619Y335856D01*
X218995Y335073D01*
X218410Y334261D01*
X217867Y333420D01*
X217366Y332553D01*
X216910Y331662D01*
X216498Y330749D01*
X216132Y329817D01*
X215813Y328868D01*
X215542Y327904D01*
X215319Y326928D01*
X215145Y325942D01*
X215021Y324949D01*
X214946Y323951D01*
X214921Y322950D01*
X214946Y321949D01*
X215021Y320951D01*
X215145Y319957D01*
X215319Y318971D01*
X215542Y317995D01*
X215813Y317032D01*
X216132Y316083D01*
X216498Y315150D01*
X216910Y314238D01*
X217366Y313347D01*
X217867Y312480D01*
X218410Y311639D01*
X218995Y310826D01*
X219619Y310043D01*
X220281Y309293D01*
X220980Y308576D01*
X221714Y307895D01*
X222481Y307252D01*
X223279Y306647D01*
X224106Y306083D01*
X224961Y305561D01*
X225840Y305082D01*
X226742Y304648D01*
X227664Y304259D01*
X228605Y303917D01*
X229562Y303622D01*
X230532Y303375D01*
X231513Y303176D01*
X232503Y303027D01*
X233500Y302927D01*
X234500Y302877D01*
X235501D01*
X236501Y302927D01*
X237497Y303027D01*
X238487Y303176D01*
X239468Y303375D01*
X240438Y303622D01*
X241395Y303917D01*
X242336Y304259D01*
X243258Y304648D01*
X244160Y305082D01*
X245039Y305561D01*
X245894Y306083D01*
X246721Y306647D01*
X247519Y307252D01*
X248286Y307895D01*
X249020Y308576D01*
X249719Y309293D01*
X250381Y310044D01*
X251006Y310826D01*
X251590Y311639D01*
X252133Y312480D01*
X252634Y313347D01*
X253090Y314238D01*
X253502Y315151D01*
X253868Y316083D01*
X254187Y317032D01*
X254458Y317995D01*
X254681Y318971D01*
X254854Y319957D01*
X254979Y320951D01*
X255054Y321949D01*
X255079Y322950D01*
X37579Y262450D02*
X37554Y263451D01*
X37479Y264449D01*
X37354Y265442D01*
X37181Y266428D01*
X36958Y267404D01*
X36687Y268368D01*
X36368Y269317D01*
X36002Y270249D01*
X35590Y271162D01*
X35134Y272053D01*
X34633Y272920D01*
X34090Y273761D01*
X33505Y274573D01*
X32881Y275356D01*
X32219Y276107D01*
X31520Y276823D01*
X30786Y277504D01*
X30019Y278148D01*
X29221Y278752D01*
X28394Y279316D01*
X27539Y279838D01*
X26660Y280317D01*
X25758Y280752D01*
X24836Y281141D01*
X23895Y281483D01*
X22938Y281778D01*
X21968Y282025D01*
X20987Y282224D01*
X19997Y282373D01*
X19001Y282472D01*
X18001Y282522D01*
X16999D01*
X16000Y282472D01*
X15003Y282373D01*
X14013Y282224D01*
X13032Y282025D01*
X12062Y281778D01*
X11105Y281483D01*
X10164Y281141D01*
X9242Y280752D01*
X8340Y280317D01*
X7461Y279838D01*
X6606Y279316D01*
X5779Y278752D01*
X4981Y278148D01*
X4214Y277504D01*
X3480Y276824D01*
X2781Y276107D01*
X2119Y275356D01*
X1495Y274573D01*
X910Y273761D01*
X367Y272920D01*
X-134Y272053D01*
X-590Y271162D01*
X-1002Y270249D01*
X-1368Y269317D01*
X-1687Y268368D01*
X-1958Y267404D01*
X-2181Y266428D01*
X-2355Y265442D01*
X-2479Y264449D01*
X-2554Y263451D01*
X-2579Y262450D01*
X-2554Y261449D01*
X-2479Y260451D01*
X-2355Y259457D01*
X-2181Y258471D01*
X-1958Y257495D01*
X-1687Y256532D01*
X-1368Y255582D01*
X-1002Y254650D01*
X-590Y253738D01*
X-134Y252847D01*
X367Y251980D01*
X910Y251139D01*
X1495Y250326D01*
X2119Y249543D01*
X2781Y248793D01*
X3480Y248076D01*
X4214Y247395D01*
X4981Y246752D01*
X5779Y246147D01*
X6606Y245583D01*
X7461Y245061D01*
X8340Y244582D01*
X9242Y244148D01*
X10164Y243759D01*
X11105Y243417D01*
X12062Y243122D01*
X13032Y242875D01*
X14013Y242676D01*
X15003Y242527D01*
X16000Y242427D01*
X16999Y242377D01*
X18001D01*
X19001Y242427D01*
X19997Y242527D01*
X20987Y242676D01*
X21968Y242875D01*
X22938Y243122D01*
X23895Y243417D01*
X24836Y243759D01*
X25758Y244148D01*
X26660Y244582D01*
X27539Y245061D01*
X28394Y245583D01*
X29221Y246147D01*
X30019Y246752D01*
X30786Y247395D01*
X31520Y248076D01*
X32219Y248793D01*
X32881Y249543D01*
X33505Y250326D01*
X34090Y251139D01*
X34633Y251980D01*
X35134Y252847D01*
X35590Y253738D01*
X36002Y254651D01*
X36368Y255583D01*
X36687Y256532D01*
X36958Y257495D01*
X37181Y258471D01*
X37354Y259457D01*
X37479Y260451D01*
X37554Y261449D01*
X37579Y262450D01*
X38579Y303950D02*
X38554Y304951D01*
X38479Y305949D01*
X38355Y306942D01*
X38181Y307928D01*
X37958Y308904D01*
X37687Y309868D01*
X37368Y310817D01*
X37002Y311749D01*
X36590Y312662D01*
X36134Y313553D01*
X35633Y314420D01*
X35090Y315261D01*
X34505Y316073D01*
X33881Y316856D01*
X33219Y317607D01*
X32520Y318323D01*
X31786Y319005D01*
X31019Y319648D01*
X30221Y320252D01*
X29394Y320816D01*
X28539Y321339D01*
X27660Y321817D01*
X26758Y322252D01*
X25836Y322641D01*
X24895Y322983D01*
X23938Y323278D01*
X22968Y323525D01*
X21987Y323724D01*
X20997Y323873D01*
X20000Y323972D01*
X19001Y324022D01*
X17999D01*
X16999Y323972D01*
X16003Y323873D01*
X15013Y323724D01*
X14032Y323525D01*
X13062Y323278D01*
X12105Y322983D01*
X11164Y322641D01*
X10242Y322252D01*
X9340Y321817D01*
X8461Y321339D01*
X7606Y320816D01*
X6779Y320252D01*
X5981Y319648D01*
X5214Y319005D01*
X4480Y318324D01*
X3781Y317607D01*
X3119Y316856D01*
X2495Y316073D01*
X1910Y315261D01*
X1367Y314420D01*
X866Y313553D01*
X410Y312662D01*
X-2Y311749D01*
X-368Y310817D01*
X-687Y309868D01*
X-958Y308904D01*
X-1181Y307928D01*
X-1354Y306942D01*
X-1479Y305949D01*
X-1554Y304951D01*
X-1579Y303950D01*
X-1554Y302949D01*
X-1479Y301951D01*
X-1354Y300957D01*
X-1181Y299971D01*
X-958Y298995D01*
X-687Y298031D01*
X-368Y297082D01*
X-2Y296150D01*
X410Y295238D01*
X866Y294347D01*
X1367Y293480D01*
X1910Y292639D01*
X2495Y291826D01*
X3119Y291043D01*
X3781Y290293D01*
X4480Y289576D01*
X5214Y288895D01*
X5981Y288252D01*
X6779Y287647D01*
X7606Y287083D01*
X8461Y286561D01*
X9340Y286082D01*
X10242Y285648D01*
X11164Y285259D01*
X12105Y284917D01*
X13062Y284622D01*
X14032Y284374D01*
X15013Y284176D01*
X16003Y284027D01*
X17000Y283927D01*
X18000Y283877D01*
X19001D01*
X20000Y283927D01*
X20997Y284027D01*
X21987Y284176D01*
X22968Y284374D01*
X23938Y284622D01*
X24895Y284917D01*
X25836Y285259D01*
X26758Y285648D01*
X27660Y286082D01*
X28539Y286561D01*
X29394Y287083D01*
X30221Y287647D01*
X31019Y288252D01*
X31786Y288895D01*
X32520Y289576D01*
X33219Y290293D01*
X33881Y291043D01*
X34506Y291826D01*
X35090Y292639D01*
X35633Y293480D01*
X36134Y294347D01*
X36590Y295238D01*
X37002Y296151D01*
X37368Y297083D01*
X37687Y298032D01*
X37958Y298995D01*
X38181Y299971D01*
X38355Y300957D01*
X38479Y301951D01*
X38554Y302949D01*
X38579Y303950D01*
X74079Y323450D02*
X74054Y324451D01*
X73979Y325449D01*
X73855Y326442D01*
X73681Y327428D01*
X73458Y328404D01*
X73187Y329368D01*
X72868Y330317D01*
X72502Y331249D01*
X72090Y332162D01*
X71634Y333053D01*
X71133Y333920D01*
X70590Y334761D01*
X70005Y335574D01*
X69381Y336356D01*
X68719Y337107D01*
X68020Y337824D01*
X67286Y338505D01*
X66519Y339148D01*
X65721Y339753D01*
X64894Y340317D01*
X64039Y340839D01*
X63160Y341317D01*
X62258Y341752D01*
X61336Y342141D01*
X60395Y342483D01*
X59438Y342778D01*
X58468Y343025D01*
X57487Y343224D01*
X56497Y343373D01*
X55501Y343472D01*
X54501Y343522D01*
X53499D01*
X52500Y343472D01*
X51503Y343373D01*
X50513Y343224D01*
X49532Y343025D01*
X48562Y342778D01*
X47605Y342483D01*
X46664Y342141D01*
X45742Y341752D01*
X44840Y341317D01*
X43961Y340839D01*
X43106Y340317D01*
X42279Y339753D01*
X41481Y339148D01*
X40714Y338505D01*
X39980Y337824D01*
X39281Y337107D01*
X38619Y336356D01*
X37995Y335574D01*
X37410Y334761D01*
X36867Y333920D01*
X36366Y333053D01*
X35910Y332162D01*
X35498Y331249D01*
X35132Y330317D01*
X34813Y329368D01*
X34542Y328404D01*
X34319Y327428D01*
X34146Y326442D01*
X34021Y325449D01*
X33946Y324451D01*
X33921Y323450D01*
X33946Y322449D01*
X34021Y321451D01*
X34146Y320457D01*
X34319Y319471D01*
X34542Y318495D01*
X34813Y317531D01*
X35132Y316582D01*
X35498Y315651D01*
X35910Y314738D01*
X36366Y313847D01*
X36867Y312980D01*
X37410Y312139D01*
X37995Y311326D01*
X38619Y310543D01*
X39281Y309793D01*
X39980Y309076D01*
X40714Y308395D01*
X41481Y307752D01*
X42279Y307147D01*
X43106Y306583D01*
X43961Y306061D01*
X44840Y305582D01*
X45742Y305148D01*
X46664Y304759D01*
X47605Y304417D01*
X48562Y304121D01*
X49532Y303874D01*
X50513Y303676D01*
X51503Y303527D01*
X52500Y303427D01*
X53500Y303377D01*
X54501D01*
X55501Y303427D01*
X56497Y303527D01*
X57487Y303676D01*
X58468Y303874D01*
X59438Y304122D01*
X60395Y304417D01*
X61336Y304759D01*
X62258Y305148D01*
X63160Y305582D01*
X64039Y306061D01*
X64894Y306583D01*
X65721Y307147D01*
X66519Y307752D01*
X67286Y308395D01*
X68020Y309076D01*
X68719Y309793D01*
X69381Y310543D01*
X70006Y311326D01*
X70590Y312139D01*
X71133Y312980D01*
X71634Y313847D01*
X72090Y314738D01*
X72502Y315651D01*
X72868Y316583D01*
X73187Y317532D01*
X73458Y318495D01*
X73681Y319471D01*
X73855Y320457D01*
X73979Y321451D01*
X74054Y322449D01*
X74079Y323450D01*
X259736Y7355D02*
Y45544D01*
X339264Y7355D02*
Y45544D01*
X259736Y7355D02*
X339264D01*
X259736Y45544D02*
X339264D01*
X38319Y6162D02*
Y270729D01*
Y6162D02*
X258791D01*
Y270729D01*
X38319D02*
X258791D01*
X287028Y284903D02*
X297657D01*
X287028Y278997D02*
X297657D01*
X287028D02*
Y284903D01*
X297657Y278997D02*
Y284903D01*
X283535Y280568D02*
X300465D01*
X283535Y270332D02*
X300465D01*
X283535D02*
Y280568D01*
X300465Y270332D02*
Y280568D01*
X316185Y214997D02*
X326815D01*
X316185Y220903D02*
X326815D01*
Y214997D02*
Y220903D01*
X316185Y214997D02*
Y220903D01*
X269118Y223985D02*
Y240914D01*
X258882Y223985D02*
Y240914D01*
X269118D01*
X258882Y223985D02*
X269118D01*
X259547Y202635D02*
Y213265D01*
X265453Y202635D02*
Y213265D01*
X259547Y202635D02*
X265453D01*
X259547Y213265D02*
X265453D01*
X100382Y320414D02*
X110618D01*
X100382Y303485D02*
X110618D01*
Y320414D01*
X100382Y303485D02*
Y320414D01*
X98618Y303485D02*
Y320414D01*
X88382Y303485D02*
Y320414D01*
X98618D01*
X88382Y303485D02*
X98618D01*
X131807Y320387D02*
X145193D01*
X131807Y312513D02*
X145193D01*
X131807D02*
Y320387D01*
X145193Y312513D02*
Y320387D01*
X145036Y311332D02*
X161964D01*
X145036Y321568D02*
X161964D01*
Y311332D02*
Y321568D01*
X145036Y311332D02*
Y321568D01*
X118457Y321273D02*
Y340564D01*
X75543Y321273D02*
Y340564D01*
Y321273D02*
X118457D01*
X75543Y340564D02*
X118457D01*
X212437Y317320D02*
Y338580D01*
X179563Y317320D02*
Y338580D01*
Y317320D02*
X212437D01*
X179563Y338580D02*
X212437D01*
X85437Y304257D02*
Y317643D01*
X77563Y304257D02*
Y317643D01*
X85437D01*
X77563Y304257D02*
X85437D01*
X84937Y271757D02*
Y285143D01*
X77063Y271757D02*
Y285143D01*
X84937D01*
X77063Y271757D02*
X84937D01*
X38102Y271792D02*
Y302107D01*
X75898Y271792D02*
Y302107D01*
X38102D02*
X75898D01*
X38102Y271792D02*
X75898D01*
X377579Y36682D02*
X387421D01*
X377579Y53218D02*
X387421D01*
X377579Y36682D02*
Y53218D01*
X387421Y36682D02*
Y53218D01*
X347316Y241950D02*
X357552D01*
X347316Y225021D02*
X357552D01*
Y241950D01*
X347316Y225021D02*
Y241950D01*
X335882Y226985D02*
X346118D01*
X335882Y243915D02*
X346118D01*
X335882Y226985D02*
Y243915D01*
X346118Y226985D02*
Y243915D01*
X358750Y239746D02*
X382372D01*
X358750Y207069D02*
X382372D01*
Y239746D01*
X358750Y207069D02*
Y239746D01*
X377268Y196029D02*
Y205871D01*
X360732Y196029D02*
Y205871D01*
Y196029D02*
X377268D01*
X360732Y205871D02*
X377268D01*
X338866Y247467D02*
Y306129D01*
X478827D01*
Y247467D02*
Y306129D01*
X338866Y247467D02*
X478827D01*
X338866Y135669D02*
Y194331D01*
X478827D01*
Y135669D02*
Y194331D01*
X338866Y135669D02*
X478827D01*
X268740Y307327D02*
X351260D01*
X268740D02*
Y344925D01*
X351260D01*
Y307327D02*
Y344925D01*
X308032Y326421D02*
X311969D01*
X310000Y324453D02*
Y328390D01*
X341063Y211757D02*
X348937D01*
X341063Y225143D02*
X348937D01*
X341063Y211757D02*
Y225143D01*
X348937Y211757D02*
Y225143D01*
X344063Y209643D02*
X351937D01*
X344063Y196257D02*
X351937D01*
Y209643D01*
X344063Y196257D02*
Y209643D01*
X343563Y41643D02*
X351437D01*
X343563Y28257D02*
X351437D01*
Y41643D01*
X343563Y28257D02*
Y41643D01*
X268547Y62635D02*
Y73265D01*
X274453Y62635D02*
Y73265D01*
X268547Y62635D02*
X274453D01*
X268547Y73265D02*
X274453D01*
X267870Y240513D02*
X289130D01*
X267870Y273387D02*
X289130D01*
X267870Y240513D02*
Y273387D01*
X289130Y240513D02*
Y273387D01*
X1827Y230576D02*
X30173D01*
X1827Y196324D02*
X30173D01*
Y230576D01*
X1827Y196324D02*
Y230576D01*
X15531Y157950D02*
X19468D01*
X17500Y155981D02*
Y159918D01*
X33051Y135115D02*
Y180784D01*
X1949Y135115D02*
X33051D01*
X1949D02*
Y180784D01*
X33051D01*
X2492Y241068D02*
X19421D01*
X2492Y230832D02*
X19421D01*
X2492D02*
Y241068D01*
X19421Y230832D02*
Y241068D01*
X322976Y179399D02*
Y210501D01*
X295024Y179399D02*
Y210501D01*
X322976D01*
X295024Y179399D02*
X322976D01*
X319953Y165977D02*
Y176607D01*
X314047Y165977D02*
Y176607D01*
X319953D01*
X314047Y165977D02*
X319953D01*
X313953D02*
Y176607D01*
X308047Y165977D02*
Y176607D01*
X313953D01*
X308047Y165977D02*
X313953D01*
X308453D02*
Y176607D01*
X302547Y165977D02*
Y176607D01*
X308453D01*
X302547Y165977D02*
X308453D01*
X286953Y143977D02*
Y154607D01*
X281047Y143977D02*
Y154607D01*
X286953D01*
X281047Y143977D02*
X286953D01*
X280488Y61639D02*
Y85261D01*
X291512Y61639D02*
Y85261D01*
X280488Y61639D02*
X291512D01*
X280488Y85261D02*
X291512D01*
X277406Y73320D02*
Y83950D01*
X271500Y73320D02*
Y83950D01*
X277406D01*
X271500Y73320D02*
X277406D01*
M02*
