G04*
G04 #@! TF.GenerationSoftware,Altium Limited,Altium Designer,20.1.14 (287)*
G04*
G04 Layer_Physical_Order=2*
G04 Layer_Color=32768*
%FSLAX25Y25*%
%MOIN*%
G70*
G04*
G04 #@! TF.SameCoordinates,DD9DAAA6-87D7-4B0E-BF1D-CD2AD6DAE19A*
G04*
G04*
G04 #@! TF.FilePolarity,Negative*
G04*
G01*
G75*
%ADD114C,0.04000*%
G04:AMPARAMS|DCode=115|XSize=67.055mil|YSize=67.055mil|CornerRadius=0mil|HoleSize=0mil|Usage=FLASHONLY|Rotation=0.000|XOffset=0mil|YOffset=0mil|HoleType=Round|Shape=Relief|Width=4mil|Gap=4mil|Entries=4|*
%AMTHD115*
7,0,0,0.06706,0.05906,0.00400,45*
%
%ADD115THD115*%
%ADD116C,0.04343*%
%ADD117C,0.07729*%
%ADD118C,0.15761*%
G04:AMPARAMS|DCode=119|XSize=100.913mil|YSize=100.913mil|CornerRadius=0mil|HoleSize=0mil|Usage=FLASHONLY|Rotation=0.000|XOffset=0mil|YOffset=0mil|HoleType=Round|Shape=Relief|Width=4mil|Gap=4mil|Entries=4|*
%AMTHD119*
7,0,0,0.10091,0.09291,0.00400,45*
%
%ADD119THD119*%
G04:AMPARAMS|DCode=120|XSize=70.992mil|YSize=70.992mil|CornerRadius=0mil|HoleSize=0mil|Usage=FLASHONLY|Rotation=0.000|XOffset=0mil|YOffset=0mil|HoleType=Round|Shape=Relief|Width=4mil|Gap=4mil|Entries=4|*
%AMTHD120*
7,0,0,0.07099,0.06299,0.00400,45*
%
%ADD120THD120*%
%ADD121C,0.04737*%
%ADD122C,0.06115*%
G04:AMPARAMS|DCode=123|XSize=84.772mil|YSize=84.772mil|CornerRadius=0mil|HoleSize=0mil|Usage=FLASHONLY|Rotation=0.000|XOffset=0mil|YOffset=0mil|HoleType=Round|Shape=Relief|Width=4mil|Gap=4mil|Entries=4|*
%AMTHD123*
7,0,0,0.08477,0.07677,0.00400,45*
%
%ADD123THD123*%
G04:AMPARAMS|DCode=124|XSize=65.087mil|YSize=65.087mil|CornerRadius=0mil|HoleSize=0mil|Usage=FLASHONLY|Rotation=0.000|XOffset=0mil|YOffset=0mil|HoleType=Round|Shape=Relief|Width=4mil|Gap=4mil|Entries=4|*
%AMTHD124*
7,0,0,0.06509,0.05709,0.00400,45*
%
%ADD124THD124*%
%ADD125C,0.04147*%
%ADD126C,0.04343*%
%ADD127C,0.08713*%
%ADD128C,0.04304*%
%ADD129C,0.05131*%
G04:AMPARAMS|DCode=130|XSize=74.929mil|YSize=74.929mil|CornerRadius=0mil|HoleSize=0mil|Usage=FLASHONLY|Rotation=0.000|XOffset=0mil|YOffset=0mil|HoleType=Round|Shape=Relief|Width=4mil|Gap=4mil|Entries=4|*
%AMTHD130*
7,0,0,0.07493,0.06693,0.00400,45*
%
%ADD130THD130*%
%ADD131C,0.05918*%
%ADD132C,0.13398*%
%ADD133C,0.02572*%
G36*
X1562Y189450D02*
X34500Y189450D01*
X62500Y217450D01*
X75500Y217450D01*
X75500Y54514D01*
X41500Y25450D01*
X3000D01*
X0Y176950D01*
X1562Y189450D01*
D02*
G37*
D114*
X0Y-50D02*
Y344450D01*
X386500D01*
Y-50D02*
Y344450D01*
X0Y-50D02*
X386500D01*
D115*
X208500Y282450D02*
D03*
X265000Y49450D02*
D03*
X124500Y282450D02*
D03*
X167657Y281607D02*
D03*
X235000Y332792D02*
D03*
X261000Y297450D02*
D03*
X17500Y272292D02*
D03*
X18500Y294107D02*
D03*
X54000Y313607D02*
D03*
X370000Y120272D02*
D03*
X333000Y126950D02*
D03*
X303500Y134950D02*
D03*
D116*
X208500Y302135D02*
D03*
X305000Y49450D02*
D03*
X295000D02*
D03*
X285000D02*
D03*
X275000D02*
D03*
X269500Y11450D02*
D03*
X279500D02*
D03*
X289500D02*
D03*
X299500D02*
D03*
X309500D02*
D03*
X319500D02*
D03*
X329500D02*
D03*
X269500Y41450D02*
D03*
X279500D02*
D03*
X289500D02*
D03*
X299500D02*
D03*
X309500D02*
D03*
X319500D02*
D03*
X329500D02*
D03*
X267000Y92950D02*
D03*
X277000D02*
D03*
X287000D02*
D03*
X330500Y189450D02*
D03*
Y199450D02*
D03*
Y209450D02*
D03*
X124500Y302135D02*
D03*
X167657Y301292D02*
D03*
X235000Y313107D02*
D03*
X261000Y337450D02*
D03*
Y327450D02*
D03*
Y317450D02*
D03*
Y307450D02*
D03*
X17500Y252607D02*
D03*
X18500Y313792D02*
D03*
X54000Y333292D02*
D03*
X348000Y53450D02*
D03*
X338000D02*
D03*
X370000Y50272D02*
D03*
X360000D02*
D03*
X370000Y60272D02*
D03*
X360000D02*
D03*
X370000Y70272D02*
D03*
X360000D02*
D03*
X370000Y80272D02*
D03*
X360000D02*
D03*
X370000Y90272D02*
D03*
X360000D02*
D03*
X370000Y100272D02*
D03*
X360000D02*
D03*
X370000Y110272D02*
D03*
X360000D02*
D03*
Y120272D02*
D03*
X333000Y116950D02*
D03*
X284000Y183950D02*
D03*
Y173950D02*
D03*
Y163950D02*
D03*
X265500Y183950D02*
D03*
Y173950D02*
D03*
Y163950D02*
D03*
X273500Y104950D02*
D03*
X316500Y108392D02*
D03*
Y118392D02*
D03*
Y128392D02*
D03*
X293500Y134950D02*
D03*
X283500D02*
D03*
X273500D02*
D03*
X303500Y104950D02*
D03*
X293500D02*
D03*
X283500D02*
D03*
D117*
X64500Y206950D02*
D03*
X232610D02*
D03*
X64500Y152225D02*
D03*
Y124666D02*
D03*
X232610Y152225D02*
D03*
Y124666D02*
D03*
Y69942D02*
D03*
X64500D02*
D03*
X232610Y97107D02*
D03*
D118*
X61154Y29194D02*
D03*
X235957D02*
D03*
Y247698D02*
D03*
X61154D02*
D03*
D119*
X232610Y179784D02*
D03*
D120*
X87000Y328950D02*
D03*
D121*
X97000D02*
D03*
X107000D02*
D03*
D122*
X155480Y328324D02*
D03*
X135520D02*
D03*
D123*
X145500D02*
D03*
D124*
X325000Y67950D02*
D03*
X282500Y206450D02*
D03*
D125*
X325000Y97950D02*
D03*
X323500Y289950D02*
D03*
X293500D02*
D03*
X293500Y300450D02*
D03*
X323500D02*
D03*
X315167Y97950D02*
D03*
Y67950D02*
D03*
X306333D02*
D03*
Y97950D02*
D03*
X273000Y206450D02*
D03*
Y236450D02*
D03*
X282500D02*
D03*
X297500Y97950D02*
D03*
Y67950D02*
D03*
D126*
X343000Y53450D02*
D03*
D127*
X368000Y296798D02*
D03*
Y256798D02*
D03*
Y185000D02*
D03*
Y145000D02*
D03*
D128*
X348000Y286798D02*
D03*
Y276798D02*
D03*
Y175000D02*
D03*
Y165000D02*
D03*
D129*
X330000Y331421D02*
D03*
Y321421D02*
D03*
X320000D02*
D03*
X310000D02*
D03*
X300000Y331421D02*
D03*
X290000D02*
D03*
X300000Y321421D02*
D03*
X290000D02*
D03*
D130*
X320000Y331421D02*
D03*
X310000D02*
D03*
D131*
X15728Y148107D02*
D03*
Y167792D02*
D03*
X17500Y125792D02*
D03*
Y106107D02*
D03*
Y53950D02*
D03*
Y34265D02*
D03*
D132*
X9843Y334595D02*
D03*
X251969Y281446D02*
D03*
X362205Y13729D02*
D03*
Y334595D02*
D03*
X9843Y13729D02*
D03*
D133*
X370500Y247000D02*
D03*
X341500Y74500D02*
D03*
X332500Y240000D02*
D03*
X314000Y265000D02*
D03*
X309500Y212500D02*
D03*
X306500Y264950D02*
D03*
X306000Y211950D02*
D03*
X315000Y217950D02*
D03*
X352500Y220450D02*
D03*
X292000Y79450D02*
D03*
X320500Y198450D02*
D03*
X316500Y199450D02*
D03*
X328000Y225950D02*
D03*
X301000Y175950D02*
D03*
X300000Y171347D02*
D03*
X321000Y160950D02*
D03*
X316500Y141950D02*
D03*
X330000Y146450D02*
D03*
X359500Y206450D02*
D03*
X214000Y315950D02*
D03*
X262500Y198450D02*
D03*
X272500Y227450D02*
D03*
X309500Y240950D02*
D03*
X275000Y127681D02*
D03*
X295500Y265950D02*
D03*
X329000Y257950D02*
D03*
X115000Y306450D02*
D03*
X35000Y278950D02*
D03*
X5000Y193950D02*
D03*
X214580Y323870D02*
D03*
X277000Y64950D02*
D03*
X278000Y242950D02*
D03*
X355500Y320450D02*
D03*
X371500Y205950D02*
D03*
X264000Y244950D02*
D03*
X317500Y177950D02*
D03*
X302500Y267950D02*
D03*
M02*
