G04*
G04 #@! TF.GenerationSoftware,Altium Limited,Altium Designer,20.1.14 (287)*
G04*
G04 Layer_Color=16711935*
%FSLAX25Y25*%
%MOIN*%
G70*
G04*
G04 #@! TF.SameCoordinates,DD9DAAA6-87D7-4B0E-BF1D-CD2AD6DAE19A*
G04*
G04*
G04 #@! TF.FilePolarity,Positive*
G04*
G01*
G75*
%ADD16C,0.00591*%
%ADD17C,0.00394*%
%ADD19C,0.00600*%
D16*
X300255Y38450D02*
X297959D01*
X297500Y37991D01*
Y37072D01*
X297959Y36613D01*
X300255D01*
X299796Y35695D02*
X300255Y35236D01*
Y34317D01*
X299796Y33858D01*
X299337D01*
X298878Y34317D01*
Y34776D01*
Y34317D01*
X298418Y33858D01*
X297959D01*
X297500Y34317D01*
Y35236D01*
X297959Y35695D01*
D17*
X372316Y228907D02*
X370020D01*
X369561Y228448D01*
Y227530D01*
X370020Y227071D01*
X372316D01*
X369561Y224316D02*
Y226152D01*
X371398Y224316D01*
X371857D01*
X372316Y224775D01*
Y225693D01*
X371857Y226152D01*
D19*
X91000Y329705D02*
Y327409D01*
X91459Y326950D01*
X92378D01*
X92837Y327409D01*
Y329705D01*
X93755Y329246D02*
X94214Y329705D01*
X95132D01*
X95592Y329246D01*
Y328786D01*
X95132Y328327D01*
X95592Y327868D01*
Y327409D01*
X95132Y326950D01*
X94214D01*
X93755Y327409D01*
Y327868D01*
X94214Y328327D01*
X93755Y328786D01*
Y329246D01*
X94214Y328327D02*
X95132D01*
M02*
